<?xml version="1.0" encoding="utf-8"?>
<!-- Generator: Adobe Illustrator 27.5.0, SVG Export Plug-In . SVG Version: 6.00 Build 0)  -->
<!DOCTYPE svg PUBLIC "-//W3C//DTD SVG 1.1//EN" "http://www.w3.org/Graphics/SVG/1.1/DTD/svg11.dtd" [
	<!ENTITY ns_extend "http://ns.adobe.com/Extensibility/1.0/">
	<!ENTITY ns_ai "http://ns.adobe.com/AdobeIllustrator/10.0/">
	<!ENTITY ns_graphs "http://ns.adobe.com/Graphs/1.0/">
	<!ENTITY ns_vars "http://ns.adobe.com/Variables/1.0/">
	<!ENTITY ns_imrep "http://ns.adobe.com/ImageReplacement/1.0/">
	<!ENTITY ns_sfw "http://ns.adobe.com/SaveForWeb/1.0/">
	<!ENTITY ns_custom "http://ns.adobe.com/GenericCustomNamespace/1.0/">
	<!ENTITY ns_adobe_xpath "http://ns.adobe.com/XPath/1.0/">
]>
<svg version="1.1" id="Warstwa_1" xmlns:x="&ns_extend;" xmlns:i="&ns_ai;" xmlns:graph="&ns_graphs;"
	 xmlns="http://www.w3.org/2000/svg" xmlns:xlink="http://www.w3.org/1999/xlink" x="0px" y="0px" viewBox="0 0 48 48"
	 style="enable-background:new 0 0 48 48;" xml:space="preserve">
<style type="text/css">
	.st0{fill:#134881;}
	.st1{fill:url(#SVGID_1_);}
</style>
<metadata>
	<sfw  xmlns="&ns_sfw;">
		<slices></slices>
		<sliceSourceBounds  bottomLeftOrigin="true" height="48" width="48" x="0" y="-48"></sliceSourceBounds>
	</sfw>
</metadata>
<g>
	<path class="st0" d="M48,4.7C48,2.1,45.9,0,43.3,0H4.7C2.1,0,0,2.1,0,4.7v38.6C0,45.9,2.1,48,4.7,48h38.6c2.6,0,4.7-2.1,4.7-4.7
		V4.7z"/>
	
		<radialGradient id="SVGID_1_" cx="-104.1509" cy="-210.1241" r="0.3977" gradientTransform="matrix(122.3514 0 0 122.3514 12777.8535 25704.7637)" gradientUnits="userSpaceOnUse">
		<stop  offset="0" style="stop-color:#6BE1FB"/>
		<stop  offset="1" style="stop-color:#38BDFA"/>
	</radialGradient>
	<path class="st1" d="M44.5,42.6c0,1-0.8,1.9-1.9,1.9H23.7l-8.1-14h28.9V42.6L44.5,42.6z M3.5,42.6v-8.2L21.3,3.5h7L13.2,29.6
		l8.6,14.9H5.4C4.4,44.5,3.5,43.6,3.5,42.6z M26.4,28.9h-7c-0.8,0-1.5-0.4-1.9-1.1c-0.4-0.7-0.4-1.5,0-2.2l3.5-6.1L26.4,28.9z
		 M42.6,3.5c1,0,1.9,0.8,1.9,1.9v23.5H28.2l-6.3-11l8.3-14.4C30.1,3.5,42.6,3.5,42.6,3.5z"/>
</g>
</svg>
