<?xml version="1.0" encoding="utf-8"?>
<!-- Generator: Adobe Illustrator 27.5.0, SVG Export Plug-In . SVG Version: 6.00 Build 0)  -->
<!DOCTYPE svg PUBLIC "-//W3C//DTD SVG 1.1//EN" "http://www.w3.org/Graphics/SVG/1.1/DTD/svg11.dtd" [
	<!ENTITY ns_extend "http://ns.adobe.com/Extensibility/1.0/">
	<!ENTITY ns_ai "http://ns.adobe.com/AdobeIllustrator/10.0/">
	<!ENTITY ns_graphs "http://ns.adobe.com/Graphs/1.0/">
	<!ENTITY ns_vars "http://ns.adobe.com/Variables/1.0/">
	<!ENTITY ns_imrep "http://ns.adobe.com/ImageReplacement/1.0/">
	<!ENTITY ns_sfw "http://ns.adobe.com/SaveForWeb/1.0/">
	<!ENTITY ns_custom "http://ns.adobe.com/GenericCustomNamespace/1.0/">
	<!ENTITY ns_adobe_xpath "http://ns.adobe.com/XPath/1.0/">
]>
<svg version="1.1" id="Warstwa_1" xmlns:x="&ns_extend;" xmlns:i="&ns_ai;" xmlns:graph="&ns_graphs;"
	 xmlns="http://www.w3.org/2000/svg" xmlns:xlink="http://www.w3.org/1999/xlink" x="0px" y="0px" viewBox="0 0 48 48"
	 style="enable-background:new 0 0 48 48;" xml:space="preserve">
<style type="text/css">
	.st0{fill-rule:evenodd;clip-rule:evenodd;fill:#4E3188;}
	.st1{fill-rule:evenodd;clip-rule:evenodd;fill:url(#SVGID_1_);}
</style>
<metadata>
	<sfw  xmlns="&ns_sfw;">
		<slices></slices>
		<sliceSourceBounds  bottomLeftOrigin="true" height="48" width="48" x="0" y="-48"></sliceSourceBounds>
	</sfw>
</metadata>
<g>
	<path class="st0" d="M48,4.7C48,2.1,45.9,0,43.3,0H4.7C2.1,0,0,2.1,0,4.7v38.6C0,45.9,2.1,48,4.7,48h38.6c2.6,0,4.7-2.1,4.7-4.7
		V4.7z"/>
	
		<radialGradient id="SVGID_1_" cx="0.317" cy="48.919" r="4.687536e-02" gradientTransform="matrix(1038.2421 0 0 -1038.25 -294.2613 50785.9922)" gradientUnits="userSpaceOnUse">
		<stop  offset="0" style="stop-color:#F9A6FF"/>
		<stop  offset="1" style="stop-color:#EA73FF"/>
	</radialGradient>
	<path class="st1" d="M44.5,30.5v12.1c0,1-0.8,1.9-1.8,1.9l-12.4,0l-8.1-14L44.5,30.5L44.5,30.5z M28.4,44.5H6.5l11-19L28.4,44.5z
		 M4.7,44.4c-0.7-0.3-1.1-0.9-1.2-1.6l0-8.4l8.9-15.4h7L4.7,44.4L4.7,44.4z M25.8,18.9c0.6,0,1.2,0.4,1.5,0.9c0,0,0,0,0,0l1.8,3.2
		l0,0c0.3,0.5,0.3,1.2,0,1.7c-0.6,1.1-1.2,2.2-1.9,3.2c-0.3,0.5-0.9,0.9-1.5,0.9c-1.2,0-3.5,0-3.5,0c-0.6,0-1.2-0.3-1.5-0.9
		c0,0,0,0,0,0s-1.8-3.2-1.8-3.2c-0.3-0.5-0.3-1.2,0-1.7c0,0,0,0,0,0s1.2-2.1,1.9-3.2c0.3-0.5,0.9-0.9,1.5-0.9c0,0,0,0,0,0L25.8,18.9
		L25.8,18.9L25.8,18.9z M43.2,3.6L28.6,28.9h15.9V5.4C44.5,4.6,44,3.9,43.2,3.6L43.2,3.6z M21.3,3.5h20.1L30.6,22.3l-10-17.4
		L21.3,3.5z M25.9,17.4H13.4l6.3-10.8L25.9,17.4L25.9,17.4z"/>
</g>
</svg>
