<?xml version="1.0" encoding="utf-8"?>
<!-- Generator: Adobe Illustrator 27.5.0, SVG Export Plug-In . SVG Version: 6.00 Build 0)  -->
<!DOCTYPE svg PUBLIC "-//W3C//DTD SVG 1.1//EN" "http://www.w3.org/Graphics/SVG/1.1/DTD/svg11.dtd" [
	<!ENTITY ns_extend "http://ns.adobe.com/Extensibility/1.0/">
	<!ENTITY ns_ai "http://ns.adobe.com/AdobeIllustrator/10.0/">
	<!ENTITY ns_graphs "http://ns.adobe.com/Graphs/1.0/">
	<!ENTITY ns_vars "http://ns.adobe.com/Variables/1.0/">
	<!ENTITY ns_imrep "http://ns.adobe.com/ImageReplacement/1.0/">
	<!ENTITY ns_sfw "http://ns.adobe.com/SaveForWeb/1.0/">
	<!ENTITY ns_custom "http://ns.adobe.com/GenericCustomNamespace/1.0/">
	<!ENTITY ns_adobe_xpath "http://ns.adobe.com/XPath/1.0/">
]>
<svg version="1.1" id="Warstwa_1" xmlns:x="&ns_extend;" xmlns:i="&ns_ai;" xmlns:graph="&ns_graphs;"
	 xmlns="http://www.w3.org/2000/svg" xmlns:xlink="http://www.w3.org/1999/xlink" x="0px" y="0px" viewBox="0 0 48 48"
	 style="enable-background:new 0 0 48 48;" xml:space="preserve">
<style type="text/css">
	.st0{fill:#FFCA28;}
	.st1{fill-rule:evenodd;clip-rule:evenodd;fill:#FFFFFF;}
</style>
<metadata>
	<sfw  xmlns="&ns_sfw;">
		<slices></slices>
		<sliceSourceBounds  bottomLeftOrigin="true" height="48" width="48" x="0" y="0"></sliceSourceBounds>
	</sfw>
</metadata>
<path class="st0" d="M43.2,48H4.8C2.2,48,0,45.8,0,43.2V4.8C0,2.2,2.2,0,4.8,0h38.3C45.8,0,48,2.2,48,4.8v38.3
	C48,45.8,45.8,48,43.2,48z"/>
<g>
	<path id="path-2_00000129908576007627935860000018178170355605568177_" class="st1" d="M34.9,12.9c-0.1-0.3-0.3-0.6-0.6-0.7
		s-0.7,0-0.9,0.2l-4.7,4.7l-3.8-7.1c-0.2-0.3-0.5-0.5-0.8-0.5s-0.7,0.2-0.8,0.5l-2,3.9L16,4.5c-0.4-0.8-1.6-0.6-1.7,0.3l-5,31.5
		l13.3,7.4c0.8,0.5,1.8,0.5,2.7,0l13.4-7.4L34.9,12.9z"/>
</g>
</svg>
