<?xml version="1.0" encoding="utf-8"?>
<!-- Generator: Adobe Illustrator 27.5.0, SVG Export Plug-In . SVG Version: 6.00 Build 0)  -->
<!DOCTYPE svg PUBLIC "-//W3C//DTD SVG 1.1//EN" "http://www.w3.org/Graphics/SVG/1.1/DTD/svg11.dtd" [
	<!ENTITY ns_extend "http://ns.adobe.com/Extensibility/1.0/">
	<!ENTITY ns_ai "http://ns.adobe.com/AdobeIllustrator/10.0/">
	<!ENTITY ns_graphs "http://ns.adobe.com/Graphs/1.0/">
	<!ENTITY ns_vars "http://ns.adobe.com/Variables/1.0/">
	<!ENTITY ns_imrep "http://ns.adobe.com/ImageReplacement/1.0/">
	<!ENTITY ns_sfw "http://ns.adobe.com/SaveForWeb/1.0/">
	<!ENTITY ns_custom "http://ns.adobe.com/GenericCustomNamespace/1.0/">
	<!ENTITY ns_adobe_xpath "http://ns.adobe.com/XPath/1.0/">
]>
<svg version="1.1" id="Warstwa_1" xmlns:x="&ns_extend;" xmlns:i="&ns_ai;" xmlns:graph="&ns_graphs;"
	 xmlns="http://www.w3.org/2000/svg" xmlns:xlink="http://www.w3.org/1999/xlink" x="0px" y="0px" viewBox="0 0 48 48"
	 style="enable-background:new 0 0 48 48;" xml:space="preserve">
<style type="text/css">
	.st0{fill:#F05133;}
	.st1{fill:#FFFFFF;}
</style>
<metadata>
	<sfw  xmlns="&ns_sfw;">
		<slices></slices>
		<sliceSourceBounds  bottomLeftOrigin="true" height="48" width="48" x="0" y="0"></sliceSourceBounds>
	</sfw>
</metadata>
<path class="st0" d="M43.2,48H4.8C2.2,48,0,45.8,0,43.2V4.8C0,2.2,2.2,0,4.8,0h38.3C45.8,0,48,2.2,48,4.8v38.3
	C48,45.8,45.8,48,43.2,48z"/>
<path class="st1" d="M43.2,22.2L25.8,4.8c-1-1-2.6-1-3.6,0l-3.6,3.6l4.6,4.6c1.1-0.4,2.3-0.1,3.1,0.7c0.9,0.9,1.1,2.1,0.7,3.2
	l4.4,4.4c1.1-0.4,2.3-0.1,3.2,0.7c1.2,1.2,1.2,3.1,0,4.3c-1.2,1.2-3.1,1.2-4.3,0c-0.9-0.9-1.1-2.2-0.7-3.3l-4.1-4.1l0,10.9
	c0.3,0.1,0.6,0.3,0.8,0.6c1.2,1.2,1.2,3.1,0,4.3c-1.2,1.2-3.1,1.2-4.3,0c-1.2-1.2-1.2-3.1,0-4.3c0.3-0.3,0.6-0.5,1-0.7v-11
	c-0.4-0.1-0.7-0.4-1-0.7c-0.9-0.9-1.1-2.2-0.7-3.4l-4.5-4.5l-12,12c-1,1-1,2.6,0,3.6l17.5,17.5c1,1,2.6,1,3.6,0l17.4-17.4
	C44.3,24.9,44.3,23.2,43.2,22.2"/>
</svg>
