<?xml version="1.0" encoding="utf-8"?>
<!-- Generator: Adobe Illustrator 27.5.0, SVG Export Plug-In . SVG Version: 6.00 Build 0)  -->
<!DOCTYPE svg PUBLIC "-//W3C//DTD SVG 1.1//EN" "http://www.w3.org/Graphics/SVG/1.1/DTD/svg11.dtd" [
	<!ENTITY ns_extend "http://ns.adobe.com/Extensibility/1.0/">
	<!ENTITY ns_ai "http://ns.adobe.com/AdobeIllustrator/10.0/">
	<!ENTITY ns_graphs "http://ns.adobe.com/Graphs/1.0/">
	<!ENTITY ns_vars "http://ns.adobe.com/Variables/1.0/">
	<!ENTITY ns_imrep "http://ns.adobe.com/ImageReplacement/1.0/">
	<!ENTITY ns_sfw "http://ns.adobe.com/SaveForWeb/1.0/">
	<!ENTITY ns_custom "http://ns.adobe.com/GenericCustomNamespace/1.0/">
	<!ENTITY ns_adobe_xpath "http://ns.adobe.com/XPath/1.0/">
]>
<svg version="1.1" id="Warstwa_1" xmlns:x="&ns_extend;" xmlns:i="&ns_ai;" xmlns:graph="&ns_graphs;"
	 xmlns="http://www.w3.org/2000/svg" xmlns:xlink="http://www.w3.org/1999/xlink" x="0px" y="0px" viewBox="0 0 48 48"
	 style="enable-background:new 0 0 48 48;" xml:space="preserve">
<style type="text/css">
	.st0{fill:#1E1E20;}
	.st1{fill-rule:evenodd;clip-rule:evenodd;fill:#FFFFFF;}
</style>
<metadata>
	<sfw  xmlns="&ns_sfw;">
		<slices></slices>
		<sliceSourceBounds  bottomLeftOrigin="true" height="48" width="48" x="0" y="0"></sliceSourceBounds>
	</sfw>
</metadata>
<g>
	<path class="st0" d="M43.2,48H4.8C2.2,48,0,45.8,0,43.2V4.8C0,2.2,2.2,0,4.8,0h38.3C45.8,0,48,2.2,48,4.8v38.3
		C48,45.8,45.8,48,43.2,48z"/>
	<path class="st1" d="M24,5C13.2,5,4.5,13.7,4.5,24.5c0,8.6,5.6,15.9,13.3,18.5c1,0.2,1.3-0.4,1.3-0.9c0-0.5,0-2,0-3.6
		c-4.9,0.9-6.2-1.2-6.6-2.3c-0.2-0.6-1.2-2.3-2-2.8c-0.7-0.4-1.7-1.3,0-1.3c1.5,0,2.6,1.4,3,2c1.8,2.9,4.6,2.1,5.7,1.6
		c0.2-1.3,0.7-2.1,1.2-2.6c-4.3-0.5-8.9-2.2-8.9-9.6c0-2.1,0.8-3.9,2-5.2c-0.2-0.5-0.9-2.5,0.2-5.2c0,0,1.6-0.5,5.4,2
		c1.6-0.4,3.2-0.7,4.9-0.7c1.7,0,3.3,0.2,4.9,0.7c3.7-2.5,5.4-2,5.4-2c1.1,2.7,0.4,4.7,0.2,5.2c1.2,1.4,2,3.1,2,5.2
		c0,7.5-4.6,9.1-8.9,9.6c0.7,0.6,1.3,1.8,1.3,3.6c0,2.6,0,4.7,0,5.4c0,0.5,0.4,1.1,1.3,0.9c7.7-2.6,13.3-9.9,13.3-18.5
		C43.5,13.7,34.8,5,24,5z"/>
</g>
</svg>
