<?xml version="1.0" encoding="utf-8"?>
<!-- Generator: Adobe Illustrator 27.5.0, SVG Export Plug-In . SVG Version: 6.00 Build 0)  -->
<!DOCTYPE svg PUBLIC "-//W3C//DTD SVG 1.1//EN" "http://www.w3.org/Graphics/SVG/1.1/DTD/svg11.dtd" [
	<!ENTITY ns_extend "http://ns.adobe.com/Extensibility/1.0/">
	<!ENTITY ns_ai "http://ns.adobe.com/AdobeIllustrator/10.0/">
	<!ENTITY ns_graphs "http://ns.adobe.com/Graphs/1.0/">
	<!ENTITY ns_vars "http://ns.adobe.com/Variables/1.0/">
	<!ENTITY ns_imrep "http://ns.adobe.com/ImageReplacement/1.0/">
	<!ENTITY ns_sfw "http://ns.adobe.com/SaveForWeb/1.0/">
	<!ENTITY ns_custom "http://ns.adobe.com/GenericCustomNamespace/1.0/">
	<!ENTITY ns_adobe_xpath "http://ns.adobe.com/XPath/1.0/">
]>
<svg version="1.1" id="Warstwa_1" xmlns:x="&ns_extend;" xmlns:i="&ns_ai;" xmlns:graph="&ns_graphs;"
	 xmlns="http://www.w3.org/2000/svg" xmlns:xlink="http://www.w3.org/1999/xlink" x="0px" y="0px" viewBox="0 0 48 48"
	 style="enable-background:new 0 0 48 48;" xml:space="preserve">
<style type="text/css">
	.st0{fill:#F7DF1E;}
</style>
<metadata>
	<sfw  xmlns="&ns_sfw;">
		<slices></slices>
		<sliceSourceBounds  bottomLeftOrigin="true" height="48" width="48" x="0" y="-48"></sliceSourceBounds>
	</sfw>
</metadata>
<path class="st0" d="M43.2,48H4.8C2.2,48,0,45.8,0,43.2V4.8C0,2.2,2.2,0,4.8,0h38.3C45.8,0,48,2.2,48,4.8v38.3
	C48,45.8,45.8,48,43.2,48z"/>
<path d="M32.2,35.7c0.9,1.5,2.1,2.6,4.2,2.6c1.8,0,2.9-0.9,2.9-2.1c0-1.5-1.2-2-3.1-2.8l-1.1-0.5C32,31.6,30,30,30,26.5
	c0-3.2,2.4-5.6,6.2-5.6c2.7,0,4.6,0.9,6,3.4l-3.3,2.1c-0.7-1.3-1.5-1.8-2.7-1.8c-1.2,0-2,0.8-2,1.8c0,1.3,0.8,1.8,2.6,2.6l1.1,0.5
	c3.6,1.5,5.6,3.1,5.6,6.6c0,3.8-3,5.9-7,5.9c-3.9,0-6.5-1.9-7.7-4.3L32.2,35.7z M17.2,36.1c0.7,1.2,1.3,2.2,2.7,2.2
	c1.4,0,2.3-0.5,2.3-2.7V21.2h4.2v14.4c0,4.4-2.6,6.4-6.3,6.4c-3.4,0-5.3-1.8-6.3-3.9L17.2,36.1z"/>
</svg>
