<?xml version="1.0" encoding="utf-8"?>
<!-- Generator: Adobe Illustrator 27.5.0, SVG Export Plug-In . SVG Version: 6.00 Build 0)  -->
<!DOCTYPE svg PUBLIC "-//W3C//DTD SVG 1.1//EN" "http://www.w3.org/Graphics/SVG/1.1/DTD/svg11.dtd" [
	<!ENTITY ns_extend "http://ns.adobe.com/Extensibility/1.0/">
	<!ENTITY ns_ai "http://ns.adobe.com/AdobeIllustrator/10.0/">
	<!ENTITY ns_graphs "http://ns.adobe.com/Graphs/1.0/">
	<!ENTITY ns_vars "http://ns.adobe.com/Variables/1.0/">
	<!ENTITY ns_imrep "http://ns.adobe.com/ImageReplacement/1.0/">
	<!ENTITY ns_sfw "http://ns.adobe.com/SaveForWeb/1.0/">
	<!ENTITY ns_custom "http://ns.adobe.com/GenericCustomNamespace/1.0/">
	<!ENTITY ns_adobe_xpath "http://ns.adobe.com/XPath/1.0/">
]>
<svg version="1.1" id="Warstwa_1" xmlns:x="&ns_extend;" xmlns:i="&ns_ai;" xmlns:graph="&ns_graphs;"
	 xmlns="http://www.w3.org/2000/svg" xmlns:xlink="http://www.w3.org/1999/xlink" x="0px" y="0px" viewBox="0 0 48 48"
	 style="enable-background:new 0 0 48 48;" xml:space="preserve">
<style type="text/css">
	.st0{fill:#689F63;}
	.st1{fill:#FFFFFF;}
</style>
<metadata>
	<sfw  xmlns="&ns_sfw;">
		<slices></slices>
		<sliceSourceBounds  bottomLeftOrigin="true" height="48" width="48" x="0" y="0"></sliceSourceBounds>
	</sfw>
</metadata>
<path class="st0" d="M43.2,48H4.8C2.2,48,0,45.8,0,43.2V4.8C0,2.2,2.2,0,4.8,0h38.3C45.8,0,48,2.2,48,4.8v38.3
	C48,45.8,45.8,48,43.2,48z"/>
<g>
	<path class="st1" d="M24,44c-0.5,0-1.1-0.1-1.5-0.4l-4.9-2.9c-0.7-0.4-0.4-0.6-0.1-0.6c1-0.3,1.2-0.4,2.2-1c0.1-0.1,0.3,0,0.4,0
		l3.8,2.2c0.1,0.1,0.3,0.1,0.5,0l14.7-8.5c0.1-0.1,0.2-0.2,0.2-0.4V15.5c0-0.2-0.1-0.3-0.2-0.4L24.2,6.7c-0.1-0.1-0.3-0.1-0.5,0
		L9.1,15.1c-0.1,0.1-0.2,0.2-0.2,0.4v16.9c0,0.2,0.1,0.3,0.2,0.4l4,2.3c2.2,1.1,3.5-0.2,3.5-1.5V17c0-0.2,0.2-0.4,0.4-0.4h1.9
		c0.2,0,0.4,0.2,0.4,0.4v16.7c0,2.9-1.6,4.6-4.3,4.6c-0.8,0-1.5,0-3.4-0.9l-3.8-2.2c-1-0.6-1.5-1.6-1.5-2.7V15.5
		c0-1.1,0.6-2.1,1.5-2.7l14.7-8.5c0.9-0.5,2.2-0.5,3.1,0l14.7,8.5c0.9,0.5,1.5,1.6,1.5,2.7v16.9c0,1.1-0.6,2.1-1.5,2.7l-14.7,8.5
		C25.1,43.9,24.5,44,24,44"/>
	<path class="st1" d="M28.5,32.3c-6.4,0-7.8-2.9-7.8-5.4c0-0.2,0.2-0.4,0.4-0.4h1.9c0.2,0,0.4,0.2,0.4,0.4c0.3,1.9,1.1,2.9,5,2.9
		c3.1,0,4.4-0.7,4.4-2.3c0-0.9-0.4-1.6-5.2-2.1c-4-0.4-6.5-1.3-6.5-4.5c0-3,2.5-4.7,6.7-4.7c4.7,0,7,1.6,7.3,5.1
		c0,0.1,0,0.2-0.1,0.3c-0.1,0.1-0.2,0.1-0.3,0.1h-1.9c-0.2,0-0.4-0.1-0.4-0.3c-0.5-2-1.6-2.7-4.6-2.7c-3.4,0-3.8,1.2-3.8,2.1
		c0,1.1,0.5,1.4,5,2c4.5,0.6,6.6,1.4,6.6,4.6C35.8,30.5,33.2,32.4,28.5,32.3"/>
</g>
</svg>
