<?xml version="1.0" encoding="utf-8"?>
<!-- Generator: Adobe Illustrator 27.5.0, SVG Export Plug-In . SVG Version: 6.00 Build 0)  -->
<!DOCTYPE svg PUBLIC "-//W3C//DTD SVG 1.1//EN" "http://www.w3.org/Graphics/SVG/1.1/DTD/svg11.dtd" [
	<!ENTITY ns_extend "http://ns.adobe.com/Extensibility/1.0/">
	<!ENTITY ns_ai "http://ns.adobe.com/AdobeIllustrator/10.0/">
	<!ENTITY ns_graphs "http://ns.adobe.com/Graphs/1.0/">
	<!ENTITY ns_vars "http://ns.adobe.com/Variables/1.0/">
	<!ENTITY ns_imrep "http://ns.adobe.com/ImageReplacement/1.0/">
	<!ENTITY ns_sfw "http://ns.adobe.com/SaveForWeb/1.0/">
	<!ENTITY ns_custom "http://ns.adobe.com/GenericCustomNamespace/1.0/">
	<!ENTITY ns_adobe_xpath "http://ns.adobe.com/XPath/1.0/">
]>
<svg version="1.1" id="Warstwa_1" xmlns:x="&ns_extend;" xmlns:i="&ns_ai;" xmlns:graph="&ns_graphs;"
	 xmlns="http://www.w3.org/2000/svg" xmlns:xlink="http://www.w3.org/1999/xlink" x="0px" y="0px" viewBox="0 0 48 48"
	 style="enable-background:new 0 0 48 48;" xml:space="preserve">
<style type="text/css">
	.st0{fill:#CB3837;}
	.st1{fill:#FFFFFF;}
</style>
<metadata>
	<sfw  xmlns="&ns_sfw;">
		<slices></slices>
		<sliceSourceBounds  bottomLeftOrigin="true" height="48" width="48" x="0" y="0"></sliceSourceBounds>
	</sfw>
</metadata>
<path class="st0" d="M43.2,48H4.8C2.2,48,0,45.8,0,43.2V4.8C0,2.2,2.2,0,4.8,0h38.3C45.8,0,48,2.2,48,4.8v38.3
	C48,45.8,45.8,48,43.2,48z"/>
<path class="st1" d="M16.3,30.4h5.2v-2.6h5.2V17.6H16.3V30.4z M21.4,20.1H24v5.2h-2.6V20.1z M28.6,17.6v10.3h5.2v-7.7h2.6v7.7H39
	v-7.7h2.6v7.7h2.6V17.6H28.6z M3.9,27.9h5.2v-7.7h2.6v7.7h2.6V17.6H3.9V27.9z"/>
</svg>
