<?xml version="1.0" encoding="utf-8"?>
<!-- Generator: Adobe Illustrator 27.5.0, SVG Export Plug-In . SVG Version: 6.00 Build 0)  -->
<!DOCTYPE svg PUBLIC "-//W3C//DTD SVG 1.1//EN" "http://www.w3.org/Graphics/SVG/1.1/DTD/svg11.dtd" [
	<!ENTITY ns_extend "http://ns.adobe.com/Extensibility/1.0/">
	<!ENTITY ns_ai "http://ns.adobe.com/AdobeIllustrator/10.0/">
	<!ENTITY ns_graphs "http://ns.adobe.com/Graphs/1.0/">
	<!ENTITY ns_vars "http://ns.adobe.com/Variables/1.0/">
	<!ENTITY ns_imrep "http://ns.adobe.com/ImageReplacement/1.0/">
	<!ENTITY ns_sfw "http://ns.adobe.com/SaveForWeb/1.0/">
	<!ENTITY ns_custom "http://ns.adobe.com/GenericCustomNamespace/1.0/">
	<!ENTITY ns_adobe_xpath "http://ns.adobe.com/XPath/1.0/">
]>
<svg version="1.1" id="Warstwa_1" xmlns:x="&ns_extend;" xmlns:i="&ns_ai;" xmlns:graph="&ns_graphs;"
	 xmlns="http://www.w3.org/2000/svg" xmlns:xlink="http://www.w3.org/1999/xlink" x="0px" y="0px" viewBox="0 0 48 48"
	 style="enable-background:new 0 0 48 48;" xml:space="preserve">
<style type="text/css">
	.st0{fill:#39D8FF;}
	.st1{fill:#FFFFFF;}
</style>
<metadata>
	<sfw  xmlns="&ns_sfw;">
		<slices></slices>
		<sliceSourceBounds  bottomLeftOrigin="true" height="48" width="48" x="0" y="-48"></sliceSourceBounds>
	</sfw>
</metadata>
<path class="st0" d="M43.2,48H4.8C2.2,48,0,45.8,0,43.2V4.8C0,2.2,2.2,0,4.8,0h38.3C45.8,0,48,2.2,48,4.8v38.3
	C48,45.8,45.8,48,43.2,48z"/>
<g>
	<path class="st1" d="M24,20.5c-2,0-3.6,1.6-3.6,3.6c0,2,1.6,3.6,3.6,3.6c2,0,3.6-1.6,3.6-3.6C27.6,22.1,25.9,20.5,24,20.5z
		 M24,20.5c-2,0-3.6,1.6-3.6,3.6c0,2,1.6,3.6,3.6,3.6c2,0,3.6-1.6,3.6-3.6C27.6,22.1,25.9,20.5,24,20.5z M24,20.5
		c-2,0-3.6,1.6-3.6,3.6c0,2,1.6,3.6,3.6,3.6c2,0,3.6-1.6,3.6-3.6C27.6,22.1,25.9,20.5,24,20.5z M24,20.5c-2,0-3.6,1.6-3.6,3.6
		c0,2,1.6,3.6,3.6,3.6c2,0,3.6-1.6,3.6-3.6C27.6,22.1,25.9,20.5,24,20.5z M24,20.5c-2,0-3.6,1.6-3.6,3.6c0,2,1.6,3.6,3.6,3.6
		c2,0,3.6-1.6,3.6-3.6C27.6,22.1,25.9,20.5,24,20.5z M24,20.5c-2,0-3.6,1.6-3.6,3.6c0,2,1.6,3.6,3.6,3.6c2,0,3.6-1.6,3.6-3.6
		C27.6,22.1,25.9,20.5,24,20.5z M24,20.5c-2,0-3.6,1.6-3.6,3.6c0,2,1.6,3.6,3.6,3.6c2,0,3.6-1.6,3.6-3.6
		C27.6,22.1,25.9,20.5,24,20.5z M24,20.5c-2,0-3.6,1.6-3.6,3.6c0,2,1.6,3.6,3.6,3.6c2,0,3.6-1.6,3.6-3.6
		C27.6,22.1,25.9,20.5,24,20.5z M24,20.5c-2,0-3.6,1.6-3.6,3.6c0,2,1.6,3.6,3.6,3.6c2,0,3.6-1.6,3.6-3.6
		C27.6,22.1,25.9,20.5,24,20.5z M24,20.5c-2,0-3.6,1.6-3.6,3.6c0,2,1.6,3.6,3.6,3.6c2,0,3.6-1.6,3.6-3.6
		C27.6,22.1,25.9,20.5,24,20.5z M36.9,17.8c-0.4-0.1-0.8-0.3-1.3-0.4c0.1-0.3,0.1-0.6,0.2-0.9c1-4.7,0.3-8.6-1.8-9.8
		c-2.1-1.2-5.5,0-8.9,3.1c-0.3,0.3-0.7,0.6-1,0.9c-0.2-0.2-0.4-0.4-0.7-0.6c-3.6-3.2-7.2-4.6-9.4-3.3c-2.1,1.2-2.7,4.8-1.8,9.3
		c0.1,0.5,0.2,0.9,0.3,1.3c-0.5,0.1-1,0.3-1.5,0.5C6.7,19.2,4,21.6,4,23.9c0,2.5,2.9,5,7.3,6.5c0.4,0.1,0.7,0.3,1.1,0.3
		c-0.1,0.5-0.2,1-0.3,1.4c-0.8,4.4-0.2,7.9,1.9,9.1c2.1,1.3,5.8,0,9.3-3.1c0.3-0.3,0.5-0.5,0.8-0.8c0.3,0.3,0.7,0.7,1.1,1
		c3.4,2.9,6.8,4.1,8.9,2.9c2.1-1.3,2.8-5,1.9-9.6c-0.1-0.3-0.2-0.7-0.3-1.1l0.8-0.3C41,29,44,26.5,44,24
		C44,21.6,41.2,19.3,36.9,17.8z M26.1,11c3-2.6,5.7-3.6,7-2.9c1.3,0.8,1.9,3.9,1,8c0,0.3-0.1,0.5-0.2,0.8c-1.8-0.4-3.6-0.7-5.4-0.8
		c-1-1.5-2.2-2.9-3.4-4.2C25.5,11.6,25.8,11.3,26.1,11z M16.9,28.1c0.4,0.7,0.8,1.4,1.3,2c-1.3-0.1-2.5-0.3-3.7-0.6
		c0.4-1.2,0.8-2.4,1.3-3.6C16.2,26.7,16.5,27.4,16.9,28.1z M14.5,18.6c1.2-0.3,2.4-0.5,3.6-0.6c-0.5,0.6-0.9,1.3-1.3,2
		c-0.4,0.7-0.8,1.4-1.1,2.1C15.3,20.9,14.9,19.8,14.5,18.6z M16.7,24c0.5-1.1,1.1-2.2,1.7-3.2c0.6-1,1.3-2.1,1.9-3.1
		c2.4-0.2,4.8-0.2,7.3,0c0.7,1,1.3,2,1.9,3.1c0.6,1,1.2,2.1,1.7,3.2c-0.5,1.1-1.1,2.2-1.7,3.2c-0.6,1-1.3,2.1-1.9,3.1
		c-1.2,0.1-2.4,0.1-3.7,0.1s-2.5,0-3.6-0.1c-0.7-1-1.3-2-2-3.1C17.8,26.2,17.2,25.1,16.7,24z M31,28.1c0.4-0.7,0.8-1.4,1.2-2.1
		c0.5,1.2,1,2.3,1.3,3.5c-1.3,0.3-2.5,0.5-3.7,0.6C30.2,29.5,30.7,28.8,31,28.1z M32.2,22c-0.3-0.7-0.7-1.3-1.1-2
		c-0.4-0.7-0.8-1.3-1.2-2c1.3,0.2,2.5,0.4,3.6,0.6C33.1,19.7,32.7,20.9,32.2,22z M24,13.1c0.8,0.9,1.6,1.8,2.3,2.8
		c-1.6-0.1-3.1-0.1-4.7,0C22.4,15,23.2,14,24,13.1z M14.8,8.2c1.3-0.8,4.3,0.3,7.4,3.1c0.2,0.2,0.4,0.4,0.6,0.5
		c-1.2,1.3-2.4,2.8-3.4,4.2c-1.8,0.2-3.6,0.4-5.4,0.8c-0.1-0.4-0.2-0.8-0.3-1.2C13,11.8,13.5,8.9,14.8,8.2z M12.9,29.2
		c-0.4-0.1-0.7-0.3-1-0.3c-1.7-0.5-3.3-1.4-4.7-2.5c-1-0.8-1.5-1.7-1.5-2.4c0-1.5,2.2-3.3,5.8-4.6c0.5-0.2,0.9-0.3,1.4-0.4
		c0.5,1.7,1.2,3.4,2,5.1C14.1,25.7,13.4,27.5,12.9,29.2z M22.1,37c-1.3,1.1-2.8,2.1-4.5,2.8c-1.2,0.4-2.2,0.5-2.8,0.1
		c-1.3-0.7-1.8-3.6-1.1-7.3c0.1-0.5,0.2-0.9,0.3-1.3c1.8,0.4,3.6,0.6,5.4,0.8c1,1.5,2.2,2.9,3.4,4.3C22.6,36.6,22.3,36.8,22.1,37z
		 M24.1,35c-0.8-0.9-1.7-1.9-2.4-2.9c0.8,0,1.5,0,2.3,0c0.8,0,1.6,0,2.4,0C25.7,33.1,24.9,34.1,24.1,35z M34.5,37.4
		c-0.3,1.3-0.7,2.1-1.3,2.5c-1.3,0.7-4-0.2-6.9-2.7c-0.3-0.3-0.7-0.6-1-0.9c1.2-1.3,2.3-2.8,3.3-4.3c1.8-0.2,3.6-0.4,5.4-0.8
		c0,0.4,0.1,0.7,0.2,1C34.6,33.9,34.7,35.6,34.5,37.4z M35.9,28.9c-0.2,0.1-0.5,0.1-0.7,0.2c-0.5-1.8-1.3-3.4-2-5.1
		c0.8-1.6,1.4-3.3,2-5c0.4,0.1,0.8,0.3,1.2,0.4c3.7,1.3,6,3.2,6,4.6C42.3,25.5,39.9,27.5,35.9,28.9z M24,27.7c2,0,3.6-1.6,3.6-3.6
		c0-2-1.6-3.6-3.6-3.6s-3.6,1.6-3.6,3.6C20.4,26.1,22,27.7,24,27.7z M24,20.5c-2,0-3.6,1.6-3.6,3.6c0,2,1.6,3.6,3.6,3.6
		c2,0,3.6-1.6,3.6-3.6C27.6,22.1,25.9,20.5,24,20.5z M24,20.5c-2,0-3.6,1.6-3.6,3.6c0,2,1.6,3.6,3.6,3.6c2,0,3.6-1.6,3.6-3.6
		C27.6,22.1,25.9,20.5,24,20.5z M24,20.5c-2,0-3.6,1.6-3.6,3.6c0,2,1.6,3.6,3.6,3.6c2,0,3.6-1.6,3.6-3.6
		C27.6,22.1,25.9,20.5,24,20.5z M24,20.5c-2,0-3.6,1.6-3.6,3.6c0,2,1.6,3.6,3.6,3.6c2,0,3.6-1.6,3.6-3.6
		C27.6,22.1,25.9,20.5,24,20.5z M24,20.5c-2,0-3.6,1.6-3.6,3.6c0,2,1.6,3.6,3.6,3.6c2,0,3.6-1.6,3.6-3.6
		C27.6,22.1,25.9,20.5,24,20.5z M24,20.5c-2,0-3.6,1.6-3.6,3.6c0,2,1.6,3.6,3.6,3.6c2,0,3.6-1.6,3.6-3.6
		C27.6,22.1,25.9,20.5,24,20.5z M24,20.5c-2,0-3.6,1.6-3.6,3.6c0,2,1.6,3.6,3.6,3.6c2,0,3.6-1.6,3.6-3.6
		C27.6,22.1,25.9,20.5,24,20.5z M24,20.5c-2,0-3.6,1.6-3.6,3.6c0,2,1.6,3.6,3.6,3.6c2,0,3.6-1.6,3.6-3.6
		C27.6,22.1,25.9,20.5,24,20.5z"/>
	<path class="st1" d="M24,20.5c-2,0-3.6,1.6-3.6,3.6c0,2,1.6,3.6,3.6,3.6c2,0,3.6-1.6,3.6-3.6C27.6,22.1,25.9,20.5,24,20.5z"/>
</g>
</svg>
