<?xml version="1.0" encoding="utf-8"?>
<!-- Generator: Adobe Illustrator 27.5.0, SVG Export Plug-In . SVG Version: 6.00 Build 0)  -->
<!DOCTYPE svg PUBLIC "-//W3C//DTD SVG 1.1//EN" "http://www.w3.org/Graphics/SVG/1.1/DTD/svg11.dtd" [
	<!ENTITY ns_extend "http://ns.adobe.com/Extensibility/1.0/">
	<!ENTITY ns_ai "http://ns.adobe.com/AdobeIllustrator/10.0/">
	<!ENTITY ns_graphs "http://ns.adobe.com/Graphs/1.0/">
	<!ENTITY ns_vars "http://ns.adobe.com/Variables/1.0/">
	<!ENTITY ns_imrep "http://ns.adobe.com/ImageReplacement/1.0/">
	<!ENTITY ns_sfw "http://ns.adobe.com/SaveForWeb/1.0/">
	<!ENTITY ns_custom "http://ns.adobe.com/GenericCustomNamespace/1.0/">
	<!ENTITY ns_adobe_xpath "http://ns.adobe.com/XPath/1.0/">
]>
<svg version="1.1" id="Warstwa_1" xmlns:x="&ns_extend;" xmlns:i="&ns_ai;" xmlns:graph="&ns_graphs;"
	 xmlns="http://www.w3.org/2000/svg" xmlns:xlink="http://www.w3.org/1999/xlink" x="0px" y="0px" viewBox="0 0 48 48"
	 style="enable-background:new 0 0 48 48;" xml:space="preserve">
<style type="text/css">
	.st0{fill:#3178C6;}
	.st1{fill-rule:evenodd;clip-rule:evenodd;fill:#FFFFFF;}
</style>
<metadata>
	<sfw  xmlns="&ns_sfw;">
		<slices></slices>
		<sliceSourceBounds  bottomLeftOrigin="true" height="48" width="48" x="0" y="-48"></sliceSourceBounds>
	</sfw>
</metadata>
<g>
	<path class="st0" d="M4.7,0h38.6C45.9,0,48,2.1,48,4.7v38.6c0,2.6-2.1,4.7-4.7,4.7H4.7C2.1,48,0,45.9,0,43.3V4.7C0,2.1,2.1,0,4.7,0
		z"/>
	<path class="st0" d="M4.7,0h38.6C45.9,0,48,2.1,48,4.7v38.6c0,2.6-2.1,4.7-4.7,4.7H4.7C2.1,48,0,45.9,0,43.3V4.7C0,2.1,2.1,0,4.7,0
		z"/>
	<path class="st1" d="M29.7,38.2v4.7c0.8,0.4,1.7,0.7,2.7,0.9c1,0.2,2.1,0.3,3.3,0.3c1.1,0,2.2-0.1,3.2-0.3c1-0.2,1.9-0.6,2.7-1.1
		c0.8-0.5,1.4-1.1,1.8-1.9s0.7-1.8,0.7-3c0-0.9-0.1-1.6-0.4-2.2s-0.6-1.2-1.1-1.7c-0.5-0.5-1.1-0.9-1.7-1.3
		c-0.7-0.4-1.4-0.8-2.3-1.1c-0.6-0.3-1.2-0.5-1.7-0.7c-0.5-0.2-0.9-0.5-1.2-0.7c-0.3-0.2-0.6-0.5-0.8-0.8c-0.2-0.3-0.3-0.6-0.3-0.9
		c0-0.3,0.1-0.6,0.2-0.9c0.2-0.3,0.4-0.5,0.7-0.7c0.3-0.2,0.7-0.3,1.1-0.4c0.4-0.1,0.9-0.2,1.5-0.2c0.4,0,0.8,0,1.2,0.1
		c0.4,0.1,0.9,0.1,1.3,0.3c0.4,0.1,0.9,0.3,1.3,0.5c0.4,0.2,0.8,0.4,1.2,0.6v-4.4c-0.7-0.3-1.5-0.5-2.3-0.6
		c-0.8-0.1-1.8-0.2-2.9-0.2c-1.1,0-2.2,0.1-3.2,0.4s-1.9,0.6-2.6,1.1c-0.8,0.5-1.4,1.2-1.8,1.9c-0.4,0.8-0.7,1.7-0.7,2.8
		c0,1.4,0.4,2.6,1.2,3.6c0.8,1,2,1.8,3.7,2.5c0.6,0.3,1.2,0.5,1.8,0.8c0.6,0.3,1,0.5,1.4,0.8c0.4,0.3,0.7,0.6,1,0.9
		c0.2,0.3,0.4,0.7,0.4,1.1c0,0.3-0.1,0.6-0.2,0.8c-0.1,0.3-0.4,0.5-0.7,0.7c-0.3,0.2-0.7,0.3-1.1,0.4c-0.4,0.1-1,0.2-1.6,0.2
		c-1,0-2-0.2-3-0.5C31.5,39.4,30.6,38.9,29.7,38.2L29.7,38.2z M21.8,26.6h6v-3.9H11.1v3.9h6v17.1h4.8V26.6z"/>
</g>
</svg>
