<?xml version="1.0" encoding="utf-8"?>
<!-- Generator: Adobe Illustrator 27.5.0, SVG Export Plug-In . SVG Version: 6.00 Build 0)  -->
<!DOCTYPE svg PUBLIC "-//W3C//DTD SVG 1.1//EN" "http://www.w3.org/Graphics/SVG/1.1/DTD/svg11.dtd" [
	<!ENTITY ns_extend "http://ns.adobe.com/Extensibility/1.0/">
	<!ENTITY ns_ai "http://ns.adobe.com/AdobeIllustrator/10.0/">
	<!ENTITY ns_graphs "http://ns.adobe.com/Graphs/1.0/">
	<!ENTITY ns_vars "http://ns.adobe.com/Variables/1.0/">
	<!ENTITY ns_imrep "http://ns.adobe.com/ImageReplacement/1.0/">
	<!ENTITY ns_sfw "http://ns.adobe.com/SaveForWeb/1.0/">
	<!ENTITY ns_custom "http://ns.adobe.com/GenericCustomNamespace/1.0/">
	<!ENTITY ns_adobe_xpath "http://ns.adobe.com/XPath/1.0/">
]>
<svg version="1.1" id="Warstwa_1" xmlns:x="&ns_extend;" xmlns:i="&ns_ai;" xmlns:graph="&ns_graphs;"
	 xmlns="http://www.w3.org/2000/svg" xmlns:xlink="http://www.w3.org/1999/xlink" x="0px" y="0px" viewBox="0 0 48 48"
	 style="enable-background:new 0 0 48 48;" xml:space="preserve">
<style type="text/css">
	.st0{fill:#1E1E20;}
	.st1{fill:url(#SVGID_1_);}
	.st2{fill:url(#SVGID_00000152231155449463127170000000744808560702532481_);}
</style>
<metadata>
	<sfw  xmlns="&ns_sfw;">
		<slices></slices>
		<sliceSourceBounds  bottomLeftOrigin="true" height="48" width="48" x="0" y="-48"></sliceSourceBounds>
	</sfw>
</metadata>
<path class="st0" d="M43.2,48H4.8C2.2,48,0,45.8,0,43.2V4.8C0,2.2,2.2,0,4.8,0h38.3C45.8,0,48,2.2,48,4.8v38.3
	C48,45.8,45.8,48,43.2,48z"/>
<g>
	
		<linearGradient id="SVGID_1_" gradientUnits="userSpaceOnUse" x1="15.5969" y1="46.4833" x2="35.2249" y2="19.8269" gradientTransform="matrix(1 0 0 -1 0 50)">
		<stop  offset="0" style="stop-color:#41D1FF"/>
		<stop  offset="1" style="stop-color:#BD34FE"/>
	</linearGradient>
	<path class="st1" d="M40.7,12.2L24.9,40.4c-0.3,0.6-1.2,0.6-1.5,0L7.3,12.2c-0.4-0.6,0.2-1.4,0.9-1.3L24,13.7c0.1,0,0.2,0,0.3,0
		l15.5-2.8C40.5,10.8,41,11.5,40.7,12.2z"/>
	
		<linearGradient id="SVGID_00000163759752631373453050000000605095163321518732_" gradientUnits="userSpaceOnUse" x1="24.8525" y1="42.4331" x2="28.4031" y2="18.0762" gradientTransform="matrix(1 0 0 -1 0 50)">
		<stop  offset="0" style="stop-color:#FFEA83"/>
		<stop  offset="8.333330e-02" style="stop-color:#FFDD35"/>
		<stop  offset="1" style="stop-color:#FFA800"/>
	</linearGradient>
	<path style="fill:url(#SVGID_00000163759752631373453050000000605095163321518732_);" d="M31.5,7.2L19.9,9.5
		c-0.2,0-0.3,0.2-0.3,0.4L18.8,22c0,0.3,0.2,0.5,0.5,0.4l3.2-0.7c0.3-0.1,0.6,0.2,0.5,0.5l-1,4.7c-0.1,0.3,0.2,0.6,0.5,0.5l2-0.6
		c0.3-0.1,0.6,0.2,0.5,0.5l-1.5,7.4c-0.1,0.5,0.5,0.7,0.8,0.3l0.2-0.3l9.5-19c0.2-0.3-0.1-0.7-0.5-0.6l-3.3,0.6
		c-0.3,0.1-0.6-0.2-0.5-0.5L32,7.7C32.1,7.4,31.8,7.1,31.5,7.2z"/>
</g>
</svg>
