<?xml version="1.0" encoding="utf-8"?>
<!-- Generator: Adobe Illustrator 27.5.0, SVG Export Plug-In . SVG Version: 6.00 Build 0)  -->
<!DOCTYPE svg PUBLIC "-//W3C//DTD SVG 1.1//EN" "http://www.w3.org/Graphics/SVG/1.1/DTD/svg11.dtd" [
	<!ENTITY ns_extend "http://ns.adobe.com/Extensibility/1.0/">
	<!ENTITY ns_ai "http://ns.adobe.com/AdobeIllustrator/10.0/">
	<!ENTITY ns_graphs "http://ns.adobe.com/Graphs/1.0/">
	<!ENTITY ns_vars "http://ns.adobe.com/Variables/1.0/">
	<!ENTITY ns_imrep "http://ns.adobe.com/ImageReplacement/1.0/">
	<!ENTITY ns_sfw "http://ns.adobe.com/SaveForWeb/1.0/">
	<!ENTITY ns_custom "http://ns.adobe.com/GenericCustomNamespace/1.0/">
	<!ENTITY ns_adobe_xpath "http://ns.adobe.com/XPath/1.0/">
]>
<svg version="1.1" id="Warstwa_1" xmlns:x="&ns_extend;" xmlns:i="&ns_ai;" xmlns:graph="&ns_graphs;"
	 xmlns="http://www.w3.org/2000/svg" xmlns:xlink="http://www.w3.org/1999/xlink" x="0px" y="0px" viewBox="0 0 48 48"
	 style="enable-background:new 0 0 48 48;" xml:space="preserve">
<style type="text/css">
	.st0{fill:#1F9CF0;}
	.st1{fill-rule:evenodd;clip-rule:evenodd;fill:#FFFFFF;}
</style>
<metadata>
	<sfw  xmlns="&ns_sfw;">
		<slices></slices>
		<sliceSourceBounds  bottomLeftOrigin="true" height="48" width="48" x="0" y="0"></sliceSourceBounds>
	</sfw>
</metadata>
<g>
	<path class="st0" d="M43.2,48H4.8C2.2,48,0,45.8,0,43.2V4.8C0,2.2,2.2,0,4.8,0h38.3C45.8,0,48,2.2,48,4.8v38.3
		C48,45.8,45.8,48,43.2,48z"/>
	<path class="st1" d="M31.4,41.4c0.6,0.2,1.2,0.2,1.7-0.1l7.2-3.5c0.8-0.4,1.2-1.1,1.2-2V12.2c0-0.8-0.5-1.6-1.2-2l-7.2-3.5
		c-0.7-0.4-1.6-0.3-2.2,0.2c-0.1,0.1-0.2,0.1-0.3,0.2L16.7,19.8l-6-4.6c-0.6-0.4-1.3-0.4-1.9,0.1l-1.9,1.8c-0.6,0.6-0.6,1.6,0,2.2
		l5.2,4.8l-5.2,4.8c-0.6,0.6-0.6,1.6,0,2.2l1.9,1.8c0.5,0.5,1.3,0.5,1.9,0.1l6-4.6l13.9,12.7C30.8,41.1,31.1,41.2,31.4,41.4z
		 M32.8,16l-10.5,8l10.5,8V16z"/>
</g>
</svg>
