<?xml version="1.0" encoding="utf-8"?>
<!-- Generator: Adobe Illustrator 27.4.0, SVG Export Plug-In . SVG Version: 6.00 Build 0)  -->
<!DOCTYPE svg PUBLIC "-//W3C//DTD SVG 1.1//EN" "http://www.w3.org/Graphics/SVG/1.1/DTD/svg11.dtd" [
	<!ENTITY ns_extend "http://ns.adobe.com/Extensibility/1.0/">
	<!ENTITY ns_ai "http://ns.adobe.com/AdobeIllustrator/10.0/">
	<!ENTITY ns_graphs "http://ns.adobe.com/Graphs/1.0/">
	<!ENTITY ns_vars "http://ns.adobe.com/Variables/1.0/">
	<!ENTITY ns_imrep "http://ns.adobe.com/ImageReplacement/1.0/">
	<!ENTITY ns_sfw "http://ns.adobe.com/SaveForWeb/1.0/">
	<!ENTITY ns_custom "http://ns.adobe.com/GenericCustomNamespace/1.0/">
	<!ENTITY ns_adobe_xpath "http://ns.adobe.com/XPath/1.0/">
]>
<svg version="1.1" id="Layer_1" xmlns:x="&ns_extend;" xmlns:i="&ns_ai;" xmlns:graph="&ns_graphs;"
	 xmlns="http://www.w3.org/2000/svg" xmlns:xlink="http://www.w3.org/1999/xlink" x="0px" y="0px" viewBox="0 0 200 200"
	 style="enable-background:new 0 0 200 200;" xml:space="preserve">
<style type="text/css">
	.st0{fill:#1AD079;}
	.st1{fill:#07133B;}
</style>
<metadata>
	<sfw  xmlns="&ns_sfw;">
		<slices></slices>
		<sliceSourceBounds  bottomLeftOrigin="true" height="200" width="200" x="0" y="0"></sliceSourceBounds>
	</sfw>
</metadata>
<path class="st0" d="M179.9,200H20.1C9,200,0,191,0,179.9V20.1C0,9,9,0,20.1,0h159.7C191,0,200,9,200,20.1v159.7
	C200,191,191,200,179.9,200z"/>
<g>
	<path class="st1" d="M127.8,71.5V71v-5.7c0,0,0-0.3,0-2.4c0-7.2-2.7-14.2-8.2-19.7l0,0c-0.3-0.3-0.7-0.7-0.8-0.8
		c-1.9-1.6-3.9-3.2-5.7-4.1c-7.8-4.4-18.4-4.6-27.5,0.8c-14.4,8.8-13.4,21.8-13.4,32.4L57.5,86.9c-2.7,2.8-3.1,7-1,10.2
		c2.7,4.2,9.4,12.2,21.3,12.2c3.1,0,6.5-0.5,10.3-1.8c0.7,0.3,1.3,0.6,2,0.9v7.6H79.3c-9.6,0-17.5,7.8-17.5,17.5V157
		c0,4.4,3.6,8,8,8h60.3c4.4,0,8-3.6,8-8v-23.5c0-9.6-7.8-17.5-17.5-17.5h-10.8v-7.6c0.7-0.3,1.4-0.6,2.1-0.9
		c3.8,1.3,7.2,1.8,10.2,1.8c11.9,0,18.6-8.1,21.4-12.2l0,0c2.1-3.2,1.6-7.4-1-10.2L127.8,71.5z M78,61.7
		c1.3-22.4,29.7-28.3,40.9-10.4c2.1,3.4,3.3,7.3,3.3,11.7c-5.8,2.7-12.8,4-19.3,4.1l2.5-6.6c1-2.6-1.9-4.9-4.2-3.4
		c-0.1,0-8.2,5.3-17.1,8.3c-2.1,0.7-4.1,1.2-5.9,1.5C77.9,65,77.9,62.2,78,61.7z M61.3,94c-0.6-1-0.5-2.3,0.4-3.1l10.6-11.1
		c0,2.5-0.9,14.2,9.5,23.5C71.1,105.1,64.8,99.5,61.3,94z M97.2,159.3H69.9c-1.3,0-2.3-1-2.3-2.3v-23.5c0-6.5,5.3-11.8,11.8-11.8
		h3.4l0,0c2.5,7.3,6.9,16.8,14.4,21.6l0,0C97.2,143.3,97.2,159.3,97.2,159.3z M117.2,122c0-0.1,0.1-0.2,0.1-0.3h3.4
		c6.5,0,11.8,5.3,11.8,11.8V157c0,1.3-1,2.3-2.3,2.3h-27.3v-15.9C110.2,138.7,114.7,129.3,117.2,122
		C117.2,122.1,117.2,122,117.2,122z M110.9,122.5c-2,5.2-5.6,12.3-10.9,15.9c-5.3-3.5-8.9-10.6-10.9-15.9c1.4-0.3,2.8-0.5,4.2-0.7
		c1.4-0.2,2.5-1.4,2.5-2.8v-9.1c3.4,0.5,6.8,0.3,8.4,0v9.1c0,1.4,1.1,2.7,2.5,2.8C108.2,122,109.5,122.2,110.9,122.5z M89.8,101.9
		c0,0-2.6-1.4-5-3.8c-7.9-7.8-6.8-16-6.8-25.5c6.4-1,13.4-3.9,19.2-6.9c-1.1,2.9-1.8,3.9-0.9,5.4c0.5,0.8,1.3,1.3,2.1,1.4
		c0.3,0,8.2,0.9,17.6-1.5c1.1-0.3,2.3-0.6,3.3-0.9c0.9,0.4,1.8,0.6,2.8,0.8c0,11.6,0.3,14-1,18l0,0
		C116.8,102.5,101.6,108.3,89.8,101.9z M138.8,94c-3.5,5.5-9.8,11.1-20.3,9.3c7.3-6.5,9.4-14.5,9.4-23.5l10.6,11.1
		C139.3,91.7,139.4,93,138.8,94z"/>
	<circle class="st1" cx="87.8" cy="79.3" r="3.3"/>
	<circle class="st1" cx="112.3" cy="79.3" r="3.3"/>
</g>
</svg>
