<?xml version="1.0" encoding="utf-8"?>
<!-- Generator: Adobe Illustrator 27.4.0, SVG Export Plug-In . SVG Version: 6.00 Build 0)  -->
<!DOCTYPE svg PUBLIC "-//W3C//DTD SVG 1.1//EN" "http://www.w3.org/Graphics/SVG/1.1/DTD/svg11.dtd" [
	<!ENTITY ns_extend "http://ns.adobe.com/Extensibility/1.0/">
	<!ENTITY ns_ai "http://ns.adobe.com/AdobeIllustrator/10.0/">
	<!ENTITY ns_graphs "http://ns.adobe.com/Graphs/1.0/">
	<!ENTITY ns_vars "http://ns.adobe.com/Variables/1.0/">
	<!ENTITY ns_imrep "http://ns.adobe.com/ImageReplacement/1.0/">
	<!ENTITY ns_sfw "http://ns.adobe.com/SaveForWeb/1.0/">
	<!ENTITY ns_custom "http://ns.adobe.com/GenericCustomNamespace/1.0/">
	<!ENTITY ns_adobe_xpath "http://ns.adobe.com/XPath/1.0/">
]>
<svg version="1.1" id="Layer_1" xmlns:x="&ns_extend;" xmlns:i="&ns_ai;" xmlns:graph="&ns_graphs;"
	 xmlns="http://www.w3.org/2000/svg" xmlns:xlink="http://www.w3.org/1999/xlink" x="0px" y="0px" viewBox="0 0 200 200"
	 style="enable-background:new 0 0 200 200;" xml:space="preserve">
<style type="text/css">
	.st0{fill:#1AD079;}
	.st1{fill:#07133B;}
</style>
<metadata>
	<sfw  xmlns="&ns_sfw;">
		<slices></slices>
		<sliceSourceBounds  bottomLeftOrigin="true" height="200" width="200" x="0" y="0"></sliceSourceBounds>
	</sfw>
</metadata>
<path class="st0" d="M179.9,200H20.1C9,200,0,191,0,179.9V20.1C0,9,9,0,20.1,0h159.7C191,0,200,9,200,20.1v159.7
	C200,191,191,200,179.9,200z"/>
<g>
	<path class="st1" d="M93,121c-1.4,0-2.7-0.5-3.7-1.5L77,107.1c-2-2-2-5.3,0-7.4l3.1-3.1c2-2,5.3-2,7.4,0l5,5c0.3,0.3,0.8,0.3,1.1,0
		l20.1-20.1c1-1,2.3-1.5,3.7-1.5c1.4,0,2.7,0.5,3.7,1.5l3.1,3.1c1,1,1.5,2.3,1.5,3.7c0,1.4-0.5,2.7-1.5,3.7l-27.5,27.5
		C95.7,120.5,94.4,121,93,121z M83.7,99.6c-0.2,0-0.4,0.1-0.5,0.2l-3.1,3.1c-0.3,0.3-0.3,0.8,0,1.1l12.4,12.4l0,0
		c0.2,0.2,0.4,0.2,0.5,0.2c0.1,0,0.3,0,0.5-0.2L121,88.9c0.2-0.2,0.2-0.4,0.2-0.5c0-0.1,0-0.3-0.2-0.5l-3.1-3.1
		c-0.2-0.2-0.4-0.2-0.5-0.2c-0.1,0-0.3,0-0.5,0.2l-20.1,20.1c-2,2-5.3,2-7.4,0l-5-5C84.1,99.7,83.9,99.6,83.7,99.6z"/>
	<path class="st1" d="M90.1,175c-0.3,0-0.6,0-0.9-0.1c-2.5-0.4-4.4-2.1-6.1-3.7c-1.1-1.1-2.3-2.2-3.3-2.4c-1-0.3-2.7,0-4.2,0.3
		c-2.2,0.4-4.8,0.9-7-0.2c-2.3-1-3.6-3.3-4.8-5.3c-0.8-1.3-1.6-2.7-2.5-3.3c-0.9-0.6-2.5-0.8-4.1-0.9c-2.3-0.2-4.9-0.5-6.7-2.2
		c-1.9-1.6-2.5-4.2-3.1-6.4c-0.4-1.5-0.8-3.1-1.5-3.9c-0.7-0.8-2.2-1.4-3.6-2c-2.1-0.9-4.5-1.9-5.9-4c-1.3-2.1-1.3-4.7-1.2-7
		c0.1-1.6,0.1-3.2-0.3-4.2c-0.4-1-1.7-2-2.9-3c-1.8-1.4-3.8-3.1-4.5-5.5c-0.7-2.4,0.1-4.8,0.8-7c0.5-1.5,1-3.1,0.9-4.1
		c-0.1-1-1.1-2.3-1.9-3.6c-1.3-1.9-2.8-4-2.8-6.6c0-2.5,1.5-4.7,2.8-6.6c0.9-1.3,1.8-2.6,1.9-3.6c0.2-1.1-0.4-2.6-0.9-4.1
		c-0.7-2.2-1.5-4.6-0.8-7c0.7-2.4,2.7-4.1,4.5-5.5c1.2-1,2.5-2,2.9-3c0.5-1,0.4-2.6,0.3-4.2c-0.1-2.3-0.2-4.9,1.2-7
		c1.4-2.1,3.8-3.1,5.9-4c1.4-0.6,2.9-1.2,3.6-2c0.7-0.8,1.1-2.4,1.5-3.9c0.6-2.2,1.2-4.7,3.1-6.4c1.9-1.6,4.5-1.9,6.7-2.2
		c1.6-0.2,3.2-0.3,4.1-0.9c0.9-0.6,1.7-2,2.5-3.3c1.2-2,2.5-4.2,4.8-5.3c2.3-1,4.8-0.6,7-0.2c1.6,0.3,3.2,0.6,4.2,0.3
		c1-0.3,2.2-1.4,3.3-2.4c1.7-1.6,3.6-3.3,6.1-3.7c2.4-0.3,4.7,0.8,6.8,1.8c1.4,0.7,2.9,1.4,4,1.4s2.6-0.7,4-1.4c2-1,4.3-2.2,6.8-1.8
		c2.5,0.4,4.4,2.1,6.1,3.7c1.1,1.1,2.3,2.2,3.3,2.4c1,0.3,2.7,0,4.2-0.3c2.2-0.4,4.8-0.9,7,0.2c2.3,1,3.6,3.3,4.8,5.3
		c0.8,1.3,1.6,2.7,2.5,3.3c0.9,0.6,2.5,0.8,4.1,0.9c2.3,0.2,4.9,0.5,6.7,2.2c1.9,1.6,2.5,4.2,3.1,6.4c0.4,1.5,0.8,3.1,1.5,3.9
		c0.7,0.8,2.2,1.4,3.6,2c2.1,0.9,4.5,1.9,5.9,4c1.3,2.1,1.3,4.7,1.2,7c-0.1,1.6-0.1,3.2,0.3,4.2c0.4,1,1.7,2,2.9,3
		c1.8,1.4,3.8,3.1,4.5,5.5c0.7,2.4-0.1,4.8-0.8,7c-0.5,1.5-1,3.1-0.9,4.1c0.1,1,1.1,2.3,1.9,3.6c1.3,1.9,2.8,4,2.8,6.6
		c0,2.5-1.5,4.7-2.8,6.6c-0.9,1.3-1.8,2.6-1.9,3.6c-0.2,1.1,0.4,2.6,0.9,4.1c0.7,2.2,1.5,4.6,0.8,7c-0.7,2.4-2.7,4.1-4.5,5.5
		c-1.2,1-2.5,2-2.9,3c-0.5,1-0.4,2.6-0.3,4.2c0.1,2.3,0.2,4.9-1.2,7c-1.4,2.1-3.8,3.1-5.9,4c-1.4,0.6-2.9,1.2-3.6,2
		c-0.7,0.8-1.1,2.4-1.5,3.9c-0.6,2.2-1.2,4.7-3.1,6.4c-1.9,1.6-4.5,1.9-6.7,2.2c-1.6,0.2-3.2,0.3-4.1,0.9c-0.9,0.6-1.7,2-2.5,3.3
		c-1.2,2-2.5,4.2-4.8,5.3c-2.3,1-4.8,0.6-7,0.2c-1.6-0.3-3.2-0.6-4.2-0.3c-1,0.3-2.2,1.4-3.3,2.4c-1.7,1.6-3.6,3.3-6.1,3.7
		c-2.4,0.3-4.7-0.8-6.8-1.8c-1.4-0.7-2.9-1.4-4-1.4c-1.1,0-2.6,0.7-4,1.4C94.2,174,92.2,175,90.1,175z M78.7,164.2
		c0.8,0,1.6,0.1,2.4,0.3c2,0.6,3.6,2,5.1,3.5c1.3,1.2,2.6,2.4,3.7,2.6c1.1,0.2,2.6-0.6,4.2-1.4c1.8-0.9,3.8-1.9,6-1.9
		c2.2,0,4.2,1,6,1.9c1.5,0.8,3.1,1.5,4.2,1.4c1.1-0.2,2.4-1.4,3.7-2.6c1.5-1.4,3.1-2.9,5.1-3.5c2.1-0.6,4.2-0.2,6.2,0.1
		c1.7,0.3,3.4,0.6,4.4,0.2c1-0.5,1.9-2,2.8-3.5c1.1-1.8,2.2-3.6,3.9-4.8c1.8-1.2,3.9-1.4,6-1.6c1.7-0.2,3.5-0.4,4.3-1.1
		c0.8-0.7,1.3-2.5,1.7-4.1c0.5-2,1.1-4.1,2.4-5.7c1.4-1.6,3.4-2.4,5.3-3.2c1.6-0.7,3.2-1.3,3.8-2.3c0.6-0.9,0.5-2.7,0.5-4.4
		c-0.1-2.1-0.1-4.2,0.7-6.2c0.9-1.9,2.5-3.3,4.2-4.6c1.3-1.1,2.7-2.2,3.1-3.3c0.3-1-0.3-2.7-0.8-4.3c-0.7-2-1.3-4-1-6.2
		c0.3-2.1,1.5-3.8,2.7-5.5c1-1.4,2-2.9,2-4.1c0-1.1-1-2.6-2-4.1c-1.2-1.7-2.4-3.5-2.7-5.5c-0.3-2.1,0.4-4.2,1-6.2
		c0.5-1.6,1.1-3.3,0.8-4.3c-0.3-1.1-1.7-2.2-3.1-3.3c-1.6-1.3-3.3-2.6-4.2-4.6c-0.9-1.9-0.8-4.1-0.7-6.2c0.1-1.7,0.1-3.5-0.5-4.4
		c-0.6-0.9-2.3-1.6-3.8-2.3c-1.9-0.8-3.9-1.6-5.3-3.2c-1.4-1.6-1.9-3.7-2.4-5.7c-0.4-1.7-0.9-3.4-1.7-4.1c-0.8-0.7-2.6-0.9-4.3-1.1
		c-2.1-0.2-4.2-0.5-6-1.6c-1.8-1.1-2.9-3-3.9-4.8c-0.9-1.5-1.8-3-2.8-3.5c-1-0.5-2.7-0.1-4.4,0.2c-2.1,0.4-4.2,0.8-6.2,0.1
		c-2-0.6-3.6-2-5.1-3.5c-1.3-1.2-2.6-2.4-3.7-2.6c-1.1-0.1-2.6,0.6-4.2,1.4c-1.8,0.9-3.8,1.9-6,1.9c-2.2,0-4.2-1-6-1.9
		c-1.5-0.8-3.1-1.5-4.2-1.4c-1.1,0.2-2.4,1.4-3.7,2.6c-1.5,1.4-3.1,2.9-5.1,3.5c-2.1,0.6-4.2,0.2-6.2-0.1c-1.7-0.3-3.4-0.6-4.4-0.2
		c-1,0.5-1.9,2-2.8,3.5c-1.1,1.8-2.2,3.6-3.9,4.8c-1.8,1.2-3.9,1.4-6,1.6c-1.7,0.2-3.5,0.4-4.3,1.1c-0.8,0.7-1.3,2.5-1.7,4.1
		c-0.5,2-1.1,4.1-2.4,5.7c-1.4,1.6-3.4,2.4-5.3,3.2c-1.6,0.7-3.2,1.3-3.8,2.3c-0.6,0.9-0.5,2.7-0.5,4.4c0.1,2.1,0.1,4.2-0.7,6.2
		c-0.9,1.9-2.5,3.3-4.2,4.6c-1.3,1.1-2.7,2.2-3.1,3.3c-0.3,1,0.3,2.7,0.8,4.3c0.7,2,1.3,4,1,6.2c-0.3,2.1-1.5,3.8-2.7,5.5
		c-1,1.4-2,2.9-2,4.1c0,1.1,1,2.6,2,4.1c1.2,1.7,2.4,3.5,2.7,5.5c0.3,2.1-0.4,4.2-1,6.2c-0.5,1.6-1.1,3.3-0.8,4.3
		c0.3,1.1,1.7,2.2,3.1,3.3c1.6,1.3,3.3,2.6,4.2,4.6c0.9,1.9,0.8,4.1,0.7,6.2c-0.1,1.7-0.1,3.5,0.5,4.4c0.6,0.9,2.3,1.6,3.8,2.3
		c1.9,0.8,3.9,1.6,5.3,3.2c1.4,1.6,1.9,3.7,2.4,5.7c0.4,1.7,0.9,3.4,1.7,4.1c0.8,0.7,2.6,0.9,4.3,1.1c2.1,0.2,4.2,0.5,6,1.6
		c1.8,1.1,2.9,3,3.9,4.8c0.9,1.5,1.8,3,2.8,3.5c1,0.5,2.7,0.1,4.4-0.2C76.1,164.4,77.4,164.2,78.7,164.2z"/>
	<path class="st1" d="M100,158c-32,0-58-26-58-58c0-12.9,4.1-25,11.9-35.2c0.7-1,2.1-1.2,3.1-0.4c1,0.7,1.2,2.1,0.4,3.1
		c-7.2,9.4-11,20.7-11,32.5c0,29.5,24,53.6,53.6,53.6s53.6-24,53.6-53.6s-24-53.6-53.6-53.6c-13.1,0-25.8,4.8-35.6,13.5
		c-0.9,0.8-2.3,0.7-3.1-0.2c-0.8-0.9-0.7-2.3,0.2-3.1C72.1,47.2,85.8,42,100,42c32,0,58,26,58,58C158,132,132,158,100,158z"/>
	<path class="st1" d="M100,144.3c-24.4,0-44.3-19.9-44.3-44.3c0-24.4,19.9-44.3,44.3-44.3s44.3,19.9,44.3,44.3
		c0,10.6-3.8,20.8-10.6,28.8c-0.8,0.9-2.2,1-3.1,0.2c-0.9-0.8-1-2.2-0.2-3.1c6.2-7.2,9.6-16.4,9.6-25.9c0-22-17.9-39.8-39.8-39.8
		C78,60.2,60.2,78,60.2,100S78,139.8,100,139.8c8.3,0,16.3-2.5,23-7.3c1-0.7,2.4-0.5,3.1,0.5c0.7,1,0.5,2.4-0.5,3.1
		C118.1,141.5,109.2,144.3,100,144.3z"/>
</g>
</svg>
