<?xml version="1.0" encoding="utf-8"?>
<!-- Generator: Adobe Illustrator 27.4.0, SVG Export Plug-In . SVG Version: 6.00 Build 0)  -->
<!DOCTYPE svg PUBLIC "-//W3C//DTD SVG 1.1//EN" "http://www.w3.org/Graphics/SVG/1.1/DTD/svg11.dtd" [
	<!ENTITY ns_extend "http://ns.adobe.com/Extensibility/1.0/">
	<!ENTITY ns_ai "http://ns.adobe.com/AdobeIllustrator/10.0/">
	<!ENTITY ns_graphs "http://ns.adobe.com/Graphs/1.0/">
	<!ENTITY ns_vars "http://ns.adobe.com/Variables/1.0/">
	<!ENTITY ns_imrep "http://ns.adobe.com/ImageReplacement/1.0/">
	<!ENTITY ns_sfw "http://ns.adobe.com/SaveForWeb/1.0/">
	<!ENTITY ns_custom "http://ns.adobe.com/GenericCustomNamespace/1.0/">
	<!ENTITY ns_adobe_xpath "http://ns.adobe.com/XPath/1.0/">
]>
<svg version="1.1" id="Layer_1" xmlns:x="&ns_extend;" xmlns:i="&ns_ai;" xmlns:graph="&ns_graphs;"
	 xmlns="http://www.w3.org/2000/svg" xmlns:xlink="http://www.w3.org/1999/xlink" x="0px" y="0px" viewBox="0 0 200 200"
	 style="enable-background:new 0 0 200 200;" xml:space="preserve">
<style type="text/css">
	.st0{fill:#1AD079;}
	.st1{fill:#07133B;}
</style>
<metadata>
	<sfw  xmlns="&ns_sfw;">
		<slices></slices>
		<sliceSourceBounds  bottomLeftOrigin="true" height="200" width="200" x="0" y="0"></sliceSourceBounds>
	</sfw>
</metadata>
<path class="st0" d="M179.9,200H20.1C9,200,0,191,0,179.9V20.1C0,9,9,0,20.1,0h159.7C191,0,200,9,200,20.1v159.7
	C200,191,191,200,179.9,200z"/>
<g>
	<path class="st1" d="M100,84.9c0.8,0,1.5-0.1,2.3-0.2c2-0.4,3.8-1.4,5.3-2.8c2.1-2,3.4-4.8,3.4-7.9c0-2.8-1-5.3-2.7-7.2l0,0
		c-1.2-1.4-2.8-2.5-4.6-3.1c-1.2-0.4-2.4-0.6-3.6-0.6c-6,0-10.9,4.9-10.9,10.9S94,84.9,100,84.9L100,84.9z M100,68.3
		c0.8,0,1.6,0.2,2.3,0.5c2,0.9,3.4,2.9,3.4,5.2s-1.4,4.3-3.4,5.2c-0.7,0.3-1.5,0.5-2.3,0.5c-3.1,0-5.7-2.5-5.7-5.7
		S96.9,68.3,100,68.3z"/>
	<path class="st1" d="M77.8,140.9c-1.3-0.7-2.9-0.2-3.5,1.1l-7.7,14.2c-1,1.7,0.3,3.9,2.3,3.9c0.9,0,1.8-0.5,2.3-1.4l7.7-14.2
		C79.5,143.2,79.1,141.6,77.8,140.9z"/>
	<path class="st1" d="M73.6,133c-0.9-1.2-2.5-1.4-3.7-0.5L57,142.2c-2.8,2.1,0.4,6.3,3.2,4.2l12.9-9.8
		C74.2,135.8,74.4,134.1,73.6,133L73.6,133z"/>
	<path class="st1" d="M125.8,141.9c-0.7-1.3-2.3-1.7-3.5-1.1c-1.3,0.7-1.7,2.3-1.1,3.5l7.7,14.2c0.5,0.9,1.4,1.4,2.3,1.4
		c2,0,3.3-2.1,2.3-3.9L125.8,141.9z"/>
	<path class="st1" d="M143,142.2l-12.9-9.8c-1.2-0.9-2.8-0.7-3.7,0.5c-0.9,1.2-0.7,2.8,0.5,3.7c14.1,10.7,13.3,10.3,14.5,10.3
		C143.9,147,145,143.7,143,142.2L143,142.2z"/>
	<path class="st1" d="M110.5,96.1c1.2,0.6,2.9,0,3.5-1.4c2.5-5.8,3.5-11,3.5-11.2c0.3-1.4-0.7-2.8-2.1-3.1s-2.8,0.7-3.1,2.1
		c0,0-1,4.9-3.2,10.1C108.5,93.9,109.1,95.5,110.5,96.1L110.5,96.1z"/>
	<path class="st1" d="M107.5,99.7c-1.1-0.4-2.3-0.1-3,0.8c-0.1,0.1-0.2,0.3-0.3,0.4c-1,1.1-0.8,2.8,0.3,3.7
		C107.6,107.2,111.5,101.2,107.5,99.7z"/>
	<path class="st1" d="M125,129.2c3.5-2.3,0.3-5.4-1.5-8.3l-7.5-9.7c2-2.7,5.9-8.5,8.5-16.3c8.7,0.8,15.8,7.8,15.9,7.9
		c1.8,1.8,4.8,0.3,4.5-2.2c-1-7.1-2.8-12.9-4.8-17.7l-2.3-4.8c-2.9-5.3-6-8.9-8.6-11.4l-5.1-5.3C120,51.2,112,42.7,103.1,36
		c-1.9-1.4-4.4-1.4-6.3,0c-9.4,7.1-17.7,16.1-21.6,27.2c-3.6,2.4-16.5,12.4-20.1,37.4c-0.4,2.5,2.7,4,4.5,2.2
		c0.1-0.1,7.2-7.1,15.9-7.9c2.7,7.7,6.5,13.5,8.5,16.3l-7.5,9.7c-2.8,3.6-0.2,8.8,4.3,8.8h7.9c-1.4,2.5-2.7,5.9-2.8,10.2
		c-0.2,8,4,16.1,12.3,24.2c1,1,2.6,1,3.7,0c10-9.8,16.2-22.4,9.4-34.4C111.3,129.8,122.9,130.1,125,129.2z M127,72
		c5.8,6.3,9.4,14.4,11.4,22.6c-3.7-2.4-8.1-4.2-12.4-4.8C127.4,84,127.8,78,127,72z M61.6,94.7c2.7-11.3,7.6-18.4,11.4-22.6
		C72.2,78,72.6,84,74,89.9l0,0C69.1,90.5,64.8,92.6,61.6,94.7z M100,40.3c6,4.5,10.8,9.3,14.4,14.5H85.6C89.1,49.6,94,44.8,100,40.3
		z M82.4,60L82.4,60L82.4,60h35.2l0,0c5.4,10.2,6.2,22.3,1.1,35.3l0,0c-2.6,6.6-5.9,11.4-7.4,13.3H88.6C78.2,94.8,73.9,76.3,82.4,60
		z M80.8,124.5c-0.1,0-0.1,0-0.2-0.1s0-0.2,0-0.2l8-10.3h22.7l8,10.3c0,0,0.1,0.1,0,0.2s-0.1,0.1-0.2,0.1H80.8z M100,158.6
		L100,158.6c-5.9-6.3-8.9-12.5-8.8-18.4c0.1-5.3,2.7-9,3.9-10.4h9.8c1.2,1.4,3.8,5,3.9,10.3C108.9,146,106,152.2,100,158.6z"/>
</g>
</svg>
