<?xml version="1.0" encoding="utf-8"?>
<!-- Generator: Adobe Illustrator 27.4.0, SVG Export Plug-In . SVG Version: 6.00 Build 0)  -->
<!DOCTYPE svg PUBLIC "-//W3C//DTD SVG 1.1//EN" "http://www.w3.org/Graphics/SVG/1.1/DTD/svg11.dtd" [
	<!ENTITY ns_extend "http://ns.adobe.com/Extensibility/1.0/">
	<!ENTITY ns_ai "http://ns.adobe.com/AdobeIllustrator/10.0/">
	<!ENTITY ns_graphs "http://ns.adobe.com/Graphs/1.0/">
	<!ENTITY ns_vars "http://ns.adobe.com/Variables/1.0/">
	<!ENTITY ns_imrep "http://ns.adobe.com/ImageReplacement/1.0/">
	<!ENTITY ns_sfw "http://ns.adobe.com/SaveForWeb/1.0/">
	<!ENTITY ns_custom "http://ns.adobe.com/GenericCustomNamespace/1.0/">
	<!ENTITY ns_adobe_xpath "http://ns.adobe.com/XPath/1.0/">
]>
<svg version="1.1" id="Layer_1" xmlns:x="&ns_extend;" xmlns:i="&ns_ai;" xmlns:graph="&ns_graphs;"
	 xmlns="http://www.w3.org/2000/svg" xmlns:xlink="http://www.w3.org/1999/xlink" x="0px" y="0px" viewBox="0 0 200 200"
	 style="enable-background:new 0 0 200 200;" xml:space="preserve">
<style type="text/css">
	.st0{fill:#1AD079;}
	.st1{fill:#07133B;}
</style>
<metadata>
	<sfw  xmlns="&ns_sfw;">
		<slices></slices>
		<sliceSourceBounds  bottomLeftOrigin="true" height="200" width="200" x="0" y="0"></sliceSourceBounds>
	</sfw>
</metadata>
<path class="st0" d="M179.9,200H20.1C9,200,0,191,0,179.9V20.1C0,9,9,0,20.1,0h159.7C191,0,200,9,200,20.1v159.7
	C200,191,191,200,179.9,200z"/>
<path class="st1" d="M155,64c8.3,0,15-6.7,15-15c0-8.3-6.7-15-15-15c-7.6,0-13.9,5.6-14.9,12.9H119V36.5c0-3.6-2.9-6.5-6.5-6.5H87.5
	c-3.6,0-6.5,2.9-6.5,6.5v10.5H59.9c-0.7-5.2-4.1-9.7-9-11.8c-1.1-0.4-2.3,0-2.7,1.1c-0.4,1.1,0,2.3,1.1,2.7c4,1.7,6.6,5.6,6.6,10
	c0,6-4.9,10.9-10.9,10.9S34.2,55,34.2,49c0-5.6,4.2-10.2,9.7-10.8c1.1-0.1,2-1.1,1.9-2.3c-0.1-1.1-1.1-2-2.3-1.9
	C35.8,34.9,30,41.3,30,49c0,8.3,6.7,15,15,15c7.6,0,13.9-5.6,14.9-12.9h12.2c-19.8,10.3-32.5,30.8-32.5,53.6v5.5
	c0,1.1,0.9,2.1,2.1,2.1h11.1c1.1,0,2.1-0.9,2.1-2.1v-5.5c0-9.2,2.8-18.1,8-25.6c4.7-6.8,11.1-12.1,18.5-15.5
	c0.9,2.6,3.3,4.5,6.2,4.5h7.8L59,104.9c-0.5,0.6-0.7,1.4-0.5,2.1l14.3,44.1c-4.1,1.1-7.1,4.8-7.1,9.3c0,5.3,4.3,9.6,9.6,9.6h49.3
	c5.3,0,9.6-4.3,9.6-9.6c0-4.4-3-8.2-7.1-9.3l3.8-11.8c0.4-1.1-0.2-2.3-1.3-2.6c-1.1-0.4-2.3,0.2-2.6,1.3l-4.2,12.8H77.1L62.8,107
	l35.1-35.7v34.9c-6.1,1-10.8,6.3-10.8,12.7c0,7.1,5.8,12.9,12.9,12.9s12.9-5.8,12.9-12.9c0-6.4-4.7-11.7-10.8-12.7V71.3l35.1,35.7
	l-8.1,24.9c-0.4,1.1,0.2,2.3,1.3,2.6c1.1,0.4,2.3-0.2,2.6-1.3l8.5-26.1c0.2-0.7,0-1.5-0.5-2.1L104.7,68h7.8c2.9,0,5.3-1.9,6.2-4.5
	c7.5,3.4,13.9,8.7,18.5,15.5c5.2,7.6,8,16.4,8,25.6v5.5c0,1.1,0.9,2.1,2.1,2.1h11.1c1.1,0,2.1-0.9,2.1-2.1v-5.5
	c0-22.8-12.8-43.4-32.5-53.6h12.2C141.1,58.4,147.4,64,155,64z M124.4,154.9h0.2c3,0,5.5,2.4,5.5,5.5s-2.4,5.5-5.5,5.5H75.3
	c-3,0-5.5-2.4-5.5-5.5c0-3,2.4-5.5,5.5-5.5H124.4z M155,38.1c6,0,10.9,4.9,10.9,10.9c0,6-4.9,10.9-10.9,10.9S144.1,55,144.1,49
	C144.1,43,149,38.1,155,38.1z M59.4,76.7c-5.7,8.3-8.7,18-8.7,28v3.5h-6.9v-3.5c0-23.8,14.9-45,37.3-53v7.4
	C72.2,62.8,64.8,68.9,59.4,76.7z M108.7,118.9c0,4.8-3.9,8.7-8.7,8.7s-8.7-3.9-8.7-8.7c0-4.8,3.9-8.7,8.7-8.7S108.7,114,108.7,118.9
	z M112.5,63.9H87.5c-1.3,0-2.3-1-2.3-2.3V36.5c0-1.3,1-2.3,2.3-2.3h25.1c1.3,0,2.3,1,2.3,2.3v24.1c0,0,0,0,0,0v0.9
	C114.9,62.8,113.8,63.9,112.5,63.9z M156.3,104.7v3.5h-6.9v-3.5c0-10.1-3-19.7-8.7-28c-5.4-7.9-12.9-13.9-21.6-17.5v-7.4
	C141.3,59.7,156.3,80.9,156.3,104.7z"/>
</svg>
