<?xml version="1.0" encoding="utf-8"?>
<!-- Generator: Adobe Illustrator 27.4.0, SVG Export Plug-In . SVG Version: 6.00 Build 0)  -->
<!DOCTYPE svg PUBLIC "-//W3C//DTD SVG 1.1//EN" "http://www.w3.org/Graphics/SVG/1.1/DTD/svg11.dtd" [
	<!ENTITY ns_extend "http://ns.adobe.com/Extensibility/1.0/">
	<!ENTITY ns_ai "http://ns.adobe.com/AdobeIllustrator/10.0/">
	<!ENTITY ns_graphs "http://ns.adobe.com/Graphs/1.0/">
	<!ENTITY ns_vars "http://ns.adobe.com/Variables/1.0/">
	<!ENTITY ns_imrep "http://ns.adobe.com/ImageReplacement/1.0/">
	<!ENTITY ns_sfw "http://ns.adobe.com/SaveForWeb/1.0/">
	<!ENTITY ns_custom "http://ns.adobe.com/GenericCustomNamespace/1.0/">
	<!ENTITY ns_adobe_xpath "http://ns.adobe.com/XPath/1.0/">
]>
<svg version="1.1" id="Layer_1" xmlns:x="&ns_extend;" xmlns:i="&ns_ai;" xmlns:graph="&ns_graphs;"
	 xmlns="http://www.w3.org/2000/svg" xmlns:xlink="http://www.w3.org/1999/xlink" x="0px" y="0px" viewBox="0 0 200 200"
	 style="enable-background:new 0 0 200 200;" xml:space="preserve">
<style type="text/css">
	.st0{fill:#1AD079;}
	.st1{fill:#07133B;}
</style>
<metadata>
	<sfw  xmlns="&ns_sfw;">
		<slices></slices>
		<sliceSourceBounds  bottomLeftOrigin="true" height="200" width="200" x="0" y="0"></sliceSourceBounds>
	</sfw>
</metadata>
<path class="st0" d="M179.9,200H20.1C9,200,0,191,0,179.9V20.1C0,9,9,0,20.1,0h159.7C191,0,200,9,200,20.1v159.7
	C200,191,191,200,179.9,200z"/>
<g>
	<ellipse class="st1" cx="87.5" cy="85.6" rx="3.4" ry="3.4"/>
	<circle class="st1" cx="112.6" cy="85.6" r="3.4"/>
	<path class="st1" d="M138.9,99h-16c3.2-4.6,5-10.3,5-16v-0.1c-0.4-9.6,0.3-15.8-0.1-21.3c-0.9-17.4-16.2-28.6-31.6-26.4
		c-6.6,0.6-8.8,2.7-9.4,3c-3.1,1.4-8.9,5.9-12,12.4c-3.9,7.6-2.4,13.2-2.7,31.8c0,5.7,2,11.8,5.2,16.5H61.1c-7,0-12.7,5.7-12.7,12.7
		v40.6c0,7,5.7,12.7,12.7,12.7h77.7c7,0,12.7-5.7,12.7-12.7v-40.6C151.6,104.7,145.9,99,138.9,99L138.9,99z M76.9,60.3
		c2.4-22.9,34.5-28.8,44.3-6.7c1.4,3.2,1.9,6.4,1.9,9.8c-8.2,3.9-16.7,4.4-21.2,4.4l2.8-7.5c0.8-2.1-1.6-4-3.5-2.8
		c-6.7,4.4-16.8,9-24.5,10.2C76.8,64.4,76.8,62.2,76.9,60.3L76.9,60.3z M76.8,82.6c0.1-3.9,0.1-7.3,0.1-10.1
		c6.7-0.9,14.6-4.2,21.2-7.6l-1.6,4.3c-0.6,1.6,0.6,3.3,2.4,3.2c-0.1,0-0.3,0-0.3,0c2.3,0.2,13.4,0.9,24.7-3.8
		c-0.1,4-0.2,8.6,0,14.5c0,5.9-2.4,11.9-6.4,16H83.4C80,95.7,76.8,89.5,76.8,82.6L76.8,82.6z M146.8,152.3c0,4.4-3.6,8-8,8H61.1
		c-4.4,0-8-3.6-8-8v-40.6c0-4.4,3.6-8,8-8h77.7c4.4,0,8,3.6,8,8L146.8,152.3L146.8,152.3z"/>
	<path class="st1" d="M141.5,109.6h-1.1c-1.3,0-2.4,1.1-2.4,2.4s1.1,2.4,2.4,2.4h1.1c1.3,0,2.4-1.1,2.4-2.4
		C143.8,110.6,142.8,109.6,141.5,109.6z"/>
	<path class="st1" d="M131.5,109.6h-10c-1.3,0-2.4,1.1-2.4,2.4s1.1,2.4,2.4,2.4h10c1.3,0,2.4-1.1,2.4-2.4
		C133.9,110.6,132.8,109.6,131.5,109.6z"/>
	<path class="st1" d="M108.6,119.6c-0.4-0.7-1.2-1.2-2-1.2h-13c-0.9,0-1.6,0.4-2,1.2L85,130.8c-0.4,0.7-0.4,1.6,0,2.4l6.5,11.3
		c0.4,0.7,1.2,1.2,2,1.2h13c0.9,0,1.6-0.4,2-1.2l6.5-11.3c0.4-0.7,0.4-1.6,0-2.4L108.6,119.6z M105.2,140.9H94.8l-5.2-8.9l5.2-8.9
		h10.3l5.2,8.9L105.2,140.9z"/>
</g>
</svg>
