<?xml version="1.0" encoding="utf-8"?>
<!-- Generator: Adobe Illustrator 27.4.0, SVG Export Plug-In . SVG Version: 6.00 Build 0)  -->
<!DOCTYPE svg PUBLIC "-//W3C//DTD SVG 1.1//EN" "http://www.w3.org/Graphics/SVG/1.1/DTD/svg11.dtd" [
	<!ENTITY ns_extend "http://ns.adobe.com/Extensibility/1.0/">
	<!ENTITY ns_ai "http://ns.adobe.com/AdobeIllustrator/10.0/">
	<!ENTITY ns_graphs "http://ns.adobe.com/Graphs/1.0/">
	<!ENTITY ns_vars "http://ns.adobe.com/Variables/1.0/">
	<!ENTITY ns_imrep "http://ns.adobe.com/ImageReplacement/1.0/">
	<!ENTITY ns_sfw "http://ns.adobe.com/SaveForWeb/1.0/">
	<!ENTITY ns_custom "http://ns.adobe.com/GenericCustomNamespace/1.0/">
	<!ENTITY ns_adobe_xpath "http://ns.adobe.com/XPath/1.0/">
]>
<svg version="1.1" id="Layer_1" xmlns:x="&ns_extend;" xmlns:i="&ns_ai;" xmlns:graph="&ns_graphs;"
	 xmlns="http://www.w3.org/2000/svg" xmlns:xlink="http://www.w3.org/1999/xlink" x="0px" y="0px" viewBox="0 0 200 200"
	 style="enable-background:new 0 0 200 200;" xml:space="preserve">
<style type="text/css">
	.st0{fill:#1AD079;}
	.st1{fill:#07133B;}
</style>
<metadata>
	<sfw  xmlns="&ns_sfw;">
		<slices></slices>
		<sliceSourceBounds  bottomLeftOrigin="true" height="200" width="200" x="0" y="0"></sliceSourceBounds>
	</sfw>
</metadata>
<path class="st0" d="M179.9,200H20.1C9,200,0,191,0,179.9V20.1C0,9,9,0,20.1,0h159.7C191,0,200,9,200,20.1v159.7
	C200,191,191,200,179.9,200z"/>
<g>
	<g>
		<path class="st1" d="M131.2,175H68.8c-7.3,0-13.2-5.9-13.2-13.2V38.2c0-7.3,5.9-13.2,13.2-13.2h62.4c7.3,0,13.2,5.9,13.2,13.2
			v85.6c0,1.2-1,2.2-2.2,2.2s-2.2-1-2.2-2.2V38.2c0-4.8-3.9-8.8-8.8-8.8H68.8c-4.8,0-8.8,3.9-8.8,8.8v123.6c0,4.8,3.9,8.8,8.8,8.8
			h62.4c4.8,0,8.8-3.9,8.8-8.8v-27.8c0-1.2,1-2.2,2.2-2.2s2.2,1,2.2,2.2v27.8C144.4,169.1,138.5,175,131.2,175z"/>
	</g>
	<g>
		<path class="st1" d="M103.7,38.2H89c-1.2,0-2.2-1-2.2-2.2s1-2.2,2.2-2.2h14.6c1.2,0,2.2,1,2.2,2.2S104.9,38.2,103.7,38.2z"/>
	</g>
	<g>
		<path class="st1" d="M116.7,160.4H83.3c-3.5,0-6.3-2.8-6.3-6.3v-6.7c0-3.5,2.8-6.3,6.3-6.3h6.4c1.2,0,2.2,1,2.2,2.2
			s-1,2.2-2.2,2.2h-6.4c-1.1,0-1.9,0.9-1.9,1.9v6.7c0,1.1,0.9,1.9,1.9,1.9h33.4c1.1,0,1.9-0.9,1.9-1.9v-6.7c0-1.1-0.9-1.9-1.9-1.9
			h-16.6c-1.2,0-2.2-1-2.2-2.2s1-2.2,2.2-2.2h16.6c3.5,0,6.3,2.8,6.3,6.3v6.7C123,157.5,120.2,160.4,116.7,160.4z"/>
	</g>
	<g>
		<path class="st1" d="M100.1,128.1c-18.9,0.4-35.9-16.3-35.6-35.4c0-9.3,3.5-18.1,9.9-24.8c0.8-0.9,2.2-0.9,3.1-0.1
			c0.9,0.8,0.9,2.2,0.1,3.1c-5.6,5.9-8.7,13.6-8.6,21.7c-0.3,16.5,14.5,31.4,31.2,31.1c16.7,0.4,31.7-14.5,31.2-31.4
			c0-8.3-3.3-16.2-9.2-22c-5.9-5.9-13.8-9.1-22.1-9c-5.2,0-10.3,1.3-14.8,3.8c-1.1,0.6-2.4,0.2-3-0.9c-0.6-1.1-0.2-2.4,0.9-3
			c5.1-2.8,11-4.3,16.8-4.3c9.3-0.1,18.5,3.6,25.2,10.3c6.8,6.7,10.5,15.6,10.5,25.1C136.3,111.4,119.4,128.6,100.1,128.1z"/>
	</g>
	<g>
		<g>
			<path class="st1" d="M96,111.6c-1.8,0-3.4-0.7-4.7-1.9L78.1,96.4c-2.3-2.3-2.7-6.7,0-9.3c2.3-2.3,6.7-2.7,9.3,0l8.7,8.7
				l16.9-16.9c2.3-2.3,6.7-2.7,9.3,0c2.3,2.3,2.7,6.7,0,9.3l-7.8,7.8c-0.9,0.9-2.2,0.9-3.1,0c-0.9-0.9-0.9-2.2,0-3.1l7.8-7.8
				c0.6-0.7,1-2,0-3.1c-0.9-0.9-2.3-0.9-3.1,0l-18.4,18.4c-0.9,0.9-2.2,0.9-3.1,0L84.3,90.2c-0.9-0.9-2.3-0.9-3.1,0
				c-0.6,0.7-1,2,0,3.1l13.3,13.3c0.4,0.4,1,0.6,1.6,0.6s1.1-0.2,1.6-0.6l6.5-6.5c0.9-0.9,2.2-0.9,3.1,0c0.9,0.9,0.9,2.2,0,3.1
				l-6.5,6.5C99.5,111,97.8,111.6,96,111.6L96,111.6z"/>
		</g>
	</g>
	<circle class="st1" cx="111" cy="36" r="2.2"/>
</g>
</svg>
