<?xml version="1.0" encoding="utf-8"?>
<!-- Generator: Adobe Illustrator 27.4.1, SVG Export Plug-In . SVG Version: 6.00 Build 0)  -->
<!DOCTYPE svg PUBLIC "-//W3C//DTD SVG 1.1//EN" "http://www.w3.org/Graphics/SVG/1.1/DTD/svg11.dtd" [
	<!ENTITY ns_extend "http://ns.adobe.com/Extensibility/1.0/">
	<!ENTITY ns_ai "http://ns.adobe.com/AdobeIllustrator/10.0/">
	<!ENTITY ns_graphs "http://ns.adobe.com/Graphs/1.0/">
	<!ENTITY ns_vars "http://ns.adobe.com/Variables/1.0/">
	<!ENTITY ns_imrep "http://ns.adobe.com/ImageReplacement/1.0/">
	<!ENTITY ns_sfw "http://ns.adobe.com/SaveForWeb/1.0/">
	<!ENTITY ns_custom "http://ns.adobe.com/GenericCustomNamespace/1.0/">
	<!ENTITY ns_adobe_xpath "http://ns.adobe.com/XPath/1.0/">
]>
<svg version="1.1" id="Warstwa_1" xmlns:x="&ns_extend;" xmlns:i="&ns_ai;" xmlns:graph="&ns_graphs;"
	 xmlns="http://www.w3.org/2000/svg" xmlns:xlink="http://www.w3.org/1999/xlink" x="0px" y="0px" viewBox="0 0 50 50"
	 style="enable-background:new 0 0 50 50;" xml:space="preserve">
<style type="text/css">
	.st0{fill:#1AD079;}
	.st1{fill:#07133B;}
</style>
<metadata>
	<sfw  xmlns="&ns_sfw;">
		<slices></slices>
		<sliceSourceBounds  bottomLeftOrigin="true" height="50" width="50" x="0" y="0"></sliceSourceBounds>
	</sfw>
</metadata>
<path class="st0" d="M45,50H5c-2.8,0-5-2.2-5-5V5c0-2.8,2.2-5,5-5h40c2.8,0,5,2.2,5,5v40C50,47.8,47.8,50,45,50z"/>
<g id="Mail_1_">
	<path class="st1" d="M37,13.5H13c-2.2,0-4,1.8-4,4v15c0,2.2,1.8,4,4,4h24c2.2,0,4-1.8,4-4v-15C41,15.3,39.2,13.5,37,13.5z M39,32.5
		c0,1.1-0.9,2-2,2H13c-1.1,0-2-0.9-2-2v-15c0-1.1,0.9-2,2-2h24c1.1,0,2,0.9,2,2V32.5z"/>
	<path class="st1" d="M35.4,18.7L25,27.2l-10.4-8.5c-0.4-0.3-1.1-0.3-1.4,0.1c-0.3,0.4-0.3,1.1,0.1,1.4l11,9
		c0.2,0.2,0.4,0.2,0.6,0.2s0.4-0.1,0.6-0.2l11-9c0.4-0.3,0.5-1,0.1-1.4C36.4,18.4,35.8,18.4,35.4,18.7z"/>
</g>
</svg>
