<?xml version="1.0" encoding="utf-8"?>
<!-- Generator: Adobe Illustrator 27.4.0, SVG Export Plug-In . SVG Version: 6.00 Build 0)  -->
<!DOCTYPE svg PUBLIC "-//W3C//DTD SVG 1.1//EN" "http://www.w3.org/Graphics/SVG/1.1/DTD/svg11.dtd" [
	<!ENTITY ns_extend "http://ns.adobe.com/Extensibility/1.0/">
	<!ENTITY ns_ai "http://ns.adobe.com/AdobeIllustrator/10.0/">
	<!ENTITY ns_graphs "http://ns.adobe.com/Graphs/1.0/">
	<!ENTITY ns_vars "http://ns.adobe.com/Variables/1.0/">
	<!ENTITY ns_imrep "http://ns.adobe.com/ImageReplacement/1.0/">
	<!ENTITY ns_sfw "http://ns.adobe.com/SaveForWeb/1.0/">
	<!ENTITY ns_custom "http://ns.adobe.com/GenericCustomNamespace/1.0/">
	<!ENTITY ns_adobe_xpath "http://ns.adobe.com/XPath/1.0/">
]>
<svg version="1.1" id="Layer_1" xmlns:x="&ns_extend;" xmlns:i="&ns_ai;" xmlns:graph="&ns_graphs;"
	 xmlns="http://www.w3.org/2000/svg" xmlns:xlink="http://www.w3.org/1999/xlink" x="0px" y="0px" viewBox="0 0 200 200"
	 style="enable-background:new 0 0 200 200;" xml:space="preserve">
<style type="text/css">
	.st0{fill:#1AD079;}
	.st1{fill:#07133B;}
</style>
<metadata>
	<sfw  xmlns="&ns_sfw;">
		<slices></slices>
		<sliceSourceBounds  bottomLeftOrigin="true" height="200" width="200" x="-1.5" y="2.1"></sliceSourceBounds>
	</sfw>
</metadata>
<path class="st0" d="M179.9,200H20.1C9,200,0,191,0,179.9V20.1C0,9,9,0,20.1,0h159.7C191,0,200,9,200,20.1v159.7
	C200,191,191,200,179.9,200z"/>
<g>
	<g id="g3486" transform="translate(364.7139,428.5005)">
		<path id="path3488" class="st1" d="M-232.9-379c1.3-0.9,3-0.5,3.9,0.8l4,6l3.9,5.9c-8,4.2-18,2.2-23.8-4.6L-232.9-379z
			 M-194.8-358.7l-8.5,10.8l-22-32.8c-2.2-3.3-6.7-4.2-10-2l-19.5,13c-2.4,1.6,0.1,5.2,2.4,3.7l3.8-2.6c4.6,5.7,11.5,8.8,18.5,8.8
			c3.9,0,7.8-0.9,11.4-2.9l11.6,17.2c-4.3,3.5-7.3,8.4-8.4,13.9c-1.1,5.5-0.2,11.1,2.4,16l-32.8,22c0,0,0,0,0,0l-37.1,24.8
			c-7.2-8.9-19.9-11.3-29.9-5.8l-11.6-17.2c4.3-3.5,7.3-8.4,8.4-13.9c1.1-5.5,0.2-11.1-2.5-16l55.9-37.4c2.4-1.6-0.1-5.2-2.4-3.7
			l-16.3,10.9l36.2-46.1c1-1.2,2.7-1.4,3.9-0.5l45.9,35.8c0.6,0.5,1,1.1,1.1,1.9C-194.1-360.1-194.3-359.3-194.8-358.7 M-211-330.8
			c0.9-4.4,3.1-8.2,6.5-11.1l8,11.9c0.4,0.6,0.6,1.4,0.4,2.1c-0.1,0.7-0.6,1.4-1.2,1.8l-11.9,8C-211.2-322-211.9-326.4-211-330.8
			 M-269.9-263.1c-1,1.2-2.7,1.4-3.9,0.5l-4.8-3.8l23.9-16L-269.9-263.1z M-298.4-258.4c-1.3,0.9-3,0.5-3.9-0.8l-0.1-0.1l-7.9-11.7
			c8-4.2,18-2.2,23.8,4.6L-298.4-258.4z M-320.3-306.6c-0.9,4.4-3.1,8.2-6.5,11.1l-7-10.4l-1-1.5c-0.4-0.6-0.6-1.4-0.4-2.1
			c0.1-0.6,0.5-1.2,1-1.6c0.1-0.1,0.1-0.1,0.2-0.2l3.9-2.6l8-5.3C-320-315.4-319.4-311-320.3-306.6 M-189.9-361.3
			c-0.2-1.9-1.2-3.6-2.7-4.8l-45.9-35.8c-3.1-2.4-7.7-1.9-10.1,1.2l-44.5,56.7l-29.5,19.8c0,0,0,0,0,0l-8.1,5.5l-5.7,3.8
			c-0.1,0.1-0.2,0.1-0.3,0.2c-1.4,1.1-2.4,2.6-2.8,4.4c-0.4,1.9,0,3.8,1.1,5.4l0,0c0,0,0,0,0,0l6.9,10.3l2.4,3.6v0l13.9,20.7
			c0,0,0,0,0,0l2.3,3.4l7,10.4c1.4,2.1,3.7,3.2,6,3.2c1.4,0,2.8-0.4,4-1.2l0,0c0,0,0,0,0,0l13.5-9l6,4.7c1.3,1,2.9,1.5,4.4,1.5
			c2.1,0,4.3-0.9,5.7-2.8l23.4-29.9l34.1-22.9c0,0,0.1,0,0.1-0.1l13.8-9.3c1.6-1.1,2.7-2.7,3.1-4.6c0.4-1.9,0-3.8-1.1-5.4l0,0
			c0,0,0,0,0,0l-7.8-11.7l9.4-12C-190.2-357.5-189.6-359.4-189.9-361.3"/>
	</g>
	<g id="g3490" transform="translate(197.9639,304.3516)">
		<path id="path3492" class="st1" d="M-115-218.5c-6.4,4.3-10.8,10.8-12.2,18.4c-1.5,7.6,0.1,15.2,4.3,21.6
			c4.3,6.4,10.9,10.8,18.5,12.2c2.7,0.5,3.6-3.8,0.8-4.3c-6.4-1.3-12-4.9-15.6-10.4c-3.6-5.4-4.9-11.9-3.7-18.3
			c1.3-6.4,5-11.9,10.4-15.6c11.2-7.5,26.4-4.5,34,6.7c3.6,5.4,4.9,11.9,3.7,18.3c-1.3,6.4-5,11.9-10.4,15.6
			c-2.1,1.4-4.5,2.5-6.9,3.2c-2.7,0.8-1.5,5,1.2,4.2c2.9-0.8,5.6-2.1,8.2-3.8c6.4-4.3,10.8-10.8,12.2-18.4
			c1.5-7.6-0.1-15.2-4.3-21.6C-83.8-223.8-101.7-227.4-115-218.5"/>
	</g>
	<g id="g3494" transform="translate(367.0488,291.5518)">
		<path id="path3496" class="st1" d="M-234.5-202c0.4,0,0.8-0.1,1.2-0.4l10.3-6.9c1-0.7,1.3-2,0.6-3c-0.7-1-2-1.3-3-0.6l-10.3,6.9
			c-1,0.7-1.3,2-0.6,3C-235.9-202.3-235.2-202-234.5-202"/>
	</g>
	<g id="g3498" transform="translate(134.4375,152.3481)">
		<path id="path3500" class="st1" d="M-70.1-22l-10.3,6.9c-1,0.7-1.3,2-0.6,3c0.4,0.6,1.1,1,1.8,1c0.4,0,0.8-0.1,1.2-0.4l10.3-6.9
			c1-0.7,1.3-2,0.6-3C-67.7-22.4-69-22.7-70.1-22"/>
	</g>
	<g id="g3502" transform="translate(261.7646,222.5591)">
		<path id="path3504" class="st1" d="M-160.1-112.8c3.6-0.9,5.1,1.7,5.5,2.5c0.7,1.5,0.7,3.6-0.4,5.4l-5.2-7.8
			C-160.2-112.7-160.1-112.7-160.1-112.8 M-169.2-115.8c-0.9-0.1-1.8-0.9-2.3-2c-0.4-1-0.6-2.4,0.1-3.6l3.7,5.6
			C-168.1-115.7-168.7-115.7-169.2-115.8 M-154.9-96.9c1.7,2.5,5.2-0.2,3.6-2.4l-1.2-1.8c3.2-3.3,3.3-7.8,1.8-11
			c-2.4-5.3-7.3-5.7-12.2-4.5l-5-7.4c1.3-0.4,2.2-0.3,2.3-0.3c2.8,0.4,3.4-3.9,0.6-4.3c-0.2,0-2.6-0.4-5.5,0.9l-1-1.4
			c-1.6-2.4-5.2,0.1-3.6,2.4l1.1,1.6c-2.3,2.4-2.9,6-1.6,9.1c1.9,4.5,6.3,5.1,10.7,4.3l6.4,9.6c-1.3,0.7-2.3,0.9-4.2,0.9
			c-2.8,0-2.7,4.4,0.1,4.4c3,0,4.7-0.6,6.6-1.7L-154.9-96.9z"/>
	</g>
</g>
</svg>
