<?xml version="1.0" encoding="utf-8"?>
<!-- Generator: Adobe Illustrator 27.4.0, SVG Export Plug-In . SVG Version: 6.00 Build 0)  -->
<!DOCTYPE svg PUBLIC "-//W3C//DTD SVG 1.1//EN" "http://www.w3.org/Graphics/SVG/1.1/DTD/svg11.dtd" [
	<!ENTITY ns_extend "http://ns.adobe.com/Extensibility/1.0/">
	<!ENTITY ns_ai "http://ns.adobe.com/AdobeIllustrator/10.0/">
	<!ENTITY ns_graphs "http://ns.adobe.com/Graphs/1.0/">
	<!ENTITY ns_vars "http://ns.adobe.com/Variables/1.0/">
	<!ENTITY ns_imrep "http://ns.adobe.com/ImageReplacement/1.0/">
	<!ENTITY ns_sfw "http://ns.adobe.com/SaveForWeb/1.0/">
	<!ENTITY ns_custom "http://ns.adobe.com/GenericCustomNamespace/1.0/">
	<!ENTITY ns_adobe_xpath "http://ns.adobe.com/XPath/1.0/">
]>
<svg version="1.1" id="Layer_1" xmlns:x="&ns_extend;" xmlns:i="&ns_ai;" xmlns:graph="&ns_graphs;"
	 xmlns="http://www.w3.org/2000/svg" xmlns:xlink="http://www.w3.org/1999/xlink" x="0px" y="0px" viewBox="0 0 200 200"
	 style="enable-background:new 0 0 200 200;" xml:space="preserve">
<style type="text/css">
	.st0{fill:#1AD079;}
	.st1{fill:#07133B;}
</style>
<metadata>
	<sfw  xmlns="&ns_sfw;">
		<slices></slices>
		<sliceSourceBounds  bottomLeftOrigin="true" height="200" width="200" x="-2.5" y="1.2"></sliceSourceBounds>
	</sfw>
</metadata>
<path class="st0" d="M179.9,200H20.1C9,200,0,191,0,179.9V20.1C0,9,9,0,20.1,0h159.7C191,0,200,9,200,20.1v159.7
	C200,191,191,200,179.9,200z"/>
<g>
	<path class="st1" d="M163.4,105.1c-2.9-0.1-5.6,0.9-7.8,2.7v-0.3c0-6.5-5.2-11.9-11.6-12.1c-3.2-0.1-6.2,1.1-8.5,3.3
		c-1.6-4.6-5.9-8-10.9-8.1c-2.9-0.1-5.6,0.9-7.8,2.7v-5.6h12.4c6.6,0,11.9-5.3,11.9-11.9V36.9c0-6.6-5.3-11.9-11.9-11.9H36.9
		C30.3,25,25,30.3,25,36.9v38.8c0,6.6,5.3,11.9,11.9,11.9h8.2c1.2,0,2.2-1,2.2-2.2c0-1.2-1-2.2-2.2-2.2h-8.2c-4.1,0-7.5-3.4-7.5-7.5
		V36.9c0-4.1,3.4-7.5,7.5-7.5h92.2c4.1,0,7.5,3.4,7.5,7.5v38.8c0,4.1-3.4,7.5-7.5,7.5h-12.4v-5.3h7.5c3.9,0,7.1-3.2,7.1-7.1V41.8
		c0-3.9-3.2-7.1-7.1-7.1H41.8c-3.9,0-7.1,3.2-7.1,7.1v29.1c0,3.9,3.2,7.1,7.1,7.1H93v5.3H55.2c-1.2,0-2.2,1-2.2,2.2
		c0,1.2,1,2.2,2.2,2.2H93v6.7c0,1.2,1,2.2,2.2,2.2c1.2,0,2.2-1,2.2-2.2V70.9c0-4.1,3.4-7.5,7.5-7.5c4.1,0,7.5,3.4,7.5,7.5v4.8
		c0,0,0,0,0,0s0,0,0,0v9.6c0,0,0,0.1,0,0.1s0,0.1,0,0.1v28.7c0,1.2,1,2.2,2.2,2.2c1.2,0,2.2-1,2.2-2.2v-11.8c0-2,0.8-4,2.3-5.4
		c1.5-1.4,3.4-2.2,5.4-2.1c4,0.1,7.3,3.6,7.3,7.7v4.7v4.9c0,1.2,1,2.2,2.2,2.2s2.2-1,2.2-2.2v-4.9c0-2,0.8-4,2.3-5.4
		c1.5-1.4,3.4-2.2,5.4-2.1c4,0.1,7.3,3.6,7.3,7.7v9.5c0,1.2,1,2.2,2.2,2.2s2.2-1,2.2-2.2c0-2,0.8-4,2.3-5.4c1.5-1.4,3.4-2.2,5.4-2.1
		c4,0.1,7.3,3.6,7.3,7.7v21.6c0,17.5-14.3,31.8-31.8,31.8h-24.3c-17.5,0-31.8-14.3-31.8-31.8v-19.4c0-4.1,3.4-7.5,7.5-7.5H93v17.2
		c0,1.2,1,2.2,2.2,2.2c1.2,0,2.2-1,2.2-2.2v-24.6c0-1.2-1-2.2-2.2-2.2c-1.2,0-2.2,1-2.2,2.2v2.9h-2.7c-6.6,0-11.9,5.3-11.9,11.9
		v19.4c0,19.9,16.2,36.2,36.2,36.2h24.3c19.9,0,36.2-16.2,36.2-36.2v-21.6C175,110.7,169.8,105.3,163.4,105.1z M104.9,59
		C98.3,59,93,64.3,93,70.9v2.7H41.8c-1.5,0-2.7-1.2-2.7-2.7V41.8c0-1.5,1.2-2.7,2.7-2.7h82.5c1.5,0,2.7,1.2,2.7,2.7v29.1
		c0,1.5-1.2,2.7-2.7,2.7h-7.5v-2.7C116.8,64.3,111.4,59,104.9,59z"/>
	<path class="st1" d="M95.3,44.8c-1.7-1.9-4.6-2.1-6.5-0.4l-8.3,7.3l-3.5-2.7c0,0,0,0,0,0c-1.9-1.5-4.6-1.2-6.2,0.5l-3.3,3.7
		c-0.9,0.9-1.3,2.1-1.2,3.4c0.1,1.3,0.7,2.4,1.6,3.2l10.4,8.8c0,0,0,0,0,0c0.6,0.5,1.4,0.8,2.2,0.8c0.8,0,1.6-0.3,2.3-0.8l15.4-13.6
		c0.9-0.8,1.5-2,1.6-3.2c0.1-1.2-0.3-2.4-1.2-3.4L95.3,44.8z M95.3,51.6L80.5,64.7l-9.8-8.3c0,0-0.1-0.1-0.1-0.2
		c0-0.1,0-0.1,0.1-0.2l3.3-3.7c0,0,0.1-0.1,0.2-0.1c0,0,0.1,0,0.1,0l4.1,3.3c0,0,0,0,0,0c1.3,1,3.1,0.9,4.3-0.1l8.9-7.8
		c0.1-0.1,0.2-0.1,0.3,0l3.2,3.6c0,0,0.1,0.1,0.1,0.2C95.4,51.5,95.3,51.6,95.3,51.6z"/>
</g>
</svg>
