<?xml version="1.0" encoding="utf-8"?>
<!-- Generator: Adobe Illustrator 27.4.0, SVG Export Plug-In . SVG Version: 6.00 Build 0)  -->
<!DOCTYPE svg PUBLIC "-//W3C//DTD SVG 1.1//EN" "http://www.w3.org/Graphics/SVG/1.1/DTD/svg11.dtd" [
	<!ENTITY ns_extend "http://ns.adobe.com/Extensibility/1.0/">
	<!ENTITY ns_ai "http://ns.adobe.com/AdobeIllustrator/10.0/">
	<!ENTITY ns_graphs "http://ns.adobe.com/Graphs/1.0/">
	<!ENTITY ns_vars "http://ns.adobe.com/Variables/1.0/">
	<!ENTITY ns_imrep "http://ns.adobe.com/ImageReplacement/1.0/">
	<!ENTITY ns_sfw "http://ns.adobe.com/SaveForWeb/1.0/">
	<!ENTITY ns_custom "http://ns.adobe.com/GenericCustomNamespace/1.0/">
	<!ENTITY ns_adobe_xpath "http://ns.adobe.com/XPath/1.0/">
]>
<svg version="1.1" id="Layer_1" xmlns:x="&ns_extend;" xmlns:i="&ns_ai;" xmlns:graph="&ns_graphs;"
	 xmlns="http://www.w3.org/2000/svg" xmlns:xlink="http://www.w3.org/1999/xlink" x="0px" y="0px" viewBox="0 0 200 200"
	 style="enable-background:new 0 0 200 200;" xml:space="preserve">
<style type="text/css">
	.st0{fill:#1AD079;}
	.st1{fill:#07133B;}
</style>
<metadata>
	<sfw  xmlns="&ns_sfw;">
		<slices></slices>
		<sliceSourceBounds  bottomLeftOrigin="true" height="200" width="200" x="0" y="0"></sliceSourceBounds>
	</sfw>
</metadata>
<path class="st0" d="M179.9,200H20.1C9,200,0,191,0,179.9V20.1C0,9,9,0,20.1,0h159.7C191,0,200,9,200,20.1v159.7
	C200,191,191,200,179.9,200z"/>
<g>
	<path class="st1" d="M108.5,123.1c18.2,0,32.8-14.6,32.8-32.8c0-29-35.3-43.8-55.9-23.2S79.5,123.1,108.5,123.1z M128.7,70.1
		c11.2,11.2,11.2,29.3,0,40.4s-29.3,11.2-40.4,0s-11.2-29.3,0-40.4S117.7,58.9,128.7,70.1L128.7,70.1z"/>
	<path class="st1" d="M159.8,131.5l-16.7-16.7c15.8-22.3,6.7-54-19-64V39.7c0-2.6-2.1-4.7-4.7-4.7H42.8c-2.6,0-4.7,2.1-4.7,4.7
		v120.6c0,2.6,2.1,4.7,4.7,4.7h59c0.5,0,1.1-0.2,1.4-0.5c0.3-0.2,20.1-18.1,20.3-18.2c0.9-0.8,0.7,0,0.7-16.4c3.1-1.3,6.2-2.8,9-4.9
		l16.7,16.7c2.7,2.7,7.3,2.7,10.1,0C162.6,138.9,162.6,134.3,159.8,131.5L159.8,131.5z M108.5,128.6c-33.9,0-51.1-41.2-27.1-65.3
		c14.9-14.9,39.2-14.9,54.2,0C159.6,87.4,142.5,128.6,108.5,128.6z M103.8,158.3v-11.5h12.8L103.8,158.3z M119.9,142.7h-18.2
		c-1.2,0-2.1,1-2.1,2.1v16.1H42.8c-0.3,0-0.5-0.2-0.5-0.5V39.7c0-0.3,0.2-0.5,0.5-0.5h76.6c0.3,0,0.5,0.2,0.5,0.5v9.8
		c-14.2-3.9-30.2-0.3-41.4,10.8c-16.6,16.6-16.6,43.5,0,60c11.2,11.2,27.1,14.8,41.4,10.9C119.9,131.2,119.9,142.7,119.9,142.7z
		 M156.9,138.7c-1.2,1.2-3,1.2-4.2,0l-16.3-16.3c1.7-1.5,2.7-2.6,4.2-4.2l16.3,16.3C158.1,135.6,158.1,137.5,156.9,138.7z"/>
	<path class="st1" d="M70.9,55.6h4.9c1.2,0,2.1-1,2.1-2.1c0-1.2-1-2.1-2.1-2.1h-4.9c-1.2,0-2.1,1-2.1,2.1
		C68.7,54.7,69.7,55.6,70.9,55.6z"/>
	<path class="st1" d="M48,55.6h15.1c1.2,0,2.1-1,2.1-2.1c0-1.2-1-2.1-2.1-2.1H48c-1.2,0-2.1,1-2.1,2.1C45.8,54.7,46.8,55.6,48,55.6z
		"/>
	<path class="st1" d="M48,81.8h12.1c1.2,0,2.1-1,2.1-2.1c0-1.2-1-2.1-2.1-2.1H48c-1.2,0-2.1,1-2.1,2.1C45.8,80.8,46.8,81.8,48,81.8z
		"/>
	<path class="st1" d="M48,95.1h12.1c1.2,0,2.1-1,2.1-2.1c0-1.2-1-2.1-2.1-2.1H48c-1.2,0-2.1,1-2.1,2.1C45.8,94.1,46.8,95.1,48,95.1z
		"/>
	<path class="st1" d="M48,108.5h15.3c1.2,0,2.1-1,2.1-2.1c0-1.2-1-2.1-2.1-2.1H48c-1.2,0-2.1,1-2.1,2.1
		C45.8,107.6,46.8,108.5,48,108.5z"/>
	<path class="st1" d="M48,131c-1.2,0-2.1,1-2.1,2.1c0,1.2,1,2.1,2.1,2.1h13.5c1.2,0,2.1-1,2.1-2.1c0-1.2-1-2.1-2.1-2.1H48z"/>
	<path class="st1" d="M68.2,144.5H48c-1.2,0-2.1,1-2.1,2.1c0,1.2,1,2.1,2.1,2.1h20.3c1.2,0,2.1-1,2.1-2.1
		C70.3,145.4,69.4,144.5,68.2,144.5z"/>
	<path class="st1" d="M51.6,126.3c0.8,0.8,2.2,0.8,2.9,0L65,115.9c0.8-0.8,0.8-2.2,0-2.9c-0.8-0.8-2.2-0.8-2.9,0l-8.9,8.9l-3.7-3.7
		c-0.8-0.8-2.2-0.8-2.9,0c-0.8,0.8-0.8,2.2,0,2.9L51.6,126.3z"/>
	<path class="st1" d="M47.9,73.9c1.1,0,1.2-0.3,5.2-4.3c4,4,4.1,4.3,5.2,4.3c1.9,0,2.7-2.3,1.5-3.5L56,66.7l3.7-3.7
		c0.8-0.8,0.8-2.2,0-2.9c-0.8-0.8-2.2-0.8-2.9,0l-3.6,3.7L49.5,60c-0.8-0.8-2.2-0.8-2.9,0c-0.8,0.8-0.8,2.2,0,2.9l3.7,3.7l-3.7,3.7
		C45.2,71.7,46,73.9,47.9,73.9z"/>
	<path class="st1" d="M96.9,78.2h23.4c1.2,0,2.1-1,2.1-2.1c0-1.2-1-2.1-2.1-2.1H96.9c-1.2,0-2.1,1-2.1,2.1
		C94.8,77.3,95.7,78.2,96.9,78.2z"/>
	<path class="st1" d="M90.8,90.5h35.5c1.2,0,2.1-1,2.1-2.1c0-1.2-1-2.1-2.1-2.1H90.8c-1.2,0-2.1,1-2.1,2.1
		C88.7,89.6,89.7,90.5,90.8,90.5z"/>
	<path class="st1" d="M120.3,99.1H96.9c-1.2,0-2.1,1-2.1,2.1c0,1.2,1,2.1,2.1,2.1h23.4c1.2,0,2.1-1,2.1-2.1
		C122.4,100,121.4,99.1,120.3,99.1z"/>
</g>
</svg>
