<?xml version="1.0" encoding="utf-8"?>
<!-- Generator: Adobe Illustrator 27.4.1, SVG Export Plug-In . SVG Version: 6.00 Build 0)  -->
<!DOCTYPE svg PUBLIC "-//W3C//DTD SVG 1.1//EN" "http://www.w3.org/Graphics/SVG/1.1/DTD/svg11.dtd" [
	<!ENTITY ns_extend "http://ns.adobe.com/Extensibility/1.0/">
	<!ENTITY ns_ai "http://ns.adobe.com/AdobeIllustrator/10.0/">
	<!ENTITY ns_graphs "http://ns.adobe.com/Graphs/1.0/">
	<!ENTITY ns_vars "http://ns.adobe.com/Variables/1.0/">
	<!ENTITY ns_imrep "http://ns.adobe.com/ImageReplacement/1.0/">
	<!ENTITY ns_sfw "http://ns.adobe.com/SaveForWeb/1.0/">
	<!ENTITY ns_custom "http://ns.adobe.com/GenericCustomNamespace/1.0/">
	<!ENTITY ns_adobe_xpath "http://ns.adobe.com/XPath/1.0/">
]>
<svg version="1.1" id="Warstwa_1" xmlns:x="&ns_extend;" xmlns:i="&ns_ai;" xmlns:graph="&ns_graphs;"
	 xmlns="http://www.w3.org/2000/svg" xmlns:xlink="http://www.w3.org/1999/xlink" x="0px" y="0px" viewBox="0 0 50 50"
	 style="enable-background:new 0 0 50 50;" xml:space="preserve">
<style type="text/css">
	.st0{fill:#1AD079;}
	.st1{fill:#07133B;}
</style>
<metadata>
	<sfw  xmlns="&ns_sfw;">
		<slices></slices>
		<sliceSourceBounds  bottomLeftOrigin="true" height="50" width="50" x="0" y="0"></sliceSourceBounds>
	</sfw>
</metadata>
<path class="st0" d="M45,50H5c-2.8,0-5-2.2-5-5V5c0-2.8,2.2-5,5-5h40c2.8,0,5,2.2,5,5v40C50,47.8,47.8,50,45,50z"/>
<g id="Phone_00000153696454814083084180000002497361385835126187_">
	<path class="st1" d="M40.2,23.3c-2.7-6.2-7.5-11-13.6-13.5c-0.5-0.2-1.1,0-1.3,0.6c-0.2,0.5,0,1.1,0.5,1.3
		c5.6,2.3,10,6.8,12.5,12.4c0.2,0.4,0.5,0.6,0.9,0.6c0.1,0,0.3,0,0.4-0.1C40.2,24.4,40.4,23.8,40.2,23.3z"/>
	<path class="st1" d="M25.3,17.1c3.4,1.4,6.1,4.1,7.6,7.5c0.2,0.4,0.5,0.6,0.9,0.6c0.1,0,0.3,0,0.4-0.1c0.5-0.2,0.7-0.8,0.5-1.3
		c-1.7-3.9-4.8-6.9-8.6-8.5c-0.5-0.2-1,0-1.2,0.5C24.6,16.4,24.9,16.9,25.3,17.1z"/>
	<path class="st1" d="M35,29c-0.5-0.5-1.2-0.8-1.8-0.8S32,28.5,31.4,29c-0.8,0.8-1.6,1.6-2.5,2.5c-0.1,0.1-0.3,0.2-0.4,0.2
		s-0.2,0-0.3-0.1c-0.5-0.3-1.1-0.5-1.6-0.8c-2.4-1.5-4.4-3.4-6.1-5.6c-0.9-1.1-1.7-2.2-2.2-3.5c-0.1-0.3-0.1-0.4,0.1-0.6
		c0.8-0.8,1.6-1.6,2.4-2.4c1.1-1.1,1.1-2.5,0-3.6c-0.6-0.6-1.3-1.3-1.9-1.9c-0.7-0.7-1.3-1.3-2-2c-0.5-0.5-1.1-0.8-1.8-0.8
		c-0.6,0-1.2,0.3-1.8,0.8c-0.8,0.8-1.6,1.7-2.5,2.5c-0.8,0.7-1.2,1.6-1.3,2.7c-0.1,1.7,0.3,3.3,0.9,4.9c1.2,3.3,3.1,6.2,5.3,8.8
		c3,3.6,6.7,6.5,10.9,8.5c1.9,0.9,3.9,1.6,6,1.8c0.1,0,0.3,0,0.4,0c1.3,0,2.5-0.4,3.4-1.5c0.7-0.8,1.5-1.5,2.2-2.3
		c1.1-1.1,1.1-2.5,0-3.6C37.6,31.6,36.3,30.3,35,29z M37.5,35.1c-0.2,0.2-0.5,0.5-0.7,0.7c-0.5,0.5-1.1,1-1.6,1.6s-1.1,0.8-1.9,0.8
		c-0.1,0-0.2,0-0.3,0c-1.6-0.1-3.2-0.6-5.3-1.6c-3.9-1.9-7.4-4.6-10.2-8c-2.3-2.7-3.9-5.4-5-8.3c-0.6-1.6-0.9-2.9-0.8-4.1
		c0-0.6,0.2-1,0.6-1.4c0.5-0.5,1-1,1.5-1.5c0.3-0.3,0.6-0.6,1-1c0.2-0.2,0.3-0.2,0.4-0.2c0,0,0.2,0,0.4,0.2c0.4,0.4,0.9,0.9,1.3,1.3
		l0.7,0.7c0.3,0.3,0.7,0.7,1,1s0.6,0.6,0.9,1c0.4,0.4,0.3,0.4,0,0.8l-0.3,0.3c-0.7,0.7-1.4,1.4-2.1,2.1c-0.8,0.8-1,1.8-0.6,2.8
		c0.6,1.3,1.4,2.6,2.5,4c2.1,2.6,4.3,4.5,6.6,6c0.4,0.2,0.8,0.4,1.1,0.6c0.2,0.1,0.4,0.2,0.5,0.3c0.4,0.2,0.8,0.3,1.3,0.3
		s1.2-0.1,1.8-0.8c0.8-0.8,1.6-1.6,2.4-2.4c0.2-0.2,0.3-0.2,0.3-0.2s0.2,0,0.3,0.2c1.3,1.3,2.6,2.6,3.9,3.9
		C37.8,34.7,37.8,34.8,37.5,35.1z"/>
</g>
</svg>
