<?xml version="1.0" encoding="utf-8"?>
<!-- Generator: Adobe Illustrator 27.4.1, SVG Export Plug-In . SVG Version: 6.00 Build 0)  -->
<!DOCTYPE svg PUBLIC "-//W3C//DTD SVG 1.1//EN" "http://www.w3.org/Graphics/SVG/1.1/DTD/svg11.dtd" [
	<!ENTITY ns_extend "http://ns.adobe.com/Extensibility/1.0/">
	<!ENTITY ns_ai "http://ns.adobe.com/AdobeIllustrator/10.0/">
	<!ENTITY ns_graphs "http://ns.adobe.com/Graphs/1.0/">
	<!ENTITY ns_vars "http://ns.adobe.com/Variables/1.0/">
	<!ENTITY ns_imrep "http://ns.adobe.com/ImageReplacement/1.0/">
	<!ENTITY ns_sfw "http://ns.adobe.com/SaveForWeb/1.0/">
	<!ENTITY ns_custom "http://ns.adobe.com/GenericCustomNamespace/1.0/">
	<!ENTITY ns_adobe_xpath "http://ns.adobe.com/XPath/1.0/">
]>
<svg version="1.1" id="Warstwa_1" xmlns:x="&ns_extend;" xmlns:i="&ns_ai;" xmlns:graph="&ns_graphs;"
	 xmlns="http://www.w3.org/2000/svg" xmlns:xlink="http://www.w3.org/1999/xlink" x="0px" y="0px" viewBox="0 0 50 50"
	 style="enable-background:new 0 0 50 50;" xml:space="preserve">
<style type="text/css">
	.st0{fill:#1AD079;}
	.st1{fill:#07133B;}
</style>
<metadata>
	<sfw  xmlns="&ns_sfw;">
		<slices></slices>
		<sliceSourceBounds  bottomLeftOrigin="true" height="50" width="50" x="0" y="0"></sliceSourceBounds>
	</sfw>
</metadata>
<path class="st0" d="M45,50H5c-2.8,0-5-2.2-5-5V5c0-2.8,2.2-5,5-5h40c2.8,0,5,2.2,5,5v40C50,47.8,47.8,50,45,50z"/>
<g id="Map_pin_1_">
	<path class="st1" d="M25,8.8c-7.2,0-13,5.8-13,13c0,6.2,6.7,13.6,12.3,18.7l0.7,0.6l0.7-0.6c6.2-6,12.3-12.4,12.3-18.7
		C38,14.6,32.2,8.8,25,8.8z M25,38.4c-7.1-6.6-11-12.5-11-16.6c0-6.1,4.9-11,11-11s11,4.9,11,11C36,27.2,30.7,32.9,25,38.4z"/>
	<path class="st1" d="M25,16.8c-2.8,0-5,2.2-5,5s2.2,5,5,5s5-2.2,5-5S27.8,16.8,25,16.8z M25,24.8c-1.7,0-3-1.3-3-3s1.3-3,3-3
		s3,1.3,3,3S26.7,24.8,25,24.8z"/>
</g>
</svg>
