<?xml version="1.0" encoding="utf-8"?>
<!-- Generator: Adobe Illustrator 27.4.0, SVG Export Plug-In . SVG Version: 6.00 Build 0)  -->
<!DOCTYPE svg PUBLIC "-//W3C//DTD SVG 1.1//EN" "http://www.w3.org/Graphics/SVG/1.1/DTD/svg11.dtd" [
	<!ENTITY ns_extend "http://ns.adobe.com/Extensibility/1.0/">
	<!ENTITY ns_ai "http://ns.adobe.com/AdobeIllustrator/10.0/">
	<!ENTITY ns_graphs "http://ns.adobe.com/Graphs/1.0/">
	<!ENTITY ns_vars "http://ns.adobe.com/Variables/1.0/">
	<!ENTITY ns_imrep "http://ns.adobe.com/ImageReplacement/1.0/">
	<!ENTITY ns_sfw "http://ns.adobe.com/SaveForWeb/1.0/">
	<!ENTITY ns_custom "http://ns.adobe.com/GenericCustomNamespace/1.0/">
	<!ENTITY ns_adobe_xpath "http://ns.adobe.com/XPath/1.0/">
]>
<svg version="1.1" id="Layer_1" xmlns:x="&ns_extend;" xmlns:i="&ns_ai;" xmlns:graph="&ns_graphs;"
	 xmlns="http://www.w3.org/2000/svg" xmlns:xlink="http://www.w3.org/1999/xlink" x="0px" y="0px" viewBox="0 0 200 200"
	 style="enable-background:new 0 0 200 200;" xml:space="preserve">
<style type="text/css">
	.st0{fill:#1AD079;}
	.st1{fill:#07133B;}
</style>
<metadata>
	<sfw  xmlns="&ns_sfw;">
		<slices></slices>
		<sliceSourceBounds  bottomLeftOrigin="true" height="200" width="200" x="-5.2" y="1.2"></sliceSourceBounds>
	</sfw>
</metadata>
<path class="st0" d="M179.9,200H20.1C9,200,0,191,0,179.9V20.1C0,9,9,0,20.1,0h159.7C191,0,200,9,200,20.1v159.7
	C200,191,191,200,179.9,200z"/>
<g>
	<path class="st1" d="M109.7,69.2c0-14.8-12-26.8-26.8-26.8s-26.8,12-26.8,26.8C56.1,84,68.1,96,82.9,96S109.7,84,109.7,69.2z
		 M61,69.2c0-12.1,9.8-21.9,21.9-21.9c12.1,0,21.9,9.8,21.9,21.9c0,12.1-9.8,21.9-21.9,21.9C70.8,91,61,81.2,61,69.2z"/>
	<path class="st1" d="M176.2,117.9c-0.8-1.1-2.4-1.3-3.5-0.4s-1.3,2.4-0.4,3.5c4.1,5.4,6.3,11.8,6.3,18.6
		c0,16.8-13.7,30.5-30.5,30.5s-30.5-13.7-30.5-30.5s13.7-30.5,30.5-30.5c5.7,0,11.2,1.6,16,4.5c1.2,0.7,2.7,0.4,3.4-0.8
		c0.7-1.2,0.4-2.7-0.8-3.4c-5.6-3.4-12-5.3-18.6-5.3c0,0,0,0-0.1,0c0.8-4.2,1.2-8.4,1.2-12.7c0-36.6-29.8-66.4-66.4-66.4
		c-15.8,0-31.1,5.6-43.1,15.9c-1,0.9-1.2,2.4-0.3,3.5c0.9,1,2.4,1.2,3.5,0.3c11.1-9.5,25.3-14.7,39.9-14.7
		c33.9,0,61.5,27.6,61.5,61.5c0,4.4-0.5,8.8-1.4,13.1c-7.9,1.2-14.9,4.9-20.2,10.4c-5.8-8.2-15.3-13.1-25.5-13.1H68.5
		c-17.1,0-31,13.8-31.2,30.8c-9.8-10.9-15.8-25.3-15.8-41.2c0-14.1,4.9-27.8,13.7-38.7c0.9-1.1,0.7-2.6-0.4-3.5
		c-1.1-0.9-2.6-0.7-3.5,0.4c-9.6,11.8-14.8,26.6-14.8,41.9c0,36.6,29.8,66.4,66.4,66.4c11,0,21.8-2.7,31.4-7.9
		c4.5,14.5,18,25,33.9,25c19.5,0,35.4-15.9,35.4-35.4C183.6,131.7,181,124.2,176.2,117.9z M82.9,152.9c-15.6,0-29.8-5.8-40.7-15.4
		V133c0-14.5,11.8-26.3,26.3-26.3h28.8c9,0,17.3,4.6,22.2,12.1c-4.2,5.8-6.7,13-6.7,20.7c0,1.8,0.1,3.6,0.4,5.4
		C103.9,150.2,93.5,152.9,82.9,152.9z"/>
	<path class="st1" d="M155.5,119.5c0-1.4-1.1-2.5-2.5-2.5h-9.9c-1.4,0-2.5,1.1-2.5,2.5v12.7H128c-1.4,0-2.5,1.1-2.5,2.5v9.9
		c0,1.4,1.1,2.5,2.5,2.5h12.7v12.7c0,1.4,1.1,2.5,2.5,2.5h9.9c1.4,0,2.5-1.1,2.5-2.5V147h12.7c1.4,0,2.5-1.1,2.5-2.5v-9.9
		c0-1.4-1.1-2.5-2.5-2.5h-12.7V119.5z M165.8,137.1v4.9h-12.7c-1.4,0-2.5,1.1-2.5,2.5v12.7h-4.9v-12.7c0-1.4-1.1-2.5-2.5-2.5h-12.7
		v-4.9h12.7c1.4,0,2.5-1.1,2.5-2.5v-12.7h4.9v12.7c0,1.4,1.1,2.5,2.5,2.5H165.8z"/>
</g>
</svg>
