<?xml version="1.0" encoding="utf-8"?>
<!-- Generator: Adobe Illustrator 27.4.0, SVG Export Plug-In . SVG Version: 6.00 Build 0)  -->
<!DOCTYPE svg PUBLIC "-//W3C//DTD SVG 1.1//EN" "http://www.w3.org/Graphics/SVG/1.1/DTD/svg11.dtd" [
	<!ENTITY ns_extend "http://ns.adobe.com/Extensibility/1.0/">
	<!ENTITY ns_ai "http://ns.adobe.com/AdobeIllustrator/10.0/">
	<!ENTITY ns_graphs "http://ns.adobe.com/Graphs/1.0/">
	<!ENTITY ns_vars "http://ns.adobe.com/Variables/1.0/">
	<!ENTITY ns_imrep "http://ns.adobe.com/ImageReplacement/1.0/">
	<!ENTITY ns_sfw "http://ns.adobe.com/SaveForWeb/1.0/">
	<!ENTITY ns_custom "http://ns.adobe.com/GenericCustomNamespace/1.0/">
	<!ENTITY ns_adobe_xpath "http://ns.adobe.com/XPath/1.0/">
]>
<svg version="1.1" id="Layer_1" xmlns:x="&ns_extend;" xmlns:i="&ns_ai;" xmlns:graph="&ns_graphs;"
	 xmlns="http://www.w3.org/2000/svg" xmlns:xlink="http://www.w3.org/1999/xlink" x="0px" y="0px" viewBox="0 0 200 200"
	 style="enable-background:new 0 0 200 200;" xml:space="preserve">
<style type="text/css">
	.st0{fill:#1AD079;}
	.st1{fill:#07133B;}
</style>
<metadata>
	<sfw  xmlns="&ns_sfw;">
		<slices></slices>
		<sliceSourceBounds  bottomLeftOrigin="true" height="200" width="200" x="-5.2" y="1.2"></sliceSourceBounds>
	</sfw>
</metadata>
<path class="st0" d="M179.9,200H20.1C9,200,0,191,0,179.9V20.1C0,9,9,0,20.1,0h159.7C191,0,200,9,200,20.1v159.7
	C200,191,191,200,179.9,200z"/>
<g>
	<path class="st1" d="M173.7,94.5c-0.1-1.2-1-2.1-2.2-2.1H146l4.1-9.4c0.2-0.5,0.2-1.2,0-1.7l-2.1-5.4c1.2-0.4,2.3-1,3.4-1.6
		l5.3,3.3c1,0.5,1.9,0.4,2.8-0.4l5.1-5.6c0.7-0.8,0.8-2,0.1-2.9l-3.8-4.9c0.5-1,0.9-2.1,1.2-3.2l6.1-1.4c1-0.2,1.8-1.2,1.7-2.3
		l-0.4-7.6c-0.1-1.1-0.9-2-1.9-2.1l-6.2-0.8c-0.4-1.1-0.9-2.1-1.5-3.1l3.3-5.3c0.6-0.9,0.4-2.1-0.4-2.8l-5.7-5.1
		c-0.8-0.7-2-0.8-2.8-0.1l-4.9,3.8c-1.1-0.5-2.1-0.9-3.3-1.2l-1.4-6c-0.2-1-1.2-1.8-2.3-1.7l-7.6,0.4c-1.1,0.1-1.9,0.9-2.1,1.9
		l-0.8,6.1c-1.1,0.4-2.1,0.9-3.1,1.5l-5.3-3.3c-0.9-0.6-2.1-0.4-2.8,0.4l-5.1,5.6c-0.7,0.8-0.8,2-0.1,2.9l3.8,4.9
		c-0.4,0.8-0.7,1.6-0.9,2.5L108,43.4c-1.3-0.4-2.3,0-2.9,1.1l-8.8,20.1V30.2c0-2.9-4.4-2.9-4.4,0v9.7c-15.2,0.6-29.2,8.7-37.6,21.6
		c-1.5,2.3,2.1,4.9,3.7,2.4C65.6,52.2,78.2,45,91.8,44.3v93.8H78.2c-1.9,0-3.4-1.5-3.4-3.4v-7.6c0-0.8-0.4-1.6-1.2-1.9
		c-14.1-7.6-22.8-22.3-22.6-38.3c0-4.2,0.7-8.3,1.9-12.3c0.9-2.7-3.4-4.1-4.2-1.3c-1.4,4.4-2.1,9-2.1,13.6
		c-0.2,17.2,8.9,33.1,23.8,41.6v6.3c0,3.5,2.4,6.5,5.6,7.5v10.5c0,6.8,5.5,12.3,12.3,12.3h3.6v7.8c0,2.9,4.4,2.9,4.4,0v-53l22.6,9.9
		l-0.5,2.9c-0.7,0.3-1.5,0.6-2.2,0.9l-4-2.8c-0.9-0.6-2.1-0.5-2.8,0.3l-4.4,4.4c-0.8,0.8-0.9,2-0.2,2.8l2.8,4
		c-0.3,0.7-0.6,1.4-0.9,2.2l-4.7,0.8c-1.1,0.2-1.8,1.1-1.8,2.2l0,6.2c0,1.1,0.8,2,1.8,2.2l4.8,0.9c0.3,0.8,0.6,1.5,0.9,2.2l-2.7,3.9
		c-0.6,0.9-0.5,2.1,0.3,2.8l4.4,4.4c0.8,0.8,1.9,0.9,2.8,0.3l3.9-2.7c0.7,0.4,1.5,0.7,2.2,0.9l0.9,4.8c0.2,1,1.1,1.8,2.2,1.8l6.2,0
		h0c1.1,0,2-0.8,2.2-1.8l0.8-4.7c0.7-0.3,1.5-0.6,2.2-0.9l4,2.8c0.9,0.6,2.1,0.5,2.8-0.3l4.4-4.4c0.8-0.8,0.9-2,0.2-2.8l-2.8-4
		c0.3-0.7,0.6-1.4,0.9-2.2l4.7-0.8c1.1-0.2,1.8-1.1,1.8-2.2l0-6.2c0-1.1-0.8-2-1.8-2.2l-4.5-0.8c6.3,0,12.8,0,19,0
		c0.7,0.1,1.4-0.1,2-0.7l9.3-9.9c0.4-0.4,0.6-1,0.6-1.5V94.6C173.7,94.6,173.7,94.6,173.7,94.5L173.7,94.5z M166.3,96.9l-5,5.4
		h-31.8l5-5.4H166.3z M141.4,58.7c-0.2-0.5-0.6-1-1.2-1.2l-8.4-3.7c0.4-4,3.7-7.3,7.9-7.5c4.6-0.2,8.6,3.3,8.8,7.9
		c0.2,3.8-2.2,7.1-5.7,8.3L141.4,58.7z M139.2,65.3l2.4,6.1l2.5,6.5l-8.8-3.9L139.2,65.3z M123.6,43.8l-3.5-4.5l2.6-2.9l4.9,3
		c0.7,0.5,1.7,0.4,2.4,0c1.4-0.9,3-1.7,4.6-2.2c0.8-0.3,1.4-1,1.5-1.8l0.7-5.7l3.9-0.2l1.3,5.6c0.2,0.8,0.9,1.5,1.7,1.7
		c1.7,0.3,3.3,0.9,4.8,1.7c0.8,0.4,1.7,0.3,2.4-0.2l4.6-3.5l2.9,2.6l-3,4.8c-0.5,0.7-0.5,1.7,0,2.4c0.9,1.4,1.7,2.9,2.2,4.6
		c0.3,0.8,1,1.4,1.8,1.5l5.7,0.7l0.2,3.9l-5.6,1.3c-0.8,0.2-1.5,0.9-1.7,1.7c-0.3,1.7-0.9,3.3-1.7,4.8c-0.4,0.8-0.3,1.7,0.2,2.4
		l3.5,4.5l-2.6,2.9l-4.9-3c-0.7-0.5-1.7-0.4-2.4,0c-1.2,0.8-2.5,1.4-3.8,1.9l-2-5.1c5.3-1.9,8.8-7,8.5-12.7
		c-0.4-7-6.4-12.5-13.5-12.1c-5.9,0.3-10.7,4.6-11.9,10.1l-5.1-2.3c0.3-1.2,0.8-2.4,1.4-3.5C124.3,45.4,124.2,44.5,123.6,43.8
		L123.6,43.8z M88.3,160.5c-4.3,0-7.9-3.5-7.9-7.9v-10.2h11.4v18H88.3z M96.3,75.6l12-27.3l28.1,12.3l-6,13.6
		c-0.4,1.3-0.1,2.3,1.1,2.9l13.7,6.1l-4,9.2h-7.5c-0.6,0-1.2,0.3-1.6,0.7l-9.3,9.9c-0.5,0.5-0.7,1.8-0.6,2.5V126l-0.6,0l-25.2-11.1
		V75.6z M144.6,151.8l-4.2,0.7c-0.9,0.2-1.5,0.8-1.8,1.6c-0.3,1.3-0.8,2.6-1.5,3.7c-0.4,0.7-0.4,1.7,0.1,2.4l2.5,3.6l-1.8,1.8
		l-3.6-2.5c-0.7-0.5-1.6-0.5-2.4-0.1c-1.2,0.7-2.4,1.2-3.7,1.5c-0.8,0.2-1.5,0.9-1.6,1.8l-0.7,4.2l-2.5,0l-0.8-4.3
		c-0.2-0.8-0.8-1.5-1.6-1.7c-1.3-0.3-2.6-0.9-3.7-1.5c-0.7-0.4-1.7-0.4-2.4,0.1l-3.5,2.5l-1.8-1.8l2.5-3.5c0.5-0.7,0.5-1.6,0.1-2.4
		c-0.7-1.2-1.2-2.4-1.6-3.7c-0.2-0.8-0.9-1.5-1.7-1.6l-4.3-0.8l0-2.5l4.2-0.7c0.9-0.2,1.5-0.8,1.8-1.6c0.3-1.3,0.8-2.6,1.5-3.7
		c0.4-0.7,0.4-1.7-0.1-2.4l-2.5-3.6l1.8-1.8l3.6,2.5c0.7,0.5,1.6,0.5,2.4,0.1c1.2-0.7,2.4-1.2,3.7-1.5c0.8-0.2,1.5-0.9,1.6-1.8
		l0.7-4.2l2.5,0l0.8,4.3c0.2,0.8,0.8,1.5,1.6,1.7c1.3,0.3,2.6,0.9,3.7,1.5c0.7,0.4,1.7,0.4,2.4-0.1l3.5-2.5l1.8,1.8l-2.5,3.5
		c-0.5,0.7-0.5,1.6-0.1,2.4c0.7,1.2,1.2,2.4,1.6,3.7c0.2,0.8,0.9,1.5,1.7,1.6l4.3,0.8L144.6,151.8z M164.4,136.7c0-2.2,0-7.6,0-7.6
		c0-2.9-4.4-2.9-4.4,0V140c-5.6,0-11.3,0-16.9,0l1.2-1.8c0.6-0.9,0.5-2.1-0.3-2.8l-4.4-4.4c-0.8-0.8-1.9-0.9-2.8-0.3l-3.9,2.7
		c-0.7-0.4-1.5-0.7-2.2-0.9l-0.9-4.8c-0.3-1.5-1.9-2-3.2-1.8c0-2.5,0.2-15.3,0-19.3H160v10.8c0,2.9,4.4,2.9,4.4,0c0,0,0-8.3,0-12.1
		l4.9-5.2v31.3L164.4,136.7z"/>
	<path class="st1" d="M124.5,140.4C124.5,140.4,124.5,140.4,124.5,140.4c-2.7,0-5.2,1-7.1,2.9c-1.9,1.9-2.9,4.4-2.9,7.1
		c0,2.7,1.1,5.2,3,7.1c1.9,1.9,4.4,2.9,7.1,3h0c2.7,0,5.2-1,7.1-2.9c1.9-1.9,2.9-4.4,2.9-7.1c0-2.7-1.1-5.2-3-7.1
		C129.7,141.5,127.2,140.5,124.5,140.4L124.5,140.4z M128.5,154.5c-1.1,1.1-2.5,1.6-4,1.6c-1.5,0-2.9-0.6-4-1.7
		c-1.1-1.1-1.7-2.5-1.7-4c0-1.5,0.6-2.9,1.6-4c1.1-1.1,2.5-1.6,4-1.6c1.5,0,2.9,0.6,4,1.7c1.1,1.1,1.7,2.5,1.7,4
		C130.2,152,129.6,153.4,128.5,154.5L128.5,154.5z"/>
	<path class="st1" d="M55,50.5c1.9,0,2.9-2.5,1.6-3.8L49,39.2c-2-2-5.2,1.1-3.1,3.1l7.6,7.6C53.9,50.3,54.5,50.5,55,50.5z"/>
	<path class="st1" d="M39.1,85.4H28.5c-2.9,0-2.9,4.4,0,4.4h10.7C42,89.8,42,85.4,39.1,85.4z"/>
	<path class="st1" d="M54.1,125.1l-7.6,7.6c-2,2,1.1,5.2,3.1,3.1l7.6-7.6C59.3,126.2,56.2,123,54.1,125.1z"/>
</g>
</svg>
