<?xml version="1.0" encoding="utf-8"?>
<!-- Generator: Adobe Illustrator 27.4.0, SVG Export Plug-In . SVG Version: 6.00 Build 0)  -->
<!DOCTYPE svg PUBLIC "-//W3C//DTD SVG 1.1//EN" "http://www.w3.org/Graphics/SVG/1.1/DTD/svg11.dtd" [
	<!ENTITY ns_extend "http://ns.adobe.com/Extensibility/1.0/">
	<!ENTITY ns_ai "http://ns.adobe.com/AdobeIllustrator/10.0/">
	<!ENTITY ns_graphs "http://ns.adobe.com/Graphs/1.0/">
	<!ENTITY ns_vars "http://ns.adobe.com/Variables/1.0/">
	<!ENTITY ns_imrep "http://ns.adobe.com/ImageReplacement/1.0/">
	<!ENTITY ns_sfw "http://ns.adobe.com/SaveForWeb/1.0/">
	<!ENTITY ns_custom "http://ns.adobe.com/GenericCustomNamespace/1.0/">
	<!ENTITY ns_adobe_xpath "http://ns.adobe.com/XPath/1.0/">
]>
<svg version="1.1" id="Layer_1" xmlns:x="&ns_extend;" xmlns:i="&ns_ai;" xmlns:graph="&ns_graphs;"
	 xmlns="http://www.w3.org/2000/svg" xmlns:xlink="http://www.w3.org/1999/xlink" x="0px" y="0px" viewBox="0 0 200 200"
	 style="enable-background:new 0 0 200 200;" xml:space="preserve">
<style type="text/css">
	.st0{fill:#1AD079;}
	.st1{fill:#07133B;}
</style>
<metadata>
	<sfw  xmlns="&ns_sfw;">
		<slices></slices>
		<sliceSourceBounds  bottomLeftOrigin="true" height="200" width="200" x="-2.1" y="-1"></sliceSourceBounds>
	</sfw>
</metadata>
<path class="st0" d="M179.9,200H20.1C9,200,0,191,0,179.9V20.1C0,9,9,0,20.1,0h159.7C191,0,200,9,200,20.1v159.7
	C200,191,191,200,179.9,200z"/>
<g>
	<path class="st1" d="M91.1,29.4h36.6c4.2,0,7.6,3.4,7.6,7.6v78.9c0,1.2,1,2.2,2.2,2.2s2.2-1,2.2-2.2V37c0-6.6-5.4-12-12-12H91.1
		c-1.2,0-2.2,1-2.2,2.2S89.9,29.4,91.1,29.4z"/>
	<path class="st1" d="M104.8,159.7H45.7c-4.2,0-7.6-3.4-7.6-7.6V37c0-4.2,3.4-7.6,7.6-7.6h36.6c1.2,0,2.2-1,2.2-2.2
		c0-1.2-1-2.2-2.2-2.2H45.7c-6.6,0-12,5.4-12,12v115.1c0,6.6,5.4,12,12,12h59.1c1.2,0,2.2-1,2.2-2.2S106,159.7,104.8,159.7z"/>
	<path class="st1" d="M97.5,52.6c1.2,0,2.2-1,2.2-2.2v-2.7h2.7c1.2,0,2.2-1,2.2-2.2s-1-2.2-2.2-2.2h-2.7v-2.7c0-1.2-1-2.2-2.2-2.2
		c-1.2,0-2.2,1-2.2,2.2v2.7h-2.7c-1.2,0-2.2,1-2.2,2.2s1,2.2,2.2,2.2h2.7v2.7C95.3,51.6,96.3,52.6,97.5,52.6z"/>
	<path class="st1" d="M67,57.2c0,10.9,8.9,19.7,19.7,19.7c10.9,0,19.7-8.9,19.7-19.7c0-1.2-1-2.2-2.2-2.2s-2.2,1-2.2,2.2
		c0,8.5-6.9,15.3-15.3,15.3c-8.5,0-15.3-6.9-15.3-15.3s6.9-15.3,15.3-15.3c1.2,0,2.2-1,2.2-2.2s-1-2.2-2.2-2.2
		C75.8,37.5,67,46.3,67,57.2z"/>
	<path class="st1" d="M164.1,142.9c1.2,0,2.2-1,2.2-2.2v-10.3c0-4.4-3.4-8-7.7-8.1c-2.3-0.1-4.5,0.9-6.1,2.5
		c-1.5-1.6-3.6-2.5-5.8-2.5c-2.3,0-4.3,0.9-5.8,2.5c-1.5-1.6-3.6-2.5-5.8-2.5c-1.3,0-2.5,0.3-3.6,0.9v-12.5c0-4.4-3.4-8-7.7-8.1
		c-2.2-0.1-4.3,0.7-5.9,2.2c-1.5,1.4-2.3,3.3-2.4,5.4H52.2c-2.5,0-4.5,2-4.5,4.5v9c0,2.5,2,4.5,4.5,4.5h63.2V140l-5.9-7
		c-1.5-1.7-3.5-2.8-5.7-2.8c-2.2-0.1-4.3,0.7-5.9,2.3c-3.2,3.2-3.4,8.6-0.5,12.1l18,21.5v3.7c0,2.9,2.3,5.2,5.2,5.2h29
		c9.2,0,16.7-7.5,16.7-16.7v-8.8c0-1.2-1-2.2-2.2-2.2c-1.2,0-2.2,1-2.2,2.2v8.8c0,6.8-5.5,12.3-12.3,12.3h-29
		c-0.4,0-0.8-0.4-0.8-0.8v-4.5c0-0.5-0.2-1-0.5-1.4l-18.5-22.1c-1.5-1.7-1.3-4.6,0.3-6.2c0.7-0.7,1.7-1.1,2.6-1.1
		c1,0,1.9,0.5,2.5,1.3l9.8,11.6c0.6,0.7,1.6,1,2.4,0.7c0.9-0.3,1.4-1.1,1.4-2.1v-17.9v-4.4v-9.3v-4c0-0.1,0-0.3,0-0.4
		c0.1-0.8,0.5-1.6,1.1-2.2c0.7-0.7,1.6-1,2.6-1c1.9,0.1,3.5,1.8,3.5,3.8v19.7c0,1.2,1,2.2,2.2,2.2c1.2,0,2.2-1,2.2-2.2
		c0-2,1.6-3.6,3.6-3.6c1.6,0,2.9,1,3.4,2.5c0.3,1,1.3,1.7,2.4,1.7c1.1,0,2-0.7,2.4-1.7c0.5-1.5,1.9-2.5,3.4-2.5c1.6,0,2.9,1,3.4,2.5
		c0.3,1,1.3,1.7,2.4,1.7c0,0,0,0,0,0c1.1,0,2-0.7,2.4-1.7c0.5-1.5,2-2.5,3.6-2.5c1.9,0.1,3.5,1.8,3.5,3.8v10.3
		C161.9,141.9,162.8,142.9,164.1,142.9z M115.4,123.8H52.2c-0.1,0-0.1-0.1-0.1-0.1v-9c0-0.1,0.1-0.1,0.1-0.1h63.2V123.8z"/>
	<path class="st1" d="M54.5,151.7h15.8c3.8,0,6.8-3.1,6.8-6.8v-3.4c0-3.8-3.1-6.8-6.8-6.8H54.5c-3.8,0-6.8,3.1-6.8,6.8v3.4
		C47.7,148.7,50.7,151.7,54.5,151.7z M52.1,141.5c0-1.3,1.1-2.4,2.4-2.4h15.8c1.3,0,2.4,1.1,2.4,2.4v3.4c0,1.3-1.1,2.4-2.4,2.4H54.5
		c-1.3,0-2.4-1.1-2.4-2.4V141.5z"/>
	<path class="st1" d="M52.2,84.1c-2.5,0-4.5,2-4.5,4.5v9c0,2.5,2,4.5,4.5,4.5h69c2.5,0,4.5-2,4.5-4.5v-9c0-2.5-2-4.5-4.5-4.5H52.2z
		 M121.4,88.6v9c0,0.1-0.1,0.1-0.1,0.1h-69c-0.1,0-0.1-0.1-0.1-0.1v-9c0-0.1,0.1-0.1,0.1-0.1h69C121.3,88.4,121.4,88.5,121.4,88.6z"
		/>
	<path class="st1" d="M58,121.4h0.6c1.2,0,2.2-1,2.2-2.2s-1-2.2-2.2-2.2H58c-1.2,0-2.2,1-2.2,2.2S56.8,121.4,58,121.4z"/>
	<path class="st1" d="M67,121.4h0.6c1.2,0,2.2-1,2.2-2.2s-1-2.2-2.2-2.2H67c-1.2,0-2.2,1-2.2,2.2S65.7,121.4,67,121.4z"/>
	<path class="st1" d="M75.9,121.4h0.6c1.2,0,2.2-1,2.2-2.2s-1-2.2-2.2-2.2h-0.6c-1.2,0-2.2,1-2.2,2.2S74.7,121.4,75.9,121.4z"/>
	<path class="st1" d="M84.9,121.4h0.6c1.2,0,2.2-1,2.2-2.2s-1-2.2-2.2-2.2h-0.6c-1.2,0-2.2,1-2.2,2.2S83.7,121.4,84.9,121.4z"/>
	<path class="st1" d="M93.9,121.4h0.6c1.2,0,2.2-1,2.2-2.2s-1-2.2-2.2-2.2h-0.6c-1.2,0-2.2,1-2.2,2.2S92.7,121.4,93.9,121.4z"/>
</g>
</svg>
