<?xml version="1.0" encoding="utf-8"?>
<!-- Generator: Adobe Illustrator 27.4.0, SVG Export Plug-In . SVG Version: 6.00 Build 0)  -->
<!DOCTYPE svg PUBLIC "-//W3C//DTD SVG 1.1//EN" "http://www.w3.org/Graphics/SVG/1.1/DTD/svg11.dtd" [
	<!ENTITY ns_extend "http://ns.adobe.com/Extensibility/1.0/">
	<!ENTITY ns_ai "http://ns.adobe.com/AdobeIllustrator/10.0/">
	<!ENTITY ns_graphs "http://ns.adobe.com/Graphs/1.0/">
	<!ENTITY ns_vars "http://ns.adobe.com/Variables/1.0/">
	<!ENTITY ns_imrep "http://ns.adobe.com/ImageReplacement/1.0/">
	<!ENTITY ns_sfw "http://ns.adobe.com/SaveForWeb/1.0/">
	<!ENTITY ns_custom "http://ns.adobe.com/GenericCustomNamespace/1.0/">
	<!ENTITY ns_adobe_xpath "http://ns.adobe.com/XPath/1.0/">
]>
<svg version="1.1" id="Warstwa_1" xmlns:x="&ns_extend;" xmlns:i="&ns_ai;" xmlns:graph="&ns_graphs;"
	 xmlns="http://www.w3.org/2000/svg" xmlns:xlink="http://www.w3.org/1999/xlink" x="0px" y="0px" viewBox="0 0 15 14.4"
	 style="enable-background:new 0 0 15 14.4;" xml:space="preserve">
<style type="text/css">
	.st0{fill:#07133B;}
	.st1{fill:#1AD079;}
</style>
<metadata>
	<sfw  xmlns="&ns_sfw;">
		<slices></slices>
		<sliceSourceBounds  bottomLeftOrigin="true" height="14.4" width="15" x="11" y="10.2"></sliceSourceBounds>
	</sfw>
</metadata>
<path class="st0" d="M15,0.6c0.1,1.9-1.6,3.6-3.5,3.7c-1,0-2,0-3.1,0c-0.1,0-0.3,0-0.4,0C7.6,4.4,7.3,4.8,7.3,5.2
	C7.3,5.6,7.7,6,8.1,6C8.5,6,9,6,9.4,6c1.3,0,2.4,1.1,2.4,2.4s-1,2.3-2.4,2.3c-0.8,0-1.6,0-2.4,0c-0.6,0-0.9,0.2-0.9,0.8
	c-0.2,1.1-0.6,2-1.6,2.5c-0.4,0.2-1,0.4-1.6,0.4c-0.6,0.1-1.3,0-2,0c0.2-0.7,0.3-1.3,0.4-1.9c0.2-0.7,0.3-1.3,0.5-2
	c0.2-1.1,1-1.7,2.1-1.7c0.9,0,1.7,0,2.6,0c1,0,1.4-0.2,1.4-0.9c0-0.6-0.4-0.8-1.3-0.8c-0.9,0-1.7-0.2-2.4-0.8C3.1,5.3,2.7,4,3.1,2.7
	c0.4-1.2,1.6-2.1,3-2.1c2.8,0,5.7,0,8.5,0L15,0.6L15,0.6z"/>
<path class="st1" d="M14.1,0c0.1,1.9-1.6,3.6-3.5,3.7c-1,0-2,0-3.1,0c-0.1,0-0.3,0-0.4,0C6.6,3.8,6.3,4.2,6.4,4.6
	c0,0.4,0.4,0.8,0.8,0.8c0.4,0,0.9,0,1.3,0c1.3,0,2.4,1.1,2.4,2.4s-1,2.3-2.4,2.3c-0.8,0-1.6,0-2.4,0c-0.6,0-0.9,0.2-0.9,0.8
	c-0.2,1.1-0.6,2-1.6,2.5c-0.4,0.2-1,0.4-1.6,0.4c-0.6,0.1-1.3,0-2,0c0.2-0.7,0.3-1.3,0.4-1.9c0.2-0.7,0.3-1.3,0.5-2
	c0.2-1.1,1-1.7,2.1-1.7c0.9,0,1.7,0,2.6,0c1,0,1.4-0.2,1.4-0.9c0-0.6-0.4-0.8-1.3-0.8C4.8,6.5,4,6.3,3.3,5.7c-1-0.9-1.4-2.2-0.9-3.5
	c0.4-1.2,1.6-2.1,3-2.1c2.8,0,5.7,0,8.5,0L14.1,0L14.1,0z"/>
</svg>
