<?xml version="1.0" encoding="utf-8"?>
<!-- Generator: Adobe Illustrator 27.4.1, SVG Export Plug-In . SVG Version: 6.00 Build 0)  -->
<!DOCTYPE svg PUBLIC "-//W3C//DTD SVG 1.1//EN" "http://www.w3.org/Graphics/SVG/1.1/DTD/svg11.dtd" [
	<!ENTITY ns_extend "http://ns.adobe.com/Extensibility/1.0/">
	<!ENTITY ns_ai "http://ns.adobe.com/AdobeIllustrator/10.0/">
	<!ENTITY ns_graphs "http://ns.adobe.com/Graphs/1.0/">
	<!ENTITY ns_vars "http://ns.adobe.com/Variables/1.0/">
	<!ENTITY ns_imrep "http://ns.adobe.com/ImageReplacement/1.0/">
	<!ENTITY ns_sfw "http://ns.adobe.com/SaveForWeb/1.0/">
	<!ENTITY ns_custom "http://ns.adobe.com/GenericCustomNamespace/1.0/">
	<!ENTITY ns_adobe_xpath "http://ns.adobe.com/XPath/1.0/">
]>
<svg version="1.1" id="Layer_1" xmlns:x="&ns_extend;" xmlns:i="&ns_ai;" xmlns:graph="&ns_graphs;"
	 xmlns="http://www.w3.org/2000/svg" xmlns:xlink="http://www.w3.org/1999/xlink" x="0px" y="0px" viewBox="0 0 205.3 184.3"
	 style="enable-background:new 0 0 205.3 184.3;" xml:space="preserve">
<style type="text/css">
	.st0{fill:#1AD079;}
	.st1{fill:#07133B;}
	.st2{fill:#FFFFFF;}
</style>
<metadata>
	<sfw  xmlns="&ns_sfw;">
		<slices></slices>
		<sliceSourceBounds  bottomLeftOrigin="true" height="184.4" width="205.2" x="0" y="0"></sliceSourceBounds>
	</sfw>
</metadata>
<g>
	<g>
		<g>
			<path class="st0" d="M183.4,67.2c1.9-4.1,5.7-6.9,9.4-9.4c1.5-1.1,3.1-2.1,4.8-2.9s3.5-1.4,5.4-1.3c0.7,0,1.6,0.2,1.8,0.9
				c0.1,0.5,0,1-0.3,1.3c-0.3,0.3-0.7,0.6-1.1,0.8c-2.7,1.7-5.6,3.1-8.2,5c-1.3,0.9-2.4,1.8-3.6,2.8c-2.7,2.3-7.2,2.4-9.9,4.6
				C180.6,67.7,182.8,68.4,183.4,67.2z"/>
			<path class="st1" d="M181.7,69.4c-0.2,0-0.3,0-0.5-0.2c-0.2-0.3-0.4-0.6-0.3-1c0.2-0.4,0.6-0.5,1-0.6c0.4-0.1,0.8-0.2,1-0.5
				c2-4.1,5.9-6.9,9.6-9.5c1.6-1.1,3.2-2.1,4.9-2.9c1.9-0.9,3.8-1.4,5.6-1.3c1.1,0,1.8,0.4,2.1,1.1c0.2,0.5,0.1,1.2-0.3,1.7
				c-0.4,0.4-0.8,0.7-1.2,0.9c-0.7,0.4-1.4,0.8-2.1,1.2c-2.1,1.1-4.2,2.3-6.1,3.7c-1.3,0.9-2.4,1.9-3.6,2.8
				c-1.4,1.1-3.3,1.7-5.1,2.3c-1.7,0.6-3.5,1.1-4.8,2.2C181.9,69.4,181.8,69.4,181.7,69.4C181.7,69.4,181.6,69.4,181.7,69.4z
				 M197.9,55.2c-1.7,0.8-3.2,1.8-4.8,2.9c-3.7,2.5-7.4,5.3-9.3,9.2c0.9-0.4,1.8-0.7,2.8-1c1.7-0.6,3.5-1.1,4.8-2.2
				c1.2-0.9,2.4-1.9,3.6-2.8c1.9-1.4,4-2.6,6.1-3.8c0.7-0.4,1.4-0.8,2.1-1.2c0.4-0.2,0.7-0.4,1-0.7c0.2-0.3,0.3-0.6,0.2-0.9
				c-0.2-0.5-1-0.6-1.4-0.6c-0.1,0-0.2,0-0.3,0C201.1,54.1,199.5,54.6,197.9,55.2z"/>
		</g>
		<g>
			<path class="st0" d="M160.6,85c0.1,4.5,9.7,9,11,8.9c2-0.2,2.8-18,6.1-20.9c3.8-3.4,8.2-5,11.5-9.2c2.9-3.7,6.7-6.4,10.4-9.1
				c0.1-0.8-0.9-1.3-1.8-1.4c-4.3-0.5-7.9,3-11.5,5.5c-4.8,3.2-9,3.1-12.7,3.6c-3,0.4-6.5-5-7.6-6.9c-0.4-0.8-2.2-2.1-3.1-2.1
				c-1.3-0.1-4.2-1-4.1,0.3c0.1,1.3,3.8,4.2,4.3,5.4c1.2,2.9,0.6,5.7,0.4,8.8c-0.1,2-0.3,4,1.9,6.2C166,74.8,160.3,82.2,160.6,85z"
				/>
			<path class="st1" d="M162.9,89.7c-1.9-1.6-2.8-3.2-2.9-4.7c0-1.8,1.8-5,3.3-7.5c0.7-1.3,1.7-2.9,1.7-3.3c-2.2-2.2-2.1-4.2-2-6.2
				v-0.2c0-0.7,0-1.4,0.1-2c0.2-2.4,0.4-4.5-0.5-6.7c-0.2-0.4-1-1.3-1.8-2.1c-1.4-1.6-2.4-2.6-2.5-3.4c0-0.3,0.2-0.6,0.3-0.7
				c0.6-0.5,1.9-0.3,3.1-0.1c0.5,0.1,0.9,0.2,1.2,0.2c1,0.1,2.9,1.4,3.4,2.3c1,1.6,4.5,7.1,7.2,6.7c0.6-0.1,1.2-0.1,1.9-0.2
				c3.2-0.3,6.7-0.7,10.6-3.3c0.7-0.4,1.4-1,2.1-1.5c2.9-2.1,6-4.4,9.6-4c1.1,0.1,2.3,0.7,2.2,1.8c-0.1,0.1-0.1,0.2-0.2,0.3
				c-3.7,2.7-7.5,5.4-10.3,9c-2,2.6-4.5,4.2-6.9,5.8c-1.6,1-3.2,2.1-4.7,3.4c-1.7,1.5-2.7,7.5-3.6,12.4c-1,5.5-1.5,8.5-2.8,8.6l0,0
				C170.2,94.3,166,92.4,162.9,89.7z M197.5,53.8c-3.3-0.4-6.3,1.8-9.1,3.9c-0.7,0.6-1.5,1.1-2.2,1.6c-4,2.7-7.7,3.1-10.9,3.4
				c-0.7,0.1-1.3,0.1-1.9,0.2c-3.1,0.4-6.6-4.8-7.9-7.1c-0.4-0.7-2-1.9-2.8-1.9c-0.3-0.1-0.7-0.1-1.2-0.2c-0.8-0.1-2.1-0.4-2.4-0.1
				c0,0,0,0,0,0.1c0,0.6,1.3,1.9,2.3,2.9c1,0.9,1.8,1.7,2,2.3c1,2.3,0.8,4.6,0.6,7c0,0.6-0.1,1.2-0.1,1.9V68
				c-0.1,1.9-0.2,3.7,1.8,5.7c0.4,0.5-0.1,1.5-1.7,4.2c-1.4,2.4-3.3,5.6-3.2,7.1c0.1,1.3,1,2.7,2.7,4.2c3,2.6,7.2,4.3,7.9,4.3l0,0
				c0.1,0,0.4-0.1,1-2.3c0.4-1.5,0.7-3.5,1.1-5.7c0.9-5.2,1.9-11.1,3.8-12.8c1.6-1.4,3.2-2.4,4.8-3.5c2.4-1.6,4.8-3.1,6.7-5.6
				c2.9-3.6,6.6-6.4,10.3-9C199,54.1,198.1,53.8,197.5,53.8z M165.1,74.4L165.1,74.4L165.1,74.4L165.1,74.4z M165.4,74.1L165.4,74.1
				L165.4,74.1z"/>
		</g>
	</g>
	<g>
		<path class="st2" d="M4.3,169.2c7.5,6.9,33.2-0.9,35.3-1.6c0,6.6,2.1,11.3,3.7,12.4c10.4,7.1,59.8,4.1,64.3-4.8
			c4.2-8.3-1.5-31.8,0.9-53.7c10.4,13.7,26.8,26.8,38.7,23.3c9.3-2.7,25.1-43.9,31.1-63c-2.5,0.8-16-1-20.1-3.4
			c-3.1,5.3-14.3,24.6-20.5,35c-7.5-6.5-15.2-16-26.2-27c-8.3-8.4-48.8-7-55.5-7C39.8,82.1,25.1,85,19.8,92.6
			C10.7,105.5,3.5,135,1.5,144.4C-0.8,155.7,0.3,165.5,4.3,169.2z M28.3,145.1c0.8-2.8,6.7-15.2,6.9-15.8c0.2-0.5,1.5,10.4,1.5,14.8
			c0,0.7-0.6,0.7-0.9,0.7C34.5,145,28.1,145.5,28.3,145.1z"/>
		<path class="st1" d="M43.3,180.3c-1.6-1.1-3.8-5.6-3.9-12.2c-3.8,1.2-27.9,8.2-35.2,1.4c-4.2-3.9-5.4-13.8-3-25.2
			c0.1-0.4,7.8-36.8,18.4-52c5.2-7.6,19.6-10.5,36.4-13.4c0.1,0,0.1,0,0.1,0c0.6,0,1.5,0,2.6,0c11.2-0.1,45.4-0.6,53.1,7.1
			c4.7,4.7,8.8,9.1,12.5,13.1c4.9,5.3,9.1,9.9,13.3,13.6c3.6-5.9,8.9-14.9,13.1-22.2c3.2-5.4,5.9-10,7.2-12.2
			c0.1-0.2,0.3-0.2,0.5-0.1c3.9,2.3,17.4,4.1,19.8,3.3c0.2,0,0.3,0,0.4,0.1s0.1,0.3,0.1,0.4c-5.8,18.6-21.8,60.4-31.3,63.2
			c-5.5,1.6-12.5-0.2-20.2-5.3c-6.3-4.2-12.8-10.4-18.3-17.5c-1,10-0.4,20.2,0.2,29.2c0.7,10.7,1.2,19.2-1.1,23.7
			c-1.1,2.3-4.8,4.2-11,5.8c-8,2.1-19.2,3.2-29.4,3.2C56.9,184.3,47.2,183.1,43.3,180.3z M108.7,121.5c5.6,7.3,12.2,13.7,18.7,18
			c7.5,5,14.3,6.8,19.6,5.2c8.6-2.5,24-41.3,30.6-62.1c-3.6,0.4-15.2-1.2-19.4-3.4c-1.4,2.3-4,6.8-7,11.9
			c-4.4,7.4-9.7,16.6-13.4,22.6c-0.1,0.1-0.2,0.2-0.3,0.2c-0.1,0-0.2,0-0.3-0.1c-4.3-3.7-8.6-8.4-13.7-13.9
			c-3.6-4-7.7-8.4-12.4-13.1c-7.4-7.5-41.4-7-52.6-6.9c-1.1,0-2,0-2.6,0C39.3,82.7,25.1,85.7,20,93c-8.4,12.1-15.6,39.1-18.2,51.7
			c-2.3,11-1.1,20.8,2.8,24.5c2.9,2.7,9.6,3.4,19.3,1.9c7.6-1.2,14.5-3.3,15.6-3.7c0.1-0.1,0.2-0.1,0.3,0c0.1,0.1,0.2,0.2,0.2,0.3
			c0,6.5,2.2,11,3.6,12c7.7,5.3,37,4.9,53.2,0.7c5.8-1.5,9.5-3.4,10.5-5.4c2.2-4.3,1.6-13.1,1-23.3c-0.6-9.3-1.2-19.9-0.1-30.3
			c0-0.1,0.2-0.3,0.3-0.3h0.1C108.7,121.1,108.8,121.1,108.7,121.5z M28,145.6c-0.1-0.1-0.1-0.3-0.1-0.4c0.7-2.1,3.8-8.8,5.6-12.8
			c0.7-1.6,1.3-2.9,1.4-3.1c0-0.2,0.2-0.3,0.4-0.3c0.3,0,0.4,0,1.1,6.1c0.2,1.8,0.7,6.3,0.7,9c0,0.9-0.8,1-1.1,1h-0.1
			c-0.7,0.1-2.6,0.3-4.2,0.4c-1.3,0.1-2.1,0.1-2.6,0.1C28.1,145.6,28.1,145.5,28,145.6z M34.1,132.6c-1.7,3.8-4.6,9.9-5.4,12.3
			c1.3,0,5.8-0.3,7-0.5c0.1,0,0.1,0,0.2,0c0.4,0,0.4-0.1,0.4-0.3c0-3.5-0.8-10.8-1.2-13.6C34.8,131,34.5,131.7,34.1,132.6z"/>
	</g>
	<g>
		<path class="st2" d="M58,51.6c-1.5,10.5,1.7,22.3,0.4,28.9c1,4.9,6.8,14.3,11.4,15c4.6,0.7,7.8-6.9,11.5-9.7
			c0.5-0.4,1.1-0.9,1.3-1.5c0.3-0.7,0.2-1.3,0.1-2c-1-7.8-1.3-15.7-0.9-23.6C75,57.4,63.7,53.4,58,51.6z"/>
		<path class="st1" d="M69.8,95.9c-4.7-0.7-10.7-10.1-11.7-15.3v-0.1c0.6-3.1,0.2-7.2-0.2-12c-0.4-5.4-1-11.4-0.2-17
			c0-0.1,0.1-0.2,0.2-0.3c0.1,0,0.2,0,0.3,0c0.8,0.3,1.7,0.6,2.7,0.9c6.1,2,15.3,5.1,21.1,6.2c0.2,0,0.3,0.2,0.3,0.4
			c-0.4,7.9-0.1,15.8,0.9,23.6c0.1,0.6,0.2,1.4-0.1,2.1s-0.9,1.3-1.5,1.7c-1.3,1-2.5,2.5-3.8,4.1c-2.2,2.8-4.5,5.7-7.4,5.7
			C70.1,95.9,69.9,95.9,69.8,95.9z M60.5,52.9c-0.8-0.3-1.6-0.6-2.3-0.8c-0.7,5.4-0.2,11.2,0.3,16.3c0.4,4.8,0.8,9,0.2,12.1
			c0.9,4.9,6.7,13.9,11,14.6c2.8,0.4,5.1-2.5,7.4-5.4c1.3-1.6,2.6-3.2,3.9-4.2c0.5-0.3,1-0.7,1.2-1.3c0.3-0.6,0.2-1.2,0.1-1.8
			c-1-7.8-1.3-15.6-0.9-23.4C75.6,57.8,66.6,54.8,60.5,52.9z"/>
	</g>
	<g>
		<g>
			<path class="st0" d="M60.9,158.2l-2.5-17c0,0,5.1-0.8,9.6-1.5c1.4-0.3,5.4-1.5,6.5-2.5c1-1.4,4.9-7,5.6-9.6
				c0.2-0.8,1.3-4,1.9-3.7c0.9,0.4,2,2.6,2,4.2c0,2.6-2.1,5.7-2.1,6.8c0,0.8,0,1.8,0.8,2.1c0.3,0.1,1.7,0,2,0
				c1.4-0.2,4.8-0.6,6.2-0.6c0.6,0,3-0.4,3.5-0.1c1,0.6,2.2,3.5-1.8,4.3c0.9,0.4,1.8,1.3,1.8,2.3c0,0.9-0.9,1.6-1.7,2.2
				c0.8,0.4,1.2,0.9,1.2,1.7c0,0.9-1,2.3-2.5,2.5c1.5,0.1,2.1,2,1,2.8c-3.1,2.2-9.8,3.9-18.5,2.2C73.2,154.2,60.9,158,60.9,158.2z"
				/>
			<path class="st1" d="M61,158.3c-0.1-0.1-0.2-0.2-0.2-0.3l-2.5-17c0-0.2,0.1-0.4,0.3-0.4c0.1,0,5.1-0.8,9.6-1.5
				c1.4-0.2,5.2-1.4,6.3-2.3c1.8-2.5,4.9-7.2,5.5-9.4c0,0,1-3.5,1.9-3.9c0.2-0.1,0.3-0.1,0.5,0c1,0.5,2.2,2.8,2.2,4.6
				c0,1.7-0.8,3.5-1.4,4.9c-0.4,0.9-0.7,1.6-0.7,2c-0.1,0.6,0,1.5,0.5,1.7c0.2,0,1.4,0,1.8,0c2.1-0.3,5-0.6,6.3-0.6
				c0.1,0,0.4-0.1,0.8-0.1c1.7-0.2,2.5-0.3,2.9,0c0.7,0.4,1.3,1.6,1.1,2.7c-0.1,0.7-0.6,1.6-2.1,2.1c0.7,0.5,1.2,1.3,1.2,2.1
				c-0.1,1-0.8,1.7-1.5,2.2c0.5,0.4,0.9,0.9,0.9,1.8c-0.1,0.8-0.7,1.9-1.8,2.5c0.4,0.3,0.7,0.6,0.8,1.1c0.2,0.7-0.1,1.5-0.7,1.9
				c-3,2.1-9.8,4-18.8,2.2C73.1,154.7,65.6,156.9,61,158.3L61,158.3C60.8,158.3,60.7,158.3,61,158.3z M73.9,153.9
				c8.3,1.6,15.2,0.1,18.3-2.1c0.4-0.2,0.5-0.6,0.4-1.1c-0.2-0.5-0.5-0.9-1.2-1c-0.1-0.1-0.3-0.2-0.3-0.4s0.1-0.4,0.3-0.4
				c1.4-0.2,2.2-1.5,2.2-2.1c0-0.6-0.2-1-1-1.4c-0.1-0.1-0.2-0.2-0.2-0.3s0.1-0.2,0.2-0.3c0.8-0.6,1.6-1.2,1.6-1.9
				c0-0.8-0.8-1.6-1.6-1.9c-0.1-0.1-0.2-0.2-0.2-0.4c0-0.1,0.1-0.3,0.3-0.3c1.4-0.3,2.2-0.9,2.4-1.7c0.1-0.8-0.4-1.6-0.8-1.9
				c-0.3-0.1-1.8,0-2.4,0.1c-0.4,0.1-0.7,0.1-0.9,0.1c-1.5,0-5,0.5-6.2,0.6c-0.3,0-1.8,0-2.2-0.1c-1-0.4-1-1.9-1-2.5
				s0.4-1.3,0.8-2.3c0.6-1.4,1.4-3.1,1.4-4.6c0.1-1.5-1-3.4-1.7-3.8c-0.5,0.4-1.3,2.4-1.5,3.4c-0.8,2.8-5.2,9-5.7,9.7
				c-0.1,0.1-0.1,0.1-0.1,0.1c-1.2,1-5.4,2.3-6.7,2.5c-3.8,0.6-8,1.2-9.2,1.4l2.3,16.2C65,156.3,72.9,153.9,73.9,153.9L73.9,153.9z
				 M73.8,154.7L73.8,154.7L73.8,154.7z M73.9,154.3L73.9,154.3L73.9,154.3z"/>
		</g>
		<g>
			<path class="st1" d="M89.8,141.1c0-0.2,0.1-0.4,0.3-0.4l3-0.5c0.2,0,0.4,0.1,0.4,0.3s-0.1,0.4-0.3,0.4l-3,0.5l0,0
				C90,141.4,89.8,141.3,89.8,141.1z"/>
		</g>
		<g>
			<path class="st1" d="M90.6,145.6c0-0.2,0.2-0.4,0.4-0.4c0.5-0.1,1.4-0.2,1.8-0.5c0.2-0.1,0.4-0.1,0.5,0.1s0.1,0.4-0.1,0.5
				c-0.6,0.3-1.6,0.5-2.2,0.5l0,0C90.8,145.8,90.7,145.7,90.6,145.6z"/>
		</g>
	</g>
	<g>
		<path class="st2" d="M16.6,144.4c0,0,2.5,0.1,11.9,0.7c9.3,0.6,36.8-5.8,36.8-5.8s0.9,4.4,2,9.4c0.9,4.2,3.1,8.8,3.1,8.8
			s-3.5,1.4-21.4,7.3c-16.4,5.4-26.7,6.7-26.7,6.7L16.6,144.4z"/>
	</g>
	<g>
		<path class="st1" d="M22.1,171.6c-0.1-0.2,0.1-0.4,0.3-0.4c13.8-1.6,43.9-12.6,47.8-14c-0.4-0.9-1.5-3.1-3-7.8
			c-1.6-5-1.9-8.4-1.9-9.6c-4,0.9-31.4,6.8-40.6,5.3c-0.2,0-0.3-0.2-0.3-0.4s0.2-0.3,0.4-0.3c9.6,1.6,40.5-5.3,40.8-5.4
			c0.1,0,0.2,0,0.3,0.1s0.1,0.2,0.1,0.3c0,0,0,3.7,1.9,9.8c1.9,6.1,3.1,8,3.1,8c0,0.1,0,0.2,0,0.3c0,0.1-0.1,0.2-0.2,0.2
			c-0.4,0.1-33.6,12.5-48.5,14.2l0,0C22.1,171.9,21.9,171.8,22.1,171.6z"/>
	</g>
	<g>
		<path class="st1" d="M34.8,129.6c0-1.7-0.3-4.1-0.5-6.5c-0.2-1.5-0.3-3-0.4-4.2c-0.1-0.2,0.1-0.4,0.3-0.4c0.2-0.1,0.4,0.1,0.4,0.3
			c0.1,1.3,0.2,2.7,0.4,4.2c0.3,2.4,0.5,4.9,0.6,6.6c0,0.2-0.2,0.4-0.4,0.4l0,0C35,130,34.8,129.8,34.8,129.6z"/>
	</g>
	<g>
		<path class="st1" d="M108.1,122.1c0-3.1,0.3-6.1,0.5-8.7c0.2-1.7,0.3-3.4,0.4-4.9c0-0.2,0.2-0.4,0.4-0.4c0.2,0,0.4,0.2,0.4,0.4
			c-0.1,1.6-0.2,3.2-0.4,5c-0.2,2.6-0.5,5.5-0.5,8.6c0,0.2-0.2,0.4-0.4,0.4C108.3,122.5,108.1,122.4,108.1,122.1z"/>
	</g>
	<g>
		<path class="st0" d="M51.3,24.3c3.8,0,7.2,2.1,8.9,4.8c1.8,2.8,2,6,1.7,9.2c-0.4,3.8-1.6,7.6-3.6,11.2c-1.1,1.8,0.3,3.5,0.2,5.5
			c-0.1,1.6-1.7,2.6-1.7,4.2c-1.9-0.7-2.7-1.4-3.8-2.9c-2.3-3.2-4.4-7.2-5.7-10.9c-2.8-7.7-4.2-13-5.7-19
			C43.7,24.4,48.4,24.4,51.3,24.3z"/>
		<path class="st1" d="M56.7,59.6c-2.1-0.8-2.9-1.6-4-3.1c-2.3-3.2-4.4-7.3-5.7-11c-2.8-7.7-4.2-13-5.7-19c0-0.2,0-0.3,0.1-0.4
			c2-2.1,6.5-2.1,9.4-2.2h0.5c3.7-0.1,7.3,1.8,9.2,4.9c1.5,2.5,2.1,5.6,1.7,9.4c-0.4,4-1.6,7.8-3.6,11.4c-0.5,1-0.3,1.9,0,3
			c0.2,0.8,0.4,1.5,0.3,2.4c0,0.9-0.5,1.5-0.9,2.2c-0.4,0.7-0.8,1.3-0.8,2c0,0.1-0.1,0.2-0.2,0.3c0,0.1-0.1,0.1-0.2,0.1
			S56.7,59.6,56.7,59.6z M51.3,24.8h-0.5c-2.7,0-6.8,0.1-8.8,1.8c1.4,5.9,2.9,11.1,5.6,18.7c1.3,3.7,3.4,7.6,5.6,10.8
			c0.9,1.3,1.6,2,3.2,2.6c0.2-0.7,0.5-1.3,0.9-1.9c0.4-0.6,0.7-1.2,0.8-1.9c0.1-0.7-0.1-1.4-0.3-2.1c-0.3-1.1-0.6-2.2,0.1-3.5
			c2-3.6,3.2-7.3,3.6-11.1c0.4-3.7-0.1-6.6-1.6-8.9c-1.8-2.8-5-4.6-8.4-4.6C51.4,24.7,51.3,24.7,51.3,24.8z"/>
	</g>
	<g>
		<path class="st2" d="M82.5,19.5c-3.1-1.4-6.9-2.5-10.4-2s-8.5-1-11.7,0.4c-1.9,0.8-5.2,2.2-6.7,3.4c-2.6,2.2-1.8,8.3-1.9,12.6
			c-0.1,1.6-0.2,5,0.5,8.4c-2.8-1.9-4.9-1.4-6.4,0.4c-1.5,1.8-1.1,4.4,0.6,5.9s4.6,1.8,7,1.1c1,4.1,2.7,12.3,5.9,15.7
			c3.4,3.6,9,5.6,14.6,5.2c5.6-0.4,11-3.2,14.1-7.3c3.4-4.6,3.8-10.4,3-15.7c-0.8-5.3-2.6-10.4-3.1-15.8
			C87.6,27.8,86.2,21,82.5,19.5z"/>
		<path class="st1" d="M59.1,65.7c-2.9-3.1-4.5-10-5.6-14.5c0-0.4-0.1-0.7-0.2-1c-2.6,0.6-5.3,0.1-7-1.3c-2-1.7-2.3-4.5-0.7-6.4
			c1.6-1.9,3.8-2.2,6.2-0.9c-0.5-3.1-0.4-6-0.4-7.5V34c0-0.8,0-1.8,0-2.8c0-3.9-0.1-8.2,2.1-10.1c1.5-1.3,4.7-2.6,6.6-3.4l0.2-0.1
			c1.9-0.9,4.5-0.7,7-0.5c1.7,0.1,3.3,0.2,4.7,0c3-0.4,6.5,0.2,10.6,2c4.6,1.9,5.6,10.9,5.8,12.5l0,0c0.3,3,1,6,1.7,8.9
			c0.5,2.2,1,4.6,1.4,6.9c1,6.5,0,11.9-3.1,16c-3.2,4.2-8.7,7.1-14.4,7.5C73.6,71,73.1,71,72.6,71C67.4,71,62.3,69,59.1,65.7z
			 M82.3,19.8c-3.9-1.7-7.4-2.3-10.2-1.9c-1.5,0.2-3.2,0.1-4.9,0c-2.4-0.2-4.9-0.4-6.7,0.4l-0.2,0.1c-1.9,0.8-5,2.1-6.4,3.3
			c-1.9,1.6-1.9,5.8-1.8,9.5c0,1,0,2,0,2.9v0.1c-0.1,1.6-0.1,4.9,0.5,8.2c0,0.2-0.1,0.3-0.2,0.4c-0.1,0.1-0.3,0.1-0.4,0
			c-2.4-1.7-4.4-1.6-5.9,0.3c-1.3,1.6-1,3.9,0.6,5.3c1.5,1.3,4.2,1.7,6.6,1c0.1-0.1,0.2-0.1,0.3,0c0.1,0,0.2,0.1,0.2,0.2
			c0.1,0.4,0.2,0.9,0.3,1.4c1,4.2,2.7,11.2,5.5,14.2c3.3,3.5,8.8,5.5,14.3,5.1c5.5-0.4,10.8-3.2,13.8-7.2s4-9.1,3-15.5
			c-0.3-2.3-0.9-4.6-1.4-6.8c-0.7-2.9-1.4-6-1.7-9l0,0C87.2,27.1,85.6,21.2,82.3,19.8z"/>
	</g>
	<g>
		<path class="st0" d="M64.5,28.4c-3.4-0.8-4.6-2.3-6.1-4.5c-0.6,2.4-1.5,5-3.9,7c-4.2,3.7-10.9,2.5-12.9,0.6s-3.3-6-2.7-8.7
			c0.8-3.6,4.4-5,6.9-4c-2.6-4.9-1.9-8.8,2.7-9.5c2.3-0.4,4.4,1,6.1,2.7c0-2.6,2-6.6,5-7.6s6.4,0.4,8.7,2.8
			c-0.2-1.7,0.5-3.4,1.6-4.5s2.6-1.7,4.1-2c2.3-0.5,4.8-0.4,6.8,0.9s3.4,4,2.7,6.3C85.8,8,88.1,8,90.2,8.8c2.1,0.9,3.9,2.9,4.1,5.2
			s-1.8,4.7-4,4.4c3.4,0.7,5.8,4.6,5,8.1c-0.7,3.5-4.5,5.8-7.8,4.9c-2.2-0.6-3.9-2.4-6.1-4c-0.7,2.3-1.5,3.4-3.8,3.4
			c-2.3-0.1-6.3-3.1-7-5.4C70,27.8,67.2,29.1,64.5,28.4z"/>
		<path class="st1" d="M41.4,31.7c-2.1-2-3.4-6.3-2.8-9.1c0.4-1.8,1.5-3.2,3-4c1.1-0.6,2.4-0.8,3.6-0.6c-1.3-2.7-1.5-5.1-0.6-6.8
			c0.7-1.4,2.1-2.2,4-2.5c1.9-0.2,3.9,0.5,5.8,2.3c0.3-2.8,2.4-6.2,5.2-7.1C62.3,3,65.5,3.8,68,6.1c0.1-1.4,0.7-2.8,1.7-3.8
			s2.5-1.7,4.3-2.1c2.7-0.6,5.2-0.2,7.1,1c2.1,1.3,3.3,3.9,2.9,6.2c0.2,0,0.5,0,0.8,0c1.9,0.1,3.8,0.2,5.6,0.9
			c2,0.8,4.1,2.8,4.3,5.5c0.1,1.4-0.5,2.8-1.5,3.8c-0.4,0.4-0.8,0.6-1.3,0.8c2.8,1.4,4.5,4.9,3.8,8c-0.4,1.8-1.5,3.4-3.2,4.4
			c-1.6,1-3.5,1.3-5.1,0.8c-1.7-0.5-3.1-1.6-4.6-2.8c-0.3-0.3-0.7-0.6-1.1-0.9c-0.7,2.1-1.6,3.2-3.9,3.2h-0.1
			c-2.2-0.1-5.7-2.5-7-4.8c-1,2-3.6,3.1-6.1,2.5c-3.3-0.8-4.6-2.2-5.9-4c-0.5,1.9-1.5,4.4-3.8,6.4c-2.1,1.8-4.7,2.5-7.1,2.5
			C45,33.7,42.6,32.8,41.4,31.7z M58.8,23.7c1.4,2.1,2.5,3.6,5.9,4.4c2.2,0.5,4.9-0.5,5.5-2.8c0.1-0.2,0.2-0.3,0.4-0.3l0,0
			c0.2,0,0.4,0.1,0.4,0.3c0.7,2.2,4.5,5.1,6.7,5.1h0.1c2.1,0,2.7-1,3.4-3.2c0-0.1,0.1-0.2,0.2-0.2c0.1,0,0.2,0,0.3,0.1
			c0.6,0.4,1.1,0.8,1.6,1.2c1.5,1.2,2.8,2.3,4.4,2.7c1.5,0.4,3.1,0.1,4.5-0.7c1.5-0.9,2.6-2.3,2.9-3.9c0.7-3.3-1.6-7-4.7-7.7
			c-0.2,0-0.3-0.2-0.3-0.4c0-0.2,0.2-0.3,0.4-0.3c0.8,0.1,1.6-0.2,2.3-0.8c0.9-0.8,1.4-2,1.3-3.2c-0.2-2.3-2.1-4.1-3.9-4.8
			c-1.6-0.7-3.4-0.7-5.3-0.8c-0.4-0.1-0.9-0.1-1.3-0.1c-0.1-0.1-0.2-0.1-0.3-0.2s-0.1-0.2-0.1-0.3c0.6-2.1-0.5-4.6-2.5-5.9
			c-1.7-1.1-4-1.4-6.5-0.9c-1.7,0.4-3,1-3.9,1.9c-1.1,1.1-1.7,2.7-1.5,4.2c0,0.2-0.1,0.3-0.2,0.4c-0.1,0.1-0.3,0-0.4-0.1
			c-2.4-2.5-5.7-3.6-8.3-2.7c-3,1-4.8,4.9-4.8,7.3c0,0.1-0.1,0.2-0.2,0.3c-0.1,0-0.3,0-0.4-0.1c-1.9-2-3.8-2.9-5.7-2.6
			c-1.7,0.3-2.8,1-3.4,2.1c-0.9,1.7-0.5,4.1,0.9,6.9c0,0.1,0,0.3-0.1,0.4c-0.1,0.1-0.3,0.2-0.4,0.1c-1.2-0.4-2.6-0.3-3.8,0.3
			c-1.3,0.7-2.2,1.9-2.6,3.5c-0.6,2.6,0.6,6.6,2.6,8.4c2,1.8,8.4,2.8,12.4-0.6c2.4-2.2,3.3-4.9,3.7-6.8c0.1-0.2,0.2-0.3,0.4-0.3
			c-0.1,0,0,0,0,0C58.6,23.6,58.7,23.6,58.8,23.7z"/>
	</g>
	<g>
		<path class="st1" d="M83.7,41.5c-0.7,0-1.2-0.5-1.2-1.2s0.6-1.2,1.3-1.2s1.2,0.5,1.2,1.2C85,40.9,84.4,41.5,83.7,41.5z"/>
	</g>
	<g>
		<path class="st1" d="M65.3,44.5c-0.7,0-1.2-0.5-1.2-1.2s0.6-1.2,1.3-1.2s1.2,0.5,1.2,1.2S66.1,44.5,65.3,44.5z"/>
	</g>
	<g>
		<path class="st1" d="M68.1,60.8c-0.1-0.1-0.1-0.4,0-0.5s0.4-0.1,0.5,0c1.5,1.5,4,2,6,1.3c0.2-0.1,0.4,0,0.5,0.2s0,0.4-0.2,0.5
			c-0.7,0.3-1.5,0.4-2.2,0.4C71,62.7,69.3,62,68.1,60.8z"/>
	</g>
	<g>
		<path class="st1" d="M74.9,55.8c-1.4-0.1-2.6-0.7-3.3-1.6c-0.1-0.1-0.1-0.4,0.1-0.5c0.1-0.1,0.4-0.1,0.5,0.1
			c0.6,0.7,1.6,1.2,2.7,1.3c0.9,0,2-0.2,3.1-0.7c0.4-0.2,0.8-0.4,1.1-0.8c0.3-0.5,0.4-1.1,0.2-1.8c-0.2-0.6-0.5-1.1-0.8-1.6
			l-0.2-0.3c-1.9-3.1-3-6.6-3.3-10.2c-0.1-0.2,0.1-0.4,0.3-0.4c0.2-0.1,0.4,0.1,0.4,0.3c0.3,3.5,1.4,6.9,3.2,9.9l0.2,0.3
			c0.4,0.6,0.7,1.2,0.9,1.8c0.3,0.9,0.2,1.8-0.3,2.4c-0.4,0.5-0.9,0.8-1.4,1c-1.1,0.5-2.1,0.8-3.1,0.8C75,55.8,74.9,55.8,74.9,55.8z
			"/>
	</g>
	<g>
		<path class="st1" d="M52.7,45.1c-0.3-1.1-0.4-1.8-0.7-2.9c0-0.2,0.1-0.4,0.3-0.4s0.4,0.1,0.4,0.3c0.3,1.1,0.4,1.7,0.7,2.9
			c0,0.2-0.1,0.4-0.4,0.5c0.1,0,0,0,0,0C52.8,45.5,52.7,45.4,52.7,45.1z"/>
	</g>
	<g>
		<path class="st1" d="M59.9,52.8c-4.1-1.4-7.2-5.6-7.8-10.5C52,41.7,52,41,52.3,40.4c0.5-1.1,1.7-1.4,2.9-1.7
			c10.9-2.3,22.1-4,33.2-5.1l0,0c2.4-0.2,3.9,0.2,4.6,1.4c0.8,1.4,0.6,3,0.5,4.2c-0.3,3.2-0.9,6.7-3.5,8.5c-1.3,0.9-3,1.3-5,1.2
			c-1.5-0.1-3.5-0.5-4.8-1.9c-0.9-1-1.3-2.2-1.7-3.5c-0.1-0.4-0.3-0.8-0.4-1.2c-0.6-1.4-1.7-3-3.2-3l0,0c-1.5,0-2.6,1.5-3,3.1
			c-0.2,0.8-0.2,1.6-0.3,2.4c-0.1,0.9-0.1,1.9-0.4,2.8c-0.6,2-2,3.6-4,4.7c-1.4,0.7-3,1.1-4.5,1.1C61.7,53.4,60.8,53.2,59.9,52.8z
			 M74.9,38.5c2.4,0,3.6,2.7,3.9,3.3c0.1,0.5,0.3,0.9,0.4,1.3c0.4,1.3,0.8,2.4,1.6,3.3c1.2,1.3,3,1.6,4.3,1.7c1.8,0,3.4-0.3,4.5-1.1
			c2.4-1.6,2.9-4.9,3.2-7.9c0.1-1.4,0.2-2.7-0.4-3.7c-0.5-0.9-1.8-1.2-3.9-1c-11.1,1.1-22.3,2.8-33.2,5.1c-1,0.2-2,0.5-2.4,1.3
			c-0.2,0.4-0.2,1-0.1,1.5c0.6,4.6,3.5,8.6,7.3,9.9c2.1,0.7,4.6,0.5,6.7-0.6c1.8-0.9,3.1-2.4,3.6-4.2c0.3-0.9,0.3-1.8,0.4-2.7
			c0-0.8,0.1-1.7,0.3-2.5C71.6,40.4,72.9,38.5,74.9,38.5L74.9,38.5z"/>
	</g>
	<g>
		<path class="st2" d="M82.5,79.3c-2.1,6.5-5.6,11.4-9.1,11.5c-3.6,0.1-8.7-3.1-15-10c-1.3,0-2.8,0.4-4.5,0.4
			c-0.6,0.3,20.8,40.3,20.8,40.3c2.8-7,8.8-26.8,12.5-42.1C85.8,79.4,84.4,79.3,82.5,79.3z"/>
		<path class="st1" d="M74,121.7c0-0.1-5.3-9.9-10.5-19.8C53,81.9,53.1,81.5,53.2,81.2c0-0.1,0.1-0.2,0.2-0.2c0.1,0,0.1,0,0.2,0
			c0.8,0,1.6-0.1,2.3-0.2c0.8-0.1,1.5-0.2,2.2-0.2c0.1,0,0.2,0,0.3,0.1c6.1,6.6,11.2,10,14.8,9.9c3.1,0,6.6-4.4,8.8-11.2
			c0.1-0.2,0.2-0.3,0.4-0.3c1,0,1.9,0,2.7,0c0.7,0,1.3,0,2,0c0.1,0,0.2,0,0.3,0.1c0.1,0.1,0.1,0.2,0.1,0.3
			c-3.9,16-9.8,35.4-12.5,42.1c0,0.1-0.1,0.2-0.3,0.2c0.1,0,0,0,0,0C74.6,121.8,74.5,121.7,74,121.7z M85.1,79.7c-0.7,0-1.5,0-2.4,0
			c-2.4,7-6,11.4-9.4,11.5h-0.1c-3.8,0-8.9-3.3-15.1-10c-0.6,0-1.2,0.1-1.9,0.2c-0.5,0.1-1.2,0.2-1.9,0.2c1.3,3.2,12.5,24.4,20.3,39
			c2.8-7.2,8.3-25.5,12.1-40.8C86.2,79.8,85.7,79.8,85.1,79.7z"/>
	</g>
	<g>
		<path class="st2" d="M80.2,101c-1.2,5.2-5.6,12.9-5.6,20.6c1.2-5.4,5.2-7.7,9.1-13.9c3-4.7,6.6-8.2,10.1-12.4
			c0.3-0.4,0.6-0.8,0.7-1.3c0.1-0.6-0.3-1.3-0.7-1.8c-1.9-2.7-4.1-5.1-6.5-7.2c2.6-1.3,7.1-2.4,9.8-3.2c-3.7-3.7-10.3-5.9-15.2-7.6
			C82.5,78.1,84.5,82.4,80.2,101z"/>
		<path class="st1" d="M74.7,121.8c-0.2,0-0.3-0.2-0.3-0.5c0-5.2,1.9-10.2,3.6-14.7c0.8-2.2,1.6-4.3,2-6c3.6-15.9,2.6-21.3,1.9-24.9
			c-0.1-0.6-0.2-1.2-0.3-1.7c-0.1-0.1,0-0.2,0.1-0.3s0.3-0.1,0.4-0.1c0.3,0.1,0.7,0.3,1.1,0.4c4.8,1.8,10.7,3.9,14.2,7.3
			c0.1,0.1,0.1,0.3,0.1,0.4c-0.1,0.2-0.2,0.3-0.3,0.3c-0.6,0.1-1.2,0.3-1.9,0.5C92.9,83.2,90,84,88,84.9c2.3,2,4.4,4.3,6.2,6.8
			c0.5,0.6,0.9,1.3,0.8,2.1c-0.1,0.6-0.4,1.1-0.8,1.5c-1,1.4-2.1,2.6-3.2,3.8c-2.5,2.8-4.8,5.4-6.8,8.6c-1.5,2.4-3,4.3-4.4,5.9
			c-2.2,2.6-4,4.7-4.7,7.9C75,121.7,74.9,121.8,74.7,121.8L74.7,121.8z M82.8,75c-0.1-0.1-0.3-0.1-0.5-0.2c0.1,0.3,0.1,0.6,0.2,1
			c0.7,3.7,1.7,9.2-1.9,25.2c-0.4,1.8-1.2,3.9-2,6.1c-1.3,3.6-2.8,7.6-3.3,11.7c0.9-2.1,2.3-3.7,3.9-5.6c1.4-1.6,2.9-3.4,4.4-5.8
			c2-3.3,4.3-5.9,6.8-8.7c1-1.2,2.1-2.4,3.2-3.7c0.3-0.4,0.5-0.7,0.6-1.1c0.1-0.6-0.3-1.1-0.6-1.6c-1.9-2.6-4.1-5-6.5-7.1
			C87,85.1,87,85,87,84.9c0-0.1,0.1-0.2,0.2-0.3c2-1.1,5.3-2,7.9-2.7c0.5-0.2,0.9-0.3,1.3-0.4C93,78.5,87.4,76.5,82.8,75z"/>
	</g>
	<g>
		<path class="st2" d="M64.1,95.5c3.8,11.1,10.6,18.2,10.6,25.9c-1.2-5.4-20.5-24-22.4-25.9c-4.9-4.8-6.3-3.7,1.6-10.6
			c-2.5-1.3-5.1-1.5-7.8-2.3c3.7-3.7,7.7-6.2,12.6-7.9C59,79.8,59.7,82.5,64.1,95.5z"/>
		<path class="st1" d="M74.3,121.6c-0.5-2.2-4.6-8.3-21.5-24.9c-0.4-0.4-0.6-0.6-0.8-0.8c-0.7-0.7-1.4-1.3-1.9-1.8
			c-1.4-1.2-2.2-2-2.2-3c0-1.3,1.4-2.6,5.3-6c-1.4-0.6-2.9-1-4.5-1.3c-0.9-0.2-1.8-0.4-2.7-0.7c-0.2-0.1-0.3-0.2-0.3-0.3
			c0-0.2,0-0.3,0.1-0.4c3.7-3.7,7.7-6.2,12.7-8c0.1-0.1,0.2-0.1,0.3,0c0.1,0.1,0.2,0.2,0.2,0.3c0.3,5.1,1.2,8,5.5,20.7
			c1.6,4.7,3.7,8.7,5.6,12.2c2.7,4.9,5,9.2,5,13.8c0,0.2-0.2,0.4-0.4,0.4c0.1,0,0.1,0,0,0S74.4,121.7,74.3,121.6z M46.8,82.4
			c0.7,0.2,1.4,0.4,2.1,0.5c1.7,0.4,3.5,0.8,5.2,1.7c0.1,0.1,0.2,0.2,0.2,0.3c0,0.1,0,0.2-0.1,0.3c-3.8,3.3-5.5,4.8-5.5,5.8
			c0,0.7,0.8,1.4,2,2.5c0.6,0.5,1.2,1.1,1.9,1.8c0.2,0.2,0.4,0.4,0.8,0.8c11.4,11.2,18.4,19,20.8,23.2c-0.6-3.6-2.5-7.2-4.7-11.3
			c-1.9-3.6-4.1-7.6-5.7-12.3c-4.2-12.4-5.2-15.5-5.5-20.4C53.9,76.9,50.2,79.2,46.8,82.4z"/>
	</g>
	<g>
		<path class="st1" d="M49.7,47.7c-0.5-0.2-1-0.4-1.3-0.8c-0.2-0.2-0.4-0.4-0.5-0.7c-0.2-0.3-0.3-0.9-0.2-1.5c0.1-0.5,0.5-1,1-1.2
			c0.1,0,0.2,0,0.2,0.1c0,0.1,0,0.2-0.1,0.2c-0.4,0.1-0.7,0.5-0.8,1c-0.1,0.4-0.1,0.9,0.1,1.4c0.1,0.2,0.2,0.4,0.4,0.6
			c0.3,0.3,0.8,0.5,1.2,0.6c0.1,0.1,0.1,0.1,0.1,0.2S49.8,47.7,49.7,47.7L49.7,47.7z"/>
	</g>
	<g>
		<path class="st1" d="M43.6,29.9c-1.4-1.2-2-2.9-1.8-4.5c0-0.1,0-0.1,0.1-0.1s0.1,0,0.1,0.1c-0.1,1.6,0.5,3.2,1.7,4.3
			C43.7,29.7,43.7,29.8,43.6,29.9L43.6,29.9C43.5,29.9,43.5,29.9,43.6,29.9z"/>
	</g>
	<g>
		<path class="st1" d="M71.6,94.6c-2.7-0.3-4.8-2-6.9-3.7c-1.1-0.9-2.2-1.8-3.4-2.5c0-0.1,0-0.1,0-0.2c0.1,0,0.1,0,0.2,0
			c1.3,0.7,2.4,1.6,3.5,2.5c2.2,1.8,4.2,3.4,6.8,3.7c2,0.2,4.2-0.5,6.2-1.9c1.7-1.2,2.8-3,4.7-6.4c0.1,0,0.1,0,0.2,0
			c0,0.1,0,0.1,0,0.2c-1.7,3.1-2.9,5.1-4.8,6.5c-1.8,1.3-3.8,2-5.6,2C72.2,94.8,72,94.8,71.6,94.6z"/>
	</g>
	<g>
		<path class="st1" d="M135.6,117.4c-0.2-0.1-0.3-0.3-0.2-0.5c0.6-1.5,1.1-2.7,2-4c0.1-0.2,0.3-0.2,0.5-0.1s0.2,0.3,0.1,0.5
			c-0.8,1.2-1.3,2.3-1.9,3.8c0,0.1-0.2,0.2-0.3,0.2C135.8,117.3,135.7,117.3,135.6,117.4z"/>
	</g>
	<g>
		<path class="st1" d="M75.2,135.3l-0.7-13.9c0-0.2,0.2-0.4,0.4-0.4s0.4,0.2,0.4,0.4l0.7,13.9c0,0.2-0.2,0.4-0.4,0.4l0,0
			C75.4,135.7,75.2,135.5,75.2,135.3z"/>
	</g>
	<g>
		<path class="st1" d="M78,183.9c-0.2,0-0.4-0.1-0.3-0.4c0.3-9.8-0.5-20.7-1.1-28.7v-0.1c-0.1-0.2,0.1-0.4,0.3-0.4
			c0.2-0.1,0.4,0.1,0.4,0.3v0.1c0.6,8,1.5,19,1.1,28.8C78.4,183.7,78.2,183.9,78,183.9L78,183.9z"/>
	</g>
	<g>
		<path class="st1" d="M66.4,156.5c-1.7-3.5-2.9-7.2-3.5-11.1c0,0,0-0.1,0.1-0.1c0,0,0.1,0,0.1,0.1c0.6,3.9,1.8,7.6,3.5,11.1
			c0,0.1,0,0.2-0.1,0.2c0.1,0,0,0,0,0S66.4,156.7,66.4,156.5z"/>
	</g>
	<g>
		<path class="st1" d="M63.7,157.6c-0.8-1.3-1.4-2.7-1.8-4.2c0-0.1,0-0.2,0.1-0.2c0.1,0,0.2,0,0.2,0.1c0.5,1.5,1.1,2.9,1.8,4.2
			c0,0.1,0,0.1-0.1,0.2l0,0C63.9,157.7,63.8,157.7,63.7,157.6z"/>
	</g>
	<g>
		<path class="st1" d="M175.4,85.1c-3.5,0-7.1-0.3-10.5-0.9c-0.1,0-0.1,0-0.1-0.1s0-0.1,0.1-0.1c3.4,0.6,7,0.9,10.5,0.9
			C175.4,84.9,175.5,84.9,175.4,85.1C175.5,85,175.5,85.1,175.4,85.1L175.4,85.1z"/>
	</g>
	<g>
		<path class="st1" d="M170.4,87.8c-0.1,0-0.1,0-0.1-0.1s0-0.1,0.1-0.1c1.3,0.1,2.7,0.1,4,0.1c0,0,0.1,0,0.1,0.1c0,0,0,0.1-0.1,0.1
			c-0.3,0-0.6,0-0.9,0C172.5,87.9,171.4,87.9,170.4,87.8z"/>
	</g>
</g>
</svg>
