<svg width="170" height="150" viewBox="0 0 170 150" fill="none" xmlns="http://www.w3.org/2000/svg">
<g clip-path="url(#clip0_238_1992)">
<path d="M85.0757 47.2564C86.2819 52.4361 86.069 58.7512 86.069 58.7512L81.386 60.596C81.386 60.596 78.5478 72.3746 96.5705 68.7559C100.047 68.0463 110.194 60.3122 110.194 60.3122L102.176 58.0416C102.176 58.0416 101.395 46.4049 101.112 40.5865C96.9252 42.5733 90.1845 45.6953 85.0757 47.2564Z" fill="white"/>
<path d="M90.4683 69.8202C86.9915 69.8202 84.3661 68.9688 82.8051 67.2658C80.1798 64.5695 81.1022 60.667 81.1022 60.5251C81.1022 60.3831 81.2441 60.3122 81.315 60.3122L85.7852 58.6093C85.7852 57.403 85.8562 51.9394 84.7919 47.3983C84.7209 47.1854 84.8628 47.0435 85.0047 46.9725C90.2554 45.3406 97.4929 41.9347 101.041 40.3027C101.112 40.2318 101.254 40.2318 101.395 40.3027C101.466 40.3737 101.537 40.4446 101.537 40.5866C101.821 45.8373 102.46 56.0549 102.602 57.8287L110.407 60.0284C110.549 60.0993 110.62 60.1703 110.691 60.3122C110.691 60.4541 110.691 60.596 110.549 60.667C110.123 60.9508 100.26 68.4011 96.7124 69.1107C94.3709 69.6074 92.2422 69.8202 90.4683 69.8202ZM81.7408 60.8798C81.5989 61.6603 81.2441 64.6405 83.3018 66.8401C85.5724 69.2526 90.0426 69.7493 96.5705 68.4721C99.4797 67.9044 107.356 62.157 109.484 60.5251L102.105 58.3964C101.963 58.3254 101.892 58.2545 101.821 58.1126C101.821 57.9707 101.112 47.0435 100.757 41.1542C97.1381 42.8571 90.4683 45.9082 85.4305 47.5402C86.5658 52.649 86.3529 58.7512 86.3529 58.8221C86.3529 58.964 86.2819 59.1059 86.14 59.1059L81.7408 60.8798Z" fill="#07133B"/>
<path d="M74.0776 14.7587C72.4456 15.1845 70.8136 13.4815 70.7426 11.7077C70.7426 9.93376 71.9489 8.37274 73.439 7.59223C74.929 6.81172 76.7029 6.74076 78.4058 6.45694C77.7672 4.75401 78.5477 2.6963 79.9669 1.56101C81.386 0.496677 83.3018 0.212854 85.0047 0.425721C86.14 0.567632 87.3462 0.92241 88.1977 1.63197C89.1201 2.41248 89.6878 3.54776 89.6878 4.89592C91.2488 2.98012 93.6613 1.70292 96.0028 2.19961C98.3443 2.76725 100.118 5.60547 100.26 7.59223C101.395 6.17312 102.885 5.03783 104.588 5.17974C108.065 5.39261 108.846 8.30179 107.285 12.0624C109.13 11.14 111.897 11.9205 112.748 14.6168C113.387 16.6036 112.677 19.7966 111.258 21.3576C111.045 21.6414 110.691 21.9252 110.265 22.1381C109.697 25.1182 109.059 28.1693 108.065 32.0719C107.356 34.9101 106.078 38.0322 104.588 40.5866C103.879 41.7928 103.311 42.3604 101.892 43.07C101.821 41.8638 100.544 41.2252 100.331 40.0189C100.118 38.5288 101.041 37.1807 100.118 35.9035C98.4153 33.3491 97.2091 30.5818 96.6414 27.7436C96.2157 25.4021 96.1447 22.9186 97.28 20.79C97.7058 20.0094 98.2024 19.2999 98.912 18.6613C98.6282 18.0227 98.3443 17.4551 98.2024 16.8165C97.2091 18.5903 96.4286 19.7256 93.8742 20.5771C92.0293 21.2157 89.8297 20.4352 89.1911 18.6613C88.7653 20.4352 85.9981 22.9896 84.2952 23.1315C82.5213 23.2734 81.8827 22.4929 81.1731 20.8609C79.6121 22.2091 78.4768 23.6282 76.9158 24.1958C74.5033 25.1182 71.5232 23.6282 70.7426 21.0738C70.0331 18.6613 71.5941 15.5393 74.0776 14.7587Z" fill="#1AD079"/>
<path d="M101.963 43.4957C101.892 43.4957 101.821 43.4957 101.75 43.4248C101.679 43.3538 101.608 43.2829 101.608 43.141C101.608 42.6443 101.254 42.2185 100.899 41.7219C100.544 41.2961 100.189 40.7994 100.047 40.0899C99.9054 39.4513 100.047 38.8127 100.118 38.245C100.26 37.4645 100.331 36.755 99.9054 36.0454C98.1315 33.491 96.9962 30.6528 96.4286 27.7436C95.8609 24.9054 96.0738 22.4929 97.0672 20.5771C97.4219 19.8675 97.9896 19.158 98.5572 18.5194C98.4153 18.2356 98.2734 17.9517 98.2025 17.597C97.351 19.0161 96.4286 20.0804 94.087 20.8609C92.2422 21.4995 90.3264 20.8609 89.333 19.5128C88.4816 21.2867 86.0691 23.2734 84.4371 23.4863C82.6632 23.6991 81.8827 22.9186 81.1731 21.4286C80.8893 21.6414 80.6764 21.8543 80.4636 22.1381C79.3992 23.1315 78.4059 24.0539 77.1287 24.5506C75.9224 24.9763 74.5033 24.9054 73.2261 24.3377C71.878 23.6991 70.8846 22.5639 70.4588 21.2157C69.7493 18.9451 70.7427 16.2488 72.6585 14.9716C72.3746 14.8297 72.0199 14.6878 71.736 14.4749C70.8846 13.8363 70.3169 12.701 70.3169 11.6367C70.3169 9.86282 71.4522 8.08893 73.2261 7.16651C74.5033 6.52791 75.9934 6.31504 77.3415 6.17313C77.5544 6.17313 77.6963 6.10217 77.9092 6.10217C77.4834 4.39924 78.264 2.41249 79.754 1.2772C81.1022 0.212864 83.018 -0.21287 85.0757 0.0709525C86.4948 0.212864 87.6301 0.709552 88.4815 1.41911C89.333 2.12866 89.8297 3.05108 90.0426 4.04446C91.8165 2.27057 94.087 1.41911 96.1447 1.9158C98.2734 2.41249 100.047 4.75402 100.544 6.81173C101.892 5.39262 103.24 4.75402 104.73 4.82497C106.22 4.89593 107.285 5.46357 107.923 6.45695C108.704 7.66319 108.704 9.43708 107.994 11.4948C108.846 11.2819 109.839 11.3529 110.691 11.7077C111.897 12.2043 112.819 13.1977 113.245 14.5459C113.955 16.6036 113.174 19.9385 111.684 21.6414C111.471 21.9253 111.116 22.1381 110.691 22.4219C110.123 25.544 109.413 28.666 108.491 32.2848C107.71 35.1939 106.433 38.316 104.943 40.8704C104.234 42.0766 103.666 42.7862 102.105 43.4957C102.034 43.4957 102.034 43.4957 101.963 43.4957ZM98.3444 16.5326C98.4863 16.5326 98.6282 16.6745 98.6992 16.7455C98.912 17.3841 99.1249 18.0227 99.4087 18.5194C99.4797 18.6613 99.4797 18.8032 99.3377 18.9451C98.6991 19.5128 98.1315 20.2223 97.7767 20.9319C96.8543 22.7767 96.6414 24.9763 97.2091 27.6727C97.7767 30.5109 98.912 33.2072 100.615 35.6906C101.254 36.6131 101.112 37.5355 100.97 38.3869C100.899 38.8836 100.828 39.4513 100.899 40.0189C100.97 40.5156 101.254 40.9413 101.608 41.2961C101.892 41.6509 102.247 42.0766 102.389 42.5733C103.453 42.0057 103.95 41.438 104.518 40.4447C106.008 37.8903 107.285 34.8392 107.994 32.0009C108.917 28.3822 109.626 25.2602 110.194 22.0672C110.194 21.9962 110.265 21.8543 110.336 21.8543C110.762 21.6414 111.045 21.3576 111.258 21.1447C112.606 19.6547 113.245 16.6036 112.677 14.7587C112.323 13.6235 111.542 12.772 110.549 12.3463C109.626 11.9205 108.562 11.9915 107.711 12.4172C107.569 12.4882 107.427 12.4882 107.285 12.3463C107.143 12.2753 107.143 12.0624 107.214 11.9205C108.136 9.79186 108.207 7.94702 107.498 6.81173C107.001 6.03122 106.079 5.60548 104.872 5.53453C103.453 5.46357 102.105 6.24408 100.828 7.87606C100.757 8.01797 100.615 8.01797 100.473 8.01797C100.331 7.94702 100.26 7.87606 100.26 7.73415C100.118 5.96026 98.4863 3.193 96.2867 2.69631C94.2999 2.19962 91.9584 3.193 90.3264 5.25071C90.2554 5.39262 90.0426 5.39262 89.9007 5.39262C89.7587 5.32166 89.6878 5.17975 89.6878 5.03784C89.7588 3.90255 89.1911 2.76726 88.3396 2.05771C87.6301 1.41911 86.5658 1.06433 85.2885 0.922419C83.3728 0.709552 81.6698 1.06433 80.4636 1.98675C79.0445 3.05108 78.4059 4.96688 78.9735 6.45695C79.0445 6.52791 78.9735 6.66982 78.9735 6.74077C78.9026 6.81173 78.8316 6.88268 78.6897 6.88268C78.4059 6.95364 78.0511 6.95364 77.7673 7.02459C76.3482 7.16651 75.071 7.37937 73.8647 7.94702C72.5875 8.58562 71.3103 10.0047 71.3103 11.7786C71.3103 12.6301 71.736 13.4815 72.4456 14.0492C73.0132 14.4749 73.5809 14.6168 74.1485 14.4749C74.3614 14.404 74.5033 14.5459 74.5743 14.7587C74.6452 14.9716 74.5033 15.1135 74.3614 15.1845C72.0908 15.894 70.6717 18.8032 71.3813 21.1447C71.736 22.28 72.5875 23.2734 73.7938 23.8411C74.8581 24.3377 76.1353 24.4797 77.1287 24.0539C78.264 23.6282 79.1864 22.7767 80.1798 21.7833C80.5345 21.4286 80.8893 21.0738 81.315 20.79C81.386 20.719 81.5279 20.719 81.5989 20.719C81.7408 20.719 81.8117 20.79 81.8117 20.9319C82.4503 22.5639 83.018 23.2025 84.579 22.9896C86.211 22.8477 88.8363 20.4352 89.1911 18.8032C89.1911 18.6613 89.333 18.5194 89.5459 18.5194C89.6878 18.5194 89.8297 18.5903 89.9007 18.7323C90.4683 20.3642 92.526 20.9319 94.158 20.4352C96.6414 19.6547 97.28 18.4484 98.2734 16.8165C98.0605 16.6036 98.2025 16.5326 98.3444 16.5326Z" fill="#07133B"/>
<path d="M76.7029 24.6925C76.7029 24.6216 76.7029 24.4797 76.7029 24.4087C76.8449 24.4087 76.9158 24.3377 76.9868 24.3377C78.5478 23.7701 79.754 22.351 81.2441 21.0028C81.9537 22.7058 82.5923 23.4863 84.3661 23.2734C86.14 23.1315 88.9073 20.5771 89.2621 18.8032C89.9007 20.5771 92.1003 21.2867 93.9451 20.719C96.4995 19.8676 97.2091 18.6613 98.2734 16.9584C98.8411 18.7323 99.7635 20.5771 101.608 21.9253C102.318 22.422 103.098 22.7767 103.808 22.9896C103.808 23.3444 103.879 23.6282 103.879 23.983C104.021 25.1892 104.305 27.6727 104.021 30.298C106.008 28.666 107.64 28.9499 108.846 30.1561C110.052 31.4333 109.981 33.3491 108.775 34.5553C107.569 35.7616 105.44 36.2583 103.595 35.8325C103.098 38.9546 102.389 45.1987 100.26 47.9659C97.9896 50.8751 93.8742 52.7909 89.6878 52.8619C85.5014 52.9328 81.2441 51.1589 78.6188 48.3207C75.7096 45.0568 75.071 40.7994 75.2838 36.755C75.7096 32.7105 76.7029 28.737 76.7029 24.6925Z" fill="white"/>
<path d="M89.5459 53.1457C85.2886 53.1457 81.1022 51.3718 78.4769 48.4626C75.9225 45.6244 74.7872 41.6509 75.071 36.613C75.2129 34.8392 75.4258 33.0653 75.7096 31.3623C76.0644 29.1627 76.3482 26.8921 76.3482 24.6216C76.3482 24.5506 76.3482 24.4087 76.3482 24.3377C76.3482 24.1958 76.4192 24.0539 76.632 23.983C76.703 23.983 76.8449 23.912 76.9159 23.912C78.0511 23.4863 78.9736 22.6348 79.9669 21.6414C80.3217 21.2866 80.6765 20.9319 81.1022 20.648C81.1732 20.5771 81.3151 20.5771 81.3861 20.5771C81.528 20.5771 81.5989 20.648 81.5989 20.79C82.2375 22.4219 82.8052 23.0605 84.3662 22.8477C85.9982 22.7058 88.6235 20.2933 88.9783 18.6613C88.9783 18.5194 89.1202 18.3775 89.3331 18.3775C89.475 18.3775 89.6169 18.4484 89.6879 18.5903C90.2555 20.2223 92.3132 20.79 93.9452 20.2933C96.4286 19.5128 97.0672 18.3065 98.0606 16.6745C98.1316 16.5326 98.2735 16.4617 98.4154 16.5326C98.5573 16.5326 98.6992 16.6745 98.6992 16.7455C99.1249 18.0936 99.9764 20.0804 101.963 21.4995C102.602 21.9252 103.311 22.28 104.092 22.4929C104.234 22.5638 104.305 22.6348 104.376 22.7767C104.376 23.1315 104.447 23.4863 104.447 23.7701V23.841C104.589 24.9054 104.801 27.105 104.659 29.3756C106.362 28.2403 107.994 28.3822 109.343 29.7304C110.691 31.0785 110.62 33.2781 109.272 34.6263C108.136 35.8325 106.079 36.4002 104.163 36.1164C104.163 36.3292 104.092 36.5421 104.092 36.8259C103.595 40.3027 102.815 45.5534 100.828 48.0369C98.4863 51.088 94.3 53.0038 89.9717 53.0747C89.6879 53.1457 89.6169 53.1457 89.5459 53.1457ZM77.0578 24.6925C77.0578 27.034 76.703 29.3046 76.3482 31.5752C76.0644 33.2781 75.8515 35.052 75.7096 36.755C75.4258 41.5799 76.4901 45.3406 78.9736 48.0369C81.457 50.8041 85.6434 52.5071 89.7588 52.4361C93.8742 52.3652 97.8477 50.5203 100.118 47.6821C102.034 45.2696 102.815 39.948 103.24 36.755C103.311 36.4002 103.382 36.0454 103.382 35.6906C103.382 35.6197 103.453 35.4778 103.524 35.4778C103.595 35.4068 103.737 35.4068 103.808 35.4068C105.653 35.7616 107.569 35.3358 108.633 34.2006C109.768 33.0653 109.768 31.3623 108.704 30.298C107.427 29.0208 106.008 29.0918 104.305 30.4399C104.163 30.5109 104.021 30.5818 103.879 30.5109C103.737 30.4399 103.666 30.298 103.666 30.1561C103.95 27.6726 103.666 25.1892 103.524 23.983V23.912C103.524 23.6991 103.453 23.4153 103.453 23.1315C102.673 22.9186 101.963 22.5638 101.325 22.0672C99.4797 20.79 98.6283 19.0161 98.0606 17.6679C97.2091 19.087 96.2867 20.1514 93.9452 20.9319C92.1003 21.5705 90.1845 20.9319 89.1912 19.5837C88.3397 21.3576 85.9272 23.3444 84.2952 23.5572C82.5213 23.7701 81.7408 22.9896 81.0313 21.4995C80.7475 21.7124 80.5346 21.9252 80.3217 22.2091C79.2574 23.2024 78.264 24.1249 76.9868 24.6216C77.1287 24.6925 77.1287 24.6925 77.0578 24.6925Z" fill="#07133B"/>
<path d="M80.4636 30.5109C80.3926 30.0142 80.8184 29.5884 81.315 29.5175C81.8117 29.4465 82.3084 29.8013 82.3794 30.298C82.4503 30.7947 82.0246 31.2204 81.5279 31.2914C80.9603 31.3623 80.5345 31.0076 80.4636 30.5109Z" fill="#07133B"/>
<path d="M93.8032 31.2914C93.7322 30.7947 94.158 30.369 94.6546 30.298C95.1513 30.2271 95.648 30.5818 95.719 31.0785C95.7899 31.5752 95.3642 32.0009 94.8675 32.0719C94.2999 32.1429 93.8032 31.7881 93.8032 31.2914Z" fill="#07133B"/>
<path d="M89.8297 46.9016C89.4039 46.9016 88.9782 46.8306 88.6234 46.7597C88.4106 46.6887 88.3396 46.5468 88.3396 46.334C88.4106 46.1211 88.5525 46.0501 88.7653 46.0501C90.3264 46.4759 92.1002 45.9082 93.0936 44.702C93.2355 44.5601 93.4484 44.5601 93.5903 44.631C93.7322 44.7729 93.7322 44.9858 93.6613 45.1277C92.6679 46.263 91.2488 46.9016 89.8297 46.9016Z" fill="#07133B"/>
<path d="M87.5591 41.8638C86.9205 41.8638 86.2819 41.7218 85.5724 41.509C85.2176 41.3671 84.7919 41.1542 84.4371 40.7994C84.0113 40.3737 83.8694 39.6641 84.0823 38.9546C84.1533 38.4579 84.4371 38.0322 84.6499 37.5355L84.7209 37.3226C85.8562 34.9811 86.4948 32.3557 86.4238 29.7304C86.4238 29.5175 86.5657 29.3756 86.7786 29.3756C86.9915 29.3756 87.1334 29.5175 87.1334 29.7304C87.1334 32.4267 86.4948 35.1939 85.3595 37.6064L85.2885 37.8193C85.0757 38.245 84.8628 38.5998 84.7918 39.0255C84.7209 39.5222 84.7919 39.948 85.0047 40.2318C85.2176 40.4446 85.5014 40.5866 85.7852 40.7285C86.6367 41.0123 87.4172 41.1542 88.1268 41.0123C88.9073 40.8704 89.6168 40.4446 90.0426 39.877C90.1845 39.7351 90.3973 39.6641 90.5392 39.806C90.6812 39.948 90.7521 40.1608 90.6102 40.3027C90.1135 41.0832 89.2621 41.5799 88.1977 41.7218C87.9849 41.8638 87.772 41.8638 87.5591 41.8638Z" fill="#07133B"/>
<path d="M103.95 32.6395C103.737 32.6395 103.595 32.4267 103.595 32.2138C103.737 31.1495 103.808 30.5109 103.879 29.4465C103.879 29.2337 104.092 29.0918 104.234 29.1627C104.447 29.1627 104.588 29.3756 104.518 29.5175C104.447 30.5818 104.376 31.1495 104.234 32.2848C104.305 32.4976 104.092 32.6395 103.95 32.6395Z" fill="#07133B"/>
<path d="M73.297 21.9962C72.3037 21.0738 72.0198 19.5837 72.3746 18.3775C72.3746 18.3065 72.4456 18.3065 72.5165 18.3065C72.5875 18.3065 72.5875 18.3775 72.5875 18.4484C72.2327 19.5837 72.5165 20.9319 73.368 21.7833C73.4389 21.8543 73.4389 21.9253 73.368 21.9253C73.368 21.9962 73.368 21.9962 73.297 21.9962Z" fill="#07133B"/>
<path d="M108.491 20.79C108.491 20.79 108.42 20.79 108.42 20.719C108.349 20.6481 108.349 20.5771 108.42 20.5771C109.91 19.229 110.549 16.9584 109.839 15.0426C109.839 14.9716 109.839 14.9007 109.91 14.9007C109.981 14.9007 110.052 14.9007 110.052 14.9716C110.762 16.9584 110.123 19.3709 108.562 20.719C108.562 20.79 108.562 20.79 108.491 20.79Z" fill="#07133B"/>
<path d="M22.6348 86.5658C18.6613 77.4125 13.9782 60.5251 9.29516 51.5847C6.24407 49.5979 2.76725 46.1921 0.922405 42.7862C0.21285 41.438 0.0709385 40.7994 0.851449 39.5932C1.41909 38.7417 2.69629 38.6708 3.61872 39.0256C3.05107 38.1741 1.98674 37.5355 2.90916 36.3292C3.33489 35.7616 4.04445 35.4068 4.68305 35.6906C3.97349 33.9168 5.81834 32.3557 7.37936 33.9168C6.0312 31.7881 4.754 29.8723 3.33489 27.9565C2.48343 26.7502 1.561 25.2602 2.34152 24.5506C3.26394 23.6282 4.61209 24.9054 6.31503 26.8922C9.15325 30.298 10.0757 31.3624 13.0558 34.3425C15.8231 37.1098 18.8032 42.7152 17.6679 45.1987C18.5903 49.0303 32.6395 71.3813 37.3226 75.9934C39.0255 77.6963 37.6064 79.3283 37.2516 81.6698C36.755 84.508 34.6972 94.5128 27.4598 91.2488C25.4021 90.3264 22.9186 87.1334 22.6348 86.5658Z" fill="white"/>
<path d="M30.1561 92.2422C29.2337 92.2422 28.3112 92.0293 27.3179 91.6036C25.1892 90.6102 22.6348 87.4172 22.351 86.7786C20.719 82.947 18.9451 77.8382 17.1003 72.4456C14.4749 64.8534 11.7786 57.0483 9.01134 51.8685C6.24407 50.0946 2.55439 46.6178 0.638586 42.9991C-0.141925 41.509 -0.283837 40.7994 0.56763 39.4513C0.993363 38.7417 1.91579 38.4579 2.76725 38.5289C2.27056 37.9612 1.84483 37.1807 2.6963 36.1873C3.12203 35.6197 3.68967 35.3359 4.25732 35.3359C4.11541 34.4844 4.47018 33.7039 5.10878 33.2781C5.46356 33.0653 5.8893 32.9234 6.38598 32.9943C5.39261 31.4333 4.25732 29.8723 3.12203 28.2403C2.12865 26.8212 1.20623 25.3311 2.12865 24.4087C2.41247 24.1249 2.76725 23.983 3.12203 23.983C3.9735 24.0539 4.96687 24.8344 6.59885 26.7502L6.66981 26.8212C9.43707 30.1561 10.3595 31.2204 13.2687 34.2006C15.965 36.8969 19.087 42.5733 17.9517 45.3406C19.087 49.2431 32.7814 71.1684 37.4645 75.8515C38.8127 77.1996 38.3869 78.5478 37.9612 80.0378C37.8193 80.6055 37.6064 81.1731 37.4645 81.8117C36.9678 84.7919 35.6197 89.9716 32.3557 91.7455C31.7171 92.0293 30.9366 92.2422 30.1561 92.2422ZM2.55438 39.2384C1.98674 39.2384 1.4191 39.4513 1.13527 39.877C0.425719 40.9413 0.56763 41.438 1.20623 42.7152C3.05107 46.263 6.66981 49.5979 9.36612 51.3718C9.43707 51.3718 9.43707 51.4428 9.50803 51.5137C12.2753 56.7644 15.0426 64.6405 17.6679 72.3037C19.5128 77.6963 21.2866 82.7342 22.9186 86.5658C23.1315 87.0624 25.6149 90.1845 27.5307 91.036C29.2337 91.8165 30.7947 91.8165 32.0719 91.1779C35.052 89.5459 36.3292 84.579 36.8259 81.7408C36.9678 81.0312 37.1097 80.3926 37.3226 79.8959C37.7483 78.4768 38.1031 77.4834 37.0388 76.4191C32.4976 71.878 18.3065 49.5979 17.3131 45.4115C17.3131 45.3406 17.3131 45.2696 17.3131 45.1987C18.3775 42.9281 15.6812 37.6064 12.772 34.6973C9.79185 31.7171 8.86943 30.6528 6.10216 27.3179L6.03121 27.2469C5.17974 26.1826 3.90254 24.7635 3.05107 24.7635C2.83821 24.7635 2.6963 24.8344 2.55438 24.9763C1.98674 25.544 3.19298 27.3179 3.61872 27.8855C5.10878 29.9432 6.38598 32.0009 7.66318 33.8458C7.73414 33.9877 7.73414 34.2006 7.59223 34.3425C7.45032 34.4844 7.23745 34.4134 7.09554 34.3425C6.5279 33.7748 5.8893 33.6329 5.39261 33.9877C4.96687 34.2715 4.6121 34.9811 4.96687 35.7616C5.03783 35.9035 4.96687 36.0454 4.89592 36.1164C4.82496 36.1873 4.68305 36.2583 4.54114 36.1873C4.04445 35.9745 3.47681 36.3292 3.19299 36.755C2.62534 37.4645 2.90916 37.8193 3.47681 38.4579C3.61872 38.5998 3.76063 38.8127 3.90254 39.0255C3.9735 39.1675 3.9735 39.3094 3.90254 39.4513C3.83158 39.5932 3.61872 39.5932 3.47681 39.5932C3.26394 39.2384 2.90916 39.2384 2.55438 39.2384Z" fill="#07133B"/>
<path d="M6.10213 44.3472C5.88927 44.3472 5.6764 44.2762 5.46353 44.2053C5.0378 44.0634 4.68302 43.7086 4.3992 43.4957L2.98009 42.2895C2.83818 42.1476 2.83818 41.9347 2.98009 41.7928C3.122 41.6509 3.33487 41.6509 3.47678 41.7928L4.89589 42.999C5.17971 43.2119 5.46353 43.4957 5.74736 43.5667C6.03118 43.7086 6.315 43.6376 6.52787 43.4957C6.74073 43.2829 6.74073 42.999 6.66978 42.7152C6.59882 42.3604 6.315 42.0766 6.10213 41.7928C5.25067 40.7285 5.0378 40.5866 4.3992 40.0189C4.18633 39.806 3.83156 39.5932 3.47678 39.2384C3.33487 39.0965 3.33487 38.8836 3.40582 38.7417C3.54774 38.5998 3.7606 38.5998 3.90251 38.6708C4.32825 39.0255 4.61207 39.2384 4.82493 39.4513C5.46353 39.948 5.74736 40.1608 6.66978 41.2961C6.9536 41.6509 7.23742 42.0057 7.37933 42.5024C7.52125 43.07 7.37933 43.6376 6.9536 43.9924C6.74073 44.2762 6.38596 44.3472 6.10213 44.3472Z" fill="#07133B"/>
<path d="M8.65655 43.141C8.37272 43.141 8.01795 43.07 7.73412 42.9281C7.37935 42.7862 7.02457 42.6443 6.66979 42.5024C6.52788 42.4314 6.38597 42.2185 6.52788 42.0057C6.59884 41.8638 6.8117 41.7219 7.02457 41.8638C7.37935 42.0057 7.66317 42.1476 8.01795 42.2895C8.30177 42.4314 8.65655 42.5024 8.86941 42.4314C9.15324 42.2895 9.22419 41.7928 9.15323 41.438C9.01132 40.7994 8.15986 39.3803 4.61208 36.0454L4.54113 35.9745C4.39921 35.8325 4.39921 35.6197 4.54113 35.4778C4.68304 35.3359 4.8959 35.3359 5.03781 35.4778L5.10877 35.5487C8.0889 38.3869 9.57897 40.2318 9.79184 41.2961C9.93375 41.9347 9.79183 42.7862 9.15323 43.07C9.01132 43.141 8.79846 43.141 8.65655 43.141Z" fill="#07133B"/>
<path d="M11.14 45.5534C10.9981 45.5534 10.8562 45.4825 10.8562 45.3406C10.0047 43.7796 10.7143 42.1476 11.2109 40.9413C11.4238 40.5156 11.7076 39.8061 11.5657 39.7351C11.2109 39.3094 9.50801 39.1675 8.7275 39.0965C8.30177 39.0255 8.0889 39.0255 7.94699 39.0255C7.02457 38.7417 6.66979 38.245 6.52788 37.8903C6.38597 37.6064 6.38597 37.2517 6.52788 36.9678C6.66979 36.6131 7.23744 35.9035 7.73413 35.7616C8.58559 35.4778 10.5723 35.5487 12.3462 35.6197C12.5591 35.6197 12.772 35.6197 12.9139 35.6197C13.6234 35.6197 15.6102 36.4002 15.8231 37.1807C15.894 37.3936 15.7521 37.5355 15.6102 37.6064C15.3973 37.6774 15.2554 37.5355 15.1845 37.3936C15.1135 37.0388 13.5525 36.4002 12.9139 36.3292C12.772 36.3292 12.5591 36.3292 12.3462 36.3292C11.069 36.2583 8.7275 36.1873 7.94699 36.4002C7.73413 36.4711 7.30839 36.9678 7.16648 37.2517C7.16648 37.2517 7.16648 37.3936 7.23744 37.6064C7.30839 37.8193 7.52126 38.1031 8.23081 38.316C8.30177 38.316 8.58559 38.3869 8.86941 38.3869C10.2176 38.5289 11.6367 38.6708 12.1334 39.2384C12.5591 39.6641 12.2753 40.3737 11.9205 41.2252C11.4238 42.3605 10.8562 43.7086 11.4948 45.0568C11.5657 45.1987 11.4948 45.4115 11.3529 45.5534C11.2819 45.5534 11.2109 45.5534 11.14 45.5534Z" fill="#07133B"/>
<path d="M9.29517 36.2583C9.15326 36.2583 9.0823 36.1873 9.01135 36.1164C8.79848 35.7616 8.23083 35.194 7.8051 34.6263C7.59223 34.3425 7.30841 34.1296 7.1665 33.9168C6.95364 33.7748 6.95364 33.562 7.09555 33.4201C7.23746 33.2782 7.45032 33.2782 7.59223 33.491C7.73415 33.7039 7.94701 33.9168 8.23084 34.2006C8.72752 34.7682 9.36612 35.4068 9.57899 35.7616C9.64995 35.9035 9.64995 36.1164 9.43708 36.2583C9.36612 36.2583 9.29517 36.2583 9.29517 36.2583Z" fill="#07133B"/>
<path d="M9.93373 42.0057C9.86278 42.0057 9.79182 42.0057 9.64991 42.0057C9.43704 41.9347 9.36609 41.7928 9.36609 41.5799C9.43704 41.3671 9.57896 41.2961 9.79182 41.2961C9.93373 41.3671 10.2176 41.2252 10.4304 41.0123C10.7142 40.6575 10.6433 40.0189 10.2176 39.4513C10.1466 39.3094 10.1466 39.0965 10.3595 38.9546C10.5014 38.8836 10.7142 38.8836 10.8562 39.0965C11.6367 40.3737 11.2109 41.1542 10.9981 41.509C10.7142 41.7928 10.2885 42.0057 9.93373 42.0057Z" fill="#07133B"/>
<path d="M142.266 101.183C139.782 87.9849 139.711 73.8647 129.139 64.9953C124.03 60.7379 111.968 58.8931 104.872 58.4673C104.447 65.35 97.7058 66.982 93.4484 66.6982C86.2819 66.2725 85.0047 64.8533 83.1599 59.3898C81.5279 60.0284 71.8779 60.5251 65.5629 66.1305C53.9262 76.561 38.5998 74.929 37.7483 75.7805C36.613 76.9158 39.4513 87.0624 29.1627 91.8164C24.8344 93.8032 50.8041 97.9186 68.614 93.2356C67.9754 102.602 73.439 128.5 75.3548 139.002C94.0161 151.987 130.203 138.718 130.203 138.718C130.203 138.718 127.294 130.061 127.294 123.605C127.294 120.412 138.576 127.081 140.066 127.294C140.563 127.365 141.698 126.939 141.911 126.514C143.188 123.463 144.536 113.316 142.266 101.183Z" fill="#07133B"/>
<path d="M97.5639 144.962C89.6878 144.962 81.386 143.614 75.1419 139.215C75.071 139.144 75 139.073 75 139.002C74.7162 137.299 74.2904 135.312 73.8647 132.9C71.4522 120.482 67.8335 101.821 68.2592 93.5903C58.8221 96.0028 48.3207 95.79 42.8571 95.4352C36.0454 95.0095 28.8789 93.8742 28.3822 92.3841C28.3113 92.1712 28.2403 91.6746 29.0208 91.3907C36.5421 87.9139 36.8969 81.457 37.0388 77.9801C37.1097 76.632 37.1097 75.8515 37.5355 75.4257C37.8193 75.1419 38.3869 75.1419 40.2318 75C45.0568 74.6452 56.3387 73.8647 65.35 65.7758C70.3169 61.3056 77.2706 60.0993 81.0312 59.3898C81.9536 59.2479 82.7342 59.106 83.0889 58.964C83.1599 58.964 83.3018 58.964 83.3728 58.964C83.4437 59.035 83.5147 59.106 83.5856 59.1769C85.3595 64.4986 86.4948 65.7758 93.5194 66.2725C94.7256 66.3434 97.7767 66.3434 100.473 64.8534C103.027 63.5052 104.376 61.3056 104.588 58.3254C104.588 58.2545 104.659 58.1126 104.73 58.1126C104.801 58.0416 104.872 58.0416 105.014 58.0416C113.245 58.5383 124.669 60.596 129.494 64.6405C138.221 71.9489 139.924 82.947 141.556 93.5903C141.911 96.0738 142.337 98.6282 142.763 101.041C144.962 112.677 143.898 123.108 142.408 126.443C142.124 127.081 140.776 127.578 140.208 127.436C139.782 127.365 138.789 126.868 137.086 126.088C134.319 124.74 129.139 122.256 128.004 122.966C127.933 123.037 127.791 123.108 127.791 123.392C127.791 129.778 130.7 138.363 130.7 138.434C130.771 138.647 130.7 138.789 130.487 138.86C130.416 138.86 121.263 142.195 109.981 143.898C106.149 144.536 101.963 144.962 97.5639 144.962ZM75.7096 138.718C85.2176 145.246 99.4797 144.82 109.768 143.259C119.773 141.769 128.146 138.931 129.849 138.363C129.281 136.731 127.01 129.21 127.01 123.463C127.01 122.895 127.294 122.611 127.507 122.469C128.855 121.618 132.758 123.321 137.299 125.52C138.576 126.159 139.853 126.727 140.208 126.798C140.563 126.868 141.556 126.514 141.627 126.23C142.692 123.675 144.324 113.813 141.911 101.254C141.414 98.7701 141.06 96.2157 140.705 93.7323C139.002 82.7342 137.441 72.3746 128.926 65.2081C124.243 61.3056 113.316 59.3188 105.227 58.7512C104.943 61.7313 103.382 64.0728 100.828 65.492C97.9186 67.053 94.7256 67.053 93.4484 66.982C86.3529 66.5563 84.7919 65.0662 82.947 59.7446C82.5213 59.8865 81.8827 59.9574 81.1731 60.0993C77.4834 60.7379 70.6717 62.0151 65.8467 66.2725C56.6935 74.5033 45.1987 75.2838 40.3027 75.6386C39.2384 75.7096 38.245 75.7805 38.0322 75.9224C37.8193 76.1353 37.8193 77.0577 37.7483 77.9801C37.6064 81.5989 37.2517 88.3396 29.3046 92.0293C29.1627 92.1003 29.0918 92.1712 29.0208 92.1712C29.3756 92.8098 34.1296 94.158 42.8571 94.7256C48.3917 95.0804 59.106 95.2223 68.543 92.7389C68.685 92.7389 68.7559 92.7389 68.8269 92.8098C68.8978 92.8808 68.9688 93.0227 68.9688 93.0937C68.4011 100.899 72.2327 120.766 74.5743 132.687C75 135.099 75.4257 137.086 75.7096 138.718Z" fill="#07133B"/>
<path d="M123.037 113.103C122.895 113.103 122.753 113.032 122.682 112.89C118.851 101.395 116.722 94.087 116.722 78.264C116.722 78.0511 116.864 77.9092 117.077 77.9092C117.29 77.9092 117.431 78.0511 117.431 78.264C117.431 93.9451 119.56 101.183 123.321 112.677C123.392 112.89 123.25 113.032 123.108 113.103H123.037Z" fill="#07133B"/>
<path d="M68.6141 93.5194C68.5431 93.5194 68.4722 93.5194 68.4012 93.4484C68.1883 93.2356 68.1883 93.0937 68.1883 90.7521C68.1883 89.0492 68.1174 86.14 67.9755 81.7408C67.9755 81.5279 68.1174 81.386 68.3302 81.386C68.5431 81.386 68.685 81.5279 68.685 81.7408C68.8269 86.14 68.8979 89.0492 68.8979 90.7521C68.8979 91.9584 68.8979 92.8098 68.9688 93.0227C69.0398 93.1646 69.0398 93.3065 68.8979 93.4484C68.8269 93.5194 68.756 93.5194 68.6141 93.5194Z" fill="#07133B"/>
<path d="M88.6944 87.0624C81.5279 87.0624 75.071 86.4238 71.5941 84.6499C71.5232 84.6499 71.5232 84.579 71.5232 84.508C71.5232 84.4371 71.5941 84.4371 71.6651 84.4371C78.7607 88.0558 99.0539 86.8496 110.974 85.2176C111.045 85.2176 111.116 85.2885 111.116 85.2885C111.116 85.3595 111.045 85.4305 111.045 85.4305C104.872 86.3529 96.4286 87.0624 88.6944 87.0624Z" fill="white"/>
<path d="M96.3576 97.1381C86.8496 97.1381 78.193 95.6481 71.6651 94.0161C71.5941 94.0161 71.5941 93.9451 71.5941 93.8742C71.5941 93.8032 71.6651 93.8032 71.736 93.8032C81.7408 96.2157 96.8543 98.4863 112.181 95.3642C112.252 95.3642 112.323 95.3642 112.323 95.4352C112.323 95.5062 112.323 95.5771 112.252 95.5771C106.788 96.7124 101.466 97.1381 96.3576 97.1381Z" fill="white"/>
<path d="M143.046 116.225C143.046 116.225 142.975 116.225 142.975 116.154C138.363 110.762 130.913 108.065 123.959 109.272C123.888 109.272 123.817 109.272 123.817 109.201C123.817 109.13 123.817 109.059 123.888 109.059C130.913 107.852 138.505 110.62 143.117 116.083C143.188 116.154 143.188 116.225 143.117 116.225C143.117 116.225 143.117 116.225 143.046 116.225Z" fill="white"/>
<path d="M142.266 111.258C141.485 110.974 140.847 110.407 140.279 109.91C140.066 109.697 139.853 109.555 139.641 109.342C138.363 108.278 136.802 107.569 135.099 107.356C135.028 107.356 134.957 107.285 135.028 107.214C135.028 107.143 135.099 107.072 135.17 107.143C136.873 107.427 138.505 108.136 139.782 109.201C139.995 109.342 140.208 109.555 140.421 109.768C140.989 110.265 141.556 110.833 142.266 111.116C142.337 111.116 142.337 111.187 142.337 111.258H142.266Z" fill="white"/>
<path d="M39.3803 85.8562C39.3094 85.8562 39.2384 85.7853 39.2384 85.7143C40.4446 82.8761 41.0123 79.6831 40.9413 76.561C40.9413 76.4901 41.0123 76.4191 41.0832 76.4191C41.1542 76.4191 41.2252 76.4901 41.2252 76.561C41.2961 79.6831 40.7285 82.8761 39.5222 85.7853C39.4513 85.7853 39.4513 85.8562 39.3803 85.8562Z" fill="white"/>
<path d="M43.6376 80.0379C43.5667 80.0379 43.4957 79.9669 43.4957 79.896C43.7795 78.7607 43.8505 77.6963 43.7086 76.561C43.7086 76.4901 43.7796 76.4191 43.7796 76.4191C43.8505 76.4191 43.9215 76.4901 43.9215 76.4901C44.0634 77.6254 43.9924 78.8316 43.7086 79.896C43.7795 80.0379 43.7086 80.0379 43.6376 80.0379Z" fill="white"/>
<path d="M123.959 113.742C123.817 113.742 123.676 113.671 123.605 113.458C121.05 104.021 119.276 94.2289 118.354 84.508C118.354 84.2952 118.496 84.1533 118.638 84.1533C118.851 84.1533 118.992 84.2952 118.992 84.4371C119.915 94.158 121.618 103.808 124.172 113.245C124.243 113.458 124.101 113.6 123.959 113.742Z" fill="white"/>
<path d="M67.9045 95.2933C67.6916 95.2933 67.5497 95.1514 67.5497 94.9385L67.6916 84.1533C67.6916 83.9404 67.8335 83.7985 68.0464 83.7985C68.2592 83.7985 68.4012 83.9404 68.4012 84.1533L68.2592 94.9385C68.2592 95.1514 68.0464 95.2933 67.9045 95.2933Z" fill="white"/>
<path d="M90.4197 75.3792L53.3038 82.6367L62.7672 131.034L99.8831 123.776L90.4197 75.3792Z" fill="white"/>
<path d="M62.7247 131.41C62.5828 131.41 62.4409 131.268 62.37 131.126L52.9329 82.7341C52.9329 82.6632 52.9329 82.5213 53.0038 82.4503C53.0748 82.3794 53.1457 82.3084 53.2167 82.3084L90.3264 75.0709C90.5393 75 90.6812 75.1419 90.7522 75.3548L100.189 123.746C100.189 123.817 100.189 123.959 100.118 124.03C100.047 124.101 99.9764 124.172 99.9054 124.172L62.7247 131.41C62.7957 131.41 62.7957 131.41 62.7247 131.41ZM53.7134 82.8761L63.0086 130.629L99.4797 123.534L90.1845 75.7805L53.7134 82.8761Z" fill="#07133B"/>
<path d="M77.4834 150H76.7739C76.7739 149.787 76.7739 149.503 76.7739 149.29C76.7029 148.368 76.7029 147.375 76.632 146.452C76.561 144.182 76.4191 141.982 76.3481 139.711C76.3481 139.499 76.4901 139.357 76.7029 139.357C76.9158 139.357 77.0577 139.499 77.0577 139.711C77.1287 141.982 77.2706 144.182 77.3415 146.452C77.4125 147.375 77.4125 148.368 77.4834 149.29C77.4834 149.503 77.4834 149.716 77.4834 150Z" fill="#07133B"/>
<path d="M130.487 144.182C130.345 144.182 130.203 144.111 130.132 143.969C130.061 143.685 129.849 143.259 129.707 142.763C129.281 141.556 128.713 140.066 128.642 139.073C128.642 138.86 128.784 138.718 128.997 138.718C129.21 138.718 129.352 138.86 129.352 139.073C129.423 139.924 129.92 141.414 130.345 142.55C130.487 142.975 130.7 143.472 130.771 143.756C130.842 143.969 130.7 144.111 130.487 144.182Z" fill="#07133B"/>
<path d="M136.164 114.451C133.538 113.458 108.775 104.943 105.298 101.041C103.098 98.5573 96.7833 93.5904 94.9384 93.3066C91.8874 92.8808 89.9716 92.1713 87.4172 92.668C85.2885 93.0937 81.4569 94.9385 81.5988 95.6481C81.9536 97.9896 86.8495 94.7966 87.3462 94.7966C89.1201 94.7966 90.894 94.9385 92.8807 96.2867C90.7521 97.0672 87.0624 98.8411 86.3528 99.7635C85.5723 100.757 84.0113 104.872 83.8694 105.582C83.6565 106.788 84.5789 107.569 85.5014 106.079C85.5723 106.008 87.4881 103.311 88.0558 101.892C88.2686 101.325 91.9583 99.6925 93.8741 99.4797C91.8874 99.4797 88.6234 101.041 88.0558 101.963C87.9138 102.176 86.14 106.22 86.069 106.575C85.7852 108.136 87.2043 108.207 87.9138 107.143C88.7653 105.937 89.4749 104.163 89.7587 103.879C91.1068 102.531 92.8807 102.46 94.3708 102.176C92.9517 102.389 91.2488 102.602 89.8296 103.808C89.5458 104.021 87.3462 107.427 88.4105 108.42C88.9782 108.917 90.3263 108.136 91.4616 105.582C92.526 105.369 93.2355 105.44 94.1579 105.369C94.7965 105.298 98.4153 109.201 101.183 109.768C101.75 109.91 111.684 121.263 125.52 128.146C126.727 128.784 137.583 133.042 142.053 126.088C143.046 124.172 144.04 117.431 136.164 114.451Z" fill="white"/>
<path d="M133.751 130.203C130.132 130.203 126.585 128.997 125.236 128.288C114.167 122.753 105.511 114.38 102.247 111.187C101.608 110.549 101.112 110.052 100.899 109.91C99.0539 109.555 96.9962 107.852 95.5061 106.646C94.8675 106.149 94.2289 105.582 94.016 105.511C93.7322 105.511 93.3775 105.582 93.1646 105.582C92.6679 105.582 92.1712 105.653 91.6036 105.724C90.8231 107.427 89.9006 108.562 88.9782 108.704C88.6234 108.775 88.3396 108.704 88.0558 108.491C87.8429 108.278 87.701 107.994 87.6301 107.711C87.1334 108.065 86.6367 108.207 86.14 108.065C85.9271 107.994 85.2885 107.64 85.5723 106.433C85.5723 106.433 85.5723 106.433 85.5723 106.362C84.9337 107.285 84.2951 107.214 84.0823 107.143C83.5856 106.93 83.3018 106.291 83.3727 105.44C83.5146 104.659 85.0756 100.473 85.9271 99.4797C86.7076 98.5572 89.9006 96.9962 91.9583 96.1448C90.3264 95.2223 88.8363 95.1514 87.2753 95.0804C87.1334 95.0804 86.7786 95.2933 86.4238 95.5062C85.0757 96.1448 82.947 97.2091 81.8827 96.6414C81.5988 96.4995 81.315 96.2157 81.2441 95.6481C81.0312 94.4418 85.5723 92.597 87.3462 92.2422C89.333 91.8874 90.965 92.1712 92.9517 92.526C93.5903 92.6679 94.2999 92.7389 95.0094 92.8808C96.9252 93.1646 103.311 98.2025 105.582 100.757C108.491 104.092 127.791 111.045 134.177 113.316C135.241 113.671 135.951 113.955 136.306 114.097C140.421 115.658 141.982 118.212 142.621 120.128C143.472 122.753 142.833 125.166 142.266 126.088C140.279 129.21 136.944 130.203 133.751 130.203ZM94.087 104.872C94.4418 104.872 94.9385 105.227 96.0028 106.149C97.351 107.285 99.4796 108.917 101.112 109.272C101.324 109.342 101.537 109.484 102.744 110.691C106.008 113.813 114.522 122.185 125.52 127.649C125.662 127.72 137.086 132.829 141.627 125.733C142.195 124.882 142.621 122.611 141.911 120.341C141.131 117.857 139.073 115.941 136.022 114.806C135.667 114.664 134.957 114.38 133.893 114.026C122.824 110.052 107.781 104.376 105.014 101.254C102.744 98.6992 96.4995 93.8742 94.8675 93.5904C94.087 93.4484 93.4484 93.3775 92.8098 93.2356C90.894 92.8808 89.333 92.597 87.4881 92.9518C85.2885 93.3775 82.1665 95.0095 81.9536 95.5771C82.0246 95.8609 82.1665 96.0028 82.2374 96.0028C83.0179 96.4286 85.0757 95.4352 86.14 94.8676C86.8495 94.5128 87.1334 94.4418 87.2753 94.3709C89.1201 94.4418 90.965 94.5837 92.9517 95.8609C93.0936 95.9319 93.0936 96.0738 93.0936 96.2157C93.0936 96.3576 93.0227 96.4286 92.8808 96.4995C90.5392 97.351 87.1334 99.0539 86.4948 99.8344C85.7852 100.757 84.2242 104.801 84.0823 105.511C84.0113 106.008 84.1532 106.362 84.2951 106.433C84.4371 106.504 84.7209 106.291 85.0047 105.795C85.0047 105.795 85.0757 105.724 85.0757 105.653C86.14 104.234 86.7076 103.24 87.0624 102.531C87.2753 102.034 87.4881 101.679 87.4881 101.608C88.1267 100.473 91.6036 98.983 93.5903 98.983C93.8032 98.983 93.9451 99.1249 93.9451 99.3378C93.9451 99.5506 93.8032 99.6925 93.6613 99.6925C91.7455 99.9054 88.4106 101.466 88.1267 101.892C88.0558 102.105 87.9139 102.389 87.701 102.815C87.1334 104.092 86.2109 106.149 86.14 106.433C86.069 106.859 86.14 107.143 86.3528 107.214C86.6367 107.356 87.0624 107.143 87.4172 106.646C87.5591 106.504 87.63 106.291 87.772 106.079C88.1977 104.801 89.1201 103.382 89.333 103.169C89.5459 102.956 89.8297 102.815 90.0425 102.673C90.4683 102.389 90.894 102.176 91.3197 102.034C92.3131 101.679 93.2355 101.537 94.016 101.466C94.2289 101.466 94.3708 101.537 94.4418 101.75C94.4418 101.963 94.3708 102.105 94.158 102.176C93.9451 102.247 93.6613 102.247 93.3775 102.318C92.6679 102.46 91.9583 102.531 91.2488 102.815C90.965 102.886 90.7521 103.027 90.5392 103.169C90.2554 103.311 89.9716 103.524 89.7587 103.808C89.6878 103.879 89.4749 104.305 89.262 104.659C88.9782 105.156 88.6944 105.795 88.3396 106.362C88.2687 106.717 88.1977 107.001 88.1977 107.285C88.1977 107.498 88.2686 107.711 88.4106 107.781C88.4106 107.781 88.4815 107.852 88.6944 107.852C89.1911 107.711 90.0425 106.93 90.894 105.085C90.965 104.943 91.0359 104.872 91.1778 104.872C91.8874 104.73 92.455 104.73 93.0227 104.659C93.4484 104.872 93.7322 104.872 94.087 104.872C94.0161 104.872 94.0161 104.872 94.087 104.872Z" fill="#07133B"/>
<path d="M73.0132 104.376C72.7294 102.744 74.1485 101.254 76.1353 100.899C78.122 100.615 79.9669 101.608 80.1797 103.24C80.4635 104.872 79.0444 106.362 77.0577 106.717C75.0709 107.072 73.2261 106.008 73.0132 104.376Z" fill="#07133B"/>
<path d="M76.3482 107.143C74.5033 107.143 72.8713 106.008 72.6585 104.447C72.3747 102.673 73.9357 100.899 76.0643 100.544C77.1287 100.402 78.1221 100.544 78.9735 101.041C79.825 101.537 80.3926 102.318 80.5345 103.169C80.8184 104.943 79.2573 106.717 77.1287 107.072C76.8449 107.143 76.632 107.143 76.3482 107.143ZM76.8449 101.254C76.632 101.254 76.4191 101.254 76.2063 101.324C74.4324 101.608 73.1552 102.956 73.368 104.376C73.5809 105.795 75.2129 106.717 76.9868 106.433C78.7607 106.149 80.0379 104.801 79.825 103.382C79.754 102.744 79.2573 102.105 78.6187 101.75C78.1221 101.395 77.4835 101.254 76.8449 101.254Z" fill="#07133B"/>
<path d="M169.229 149.645C169.229 149.858 169.158 150 169.087 150C138.718 149.929 108.065 149.929 77.4835 149.929H76.7739C62.0152 149.929 47.3274 149.929 32.7105 150C32.6396 150 32.5686 149.858 32.5686 149.645C32.5686 149.432 32.6396 149.29 32.7105 149.29C47.3274 149.29 62.0152 149.29 76.7739 149.219H77.4835C108.065 149.219 138.718 149.219 169.087 149.29C169.158 149.29 169.229 149.432 169.229 149.645Z" fill="#07133B"/>
</g>
<defs>
<clipPath id="clip0_238_1992">
<rect width="169.229" height="150" fill="white"/>
</clipPath>
</defs>
</svg>
