<?xml version="1.0" encoding="utf-8"?>
<!-- Generator: Adobe Illustrator 27.4.0, SVG Export Plug-In . SVG Version: 6.00 Build 0)  -->
<!DOCTYPE svg PUBLIC "-//W3C//DTD SVG 1.1//EN" "http://www.w3.org/Graphics/SVG/1.1/DTD/svg11.dtd" [
	<!ENTITY ns_extend "http://ns.adobe.com/Extensibility/1.0/">
	<!ENTITY ns_ai "http://ns.adobe.com/AdobeIllustrator/10.0/">
	<!ENTITY ns_graphs "http://ns.adobe.com/Graphs/1.0/">
	<!ENTITY ns_vars "http://ns.adobe.com/Variables/1.0/">
	<!ENTITY ns_imrep "http://ns.adobe.com/ImageReplacement/1.0/">
	<!ENTITY ns_sfw "http://ns.adobe.com/SaveForWeb/1.0/">
	<!ENTITY ns_custom "http://ns.adobe.com/GenericCustomNamespace/1.0/">
	<!ENTITY ns_adobe_xpath "http://ns.adobe.com/XPath/1.0/">
]>
<svg version="1.1" id="Layer_1" xmlns:x="&ns_extend;" xmlns:i="&ns_ai;" xmlns:graph="&ns_graphs;"
	 xmlns="http://www.w3.org/2000/svg" xmlns:xlink="http://www.w3.org/1999/xlink" x="0px" y="0px" viewBox="0 0 250.7 363.3"
	 style="enable-background:new 0 0 250.7 363.3;" xml:space="preserve">
<style type="text/css">
	.st0{fill:#282121;}
	.st1{fill:#E1F465;}
	.st2{fill:#D6E260;}
	.st3{fill:#FFBB98;}
	.st4{fill:#FFAA80;}
	.st5{fill:#FFCAA6;}
	.st6{fill:#191515;}
	.st7{fill:#040403;}
</style>
<metadata>
	<sfw  xmlns="&ns_sfw;">
		<slices></slices>
		<sliceSourceBounds  bottomLeftOrigin="true" height="363.3" width="250.7" x="2.8" y="8.7"></sliceSourceBounds>
	</sfw>
</metadata>
<g>
	<g>
		<path class="st0" d="M92.7,193.9h-0.2c-46.9,17.5-71.9-8.9-82.1-24.8c-3.8-5.9-2.9-13.5,1.9-18.6l43.4-45.3v26.2
			C55.7,158.1,70.7,181.8,92.7,193.9L92.7,193.9z"/>
		<path class="st0" d="M240.4,169.1c-10.3,15.9-35.2,42.2-82,24.9c21.8-11.8,36.7-34.9,36.7-61.3v-27.5h0l43.4,45.3
			C243.3,155.6,244.1,163.3,240.4,169.1z"/>
		<path class="st1" d="M224.1,275.3v65.6c0,7.9-6.4,14.4-14.4,14.4H41.2c-7.9,0-14.4-6.4-14.4-14.4v-65.6
			c0-22.6,18.3-40.9,40.9-40.9h115.5C205.7,234.4,224.1,252.7,224.1,275.3L224.1,275.3z"/>
		<path class="st2" d="M96.5,234.4c-22.6,0-40.8,18.3-40.8,40.8v80H41.2c-7.9,0-14.4-6.4-14.4-14.4v-65.6
			c0-22.6,18.3-40.9,40.9-40.9H96.5z"/>
		<path class="st2" d="M224.1,275.3v65.6c0,7.9-6.4,14.4-14.4,14.4H196v-80c0-22.6-18.3-40.8-40.9-40.8h28.1
			C205.7,234.4,224.1,252.7,224.1,275.3L224.1,275.3z"/>
		<path class="st3" d="M195,77.8v54.9c0,33.7-24.2,62-56.1,68.3h0c-0.7,0.1-1.4,0.3-2.1,0.4c-3.4,0.6-6.9,0.9-10.5,1
			c-4.9,0.1-9.7-0.4-14.3-1.3c0,0,0,0,0,0c-32.1-6.5-56.3-35.6-56.3-69.6V77.8c0-19.3,7.8-36.7,20.4-49.3s30-20.4,49.3-20.4
			C163.8,8.1,195,39.3,195,77.8L195,77.8z"/>
		<path class="st4" d="M195,83.2v49.5c0,33.7-24.2,62-56.1,68.3h0c-0.7,0.1-1.4,0.3-2.1,0.4c-3.4,0.6-6.9,0.9-10.5,1
			c-4.9,0.1-9.7-0.4-14.3-1.3c4.7-0.9,9.2-2.4,13.5-4.2c24.9-10.6,42.5-35.4,42.5-64.1V93.2C176.8,91.1,186,87.9,195,83.2L195,83.2z
			"/>
		<path class="st5" d="M136.9,201c0,0.1-0.1,0.2-0.1,0.4c-3.4,0.6-6.9,0.9-10.5,1c-4.9,0.1-9.7-0.4-14.3-1.3c0,0,0,0,0,0
			c-32.1-6.5-56.3-35.6-56.3-69.6V98.7c7.8-1.7,12-1.5,25-5.7v38.4c0,29,17.7,54.5,42.9,65.4C127.8,198.6,132.3,200.1,136.9,201z"/>
		<path class="st0" d="M195.1,77.8v5.4l0,0c-9,4.7-18.3,7.9-27,10c-25.2,6.3-46.3,4-46.3,4l10.8-28.8c-1,0.6-24.2,15.4-49.7,23.9
			c-9,3-18.3,5.3-27,5.8V77.7c0-34,24.3-62.1,56.2-68.4c4.4-0.9,8.9-1.3,13.5-1.3c4.5,0,9.1,0.5,13.4,1.3
			c13.9,2.7,26.2,9.5,35.8,19.1C187.2,41,195.1,58.5,195.1,77.8L195.1,77.8z"/>
		<path class="st6" d="M195.1,77.8v5.4l0,0c-9,4.7-18.3,7.9-27,10V77.8c0-28.9-17.6-53.7-42.7-64.3c-4.3-1.8-8.8-3.2-13.4-4.1
			c4.4-0.9,8.9-1.3,13.5-1.3c4.5,0,9.1,0.5,13.4,1.3c13.9,2.7,26.2,9.5,35.8,19.1C187.2,41,195.1,58.5,195.1,77.8L195.1,77.8z"/>
		<path class="st6" d="M138.8,9.4c-4.7,0.9-9.2,2.3-13.4,4.1c-8.4,3.5-15.9,8.6-22.2,15C90.5,41.1,82.7,58.5,82.7,77.8v14.6
			c-9,3-18.3,5.3-27,5.8V77.7c0-34,24.3-62.1,56.2-68.4c4.4-0.9,8.9-1.3,13.5-1.3C129.9,8.1,134.5,8.5,138.8,9.4L138.8,9.4z"/>
		<path class="st3" d="M165.7,240.8c-6.2,18.1-19,46.1-40.4,57.4c-21.7-11.5-34.5-40.2-40.6-58.2c-0.2-0.7,0.1-1.4,0.7-1.5
			c6.5-1.6,13.2-2.9,20.1-3.7v-35.3c6.6,2,13.5,3.1,20.7,3c6.5-0.1,12.8-1.1,18.8-2.9v35.2c6.6,0.8,13.1,2,19.4,3.5
			c0.2,0,0.4,0.1,0.5,0.3c0.2,0.2,0.4,0.4,0.6,0.7C165.9,239.7,165.9,240.3,165.7,240.8L165.7,240.8z"/>
	</g>
</g>
<path class="st7" d="M203,102v-1.4l0-16c0,0,0-0.8,0-6.8c0-20-7.6-39.8-22.8-54.9v0c-0.8-0.8-1.9-1.9-2.3-2.2
	c-5.4-4.5-10.8-9-16-11.4c-21.7-12.3-51.5-12.9-76.8,2.1C44.8,36,47.7,72.2,47.7,102L6.5,145c-7.5,7.8-8.6,19.5-2.9,28.5
	c7.6,11.7,26.4,34.2,59.6,34.2c8.6,0,18.1-1.5,28.7-5.1c1.9,0.9,3.7,1.7,5.7,2.5v21.3h-30c-26.9,0-48.9,21.9-48.9,49v65.5
	c0,12.3,10,22.4,22.4,22.4h168.5c12.3,0,22.4-10,22.4-22.4v-65.6c0-26.9-21.9-48.9-48.9-48.9h-30.1v-21.2c2-0.8,3.9-1.6,5.8-2.5
	c10.5,3.5,20,5,28.5,5c33.2,0,52.1-22.5,59.7-34.2l0,0c5.8-9,4.6-20.7-2.9-28.4L203,102z M63.8,74.6C67.3,12.1,146.9-4.6,178,45.5
	c5.8,9.4,9.1,20.4,9.1,32.6c-16.2,7.6-35.9,11.2-54,11.4l6.9-18.4c2.7-7.2-5.4-13.7-11.8-9.5c-0.2,0.1-23,14.7-47.9,23.1
	c-5.9,2-11.4,3.4-16.5,4.3C63.7,83.8,63.6,76,63.8,74.6z M17.1,164.8c-1.8-2.7-1.4-6.3,1-8.7l29.6-30.9c0,7.1-2.4,39.7,26.6,65.6
	C44.7,195.9,27,180.2,17.1,164.8z M117.4,347.3H41.2c-3.5,0-6.4-2.9-6.4-6.4v-65.6c0-18.1,14.7-32.9,32.9-32.9h9.5c0,0,0,0.1,0,0.1
	c6.9,20.5,19.4,46.9,40.2,60.3h0V347.3z M173.4,243.3c0.1-0.3,0.2-0.6,0.2-0.8h9.6c18.1,0,32.9,14.7,32.9,32.9v65.6
	c0,3.5-2.9,6.4-6.4,6.4h-76.3v-44.5c20.5-13.2,33-39.3,39.9-59.4C173.3,243.4,173.3,243.3,173.4,243.3z M155.9,244.5
	c-5.6,14.5-15.6,34.4-30.5,44.4c-14.8-9.9-24.8-29.7-30.5-44.4c3.8-0.8,7.7-1.4,11.7-1.9c4-0.5,7.1-3.9,7.1-7.9v-25.3
	c9.6,1.4,19,0.9,23.5,0v25.3c0,4,3,7.5,7.1,7.9C148.1,243.2,152,243.8,155.9,244.5z M96.8,187.1c0,0-7.4-3.8-14.1-10.5
	c-22-21.7-19-44.8-19-71.2c18-2.8,37.5-10.9,53.6-19.2c-3,8-5,11-2.4,15.2c1.3,2.1,3.5,3.5,6,3.8c0.9,0.1,22.9,2.4,49.1-4.2
	c3.2-0.8,6.3-1.7,9.3-2.6c2.4,1,5.1,1.8,7.8,2.1c0,32.5,0.7,39.1-2.7,50.3c0,0,0,0,0,0C172.2,188.8,129.7,205,96.8,187.1z
	 M233.7,164.8c-9.9,15.3-27.4,31-56.8,26c20.5-18.2,26.2-40.6,26.2-65.7l29.6,31C235,158.5,235.4,162.1,233.7,164.8z"/>
<circle class="st7" cx="91.1" cy="124" r="9.3"/>
<circle class="st7" cx="159.7" cy="124" r="9.3"/>
</svg>
