<?xml version="1.0" encoding="utf-8"?>
<!-- Generator: Adobe Illustrator 27.4.0, SVG Export Plug-In . SVG Version: 6.00 Build 0)  -->
<!DOCTYPE svg PUBLIC "-//W3C//DTD SVG 1.1//EN" "http://www.w3.org/Graphics/SVG/1.1/DTD/svg11.dtd" [
	<!ENTITY ns_extend "http://ns.adobe.com/Extensibility/1.0/">
	<!ENTITY ns_ai "http://ns.adobe.com/AdobeIllustrator/10.0/">
	<!ENTITY ns_graphs "http://ns.adobe.com/Graphs/1.0/">
	<!ENTITY ns_vars "http://ns.adobe.com/Variables/1.0/">
	<!ENTITY ns_imrep "http://ns.adobe.com/ImageReplacement/1.0/">
	<!ENTITY ns_sfw "http://ns.adobe.com/SaveForWeb/1.0/">
	<!ENTITY ns_custom "http://ns.adobe.com/GenericCustomNamespace/1.0/">
	<!ENTITY ns_adobe_xpath "http://ns.adobe.com/XPath/1.0/">
]>
<svg version="1.1" id="Layer_1" xmlns:x="&ns_extend;" xmlns:i="&ns_ai;" xmlns:graph="&ns_graphs;"
	 xmlns="http://www.w3.org/2000/svg" xmlns:xlink="http://www.w3.org/1999/xlink" x="0px" y="0px" viewBox="0 0 273.3 395.4"
	 style="enable-background:new 0 0 273.3 395.4;" xml:space="preserve">
<style type="text/css">
	.st0{fill:#EFEFEF;}
	.st1{fill:#E1F465;}
	.st2{fill:#FC245D;}
	.st3{fill:#DBDBDB;}
	.st4{fill:#D6E260;}
	.st5{fill:#DB1D58;}
	.st6{fill:#040403;}
</style>
<metadata>
	<sfw  xmlns="&ns_sfw;">
		<slices></slices>
		<sliceSourceBounds  bottomLeftOrigin="true" height="395.4" width="273.3" x="8.9" y="14.4"></sliceSourceBounds>
	</sfw>
</metadata>
<g>
	<path class="st0" d="M205.3,91.1c-2.6-7.6-6-15.4-10.4-23.2H78.2c-4.4,7.8-7.8,15.5-10.4,23.2c0,0,0,0,0,0
		c-10.3,30.6-7.3,59.5,0,83.1C78.5,208.9,98.2,232,98.2,232H175c0,0,19.7-23.1,30.3-57.7C212.6,150.7,215.7,121.7,205.3,91.1z
		 M136.6,143.7c-13.9,0-25.2-11.3-25.2-25.2s11.3-25.2,25.2-25.2s25.2,11.3,25.2,25.2S150.5,143.7,136.6,143.7z"/>
	<path class="st1" d="M195,68H78.2c11-19.5,28.1-39.3,53.6-58.4c2.8-2.1,6.7-2.1,9.5,0C166.9,28.7,184,48.5,195,68z"/>
	<path class="st1" d="M194.9,280.4H78.3c-7.2,0-11.2-8.3-6.8-13.9L98.2,232H175l26.7,34.5C206.2,272.2,202.1,280.4,194.9,280.4z"/>
	<circle class="st1" cx="136.6" cy="118.5" r="25.2"/>
	<path class="st1" d="M67.9,174.3C34.9,173.7,8,200.9,8,200.9C20,117.3,67.1,91.6,67.9,91.1C57.6,121.7,60.6,150.7,67.9,174.3z"/>
	<path class="st1" d="M265.2,200.9c0,0-26.9-27.2-59.9-26.6h0c7.3-23.6,10.3-52.6,0-83.1h0C205.4,91.1,253.1,116.7,265.2,200.9z"/>
	<path class="st2" d="M136.6,387.4c-65.7-64.2-18.3-107-18.3-107h36.6C154.9,280.4,202.4,323.2,136.6,387.4L136.6,387.4z"/>
	<path class="st3" d="M91.3,174.3c-7.3-23.6-10.3-52.6,0-83.1h0c2.6-7.6,6-15.4,10.4-23.2H78.2c-4.4,7.8-7.8,15.5-10.4,23.2
		c0,0,0,0,0,0c-10.3,30.6-7.3,59.5,0,83.1C78.5,208.9,98.2,232,98.2,232h23.5C121.7,232,102,208.9,91.3,174.3z"/>
	<path class="st4" d="M148.3,15c-21.7,17.4-36.7,35.3-46.6,53H78.2c11-19.5,28.1-39.3,53.6-58.4c2.8-2.1,6.7-2.1,9.5,0
		C143.7,11.4,146.1,13.2,148.3,15L148.3,15z"/>
	<path class="st4" d="M101.8,280.4H78.3c-7.2,0-11.2-8.3-6.8-13.9L98.2,232h23.5l-26.7,34.5C90.5,272.2,94.6,280.4,101.8,280.4
		L101.8,280.4z"/>
	<path class="st3" d="M205.3,91.1c-2.6-7.6-6-15.4-10.4-23.2h-23.5c4.4,7.8,7.8,15.5,10.4,23.2c10.3,30.6,7.3,59.5,0,83.1
		c-10.6,34.6-30.3,57.7-30.3,57.7H175c0,0,19.7-23.1,30.3-57.7C212.6,150.7,215.7,121.7,205.3,91.1L205.3,91.1z"/>
	<path class="st4" d="M195,68h-23.5c-10-17.7-24.9-35.5-46.6-53c2.3-1.8,4.6-3.6,7-5.4c2.8-2.1,6.7-2.1,9.5,0
		C166.9,28.7,184,48.5,195,68z"/>
	<path class="st4" d="M194.9,280.4h-23.5c7.2,0,11.2-8.3,6.8-13.9L151.5,232H175l26.7,34.5C206.2,272.2,202.1,280.4,194.9,280.4z"/>
	<path class="st5" d="M148.3,374.8c-3.4,4.1-7.3,8.3-11.7,12.6c-65.7-64.2-18.3-107-18.3-107h23.5
		C141.8,280.4,100.5,317.7,148.3,374.8L148.3,374.8z"/>
</g>
<g>
	<path class="st6" d="M136.6,151.7c2.4,0,4.7-0.3,6.9-0.7c6.1-1.3,11.6-4.3,16-8.5c6.3-6.1,10.3-14.6,10.3-24
		c0-8.4-3.1-16.1-8.3-21.9h0c-3.7-4.2-8.5-7.5-13.9-9.4c-3.5-1.2-7.2-1.9-11-1.9c-18.3,0-33.2,14.9-33.2,33.2
		S118.3,151.7,136.6,151.7L136.6,151.7z M136.6,101.3c2.5,0,4.8,0.5,6.9,1.5c6.1,2.7,10.3,8.7,10.3,15.8s-4.2,13.1-10.3,15.8
		c-2.1,0.9-4.5,1.5-6.9,1.5c-9.5,0-17.2-7.7-17.2-17.2S127.1,101.3,136.6,101.3z"/>
	<path class="st6" d="M69,322.2c-3.9-2.1-8.7-0.7-10.8,3.2l-23.5,43.3c-2.9,5.3,1,11.8,7,11.8c2.8,0,5.6-1.5,7-4.2L72.2,333
		C74.3,329.1,72.9,324.3,69,322.2z"/>
	<path class="st6" d="M56.2,298.1c-2.7-3.5-7.7-4.2-11.2-1.5L5.7,326.3c-8.4,6.4,1.2,19.1,9.7,12.7l39.2-29.8
		C58.1,306.6,58.8,301.6,56.2,298.1L56.2,298.1z"/>
	<path class="st6" d="M215.1,325.4c-2.1-3.9-7-5.3-10.8-3.2c-3.9,2.1-5.3,7-3.2,10.8l23.5,43.3c1.4,2.7,4.2,4.2,7,4.2
		c6,0,9.9-6.5,7-11.8L215.1,325.4z"/>
	<path class="st6" d="M267.5,326.3l-39.2-29.8c-3.5-2.7-8.5-2-11.2,1.5c-2.7,3.5-2,8.5,1.5,11.2c42.9,32.5,40.4,31.4,44.1,31.4
		C270.3,340.7,273.7,330.9,267.5,326.3L267.5,326.3z"/>
	<path class="st6" d="M168.5,185.8c3.8,1.7,8.7,0,10.5-4.2c7.5-17.6,10.6-33.4,10.8-34.1c0.8-4.3-2-8.5-6.3-9.4s-8.5,2-9.4,6.3
		c0,0.1-2.9,14.9-9.7,30.8C162.5,179.3,164.4,184,168.5,185.8L168.5,185.8z"/>
	<path class="st6" d="M159.5,196.9c-3.2-1.3-6.9-0.4-9.2,2.3c-0.3,0.4-0.7,0.8-1,1.2c-2.9,3.3-2.5,8.4,0.8,11.3
		C159.7,219.8,171.5,201.5,159.5,196.9z"/>
	<path class="st6" d="M212.8,286.7c10.8-6.9,1-16.5-4.7-25.2L185.2,232c6.1-8.3,17.9-26,26-49.5c26.5,2.3,48.2,23.8,48.4,24
		c5.4,5.4,14.7,0.9,13.6-6.8c-3.1-21.5-8.4-39.3-14.7-54l-7-14.5c-8.7-16-18.3-27.2-26.1-34.7l-15.4-16
		c-12.6-31.3-36.7-57.1-63.8-77.4c-5.7-4.2-13.4-4.2-19.1,0C98.5,24.6,73.3,52.1,61.3,85.8c-11,7.2-50.2,37.6-61.2,113.9
		c-1.1,7.6,8.2,12.2,13.6,6.8c0.2-0.2,21.8-21.6,48.4-24c8.1,23.5,19.9,41.2,26,49.5l-22.9,29.6c-8.5,10.9-0.7,26.9,13.2,26.9h24
		c-4.3,7.6-8.3,18.1-8.6,31.1c-0.5,24.3,12.1,49,37.3,73.7c3.1,3,8,3.1,11.2,0c30.5-29.8,49.4-68.2,28.7-104.7
		C170.9,288.4,206.4,289.4,212.8,286.7z M218.7,112.7c17.6,19.1,28.7,43.9,34.7,68.7c-11.2-7.2-24.5-12.9-37.7-14.6
		C220,149,221.2,130.8,218.7,112.7z M19.9,181.5c8.3-34.4,23.1-56.1,34.7-68.7c-2.6,18.1-1.3,36.3,2.9,54.1c0,0,0,0,0,0
		C42.6,168.9,29.6,175.2,19.9,181.5z M136.6,16c18.3,13.7,33,28.4,43.8,44H92.8C103.6,44.5,118.3,29.8,136.6,16z M83,76L83,76
		C83,76,83,76,83,76l107.2,0c0,0,0,0,0,0c16.3,31,19,67.8,3.4,107.5v0c-7.9,20-18,34.6-22.4,40.5h-69.1C70.4,182,57.2,125.7,83,76z
		 M78.3,272.4c-0.2,0-0.4,0-0.6-0.4c-0.2-0.4,0-0.6,0.1-0.7l24.3-31.4h69l24.3,31.4c0.1,0.1,0.2,0.3,0.1,0.7
		c-0.2,0.4-0.4,0.4-0.6,0.4H78.3z M136.6,376L136.6,376c-18.1-19.3-27.1-38.1-26.9-55.9c0.2-16.2,8.2-27.3,12-31.7h29.8
		c3.7,4.3,11.6,15.3,11.9,31.4C163.8,337.7,154.8,356.6,136.6,376z"/>
</g>
</svg>
