<svg width="202" height="150" viewBox="0 0 202 150" fill="none" xmlns="http://www.w3.org/2000/svg">
<g clip-path="url(#clip0_238_1912)">
<path d="M54.1871 88.4632C54.1203 88.4632 54.1203 88.4632 54.0534 88.3964C50.245 81.9822 44.0312 78.775 38.2183 80.1782C38.1514 80.1782 38.0846 80.1782 38.0846 80.1113C38.0846 80.0445 38.0846 79.9777 38.1514 79.9777C44.0312 78.5078 50.3786 81.7817 54.1871 88.3296C54.3207 88.3296 54.3207 88.3964 54.1871 88.4632C54.2539 88.4632 54.2539 88.4632 54.1871 88.4632Z" fill="white"/>
<path d="M52.7171 91.069H52.6503C51.9154 90.5345 51.4477 89.7996 50.98 89.0646C50.8463 88.7973 50.6459 88.5301 50.4454 88.3296C49.3764 86.7929 47.9065 85.5902 46.1693 84.8552C46.1024 84.8552 46.1024 84.7884 46.1024 84.7216C46.1024 84.6548 46.1693 84.6548 46.2361 84.6548C47.9733 85.4566 49.51 86.6592 50.5791 88.196C50.7795 88.4633 50.9131 88.7305 51.1136 88.9978C51.5813 89.7327 52.049 90.4677 52.7171 90.9354C52.784 91.0022 52.784 91.069 52.7171 91.069Z" fill="white"/>
<path d="M123.742 48.441C123.608 54.9221 127.55 61.5368 133.63 63.6749C136.971 64.8107 140.579 64.6771 143.987 65.5457C147.394 66.4143 150.869 69.0201 150.869 72.4945C150.869 74.833 149.532 80.1114 156.548 83.2517C162.361 85.7907 160.958 99.6882 143.051 105.568C137.572 107.372 141.114 102.829 135.367 101.96C129.755 101.091 124.61 97.8842 120.735 93.7417C116.86 89.5991 114.12 84.4544 111.982 79.176C109.51 73.0958 107.773 66.4143 109.31 60C110.846 53.5858 116.592 47.9065 123.742 48.441Z" fill="#07133B"/>
<path d="M141.114 106.37C139.911 106.37 139.51 105.702 139.042 104.833C138.575 103.898 137.973 102.762 135.501 102.361C130.156 101.559 124.944 98.5524 120.668 94.0089C117.194 90.3341 114.321 85.5234 111.849 79.3764C108.708 71.6259 107.84 65.4789 109.176 60C109.978 56.6593 111.782 53.5858 114.321 51.4477C117.127 49.0423 120.401 47.9065 123.875 48.1737C124.076 48.1737 124.209 48.3742 124.209 48.5078C124.076 55.1225 128.151 61.3363 133.898 63.3408C135.702 63.9421 137.706 64.2094 139.577 64.4098C141.114 64.6103 142.717 64.8107 144.254 65.2116C147.661 66.0802 151.403 68.7528 151.403 72.5613C151.403 72.8953 151.403 73.2294 151.336 73.5635C151.203 76.1025 150.935 80.3786 156.882 82.9844C159.02 83.9198 160.29 86.392 160.156 89.3987C159.889 94.6103 155.345 102.027 143.385 105.902C142.316 106.236 141.648 106.37 141.114 106.37ZM122.806 48.7751C116.125 48.7751 111.18 54.4544 109.777 60.1336C108.508 65.4789 109.376 71.4922 112.45 79.1091C114.922 85.1893 117.795 89.9332 121.136 93.5412C125.278 97.951 130.423 100.824 135.568 101.626C138.441 102.094 139.176 103.43 139.644 104.432C140.178 105.501 140.445 106.036 143.051 105.167C154.677 101.359 159.087 94.2094 159.354 89.2651C159.488 86.5924 158.419 84.3875 156.548 83.5189C150.2 80.7127 150.468 76.1693 150.601 73.4299C150.601 73.029 150.668 72.6949 150.668 72.4276C150.668 69.0201 147.194 66.6147 144.053 65.8129C142.584 65.412 140.98 65.2116 139.51 65.078C137.572 64.8775 135.568 64.6103 133.697 63.9421C127.751 61.8708 123.541 55.5234 123.541 48.7083C123.207 48.7751 123.007 48.7751 122.806 48.7751Z" fill="#07133B"/>
<path d="M88.7305 33.6748C90.6013 42.8953 92.4053 52.784 88.6637 61.3363C87.461 64.1425 85.657 66.6815 84.6548 69.5546C83.4521 72.9621 83.4521 76.7038 83.7194 80.3118C84.3207 87.1269 86.392 94.1425 91.2027 99.02C96.0134 103.898 104.031 106.036 109.978 102.561C115.189 99.5546 117.528 93.0067 117.194 86.9933C116.86 80.98 114.321 75.3675 111.581 69.9555C105.167 57.1938 97.5501 44.833 88.7305 33.6748Z" fill="#07133B"/>
<path d="M102.027 78.5078C102.227 73.6303 101.559 70.8909 101.425 67.216C103.43 66.2138 105.568 65.5457 107.706 65.2116C108.708 65.078 109.777 65.0111 110.579 65.6125C111.047 66.0134 113.318 64.0089 113.519 64.5434C115.122 68.2851 115.256 73.6303 116.86 77.372C116.993 77.6392 122.606 77.1715 122.673 77.4388C123.207 78.6414 122.739 88.7973 122.339 89.0646C101.893 102.695 92.0045 83.1849 92.0045 83.1849C92.0045 83.1849 95.7461 80.8463 102.027 78.5078Z" fill="white"/>
<path d="M108.575 94.1425C107.105 94.1425 105.635 93.9421 104.232 93.608C95.9466 91.4031 91.7372 83.3853 91.7372 83.3185C91.6704 83.1849 91.7372 82.9844 91.8708 82.8508C91.9377 82.8508 95.6125 80.5791 101.693 78.3074C101.759 75.167 101.559 72.9621 101.359 70.7572C101.225 69.6214 101.158 68.4855 101.091 67.216C101.091 67.0824 101.158 66.9488 101.292 66.882C103.296 65.8797 105.434 65.1448 107.706 64.8107C108.708 64.6771 109.911 64.5434 110.78 65.2116C110.98 65.2116 111.581 64.8775 111.982 64.6102C112.784 64.1425 113.252 63.8753 113.586 64.0089C113.719 64.0757 113.853 64.1425 113.92 64.2762C114.722 66.2138 115.189 68.4855 115.59 70.7572C115.991 72.8953 116.459 75.167 117.194 76.9711C117.595 77.0379 118.864 76.9711 119.8 76.9042C122.739 76.7706 122.94 76.8374 123.074 77.1715C123.474 78.0401 123.341 82.2495 123.274 83.5189C123.074 88.931 122.739 89.1314 122.606 89.265C117.661 92.539 112.984 94.1425 108.575 94.1425ZM92.539 83.2517C93.3408 84.7216 97.3497 91.0691 104.432 92.9399C109.777 94.343 115.724 92.9399 122.071 88.7305C122.405 87.6615 122.739 79.176 122.339 77.6392C121.938 77.5724 120.668 77.6392 119.733 77.706C116.793 77.8397 116.592 77.7728 116.459 77.4388C115.657 75.5011 115.189 73.2294 114.788 70.9577C114.388 68.8196 113.92 66.5479 113.185 64.7439C112.984 64.8107 112.517 65.078 112.249 65.2784C111.381 65.7461 110.713 66.147 110.312 65.8129C109.644 65.2784 108.575 65.3452 107.773 65.4788C105.702 65.8129 103.697 66.4811 101.759 67.3497C101.826 68.4855 101.96 69.4878 102.027 70.6236C102.227 72.8953 102.494 75.2339 102.361 78.5078C102.361 78.6414 102.294 78.7751 102.16 78.8419C96.9488 80.7795 93.5412 82.7172 92.539 83.2517Z" fill="#07133B"/>
<path d="M86.6592 35.9466C87.2606 40.49 88.196 45.2339 86.9933 49.7773C86.3252 52.2495 86.392 64.7439 96.4811 68.3519C101.759 70.2227 107.84 69.8218 113.318 66.5479C116.993 64.2762 121.537 57.3274 120.601 50.4454C123.675 51.314 126.682 49.2428 126.748 46.5033C126.748 44.8998 125.011 42.9621 123.14 43.029C121.737 43.0958 121.537 43.0958 120.468 43.9644C119.733 40.6904 119.265 37.4165 119.332 33.6748C115.857 29.8664 110.312 27.8619 104.699 27.0601C102.828 26.7929 100.958 26.5924 99.0869 26.8597C93.6748 27.3942 85.9911 31.2695 86.6592 35.9466Z" fill="white"/>
<path d="M102.962 69.8218C100.757 69.8218 98.4855 69.4209 96.3474 68.686C86.3252 65.1448 85.8575 52.7172 86.6592 49.7105C87.6615 45.8352 87.1269 41.6927 86.5256 37.6838C86.4588 37.1492 86.392 36.5479 86.3252 36.0134C86.1247 34.7439 86.5924 33.4076 87.5278 32.1381C89.9332 29.0646 95.2116 26.8597 99.02 26.392C101.091 26.1247 103.163 26.392 104.699 26.5924C109.31 27.2606 115.59 28.9978 119.532 33.3408C119.599 33.4076 119.599 33.4744 119.599 33.608C119.532 36.8152 119.866 39.8887 120.601 43.2962C121.403 42.7617 121.737 42.6949 123.073 42.6281C124.009 42.5613 124.944 42.9621 125.746 43.7639C126.548 44.5657 127.082 45.5679 127.016 46.5033C127.016 47.8397 126.347 49.1091 125.212 49.9777C124.009 50.8463 122.472 51.2472 121.002 50.98C121.67 57.9956 117.127 64.7439 113.519 66.9488C110.178 68.8196 106.57 69.8218 102.962 69.8218ZM86.9933 35.8797C87.0601 36.4143 87.1269 37.0156 87.1938 37.5501C87.7951 41.6258 88.3296 45.8352 87.3274 49.8441C86.8597 51.5145 86.3252 64.343 96.5479 67.951C102.094 69.8886 107.906 69.2873 113.051 66.147C116.526 64.0089 121.069 57.1938 120.2 50.3786C120.2 50.245 120.2 50.1114 120.334 50.0446C120.401 49.9777 120.535 49.9109 120.668 49.9777C122.071 50.3786 123.675 50.1114 124.811 49.2428C125.746 48.5078 126.347 47.4388 126.347 46.3697C126.347 45.6348 125.947 44.833 125.278 44.1648C124.61 43.5635 123.875 43.2294 123.14 43.2294C121.737 43.2962 121.67 43.2962 120.668 44.098C120.601 44.1648 120.468 44.1648 120.334 44.1648C120.2 44.098 120.134 44.0312 120.134 43.8976C119.332 40.2895 118.931 37.0824 118.998 33.6748C115.189 29.5991 109.109 27.9287 104.699 27.2606C103.163 27.0601 101.158 26.7929 99.2205 27.0601C95.5457 27.5278 90.4677 29.5991 88.196 32.539C87.1938 33.6748 86.8597 34.8107 86.9933 35.8797Z" fill="#07133B"/>
<path d="M108.575 54.2539C107.105 54.2539 105.702 53.7194 104.499 52.7172C103.096 51.5145 102.227 49.8441 101.96 47.9733C101.425 44.0312 103.964 40.49 107.506 40.0223C109.243 39.8218 110.98 40.3564 112.316 41.559C113.719 42.7617 114.588 44.4321 114.855 46.3029C115.123 48.1737 114.655 50.0445 113.653 51.5813C112.584 53.118 111.047 54.0535 109.376 54.2539C109.109 54.2539 108.842 54.2539 108.575 54.2539ZM108.307 40.6904C108.107 40.6904 107.84 40.6904 107.639 40.7572C104.499 41.1581 102.294 44.3653 102.695 47.9065C102.895 49.6437 103.697 51.1804 104.967 52.2494C106.236 53.3185 107.706 53.7862 109.243 53.5858C110.78 53.3853 112.116 52.5167 113.051 51.1804C113.987 49.8441 114.388 48.1069 114.187 46.4365C113.987 44.6993 113.185 43.1626 111.915 42.0935C110.846 41.1581 109.577 40.6904 108.307 40.6904Z" fill="#07133B"/>
<path d="M90.4009 55.1225C87.1269 55.1225 84.2539 52.4499 83.7862 48.7751C83.2517 44.833 85.7906 41.2918 89.3318 40.8241C92.873 40.3563 96.2138 43.1626 96.6815 47.1047C97.216 51.0468 94.677 54.588 91.1358 55.0557C90.9354 55.1225 90.6681 55.1225 90.4009 55.1225ZM90.1336 41.4922C89.9332 41.4922 89.6659 41.4922 89.4655 41.559C86.3251 41.9599 84.1202 45.167 84.5211 48.7082C84.9888 52.2494 87.9287 54.7884 91.069 54.3875C94.2093 53.9866 96.4142 50.7795 96.0133 47.2383C95.6125 43.8975 93.0067 41.4922 90.1336 41.4922Z" fill="#07133B"/>
<path d="M113.519 23.118C119.903 23.118 125.078 17.9429 125.078 11.559C125.078 5.17515 119.903 0 113.519 0C107.135 0 101.96 5.17515 101.96 11.559C101.96 17.9429 107.135 23.118 113.519 23.118Z" fill="#07133B"/>
<path d="M120 44.2984C117.06 39.755 115.256 36.4811 114.321 30.9354C103.497 37.3497 93.2071 38.3519 82.8508 37.951C82.6503 36.2138 82.9844 32.2717 83.7194 30.6013C85.5234 26.5256 87.7283 22.9844 94.0089 20.1782C98.4187 18.2405 104.298 16.9042 109.042 17.5724C113.786 18.2405 117.795 20.7795 121.136 23.853C123.742 26.2583 126.013 30.2673 126.748 34.2093C127.416 37.6169 126.615 40.0891 125.078 43.5635C124.209 43.0958 123.408 42.6281 122.472 42.8285C121.47 43.0289 120.802 43.5635 120 44.2984Z" fill="#07133B"/>
<path d="M104.298 61.6704C103.497 61.6704 102.829 61.4031 102.227 60.9354C102.094 60.8018 102.027 60.6013 102.16 60.4677C102.294 60.3341 102.494 60.2673 102.628 60.4009C103.363 61.0022 104.499 61.1359 105.635 60.6682C106.904 60.1336 107.906 59.1314 108.508 57.7951C108.575 57.5947 108.775 57.5279 108.976 57.5947C109.176 57.6615 109.243 57.8619 109.176 58.0624C108.508 59.5323 107.305 60.6682 105.902 61.2695C105.367 61.5368 104.833 61.6704 104.298 61.6704Z" fill="#07133B"/>
<path d="M108.107 47.4388C108.04 46.9042 107.506 46.5033 106.904 46.5702C106.303 46.637 105.902 47.1715 105.969 47.706C106.036 48.2405 106.57 48.6414 107.171 48.5746C107.773 48.5078 108.174 47.9733 108.107 47.4388Z" fill="#07133B"/>
<path d="M91.9376 48.3073C91.8708 47.7728 91.3363 47.3719 90.735 47.4387C90.1336 47.5056 89.7327 48.0401 89.7996 48.5746C89.8664 49.1091 90.4009 49.51 91.0022 49.4432C91.6036 49.3764 92.0045 48.8419 91.9376 48.3073Z" fill="#07133B"/>
<path d="M98.0178 54.8552C97.951 54.8552 97.951 54.8552 97.8842 54.8552L96.4143 54.3207C96.2138 54.2539 95.8797 54.1203 95.8129 53.7862C95.6793 53.3853 95.9465 53.0512 96.0802 52.8508C97.216 51.3808 97.5501 49.3764 97.0824 47.6392C97.0156 47.4388 97.1492 47.2383 97.3497 47.1715C97.5501 47.1047 97.7505 47.2383 97.8174 47.4388C98.3519 49.3764 97.951 51.5813 96.6815 53.2517C96.5479 53.3853 96.5479 53.4521 96.5479 53.5189C96.5479 53.5189 96.6147 53.5857 96.7483 53.5857L98.2183 54.1203C98.4187 54.1871 98.4855 54.3875 98.4187 54.588C98.2851 54.7884 98.1514 54.8552 98.0178 54.8552Z" fill="#07133B"/>
<path d="M96.0802 46.0356C95.8797 46.0356 95.7461 45.902 95.7461 45.7016C95.7461 44.6993 96.6815 44.0312 97.6837 43.7639C99.2873 43.363 101.091 43.7639 102.294 44.833C102.428 44.9666 102.428 45.167 102.361 45.3007C102.227 45.4343 102.027 45.4343 101.893 45.3675C100.891 44.4989 99.2873 44.098 97.951 44.4321C97.2828 44.6325 96.5479 45.1002 96.5479 45.7016C96.4811 45.902 96.2806 46.0356 96.0802 46.0356Z" fill="#07133B"/>
<path d="M114.12 44.3653C113.92 44.3653 113.786 44.2316 113.786 44.0312C113.786 43.8307 113.92 43.6971 114.12 43.6971H119.465C119.666 43.6971 119.8 43.8307 119.8 44.0312C119.8 44.2316 119.666 44.3653 119.465 44.3653H114.12Z" fill="#07133B"/>
<path d="M120.468 48.0401C120.267 48.0401 120.134 47.9065 120.134 47.706C120.134 46.3697 119.866 45.0334 119.399 43.8307C119.332 43.6303 119.399 43.4299 119.599 43.363C119.8 43.2962 120 43.363 120.067 43.5635C120.601 44.833 120.869 46.3029 120.869 47.706C120.802 47.9065 120.668 48.0401 120.468 48.0401Z" fill="#07133B"/>
<path d="M159.688 120.334C154.944 107.372 152.339 94.6102 141.18 85.3229C135.835 80.8463 129.354 77.706 121.871 77.1715C121.403 84.3875 113.051 89.1314 108.575 89.6659C106.102 89.9332 97.0824 91.1358 97.0824 80.4454C94.1425 81.6481 84.2539 82.8508 80.3118 95.0111C78.7082 99.9554 75.7684 118.998 66.2806 130.022C64.0089 132.628 61.9376 115.323 58.7305 116.459C55.5234 117.595 51.8485 119.465 51.6481 122.873C51.4477 125.479 53.6526 127.817 56.0579 128.82C61.2695 131.024 63.2071 141.849 68.8196 142.65C74.6325 143.452 83.9198 145.59 91.0022 123.608C94.6102 127.216 96.9488 131.091 100.958 133.229C112.584 139.51 151.269 146.526 157.617 147.661C158.151 147.728 159.354 147.327 159.555 146.86C160.69 143.786 164.165 132.561 159.688 120.334Z" fill="#1AD079"/>
<path d="M157.617 148.062C157.55 148.062 157.483 148.062 157.416 148.062C150 146.726 112.249 139.844 100.69 133.563C97.8842 132.027 95.9465 129.755 93.8084 127.35C92.9398 126.347 92.0713 125.278 91.069 124.276C88.0624 133.43 84.4543 139.176 79.9777 141.782C76.0356 144.053 72.294 143.519 69.3541 143.118C69.1537 143.118 68.9532 143.051 68.7528 143.051C65.6125 142.584 63.5412 139.176 61.6036 135.835C59.9332 133.029 58.2628 130.156 55.9243 129.154C53.4521 128.085 51.1136 125.746 51.314 122.873C51.5145 120.067 53.9198 117.862 58.6637 116.192C58.9978 116.058 59.3318 116.125 59.6659 116.258C61.1358 116.993 62.2717 120.668 63.4076 124.209C64.1425 126.615 65.1448 129.822 65.8797 130.022C65.9465 130.022 66.0134 129.955 66.0802 129.889C73.6971 121.136 77.1047 107.038 78.9087 99.4877C79.3764 97.5501 79.7105 96.0134 80.0445 95.0111C83.5189 84.3875 91.6035 81.9154 95.4788 80.7795C96.0802 80.5791 96.6815 80.4454 97.0824 80.245C97.216 80.1782 97.2828 80.245 97.4165 80.3118C97.4833 80.3786 97.5501 80.5122 97.5501 80.5791C97.5501 83.853 98.4187 86.2583 100.089 87.7283C102.828 90.1336 106.971 89.5991 108.575 89.4655H108.641C112.918 88.9309 121.203 84.3207 121.67 77.3051C121.67 77.2383 121.737 77.1047 121.804 77.0379C121.871 76.971 121.938 76.971 122.071 76.971C129.02 77.4387 135.568 80.1782 141.581 85.1893C150.869 92.9399 154.276 102.962 157.884 113.653C158.619 115.857 159.421 118.129 160.223 120.401C164.232 131.425 161.893 142.45 159.889 147.194C159.421 147.595 158.285 148.062 157.617 148.062ZM90.8686 123.274C90.9354 123.274 91.069 123.341 91.1358 123.408C92.2717 124.543 93.3407 125.746 94.343 126.949C96.4142 129.354 98.3519 131.559 101.024 133.029C112.517 139.243 150.134 146.125 157.55 147.394C157.951 147.461 158.953 147.06 159.087 146.793C159.287 146.258 164.365 134.098 159.421 120.535C158.619 118.263 157.817 115.991 157.082 113.786C153.541 103.229 150.134 93.2739 141.047 85.657C135.301 80.8463 128.953 78.1069 122.339 77.6392C121.938 81.6481 119.265 84.5212 117.06 86.3252C114.521 88.3296 111.247 89.8664 108.708 90.1336H108.641C106.971 90.3341 102.561 90.8686 99.6214 88.2628C97.8842 86.7261 96.9488 84.3207 96.8151 81.1136C96.4811 81.2472 96.0802 81.314 95.6793 81.4477C91.6035 82.6503 84.1203 84.922 80.7127 95.2116C80.3786 96.147 80.0445 97.6837 79.5768 99.6214C77.706 107.238 74.2984 121.47 66.6147 130.356C66.2806 130.757 65.9465 130.757 65.6793 130.757C64.6102 130.557 63.8753 128.352 62.6726 124.477C61.7372 121.403 60.5345 117.528 59.265 116.926C59.1314 116.86 58.9309 116.86 58.7973 116.86C54.3875 118.463 52.1158 120.401 51.9154 122.94C51.7149 125.479 53.9866 127.617 56.1247 128.552C58.6637 129.621 60.4009 132.628 62.1381 135.501C64.0757 138.842 65.9465 141.982 68.8196 142.383C69.02 142.383 69.2205 142.45 69.4209 142.45C75.167 143.318 83.9198 144.588 90.6013 123.541C90.6681 123.408 90.735 123.341 90.8686 123.274Z" fill="#07133B"/>
<path d="M145.791 132.829C135.167 132.227 124.477 131.492 113.786 130.757C112.851 130.624 108.107 129.889 106.904 129.755C105.902 129.621 104.967 129.22 104.031 128.82C100.824 127.35 94.0089 124.477 92.539 125.345C89.0646 126.347 85.8575 128.886 83.3853 132.094C81.9822 133.898 80.8463 136.904 81.4477 137.372C81.7817 137.706 82.3831 137.84 82.784 137.506C84.4543 133.964 87.3942 131.024 90.9354 129.421C89.265 130.356 87.7283 131.492 86.3252 132.762C84.922 134.098 83.6525 135.702 83.3185 137.572C83.3185 137.706 83.2517 137.906 83.3853 138.04C83.5857 138.374 84.0534 138.174 84.3207 137.973C84.8552 137.506 92.2049 131.626 93.5412 131.759C91.7372 132.428 85.2561 137.706 85.2561 138.241C85.2561 138.508 85.3229 138.775 85.4566 138.975C85.657 139.243 86.1247 139.376 86.4588 139.31C86.7929 139.243 87.1269 139.042 87.461 138.842C89.5323 137.572 91.4699 135.969 93.7416 135.033C94.8775 134.566 96.2138 134.298 97.216 134.967C95.2116 135.702 93.3407 136.837 91.7372 138.307C91.4699 138.508 91.2695 138.842 91.1358 139.109C90.8686 139.577 90.6013 140.178 90.9354 140.579C91.4699 141.18 92.0044 140.846 92.4721 140.579C94.4098 139.31 96.4142 138.241 98.4855 137.439C99.1537 137.171 99.8886 136.971 100.49 137.305C101.024 137.639 103.43 139.109 108.441 139.376C110.178 139.443 111.782 139.911 113.92 140.512C142.116 148.263 150.468 151.403 157.35 148.463C158.686 147.862 159.154 147.194 158.686 144.922C157.416 138.842 156.281 135.367 145.791 132.829Z" fill="white"/>
<path d="M151.604 150C146.192 150 138.508 147.862 124.076 143.786C121.002 142.918 117.595 141.982 113.853 140.913C111.849 140.379 110.111 139.911 108.441 139.777C103.764 139.51 101.225 138.174 100.29 137.639C99.8218 137.372 99.1537 137.572 98.6192 137.773C96.6147 138.575 94.6771 139.577 92.6726 140.913H92.6058C92.1381 141.18 91.4031 141.581 90.6682 140.846C90.0668 140.245 90.6013 139.31 90.8018 138.976C91.0022 138.641 91.2027 138.307 91.4699 138.107C92.873 136.837 94.4766 135.835 96.2806 135.033C95.4788 134.833 94.5434 135.1 93.8085 135.434C92.3385 136.036 91.0022 136.971 89.6659 137.84C88.9978 138.307 88.3296 138.775 87.5947 139.176C87.2606 139.376 86.8597 139.577 86.4588 139.644C85.9243 139.71 85.3898 139.577 85.1225 139.176C84.9221 138.909 84.7884 138.575 84.8552 138.174C84.8552 138.04 84.9221 137.906 85.1225 137.706C84.9889 137.773 84.9221 137.906 84.7884 137.973C84.6548 138.04 84.588 138.107 84.5212 138.174C84.2539 138.374 83.853 138.575 83.5189 138.508C83.3185 138.441 83.118 138.374 83.0512 138.174C82.9844 138.04 82.9176 137.906 82.9176 137.773C82.4499 138.174 81.7149 138.107 81.1804 137.639C80.245 136.837 81.9154 133.363 83.118 131.893C85.8575 128.419 89.0646 126.013 92.4053 125.011C94.2094 124.076 101.225 127.149 104.232 128.486C104.967 128.82 105.969 129.22 106.971 129.421C107.305 129.488 107.84 129.555 108.508 129.621C110.312 129.889 113.118 130.29 113.853 130.423C124.276 131.158 135.1 131.893 145.857 132.494H145.924C156.615 135.033 157.817 138.641 159.02 144.855C159.488 147.127 159.087 148.129 157.483 148.797C155.679 149.599 153.808 150 151.604 150ZM99.6882 136.837C100.022 136.837 100.29 136.904 100.624 137.105C101.492 137.639 103.898 138.909 108.374 139.176C110.178 139.243 111.915 139.777 113.92 140.312C117.661 141.314 121.136 142.316 124.143 143.185C144.454 148.864 151.269 150.735 157.082 148.263C158.151 147.795 158.619 147.327 158.218 145.056C157.016 138.976 155.947 135.702 145.724 133.229C134.967 132.628 124.209 131.893 113.786 131.158C113.786 131.158 113.786 131.158 113.719 131.158C113.051 131.025 110.245 130.624 108.374 130.356C107.706 130.29 107.105 130.156 106.837 130.156C105.702 130.022 104.699 129.555 103.898 129.22C99.1537 127.016 93.8085 125.078 92.6726 125.679H92.6058C89.3987 126.615 86.1915 128.953 83.5857 132.294C82.1158 134.165 81.314 136.771 81.5813 137.105C81.7817 137.305 82.1158 137.439 82.3831 137.238C84.0535 133.697 87.0601 130.69 90.6682 129.087C90.8686 129.02 91.069 129.087 91.1359 129.22C91.2027 129.421 91.1359 129.621 91.0022 129.688C89.3987 130.624 87.8619 131.693 86.4588 133.029C84.7216 134.633 83.7862 136.102 83.5857 137.639C83.5857 137.773 83.5857 137.84 83.5857 137.84C83.6526 137.84 83.853 137.773 84.0535 137.639C84.1203 137.572 84.1871 137.572 84.3207 137.439C92.1381 131.158 93.2071 131.292 93.608 131.359C93.7417 131.359 93.8753 131.492 93.9421 131.693C93.9421 131.826 93.8753 132.027 93.7417 132.094C92.0045 132.762 86.1247 137.506 85.657 138.307C85.657 138.508 85.7238 138.641 85.7906 138.775C85.9243 138.976 86.2583 138.976 86.4588 138.976C86.7261 138.909 87.0601 138.775 87.3274 138.575C87.9955 138.174 88.7305 137.706 89.3318 137.238C90.6682 136.303 92.0713 135.367 93.608 134.766C94.6771 134.298 96.2806 133.964 97.4833 134.766C97.6169 134.833 97.6169 134.967 97.6169 135.1C97.6169 135.234 97.4833 135.367 97.4165 135.367C95.3452 136.169 93.5412 137.238 92.0713 138.641C91.8708 138.842 91.6704 139.109 91.5367 139.376C91.2695 139.911 91.1359 140.245 91.2695 140.445C91.6036 140.78 91.804 140.713 92.3385 140.445H92.4053C94.4098 139.109 96.3474 138.107 98.4187 137.238C98.7528 136.971 99.2205 136.837 99.6882 136.837Z" fill="#07133B"/>
<path d="M75.5011 146.592C84.3207 146.793 93.1403 146.993 101.96 147.127L102.027 142.65L72.5612 141.915L75.5011 146.592Z" fill="#07133B"/>
<path d="M0.334076 105.568L57.8619 105.835L77.6392 146.526L20.7127 146.392L0.334076 105.568Z" fill="white"/>
<path d="M77.6392 146.926L20.7127 146.793C20.5791 146.793 20.4454 146.726 20.3786 146.592L0.0668045 105.702C-1.06692e-05 105.568 -1.06692e-05 105.434 0.0668045 105.367C0.13362 105.234 0.26725 105.167 0.40088 105.167L57.8619 105.501C57.9955 105.501 58.1292 105.568 58.196 105.702L78.0401 146.392C78.1069 146.526 78.1069 146.659 78.0401 146.726C77.9064 146.86 77.7728 146.926 77.6392 146.926ZM20.9131 146.058L77.1047 146.192L57.5946 106.236L0.868586 105.902L20.9131 146.058Z" fill="#07133B"/>
<path d="M36.7483 122.138C35.1448 122.004 33.3407 122.405 32.6726 123.942C32.0044 125.412 32.539 127.35 33.7416 128.419C34.9443 129.555 36.7483 129.889 38.3519 129.488C39.2205 129.287 40.0891 128.886 40.5568 128.151C40.8909 127.617 41.0245 127.016 41.0245 126.414C41.0245 124.343 40.0891 122.472 36.7483 122.138Z" fill="white"/>
<path d="M37.0824 129.955C35.7461 129.955 34.4098 129.488 33.4744 128.619C32.1381 127.35 31.6035 125.345 32.3385 123.742C33.0067 122.272 34.677 121.537 36.7483 121.737C40.5568 122.138 41.3586 124.477 41.3586 126.347C41.3586 127.082 41.1581 127.751 40.824 128.285C40.2227 129.22 39.1537 129.621 38.4187 129.755C37.951 129.955 37.4833 129.955 37.0824 129.955ZM36.0802 122.472C35.1447 122.472 33.5412 122.673 32.9398 124.076C32.3385 125.412 32.7394 127.082 33.9421 128.151C35.0111 129.154 36.6815 129.555 38.2182 129.154C39.1537 128.953 39.8218 128.552 40.2227 127.951C40.5568 127.416 40.6236 126.815 40.6904 126.414C40.6904 124.076 39.4209 122.739 36.7483 122.472C36.5479 122.472 36.3474 122.472 36.0802 122.472Z" fill="#07133B"/>
<path d="M139.51 132.829C139.376 132.829 139.243 132.762 139.176 132.561C135.167 120.468 132.895 112.784 132.895 96.147C132.895 95.9466 133.029 95.8129 133.229 95.8129C133.43 95.8129 133.563 95.9466 133.563 96.147C133.563 112.65 135.835 120.267 139.777 132.294C139.844 132.494 139.71 132.695 139.577 132.762C139.577 132.829 139.51 132.829 139.51 132.829Z" fill="#07133B"/>
<path d="M90.8686 124.009C90.735 124.009 90.6682 123.942 90.6014 123.875C85.4566 116.459 86.8597 111.047 88.196 105.768C88.8642 103.163 89.5991 100.423 89.4655 97.4165C89.4655 97.216 89.5991 97.0824 89.7996 97.0824C90 97.0824 90.1336 97.216 90.1336 97.4165C90.2673 100.49 89.5323 103.296 88.8642 105.969C87.5279 111.314 86.1915 116.325 91.2027 123.474C91.3363 123.608 91.2695 123.875 91.1359 123.942C91.0022 123.942 90.9354 124.009 90.8686 124.009Z" fill="#07133B"/>
<path d="M107.639 105.768C102.428 105.768 97.216 105.301 92.1381 104.031C92.0712 104.031 92.0044 103.964 92.0713 103.898C92.0713 103.831 92.1381 103.764 92.2049 103.831C105.1 107.038 118.931 105.1 131.225 103.43C131.292 103.43 131.359 103.497 131.359 103.563C131.359 103.63 131.292 103.697 131.225 103.697C123.808 104.633 115.724 105.768 107.639 105.768Z" fill="#07133B"/>
<path d="M112.383 115.791C104.699 115.791 97.0156 114.855 89.5991 113.051C89.5323 113.051 89.4655 112.984 89.5323 112.918C89.5323 112.851 89.5991 112.784 89.6659 112.851C103.296 116.192 117.728 116.459 131.492 113.653C131.559 113.653 131.626 113.653 131.626 113.719C131.626 113.786 131.626 113.853 131.559 113.853C125.278 115.122 118.797 115.791 112.383 115.791Z" fill="#07133B"/>
<path d="M160.557 136.169C160.49 136.169 160.49 136.169 160.49 136.102C155.679 130.423 147.795 127.55 140.512 128.82C140.445 128.82 140.379 128.82 140.379 128.753C140.379 128.686 140.379 128.619 140.445 128.619C147.862 127.35 155.813 130.223 160.69 135.969C160.757 136.036 160.757 136.102 160.69 136.102C160.624 136.169 160.624 136.169 160.557 136.169Z" fill="#07133B"/>
<path d="M159.688 130.891C158.886 130.557 158.218 130.022 157.617 129.421C157.416 129.22 157.149 129.02 156.949 128.82C155.612 127.684 153.942 126.949 152.205 126.682C152.138 126.682 152.071 126.615 152.138 126.548C152.138 126.481 152.205 126.414 152.272 126.481C154.076 126.748 155.746 127.483 157.149 128.619C157.35 128.82 157.617 129.02 157.817 129.22C158.419 129.755 159.02 130.29 159.755 130.624C159.822 130.624 159.822 130.69 159.822 130.757C159.822 130.891 159.755 130.891 159.688 130.891Z" fill="#07133B"/>
<path d="M159.755 146.726C159.555 146.726 159.421 146.592 159.421 146.392C159.421 146.192 159.555 146.058 159.755 146.058C173.786 145.991 187.417 145.991 201.581 146.058C201.782 146.058 201.915 146.192 201.915 146.392C201.915 146.592 201.782 146.726 201.581 146.726C187.417 146.659 173.719 146.659 159.755 146.726Z" fill="#07133B"/>
<path d="M134.967 146.86C92.3385 146.793 49.1759 146.793 6.54788 146.86C6.48106 146.86 6.41425 146.726 6.41425 146.526C6.41425 146.325 6.48106 146.192 6.54788 146.192C49.1759 146.125 92.3385 146.125 134.967 146.192C135.033 146.192 135.1 146.325 135.1 146.526C135.1 146.726 135.033 146.86 134.967 146.86Z" fill="#07133B"/>
</g>
<defs>
<clipPath id="clip0_238_1912">
<rect width="201.849" height="150" fill="white"/>
</clipPath>
</defs>
</svg>
