<?xml version="1.0" encoding="utf-8"?>
<!-- Generator: Adobe Illustrator 27.4.0, SVG Export Plug-In . SVG Version: 6.00 Build 0)  -->
<!DOCTYPE svg PUBLIC "-//W3C//DTD SVG 1.1//EN" "http://www.w3.org/Graphics/SVG/1.1/DTD/svg11.dtd" [
	<!ENTITY ns_extend "http://ns.adobe.com/Extensibility/1.0/">
	<!ENTITY ns_ai "http://ns.adobe.com/AdobeIllustrator/10.0/">
	<!ENTITY ns_graphs "http://ns.adobe.com/Graphs/1.0/">
	<!ENTITY ns_vars "http://ns.adobe.com/Variables/1.0/">
	<!ENTITY ns_imrep "http://ns.adobe.com/ImageReplacement/1.0/">
	<!ENTITY ns_sfw "http://ns.adobe.com/SaveForWeb/1.0/">
	<!ENTITY ns_custom "http://ns.adobe.com/GenericCustomNamespace/1.0/">
	<!ENTITY ns_adobe_xpath "http://ns.adobe.com/XPath/1.0/">
]>
<svg version="1.1" id="Layer_1" xmlns:x="&ns_extend;" xmlns:i="&ns_ai;" xmlns:graph="&ns_graphs;"
	 xmlns="http://www.w3.org/2000/svg" xmlns:xlink="http://www.w3.org/1999/xlink" x="0px" y="0px" viewBox="0 0 350.1 441.5"
	 style="enable-background:new 0 0 350.1 441.5;" xml:space="preserve">
<style type="text/css">
	.st0{fill:#EFEFEF;}
	.st1{fill:#DBDBDB;}
	.st2{fill:#FFBB98;}
	.st3{fill:#FFAA80;}
	.st4{fill:#FFCAA6;}
	.st5{fill:#282121;}
	.st6{fill:#191515;}
	.st7{fill:#E1F465;}
	.st8{fill:#040403;}
</style>
<metadata>
	<sfw  xmlns="&ns_sfw;">
		<slices></slices>
		<sliceSourceBounds  bottomLeftOrigin="true" height="441.5" width="350.1" x="81" y="6"></sliceSourceBounds>
	</sfw>
</metadata>
<g>
	<path class="st0" d="M307,433.5H43c-19.4,0-35-15.7-35-35v-138c0-19.4,15.7-35,35-35h264c19.4,0,35,15.7,35,35v138
		C342.1,417.8,326.4,433.5,307,433.5z"/>
	<path class="st1" d="M69.3,433.5H43c-19.4,0-35-15.7-35-35v-138c0-19.4,15.7-35,35-35h26.3c-19.4,0-35,15.7-35,35v138
		C34.3,417.8,50,433.5,69.3,433.5z"/>
	<path class="st1" d="M342.1,260.5v138c0,19.4-15.7,35-35,35h-26.3c19.4,0,35-15.7,35-35v-138c0-19.4-15.7-35-35-35H307
		C326.4,225.4,342.1,241.1,342.1,260.5L342.1,260.5z"/>
	<path class="st2" d="M261.7,94.7v68.4c0,24.5-11,47.8-26.5,62.3H115.4c-14.9-13.2-27.2-37.8-27.2-63.9
		c1.4-70.5-4.9-84.8,13.6-113.4c3.3-5,6.4-9.3,11.8-14.7v0c5.4-5.4,12.4-10.8,20-14.9c0,0,0,0,0,0c0.6-0.3,1.1-0.6,1.7-0.9
		c7.9-7.9,57.5-19.4,93.1,8.9h0c0.2,0.2,0.4,0.3,0.7,0.5c0,0,0,0,0,0c8.8,6.9,17.8,18.4,19.9,22.7c0,0,0,0,0,0
		C256.7,61.9,261.7,78,261.7,94.7z"/>
	<path class="st3" d="M261.7,101.5v61.6c0,24.5-11,47.8-26.5,62.3h-33.6c12.6-12.2,21.6-28.2,25-46.1c0.8-4.2,1.3-8.4,1.5-12.8
		c0.1-1.1,0.1-2.3,0.1-3.4V114C239.8,111.1,250.9,107.1,261.7,101.5L261.7,101.5z"/>
	<path class="st4" d="M119.4,161.6c0,24.9,10.5,47.7,27.2,63.9h-31.2c-14.9-13.2-27.2-37.8-27.2-63.9v-40.8c9.4-2,15.3-1.9,31.2-7.1
		V161.6z"/>
	<path class="st5" d="M261.7,101.5L261.7,101.5c-43.8,22.7-91.2,17.4-91.3,17.5l13.4-35.8c-24,15.5-65.5,35.1-95.5,37V94.7
		c0-77.6,94-115.3,148-61.3C266,63.1,261.2,98.8,261.7,101.5L261.7,101.5z"/>
	<path class="st6" d="M261.7,94.7v6.7l0,0c-11.2,5.8-22.7,9.8-33.6,12.5V94.7c0-41.2-28.8-76.8-69.8-85.1
		C211.7-0.9,261.7,40.1,261.7,94.7L261.7,94.7z"/>
	<path class="st6" d="M191.7,9.6c-39.3,7.7-69.8,42.5-69.8,85.1v18.2c-11.2,3.7-22.8,6.6-33.6,7.3V94.7C88.2,46.6,127.3,8,175,8
		C180.6,8,186.3,8.6,191.7,9.6L191.7,9.6z"/>
	<path class="st7" d="M197.1,291.2h-44.2l-22.1,38.3l22.1,38.3h44.2l22.1-38.3L197.1,291.2z"/>
</g>
<ellipse class="st8" cx="132.4" cy="171.9" rx="11.6" ry="11.6"/>
<circle class="st8" cx="217.7" cy="171.8" r="11.6"/>
<path class="st8" d="M307,217.4h-54.5c10.9-15.6,17.1-34.9,17.1-54.3c0-0.1,0-0.2,0-0.3c-1.2-32.6,1-53.7-0.2-72.3
	C266.3,31.5,214.4-6.7,162.1,1c-22.4,2.2-30,9.2-32,10.3c-10.4,4.9-30.1,20.2-40.7,42.2c-13.2,25.7-8,44.8-9.3,108.1
	c0,19.5,6.7,40.1,17.6,55.9H43c-23.7,0-43,19.3-43,43v138c0,23.7,19.3,43,43,43h264c23.7,0,43-19.3,43-43v-138
	C350.1,236.7,330.8,217.4,307,217.4L307,217.4z M96.7,86C105,8.3,213.8-11.8,247.1,63.2c4.6,10.7,6.6,21.9,6.6,33.3
	c-27.9,13.2-56.6,15.1-72,14.9l9.5-25.5c2.7-7.2-5.4-13.7-11.8-9.5c-22.8,14.8-57.1,30.5-83.2,34.8C96.2,99.7,96.2,92.3,96.7,86
	L96.7,86z M96.2,161.7c0.3-13.3,0.2-24.7,0.2-34.4c22.6-3.2,49.7-14.1,72-25.9l-5.5,14.7c-2,5.4,2.2,11.2,8.1,10.8
	c-0.5,0-0.9,0-1.1,0c7.8,0.7,45.5,3,83.8-12.9c-0.3,13.7-0.8,29.2,0,49.2c0,19.9-8.3,40.3-21.8,54.2H118.6
	C107.1,206.1,96.2,185.1,96.2,161.7L96.2,161.7z M334.1,398.4c0,14.9-12.1,27-27,27H43c-14.9,0-27-12.1-27-27v-138
	c0-14.9,12.1-27,27-27h264c14.9,0,27,12.1,27,27L334.1,398.4L334.1,398.4z"/>
<path class="st8" d="M315.8,253.3h-3.7c-4.4,0-8,3.6-8,8s3.6,8,8,8h3.7c4.4,0,8-3.6,8-8S320.2,253.3,315.8,253.3z"/>
<path class="st8" d="M282.1,253.3h-34c-4.4,0-8,3.6-8,8s3.6,8,8,8h34c4.4,0,8-3.6,8-8S286.5,253.3,282.1,253.3z"/>
<path class="st8" d="M204.1,287.2c-1.4-2.5-4.1-4-6.9-4h-44.2c-2.9,0-5.5,1.5-6.9,4l-22.1,38.3c-1.4,2.5-1.4,5.5,0,8l22.1,38.3
	c1.4,2.5,4.1,4,6.9,4h44.2c2.9,0,5.5-1.5,6.9-4l22.1-38.3c1.4-2.5,1.4-5.5,0-8L204.1,287.2z M192.5,359.7h-35l-17.5-30.3l17.5-30.3
	h35l17.5,30.3L192.5,359.7z"/>
</svg>
