<?xml version="1.0" encoding="utf-8"?>
<!-- Generator: Adobe Illustrator 27.4.0, SVG Export Plug-In . SVG Version: 6.00 Build 0)  -->
<!DOCTYPE svg PUBLIC "-//W3C//DTD SVG 1.1//EN" "http://www.w3.org/Graphics/SVG/1.1/DTD/svg11.dtd" [
	<!ENTITY ns_extend "http://ns.adobe.com/Extensibility/1.0/">
	<!ENTITY ns_ai "http://ns.adobe.com/AdobeIllustrator/10.0/">
	<!ENTITY ns_graphs "http://ns.adobe.com/Graphs/1.0/">
	<!ENTITY ns_vars "http://ns.adobe.com/Variables/1.0/">
	<!ENTITY ns_imrep "http://ns.adobe.com/ImageReplacement/1.0/">
	<!ENTITY ns_sfw "http://ns.adobe.com/SaveForWeb/1.0/">
	<!ENTITY ns_custom "http://ns.adobe.com/GenericCustomNamespace/1.0/">
	<!ENTITY ns_adobe_xpath "http://ns.adobe.com/XPath/1.0/">
]>
<svg version="1.1" id="Layer_1" xmlns:x="&ns_extend;" xmlns:i="&ns_ai;" xmlns:graph="&ns_graphs;"
	 xmlns="http://www.w3.org/2000/svg" xmlns:xlink="http://www.w3.org/1999/xlink" x="0px" y="0px" viewBox="0 0 257.5 164.2"
	 style="enable-background:new 0 0 257.5 164.2;" xml:space="preserve">
<style type="text/css">
	.st0{fill:#1AD079;}
	.st1{fill:#07133B;}
	.st2{fill:#FFFFFF;}
</style>
<metadata>
	<sfw  xmlns="&ns_sfw;">
		<slices></slices>
		<sliceSourceBounds  bottomLeftOrigin="true" height="164.2" width="257.5" x="282.3" y="-213.4"></sliceSourceBounds>
	</sfw>
</metadata>
<g>
	<g>
		<path class="st0" d="M143.8,66.4c-0.1,6.2,3.7,12.5,9.5,14.6c3.2,1.1,6.7,1,10,1.8c3.3,0.9,6.6,3.3,6.6,6.7
			c0,2.2-1.3,7.3,5.5,10.3c5.5,2.5,4.2,15.8-12.9,21.4c-5.3,1.7-1.9-2.6-7.3-3.4c-5.4-0.8-10.3-3.9-14-7.9c-3.7-4-6.4-8.9-8.4-13.9
			c-2.4-5.8-4-12.3-2.6-18.4C131.6,71.4,137,65.8,143.8,66.4z"/>
		<path class="st1" d="M160.5,121.9c-1.2,0-1.6-0.6-2-1.5c-0.5-0.9-1-2-3.4-2.3c-5.1-0.8-10.2-3.6-14.2-8c-3.3-3.6-6.1-8.2-8.5-14.1
			c-3-7.4-3.8-13.3-2.6-18.6c1.4-5.9,6.9-12,14.1-11.4c0.2,0,0.4,0.2,0.3,0.4c-0.1,6.3,3.7,12.3,9.3,14.2c1.7,0.6,3.6,0.8,5.4,1.1
			c1.5,0.2,3,0.4,4.5,0.7c3.3,0.9,6.9,3.4,6.9,7.1c0,0.3,0,0.6,0,1c-0.1,2.6-0.4,6.5,5.3,9c2.1,0.9,3.3,3.3,3.1,6.2
			c-0.3,5-4.6,12.1-16.1,15.9C161.7,121.7,161,121.9,160.5,121.9z M142.9,66.7c-6.4,0-11.1,5.5-12.4,10.8
			c-1.2,5.1-0.4,10.9,2.5,18.1c2.4,5.8,5.1,10.4,8.3,13.8c4,4.2,8.9,7,13.8,7.8c2.8,0.4,3.5,1.8,4,2.7c0.5,1,0.8,1.5,3.2,0.7
			c11.1-3.6,15.3-10.5,15.6-15.2c0.1-2.6-0.9-4.7-2.7-5.5c-6.1-2.7-5.9-7.1-5.7-9.7c0-0.4,0-0.7,0-0.9c0-3.2-3.3-5.5-6.3-6.3
			c-1.4-0.4-2.9-0.6-4.4-0.7c-1.9-0.2-3.8-0.5-5.6-1.1c-5.7-2-9.8-8.1-9.8-14.6C143.3,66.7,143.1,66.7,142.9,66.7z"/>
	</g>
	<g>
		<path class="st0" d="M110.3,52.2c1.8,8.8,3.6,18.3-0.1,26.5c-1.2,2.7-2.9,5.1-3.8,7.9c-1.1,3.3-1.2,6.8-0.9,10.3
			c0.6,6.5,2.6,13.3,7.2,17.9c4.6,4.7,12.3,6.7,18,3.4c5-2.9,7.3-9.1,6.9-14.9c-0.3-5.8-2.8-11.2-5.4-16.3
			C126,74.7,118.7,62.9,110.3,52.2z"/>
		<path class="st1" d="M124.4,120.3c-4.2,0-8.7-1.8-12-5.1c-4.1-4.2-6.5-10.3-7.3-18.2c-0.4-4.3-0.1-7.6,0.9-10.5
			c0.6-1.6,1.4-3.2,2.2-4.6c0.6-1.1,1.2-2.1,1.6-3.3c3.4-7.8,2-16.5,0-26.3c0-0.2,0.1-0.3,0.2-0.4c0.2-0.1,0.3,0,0.5,0.1
			c8,10.1,15.4,21.8,22,34.9c2.6,5.1,5.1,10.5,5.4,16.5c0.4,6.5-2.4,12.5-7.1,15.2C128.9,119.7,126.7,120.3,124.4,120.3z M111,53.7
			c1.9,9.3,2.9,17.6-0.4,25.2c-0.5,1.1-1.1,2.2-1.7,3.3c-0.8,1.5-1.6,3-2.2,4.5c-1,2.7-1.2,6-0.8,10.1c0.7,7.7,3.1,13.7,7.1,17.7
			c4.8,4.9,12.4,6.4,17.5,3.4c4.4-2.6,7.1-8.3,6.8-14.5c-0.3-5.8-2.8-11.2-5.3-16.2C125.6,74.7,118.5,63.4,111,53.7z"/>
	</g>
	<g>
		<path class="st2" d="M123,95.2c0.2-4.7-0.4-7.3-0.6-10.8c1.9-0.9,3.9-1.6,6-1.9c0.9-0.2,2-0.2,2.7,0.4c0.5,0.4,2.6-1.5,2.8-1
			c1.5,3.6,1.7,8.7,3.2,12.3c0.1,0.3,5.5-0.2,5.6,0.1c0.5,1.2,0.1,10.9-0.3,11.1c-19.6,13-29-5.6-29-5.6S117,97.4,123,95.2z"/>
		<path class="st1" d="M129.3,110.2c-1.4,0-2.8-0.2-4.2-0.5c-8-2.1-11.9-9.6-12-9.9c-0.1-0.2,0-0.4,0.1-0.5c0,0,3.6-2.2,9.4-4.4
			c0.1-3-0.1-5.1-0.3-7.2c-0.1-1.1-0.2-2.2-0.3-3.4c0-0.1,0.1-0.3,0.2-0.4c1.9-1,4-1.6,6.1-2c0.9-0.2,2.1-0.2,3,0.4
			c0.2,0,0.8-0.4,1.1-0.5c0.8-0.4,1.2-0.7,1.6-0.6c0.1,0,0.3,0.2,0.3,0.3c0.8,1.8,1.2,4.1,1.6,6.2c0.4,2.1,0.8,4.2,1.5,5.9
			c0.4,0,1.6,0,2.5,0c2.7-0.1,3-0.1,3.2,0.3c0.3,0.8,0.3,4.5,0.2,6.1c-0.2,5.2-0.5,5.4-0.6,5.5C138,108.6,133.5,110.2,129.3,110.2z
			 M114,99.7c0.8,1.4,4.6,7.4,11.4,9.2c5.1,1.4,10.8,0,16.9-4c0.3-1,0.6-9.1,0.3-10.6c-0.4,0-1.6,0-2.5,0c-2.7,0.1-3,0.1-3.2-0.3
			c-0.8-1.8-1.2-4.1-1.6-6.2c-0.4-2.1-0.8-4.2-1.5-5.9c-0.2,0.1-0.6,0.3-0.9,0.5c-0.8,0.5-1.5,0.9-1.9,0.5c-0.6-0.5-1.6-0.4-2.4-0.3
			c-2,0.3-3.9,0.9-5.7,1.8c0.1,1.1,0.2,2.1,0.3,3.1c0.2,2.2,0.4,4.4,0.3,7.5c0,0.2-0.1,0.3-0.2,0.3C118.2,97.4,114.9,99.2,114,99.7z
			 M123,95.2L123,95.2L123,95.2z"/>
	</g>
	<g>
		<path class="st2" d="M108.3,54.4c0.6,4.3,1.5,8.9,0.3,13.2C108,70,108,82,117.7,85.4c5.1,1.8,10.9,1.4,16.1-1.7
			c3.5-2.1,7.8-8.8,7-15.5c2.9,0.8,5.8-1.2,5.9-3.8c0-1.5-1.7-3.4-3.4-3.3c-1.4,0.1-1.5,0.1-2.6,0.9c-0.7-3.1-1.1-6.3-1.1-9.9
			c-3.3-3.7-8.7-5.5-14-6.3c-1.8-0.3-3.6-0.4-5.4-0.2C115,46.2,107.7,49.9,108.3,54.4z"/>
		<path class="st1" d="M123.9,86.9c-2.1,0-4.3-0.4-6.4-1.1c-9.6-3.4-10.1-15.3-9.3-18.2c1-3.7,0.4-7.7-0.1-11.5
			c-0.1-0.5-0.1-1.1-0.2-1.6l0,0c-0.2-1.3,0.2-2.5,1.2-3.7c2.3-3,7.4-5.1,11-5.5c2-0.2,4,0,5.5,0.2c4.4,0.7,10.5,2.3,14.2,6.5
			c0.1,0.1,0.1,0.2,0.1,0.3c0,3,0.3,6,1,9.2c0.7-0.5,1.1-0.5,2.3-0.6c0.9,0,1.8,0.3,2.6,1.1c0.8,0.8,1.3,1.8,1.2,2.6
			c0,1.3-0.7,2.5-1.8,3.3c-1.1,0.9-2.6,1.2-4,0.9c0.6,6.8-3.7,13.2-7.2,15.3C130.8,85.9,127.4,86.9,123.9,86.9z M121.9,45.8
			c-0.6,0-1.2,0-1.7,0.1c-3.5,0.4-8.4,2.4-10.5,5.2c-0.8,1.1-1.2,2.1-1,3.2l0,0c0.1,0.5,0.1,1.1,0.2,1.6c0.5,3.9,1.1,7.9,0.1,11.8
			c-0.4,1.6-1,13.9,8.8,17.3c5.3,1.9,10.9,1.3,15.8-1.7c3.3-2,7.7-8.5,6.8-15.1c0-0.1,0-0.2,0.1-0.3c0.1-0.1,0.2-0.1,0.3-0.1
			c1.4,0.4,2.8,0.1,3.9-0.7c0.9-0.7,1.5-1.7,1.5-2.7c0-0.7-0.4-1.5-1-2.1c-0.6-0.6-1.3-0.9-2-0.9c-1.3,0.1-1.4,0.1-2.4,0.8
			c-0.1,0.1-0.2,0.1-0.4,0.1c-0.1,0-0.2-0.1-0.2-0.3c-0.8-3.4-1.1-6.6-1.1-9.8c-3.6-3.9-9.4-5.5-13.7-6.1
			C124.4,46,123.2,45.8,121.9,45.8z"/>
	</g>
	<g>
		<path class="st1" d="M129.3,72c-3.1,0-5.9-2.6-6.4-6.1c-0.5-3.8,1.9-7.2,5.3-7.6c1.7-0.2,3.3,0.3,4.7,1.4c1.3,1.1,2.2,2.8,2.4,4.6
			l0,0c0.2,1.8-0.2,3.6-1.2,5.1c-1,1.5-2.5,2.4-4.1,2.6C129.8,72,129.5,72,129.3,72z M129,58.9c-0.2,0-0.4,0-0.6,0
			c-3,0.4-5.1,3.4-4.7,6.8c0.4,3.4,3.2,5.8,6.3,5.4c1.5-0.2,2.7-1,3.6-2.3c0.9-1.3,1.3-2.9,1.1-4.5l0,0c-0.2-1.6-1-3.1-2.2-4.1
			C131.4,59.4,130.2,58.9,129,58.9z"/>
	</g>
	<g>
		<path class="st1" d="M111.9,72.8c-3.1,0-5.9-2.6-6.4-6.1c-0.5-3.8,1.9-7.2,5.3-7.6c1.7-0.2,3.3,0.3,4.7,1.5
			c1.3,1.1,2.2,2.8,2.4,4.6c0.2,1.8-0.2,3.6-1.2,5.1c-1,1.5-2.5,2.4-4.1,2.6C112.4,72.8,112.1,72.8,111.9,72.8z M111.6,59.7
			c-0.2,0-0.4,0-0.6,0c-3,0.4-5.1,3.4-4.7,6.8c0.4,3.4,3.2,5.8,6.3,5.4c1.5-0.2,2.7-1,3.6-2.3c0.9-1.3,1.3-2.9,1.1-4.5l0,0
			c-0.2-1.6-1-3.1-2.2-4.1C114,60.2,112.8,59.7,111.6,59.7z"/>
	</g>
	<g>
		<path class="st0" d="M144.6,27.8c-1.8-5.9-8-9.2-13.8-7.4c-5.9,1.8-9.2,8-7.4,13.8c1.8,5.9,8,9.2,13.8,7.4
			C143.1,39.8,146.4,33.6,144.6,27.8z"/>
		<path class="st1" d="M134,42.5c-4.9,0-9.5-3.2-11-8.1c-1.8-6,1.6-12.5,7.6-14.3c2.9-0.9,6-0.6,8.7,0.9c2.7,1.4,4.7,3.8,5.6,6.8
			c0.9,2.9,0.6,6-0.9,8.7c-1.4,2.7-3.8,4.7-6.8,5.6C136.2,42.3,135.1,42.5,134,42.5z M134,20.3c-1,0-2.1,0.2-3.1,0.5
			c-5.6,1.7-8.8,7.7-7.1,13.4c1.7,5.6,7.7,8.8,13.4,7.1c2.7-0.8,5-2.7,6.3-5.2c1.3-2.5,1.6-5.4,0.8-8.2l0,0c-0.8-2.7-2.7-5-5.2-6.3
			C137.5,20.7,135.7,20.3,134,20.3z"/>
	</g>
	<g>
		<path class="st0" d="M140.2,62.4c-2.8-4.4-4.5-7.5-5.5-12.8c-10.4,6.1-20.3,5.1-30.2,4.7c-0.2-1.7,0.1-3.4,0.8-5
			c1.7-3.9,3.9-7.3,9.9-10c4.2-1.9,9.9-3.1,14.4-2.5c4.5,0.7,8.4,3.1,11.6,6c2.5,2.3,4.7,6.2,5.4,10c0.6,3.2-0.1,5.6-1.6,8.9
			c-0.8-0.4-1.6-0.9-2.5-0.7C141.6,61.2,141,61.7,140.2,62.4z"/>
		<path class="st1" d="M140.2,62.8C140.2,62.8,140.2,62.8,140.2,62.8c-0.2,0-0.3-0.1-0.3-0.2c-2.5-3.9-4.4-7.1-5.4-12.4
			c-9.4,5.4-18.6,5-27.4,4.6c-0.8,0-1.7-0.1-2.5-0.1c-0.2,0-0.3-0.1-0.4-0.3c-0.2-1.6,0.1-3.5,0.9-5.2c1.6-3.6,3.7-7.3,10.1-10.2
			c3.8-1.7,9.6-3.2,14.6-2.5c4.1,0.6,8,2.7,11.8,6.1c2.7,2.5,4.8,6.4,5.5,10.2c0.7,3.5-0.3,6.1-1.6,9.2c0,0.1-0.1,0.2-0.2,0.2
			c-0.1,0-0.2,0-0.3,0l-0.1-0.1c-0.8-0.4-1.4-0.8-2.2-0.6c-0.9,0.2-1.5,0.6-2.2,1.3C140.4,62.7,140.3,62.8,140.2,62.8z M134.8,49.2
			c0.1,0,0.1,0,0.2,0c0.1,0.1,0.2,0.2,0.2,0.3c0.9,5.3,2.7,8.5,5.2,12.3c0.7-0.6,1.3-1,2.2-1.2c0.9-0.2,1.7,0.2,2.4,0.5
			c1.4-3.3,2-5.4,1.4-8.3c-0.7-3.6-2.8-7.4-5.3-9.8c-3.6-3.4-7.5-5.4-11.4-5.9c-4.9-0.7-10.6,0.8-14.2,2.4c-6.2,2.8-8.2,6.4-9.7,9.8
			c-0.7,1.5-1,3.1-0.8,4.5c0.7,0,1.5,0.1,2.2,0.1c8.9,0.4,18.1,0.8,27.5-4.8C134.6,49.2,134.7,49.2,134.8,49.2z"/>
	</g>
	<g>
		<path class="st1" d="M125.2,79c-0.7,0-1.4-0.2-2-0.7c-0.2-0.1-0.2-0.4,0-0.5c0.1-0.2,0.4-0.2,0.5,0c0.7,0.6,1.8,0.7,2.8,0.2
			c1.2-0.5,2.2-1.5,2.8-2.7c0.1-0.2,0.3-0.3,0.5-0.2c0.2,0.1,0.3,0.3,0.2,0.5c-0.7,1.4-1.8,2.5-3.1,3.1
			C126.2,78.9,125.7,79,125.2,79z"/>
	</g>
	<g>
		<path class="st1" d="M128.9,65.4c-0.1-0.5-0.6-0.9-1.2-0.9c-0.6,0.1-1,0.6-0.9,1.1c0.1,0.5,0.6,0.9,1.2,0.9
			C128.5,66.4,128.9,65.9,128.9,65.4z"/>
	</g>
	<g>
		<path class="st1" d="M113.3,66.2c-0.1-0.5-0.6-0.9-1.2-0.9c-0.6,0.1-1,0.6-0.9,1.1c0.1,0.5,0.6,0.9,1.2,0.9
			C113,67.2,113.4,66.7,113.3,66.2z"/>
	</g>
	<g>
		<path class="st1" d="M119.2,72.5c0,0-0.1,0-0.1,0l-1.4-0.5c-0.2-0.1-0.5-0.2-0.6-0.5c-0.2-0.4,0.1-0.7,0.2-0.9
			c1.1-1.4,1.4-3.3,0.9-5c-0.1-0.2,0.1-0.4,0.3-0.5c0.2-0.1,0.4,0.1,0.5,0.3c0.5,1.9,0.1,4-1.1,5.6c0,0-0.1,0.2-0.1,0.2
			c0,0,0.1,0,0.2,0.1l1.4,0.5c0.2,0.1,0.3,0.3,0.2,0.5C119.5,72.5,119.3,72.5,119.2,72.5z"/>
	</g>
	<g>
		<path class="st1" d="M117.3,64.1c-0.2,0-0.4-0.2-0.4-0.4c0-1,0.9-1.7,1.9-1.9c1.5-0.4,3.3,0,4.4,1c0.2,0.1,0.2,0.4,0,0.5
			c-0.1,0.2-0.4,0.2-0.5,0c-1-0.9-2.5-1.2-3.8-0.9c-0.7,0.2-1.3,0.6-1.3,1.2C117.7,63.9,117.5,64.1,117.3,64.1
			C117.3,64.1,117.3,64.1,117.3,64.1z"/>
	</g>
	<g>
		<path class="st1" d="M134.6,62.5c-0.2,0-0.4-0.2-0.4-0.4c0-0.2,0.2-0.4,0.4-0.4l5.1,0c0,0,0,0,0,0c0.2,0,0.4,0.2,0.4,0.4
			c0,0.2-0.2,0.4-0.4,0.4L134.6,62.5C134.6,62.5,134.6,62.5,134.6,62.5z"/>
	</g>
	<g>
		<path class="st1" d="M140.7,66C140.7,66,140.7,66,140.7,66c-0.2,0-0.4-0.2-0.4-0.4c0-1.3-0.2-2.5-0.7-3.7c-0.1-0.2,0-0.4,0.2-0.5
			c0.2-0.1,0.4,0,0.5,0.2c0.5,1.2,0.8,2.6,0.8,4C141.1,65.8,140.9,66,140.7,66z"/>
	</g>
	<g>
		<g>
			<path class="st2" d="M178.3,135.3c-4.5-12.4-7-24.6-17.7-33.6c-5.1-4.3-11.3-7.3-18.5-7.8c-0.4,6.9-8.5,11.5-12.8,12
				c-2.3,0.3-11,1.4-11-8.8c-2.8,1.1-12.3,2.3-16.1,13.9c-1.5,4.8-4.3,23-13.5,33.5c-2.2,2.5-4.2-14.1-7.3-13
				c-3.1,1.1-6.6,2.9-6.8,6.1c-0.2,2.5,1.9,4.7,4.2,5.7c5,2.1,6.8,12.5,12.2,13.3c5.6,0.8,14.5,2.8,21.2-18.2
				c3.4,3.4,5.7,7.2,9.5,9.2c11.1,6,48.2,12.8,54.3,13.8c0.5,0.1,1.6-0.3,1.8-0.8C179.2,157.7,182.6,147,178.3,135.3z"/>
			<path class="st1" d="M176.3,161.9c-0.1,0-0.1,0-0.2,0c-7.1-1.3-43.3-7.9-54.4-13.9c-2.7-1.4-4.6-3.6-6.6-6
				c-0.8-0.9-1.7-1.9-2.6-2.9c-2.9,8.7-6.4,14.2-10.7,16.7c-3.8,2.2-7.4,1.7-10.2,1.3c-0.2,0-0.4-0.1-0.6-0.1
				c-3.1-0.4-5-3.7-6.9-6.9c-1.6-2.7-3.2-5.4-5.4-6.4c-2.4-1-4.6-3.3-4.4-6.1c0.2-2.7,2.5-4.8,7-6.5c0.3-0.1,0.7-0.1,1,0.1
				c1.4,0.7,2.5,4.2,3.6,7.6c0.7,2.3,1.7,5.4,2.3,5.5c0.1,0,0.2-0.1,0.2-0.1c7.3-8.4,10.5-21.9,12.3-29.1c0.4-1.8,0.8-3.3,1.1-4.3
				c3.3-10.2,11.1-12.5,14.8-13.7c0.6-0.2,1.1-0.3,1.5-0.5c0.1,0,0.2,0,0.3,0c0.1,0.1,0.2,0.2,0.2,0.3c0,3.1,0.8,5.4,2.4,6.8
				c2.6,2.3,6.6,1.8,8.1,1.6l0.1,0c4.1-0.5,12-4.9,12.4-11.6c0-0.1,0.1-0.2,0.1-0.3c0.1-0.1,0.2-0.1,0.3-0.1
				c6.7,0.4,12.9,3.1,18.7,7.9c8.9,7.4,12.2,17.1,15.6,27.3c0.7,2.1,1.5,4.3,2.2,6.5l0,0c3.9,10.6,1.6,21.1-0.3,25.7
				C178.1,161.4,176.9,161.9,176.3,161.9z M112.3,138c0.1,0,0.2,0,0.3,0.1c1.1,1.1,2.1,2.3,3.1,3.4c2,2.3,3.8,4.4,6.4,5.8
				c11,5.9,47,12.5,54.2,13.8c0.4,0.1,1.3-0.3,1.4-0.6c0.2-0.5,5.1-12.1,0.3-25.1c-0.8-2.2-1.5-4.4-2.3-6.5
				c-3.4-10.1-6.6-19.6-15.4-26.9c-5.5-4.6-11.5-7.2-17.9-7.7c-0.4,3.8-2.9,6.6-5,8.3c-2.4,1.9-5.6,3.4-8,3.7l-0.1,0
				c-1.6,0.2-5.9,0.7-8.7-1.8c-1.7-1.5-2.6-3.8-2.7-6.9c-0.3,0.1-0.7,0.2-1.1,0.3c-3.9,1.2-11.1,3.4-14.3,13.2
				c-0.3,0.9-0.7,2.4-1.1,4.2c-1.8,7.3-5.1,20.9-12.5,29.5c-0.3,0.4-0.7,0.4-0.9,0.4c-1-0.2-1.7-2.3-2.9-6c-0.9-2.9-2.1-6.6-3.2-7.2
				c-0.1-0.1-0.3-0.1-0.4,0c-4.2,1.5-6.4,3.4-6.5,5.8c-0.2,2.4,1.9,4.5,4,5.3c2.4,1,4.1,3.9,5.8,6.7c1.9,3.2,3.7,6.2,6.4,6.6
				c0.2,0,0.4,0.1,0.6,0.1c5.5,0.8,13.8,2,20.3-18.1C112,138.2,112.1,138.1,112.3,138C112.2,138,112.3,138,112.3,138z"/>
		</g>
	</g>
	<g>
		<path class="st2" d="M97.6,160.4c8.4,0.2,16.9,0.4,25.3,0.5l0-4.3l-28.2-0.7L97.6,160.4z"/>
		<path class="st1" d="M122.9,161.3C122.9,161.3,122.9,161.3,122.9,161.3l-25.4-0.5c-0.1,0-0.2-0.1-0.3-0.2l-2.8-4.5
			c-0.1-0.1-0.1-0.3,0-0.4c0.1-0.1,0.2-0.2,0.3-0.2l28.2,0.7c0.2,0,0.4,0.2,0.4,0.4l0,4.3c0,0.1,0,0.2-0.1,0.3
			C123.1,161.3,123,161.3,122.9,161.3z M97.8,160l24.8,0.5l0-3.6l-27.1-0.7L97.8,160z"/>
	</g>
	<g>
		<path class="st2" d="M165,147.2c-10.2-0.6-20.4-1.3-30.7-2c-0.9-0.2-5.5-0.8-6.6-1c-1-0.1-1.9-0.5-2.7-0.9c-3-1.4-9.6-4.2-11-3.4
			c-3.4,1-6.4,3.4-8.8,6.5c-1.3,1.7-2.4,4.6-1.9,5.1c0.4,0.3,0.9,0.4,1.3,0.1c1.6-3.4,4.4-6.2,7.8-7.7c-1.6,0.9-3.1,2-4.4,3.2
			c-1.3,1.3-2.6,2.8-2.9,4.6c0,0.1,0,0.3,0,0.4c0.2,0.3,0.6,0.1,0.9-0.1c0.5-0.4,7.5-6.1,8.9-6c-1.7,0.7-7.9,5.7-8,6.2
			c0,0.3,0,0.5,0.2,0.7c0.2,0.3,0.6,0.4,1,0.3c0.3-0.1,0.7-0.2,1-0.4c2-1.2,3.8-2.7,6-3.6c1.1-0.4,2.4-0.7,3.4,0
			c-1.9,0.7-3.7,1.8-5.2,3.2c-0.2,0.2-0.4,0.5-0.6,0.8c-0.2,0.4-0.5,1-0.2,1.4c0.5,0.6,1,0.3,1.5,0c1.9-1.2,3.8-2.2,5.7-3
			c0.6-0.2,1.4-0.5,1.9-0.1c0.5,0.3,2.8,1.8,7.6,2c1.6,0.1,3.2,0.5,5.3,1.1c27,7.4,35.1,10.4,41.6,7.6c1.3-0.6,1.7-1.2,1.3-3.4
			C176.1,153,175,149.6,165,147.2z"/>
		<path class="st1" d="M170.5,163.7c-5.2,0-12.5-2.1-26.4-5.9c-2.9-0.8-6.2-1.7-9.8-2.7c-1.9-0.5-3.6-1-5.2-1.1
			c-4.5-0.2-7-1.5-7.8-2.1c-0.4-0.3-1.1-0.1-1.6,0.1c-1.9,0.8-3.8,1.7-5.7,3l-0.1,0c-0.5,0.3-1.2,0.7-1.9-0.1
			c-0.6-0.6,0-1.5,0.1-1.8c0.2-0.3,0.4-0.6,0.7-0.9c1.3-1.2,2.8-2.2,4.5-2.9c-0.7-0.1-1.6,0.1-2.2,0.4c-1.4,0.6-2.7,1.5-4,2.3
			c-0.6,0.4-1.3,0.9-2,1.3c-0.3,0.2-0.7,0.4-1.1,0.5c-0.5,0.1-1-0.1-1.3-0.4c-0.2-0.3-0.3-0.6-0.3-1c0-0.1,0-0.2,0.1-0.3
			c0,0-0.1,0.1-0.2,0.1c-0.1,0.1-0.2,0.2-0.2,0.2c-0.3,0.2-0.6,0.4-1,0.3c-0.2,0-0.4-0.2-0.5-0.3c-0.1-0.1-0.1-0.2-0.1-0.4
			c-0.5,0.3-1.2,0.3-1.7-0.2c-0.9-0.8,0.7-4.1,1.8-5.6c2.6-3.4,5.7-5.6,8.9-6.6c1.8-0.9,8.5,2.1,11.3,3.4c0.7,0.3,1.6,0.7,2.6,0.9
			c0.3,0,0.9,0.1,1.6,0.2c1.8,0.3,4.3,0.6,5,0.7c10,0.7,20.3,1.4,30.6,2c0,0,0,0,0.1,0c10.3,2.4,11.4,5.9,12.6,11.9
			c0.4,2.2,0.1,3.2-1.5,3.8C174.4,163.3,172.6,163.7,170.5,163.7z M120.8,151c0.3,0,0.6,0.1,0.9,0.2c0.8,0.5,3.1,1.7,7.4,2
			c1.7,0.1,3.4,0.6,5.3,1.1c3.6,1,6.9,1.9,9.8,2.7c19.4,5.4,26,7.3,31.5,4.9c1-0.4,1.5-0.9,1.1-3c-1.1-5.8-2.2-9-12-11.3
			c-10.3-0.6-20.6-1.3-30.6-2c0,0,0,0,0,0c-0.7-0.1-3.3-0.5-5-0.7c-0.7-0.1-1.2-0.2-1.6-0.2c-1.1-0.2-2.1-0.6-2.8-0.9
			c-5.5-2.5-9.8-3.9-10.7-3.4c0,0-0.1,0-0.1,0c-3.1,0.9-6.1,3.2-8.6,6.4c-1.4,1.8-2.1,4.2-1.9,4.6c0.2,0.2,0.5,0.3,0.7,0.1
			c1.6-3.4,4.5-6.3,8-7.8c0.2-0.1,0.4,0,0.5,0.2c0.1,0.2,0,0.4-0.2,0.5c-1.6,0.9-3,1.9-4.3,3.2c-1.6,1.5-2.5,2.9-2.8,4.4
			c0,0.1,0,0.1,0,0.1c0.1,0,0.2-0.1,0.4-0.2c0,0,0.1-0.1,0.2-0.2c7.5-6,8.5-5.9,8.9-5.9c0.2,0,0.3,0.2,0.3,0.3
			c0,0.2-0.1,0.3-0.2,0.4c-1.6,0.6-7.2,5.2-7.7,5.9c0,0.2,0,0.3,0.1,0.4c0.1,0.2,0.4,0.2,0.6,0.2c0.3,0,0.5-0.2,0.8-0.4
			c0.7-0.4,1.3-0.8,1.9-1.3c1.3-0.9,2.6-1.8,4.1-2.4c1.1-0.4,2.6-0.8,3.7,0c0.1,0.1,0.2,0.2,0.2,0.4c0,0.1-0.1,0.3-0.2,0.3
			c-2,0.7-3.7,1.8-5.1,3.1c-0.2,0.2-0.4,0.4-0.5,0.7c-0.4,0.7-0.3,0.9-0.2,1c0.3,0.3,0.5,0.3,1,0l0,0c1.9-1.3,3.8-2.3,5.8-3
			C119.8,151.2,120.3,151,120.8,151z M107.3,152.5L107.3,152.5L107.3,152.5z"/>
	</g>
	<g>
		<g>
			<polygon class="st0" points="25.6,121.1 80.7,121.4 99.7,160.4 45.1,160.2 			"/>
			<path class="st1" d="M99.7,160.8C99.7,160.8,99.7,160.8,99.7,160.8l-54.6-0.1c-0.1,0-0.3-0.1-0.3-0.2l-19.5-39.2
				c-0.1-0.1-0.1-0.3,0-0.4c0.1-0.1,0.2-0.2,0.3-0.2c0,0,0,0,0,0l55.1,0.3c0.1,0,0.3,0.1,0.3,0.2l19,39c0.1,0.1,0,0.3,0,0.4
				C99.9,160.7,99.8,160.8,99.7,160.8z M45.3,159.9l53.7,0.1l-18.6-38.3l-54.3-0.3L45.3,159.9z"/>
		</g>
		<g>
			<path class="st2" d="M60.4,137c-1.6-0.2-3.3,0.3-3.9,1.7c-0.6,1.4-0.1,3.2,1,4.3c1.2,1.1,2.9,1.4,4.4,1.1
				c0.8-0.2,1.6-0.6,2.1-1.3c0.3-0.5,0.5-1.1,0.5-1.7C64.5,139.1,63.7,137.3,60.4,137z"/>
			<path class="st1" d="M60.8,144.5c-1.3,0-2.6-0.5-3.5-1.3c-1.3-1.2-1.8-3.2-1.1-4.7c0.6-1.4,2.2-2.1,4.3-1.9l0,0
				c3.7,0.4,4.5,2.6,4.5,4.5c0,0.7-0.2,1.4-0.5,1.9c-0.6,0.9-1.6,1.3-2.4,1.4C61.6,144.5,61.2,144.5,60.8,144.5z M59.8,137.3
				c-0.9,0-2.4,0.2-3,1.5c-0.6,1.2-0.2,2.9,0.9,3.9c1,0.9,2.6,1.3,4.1,1c0.9-0.2,1.5-0.6,1.9-1.1c0.3-0.5,0.4-1.1,0.4-1.5
				c0-2.2-1.2-3.5-3.8-3.7l0,0C60.3,137.3,60.1,137.3,59.8,137.3z"/>
		</g>
	</g>
	<g>
		<path class="st1" d="M158.9,147.3c-0.2,0-0.3-0.1-0.4-0.3c-3.8-11.6-6-19-6-34.9c0-0.2,0.2-0.4,0.4-0.4c0.2,0,0.4,0.2,0.4,0.4
			c0,15.8,2.2,23.1,6,34.6c0.1,0.2,0,0.4-0.2,0.5C159,147.3,158.9,147.3,158.9,147.3z"/>
	</g>
	<g>
		<path class="st1" d="M112.3,138.8c-0.1,0-0.2-0.1-0.3-0.2c-4.9-7.1-3.6-12.3-2.3-17.4c0.6-2.5,1.3-5.1,1.2-8
			c0-0.2,0.2-0.4,0.4-0.4c0.2,0,0.4,0.2,0.4,0.4c0.1,3-0.6,5.6-1.2,8.2c-1.3,5.1-2.5,9.9,2.2,16.8c0.1,0.2,0.1,0.4-0.1,0.5
			C112.5,138.8,112.4,138.8,112.3,138.8z"/>
	</g>
	<g>
		<path class="st1" d="M139.3,38.6C139.2,38.6,139.2,38.6,139.3,38.6c-2.6-2.7-6.1-4.5-9.7-4.8c-0.1,0-0.1-0.1-0.1-0.1
			c0-0.1,0.1-0.1,0.1-0.1c3.7,0.4,7.3,2.1,9.8,4.9C139.4,38.5,139.4,38.5,139.3,38.6C139.3,38.6,139.3,38.6,139.3,38.6z"/>
	</g>
	<g>
		<path class="st1" d="M140.7,37.2C140.6,37.2,140.6,37.2,140.7,37.2c-0.9-0.9-1.8-1.7-2.8-2.3c-0.1,0-0.1-0.1,0-0.2
			c0-0.1,0.1-0.1,0.2,0c1,0.6,2,1.4,2.7,2.3C140.8,37,140.8,37.1,140.7,37.2C140.7,37.2,140.7,37.2,140.7,37.2z"/>
	</g>
	<g>
		<path class="st1" d="M140.8,59.8c0,0-0.1,0-0.1-0.1c-1-1.7-1.9-3.4-2.7-5.2c0-0.1,0-0.1,0.1-0.2c0.1,0,0.1,0,0.2,0.1
			c0.7,1.8,1.6,3.6,2.6,5.2C141,59.6,140.9,59.7,140.8,59.8C140.9,59.8,140.8,59.8,140.8,59.8z"/>
	</g>
	<g>
		<path class="st1" d="M142.8,59.4c0,0-0.1,0-0.1-0.1l-1-2c0-0.1,0-0.1,0.1-0.2c0.1,0,0.1,0,0.2,0.1l1,2
			C142.9,59.3,142.9,59.3,142.8,59.4C142.8,59.4,142.8,59.4,142.8,59.4z"/>
	</g>
	<g>
		<path class="st1" d="M128.4,121.3c-5,0-10-0.5-14.9-1.7c-0.1,0-0.1-0.1-0.1-0.2c0-0.1,0.1-0.1,0.2-0.1c12.3,3.1,25.6,1.2,37.4-0.4
			c0.1,0,0.1,0,0.1,0.1c0,0.1,0,0.1-0.1,0.1C143.9,120.2,136.2,121.3,128.4,121.3z"/>
	</g>
	<g>
		<path class="st1" d="M132.9,130.9c-7.4,0-14.7-0.9-21.8-2.6c-0.1,0-0.1-0.1-0.1-0.2c0-0.1,0.1-0.1,0.2-0.1
			c13.1,3.2,26.9,3.5,40.1,0.8c0.1,0,0.1,0,0.1,0.1c0,0.1,0,0.1-0.1,0.1C145.3,130.3,139.1,130.9,132.9,130.9z"/>
	</g>
	<g>
		<path class="st1" d="M179.1,150.4C179.1,150.4,179.1,150.4,179.1,150.4c-4.7-5.5-12.2-8.2-19.3-7c-0.1,0-0.1,0-0.1-0.1
			c0-0.1,0-0.1,0.1-0.1c7.1-1.2,14.7,1.6,19.4,7.1C179.3,150.3,179.3,150.3,179.1,150.4C179.2,150.4,179.2,150.4,179.1,150.4z"/>
	</g>
	<g>
		<path class="st1" d="M178.3,145.4C178.3,145.4,178.3,145.4,178.3,145.4c-0.8-0.3-1.4-0.9-2-1.4c-0.2-0.2-0.4-0.4-0.6-0.5
			c-1.3-1.1-2.9-1.8-4.6-2c-0.1,0-0.1-0.1-0.1-0.1c0-0.1,0.1-0.1,0.1-0.1c1.7,0.3,3.3,1,4.7,2.1c0.2,0.2,0.4,0.4,0.6,0.6
			c0.6,0.5,1.2,1,1.9,1.3c0.1,0,0.1,0.1,0.1,0.2C178.4,145.4,178.3,145.4,178.3,145.4z"/>
	</g>
</g>
<g>
	<g>
		<polygon class="st2" points="49,37.8 48.9,56.7 82.3,56.6 82.5,37.9 		"/>
		<path class="st1" d="M48.9,57c-0.1,0-0.2,0-0.3-0.1c-0.1-0.1-0.1-0.2-0.1-0.3l0.1-18.9c0-0.2,0.2-0.4,0.4-0.4c0,0,0,0,0,0
			l33.5,0.1c0.1,0,0.2,0,0.3,0.1c0.1,0.1,0.1,0.2,0.1,0.3l-0.2,18.7c0,0.2-0.2,0.4-0.4,0.4L48.9,57C48.9,57,48.9,57,48.9,57z
			 M49.4,38.2l-0.1,18.1L82,56.2l0.2-18L49.4,38.2z"/>
	</g>
	<g>
		<g>
			<path class="st1" d="M57.7,43.5c-0.1,0-0.1-0.1-0.1-0.1c0-0.1,0.1-0.1,0.1-0.1l15.8-0.1c0,0,0,0,0,0c0.1,0,0.1,0.1,0.1,0.1
				c0,0.1-0.1,0.1-0.1,0.1L57.7,43.5C57.7,43.5,57.7,43.5,57.7,43.5z"/>
		</g>
		<g>
			<path class="st1" d="M57.9,51.3c-0.1,0-0.1-0.1-0.1-0.1c0-0.1,0.1-0.1,0.1-0.1L73.6,51c0,0,0,0,0,0c0.1,0,0.1,0.1,0.1,0.1
				c0,0.1-0.1,0.1-0.1,0.1L57.9,51.3C57.9,51.3,57.9,51.3,57.9,51.3z"/>
		</g>
		<g>
			<path class="st1" d="M60.1,47.4c-0.1,0-0.1-0.1-0.1-0.1s0.1-0.1,0.1-0.1l11.2,0c0,0,0,0,0,0c0.1,0,0.1,0.1,0.1,0.1
				c0,0.1-0.1,0.1-0.1,0.1L60.1,47.4C60.1,47.4,60.1,47.4,60.1,47.4z"/>
		</g>
	</g>
	<g>
		<path class="st1" d="M93.1,63.2c-0.2,0-0.4-0.2-0.4-0.4V47.5l-10.4,0.1c-0.2,0-0.4-0.2-0.4-0.4c0-0.2,0.2-0.4,0.4-0.4l10.8-0.1
			c0.1,0,0.2,0,0.3,0.1c0.1,0.1,0.1,0.2,0.1,0.3v15.7C93.5,63,93.3,63.2,93.1,63.2z"/>
	</g>
	<g>
		<rect x="91.3" y="61" class="st0" width="3.8" height="3.5"/>
		<path class="st1" d="M95,64.9h-3.8c-0.2,0-0.4-0.2-0.4-0.4V61c0-0.2,0.2-0.4,0.4-0.4H95c0.2,0,0.4,0.2,0.4,0.4v3.5
			C95.4,64.7,95.2,64.9,95,64.9z M91.6,64.2h3v-2.8h-3V64.2z"/>
	</g>
</g>
<g>
	
		<rect x="32" y="153.8" transform="matrix(6.123234e-17 -1 1 6.123234e-17 -121.696 189.4277)" class="st0" width="3.8" height="3.5"/>
	<path class="st1" d="M35.6,157.8h-3.5c-0.2,0-0.4-0.2-0.4-0.4v-3.8c0-0.2,0.2-0.4,0.4-0.4h3.5c0.2,0,0.4,0.2,0.4,0.4v3.8
		C36,157.6,35.8,157.8,35.6,157.8z M32.5,157.1h2.8v-3h-2.8V157.1z"/>
</g>
<g>
	<g>
		<polygon class="st2" points="235.3,163.8 235.4,144.9 202,145 201.8,163.7 		"/>
		<path class="st1" d="M235.3,164.2C235.3,164.2,235.3,164.2,235.3,164.2l-33.5-0.1c-0.1,0-0.2,0-0.3-0.1c-0.1-0.1-0.1-0.2-0.1-0.3
			l0.2-18.7c0-0.2,0.2-0.4,0.4-0.4l33.5-0.1c0,0,0,0,0,0c0.1,0,0.2,0,0.3,0.1c0.1,0.1,0.1,0.2,0.1,0.3l-0.1,18.9
			C235.6,164,235.5,164.2,235.3,164.2z M202.2,163.3l32.7,0.1l0.1-18.1l-32.7,0.1L202.2,163.3z"/>
	</g>
	<g>
		<g>
			<path class="st1" d="M210.8,158.4c-0.1,0-0.1-0.1-0.1-0.1c0-0.1,0.1-0.1,0.1-0.1l15.8-0.1c0,0,0,0,0,0c0.1,0,0.1,0.1,0.1,0.1
				c0,0.1-0.1,0.1-0.1,0.1L210.8,158.4C210.8,158.4,210.8,158.4,210.8,158.4z"/>
		</g>
		<g>
			<path class="st1" d="M210.6,150.6c-0.1,0-0.1-0.1-0.1-0.1c0-0.1,0.1-0.1,0.1-0.1l15.8-0.1c0,0,0,0,0,0c0.1,0,0.1,0.1,0.1,0.1
				c0,0.1-0.1,0.1-0.1,0.1L210.6,150.6C210.6,150.6,210.6,150.6,210.6,150.6z"/>
		</g>
		<g>
			<path class="st1" d="M213,154.4c-0.1,0-0.1-0.1-0.1-0.1c0-0.1,0.1-0.1,0.1-0.1l11.2,0c0,0,0,0,0,0c0.1,0,0.1,0.1,0.1,0.1
				c0,0.1-0.1,0.1-0.1,0.1L213,154.4C213,154.4,213,154.4,213,154.4z"/>
		</g>
	</g>
	<g>
		<path class="st1" d="M191.2,154.8c-0.1,0-0.2,0-0.3-0.1c-0.1-0.1-0.1-0.2-0.1-0.3v-15.7c0-0.2,0.2-0.4,0.4-0.4
			c0.2,0,0.4,0.2,0.4,0.4v15.3l10.4-0.1c0.2,0,0.4,0.2,0.4,0.4c0,0.2-0.2,0.4-0.4,0.4L191.2,154.8
			C191.2,154.8,191.2,154.8,191.2,154.8z"/>
	</g>
	<g>
		
			<rect x="189.3" y="137.1" transform="matrix(-1 -1.224647e-16 1.224647e-16 -1 382.3184 277.6069)" class="st0" width="3.8" height="3.5"/>
		<path class="st1" d="M193,140.9h-3.8c-0.2,0-0.4-0.2-0.4-0.4v-3.5c0-0.2,0.2-0.4,0.4-0.4h3.8c0.2,0,0.4,0.2,0.4,0.4v3.5
			C193.4,140.8,193.2,140.9,193,140.9z M189.7,140.2h3v-2.8h-3V140.2z"/>
	</g>
</g>
<g>
	
		<rect x="23.3" y="142.8" transform="matrix(-1.836970e-16 1 -1 -1.836970e-16 169.7253 119.3383)" class="st2" width="3.8" height="3.5"/>
	<path class="st1" d="M26.9,146.8h-3.5c-0.2,0-0.4-0.2-0.4-0.4v-3.8c0-0.2,0.2-0.4,0.4-0.4h3.5c0.2,0,0.4,0.2,0.4,0.4v3.8
		C27.3,146.6,27.2,146.8,26.9,146.8z M23.8,146h2.8v-3h-2.8V146z"/>
</g>
<g>
	<g>
		<path class="st2" d="M257,74c0-21.2,0.1-46.2,0.1-68.8c-35,0-68.3-0.3-98.6-0.3c0.3,22.6,0.5,45.3,0.5,68.9
			C188,73.8,226.3,74,257,74z"/>
		<path class="st1" d="M257,74.3c-15.6,0-33.3-0.1-50.4-0.1c-17.1,0-33.3-0.1-47.6-0.1c-0.2,0-0.4-0.2-0.4-0.4
			c0-23.4-0.3-46.2-0.5-68.3l0-0.6c0-0.1,0-0.2,0.1-0.3c0.1-0.1,0.2-0.1,0.3-0.1c14.6,0,29.8,0.1,45.8,0.1
			c17.1,0.1,34.7,0.1,52.8,0.1c0.2,0,0.4,0.2,0.4,0.4c0,11.5,0,23.7,0,35.5c0,11.8,0,22.9,0,33.3C257.4,74.2,257.2,74.3,257,74.3z
			 M159.4,73.4c14.2,0,30.2,0,47.2,0.1c17,0,34.5,0.1,50,0.1c0-10.3,0-21.3,0-32.9c0-11.7,0-23.7,0-35.1c-18,0-35.5-0.1-52.4-0.1
			c-15.9-0.1-30.9-0.1-45.4-0.1l0,0.3C159.1,27.5,159.4,50.2,159.4,73.4z"/>
	</g>
	<g>
		<path class="st0" d="M239.3,0.7c-14.2-0.1-28.4-0.2-42.6-0.3c-12-0.1-26,0.1-38,0c-0.2,3.2-0.2,5.8,0,7.9c30.9,0,67.3-0.4,98.4,0
			c0.2-2.1,0-5,0-7.5C251.8,0.8,244.5,0.7,239.3,0.7z"/>
		<path class="st1" d="M158.6,8.7c-0.2,0-0.4-0.2-0.4-0.3c-0.2-2-0.2-4.5,0-8c0-0.2,0.2-0.4,0.4-0.4c0,0,0,0,0,0
			c6.4,0.1,13.4,0,20.2,0c6,0,12.2-0.1,17.8,0c13.2,0.1,28.1,0.2,42.6,0.3l0,0c2.1,0,4.6,0,7.2,0c3.7,0,7.5,0.1,10.6,0.1
			c0.2,0,0.4,0.2,0.4,0.4c0,0.7,0,1.5,0,2.3c0,1.8,0.1,3.8-0.1,5.2c0,0.2-0.2,0.3-0.4,0.3c0,0,0,0,0,0c-20.9-0.3-44.2-0.2-66.7-0.1
			C179.2,8.6,168.7,8.7,158.6,8.7z M159,0.8c-0.1,3-0.1,5.3,0,7.2c10,0,20.4,0,31.3-0.1c22.4-0.1,45.5-0.2,66.4,0.1
			c0.1-1.4,0.1-3.1,0-4.8c0-0.7,0-1.3,0-1.9c-3,0-6.7,0-10.3-0.1c-2.6,0-5,0-7.2,0c-14.6-0.1-29.5-0.2-42.7-0.3
			c-5.6,0-11.8,0-17.8,0C172.1,0.8,165.3,0.9,159,0.8z"/>
	</g>
	<g>
		<g>
			<path class="st1" d="M249.5,3.5c-0.3-0.1-0.7,0.1-0.9,0.4c-0.1,0.2-0.2,0.5,0,0.8c0.1,0.2,0.4,0.4,0.7,0.4c0.4,0,0.8-0.4,0.8-0.8
				C250.1,4,249.8,3.6,249.5,3.5z"/>
		</g>
		<g>
			<path class="st1" d="M241.7,3.5c-0.3-0.1-0.7,0.1-0.9,0.4c-0.1,0.2-0.2,0.5,0,0.8c0.1,0.2,0.4,0.4,0.7,0.4c0.4,0,0.8-0.4,0.8-0.8
				C242.3,4,242,3.6,241.7,3.5z"/>
		</g>
		<g>
			<path class="st1" d="M233.5,3.5c-0.3-0.1-0.7,0.1-0.9,0.4c-0.1,0.2-0.2,0.5,0,0.8c0.1,0.2,0.4,0.4,0.7,0.4c0.4,0,0.8-0.4,0.8-0.8
				C234.1,4,233.8,3.6,233.5,3.5z"/>
		</g>
	</g>
	<g>
		<path class="st1" d="M206.7,31.2h-34.3c-0.2,0-0.4-0.2-0.4-0.4V17.6c0-0.2,0.2-0.4,0.4-0.4h34.3c0.2,0,0.4,0.2,0.4,0.4v13.2
			C207,31,206.9,31.2,206.7,31.2z M172.7,30.4h33.6V18h-33.6V30.4z"/>
	</g>
	<g>
		<path class="st1" d="M190.1,50.2h-17.8c-0.2,0-0.4-0.2-0.4-0.4V39.7c0-0.2,0.2-0.4,0.4-0.4h17.8c0.2,0,0.4,0.2,0.4,0.4v10.1
			C190.5,50,190.3,50.2,190.1,50.2z M172.7,49.4h17v-9.4h-17V49.4z"/>
	</g>
	<g>
		<path class="st1" d="M218.4,50.2h-17.8c-0.2,0-0.4-0.2-0.4-0.4V39.7c0-0.2,0.2-0.4,0.4-0.4h17.8c0.2,0,0.4,0.2,0.4,0.4v10.1
			C218.8,50,218.6,50.2,218.4,50.2z M201,49.4h17v-9.4h-17V49.4z"/>
	</g>
	<g>
		<path class="st1" d="M246.7,50.2H229c-0.2,0-0.4-0.2-0.4-0.4V39.7c0-0.2,0.2-0.4,0.4-0.4h17.8c0.2,0,0.4,0.2,0.4,0.4v10.1
			C247.1,50,246.9,50.2,246.7,50.2z M229.3,49.4h17v-9.4h-17V49.4z"/>
	</g>
	<g>
		<path class="st1" d="M237.8,20.3C237.8,20.3,237.8,20.3,237.8,20.3l-20.5-0.1c-0.1,0-0.1-0.1-0.1-0.1c0-0.1,0.1-0.1,0.1-0.1
			c0,0,0,0,0,0l20.5,0.1c0.1,0,0.1,0.1,0.1,0.1C238,20.3,237.9,20.3,237.8,20.3z"/>
	</g>
	<g>
		<path class="st1" d="M233.8,24.4C233.8,24.4,233.8,24.4,233.8,24.4l-16.5-0.1c-0.1,0-0.1-0.1-0.1-0.1c0-0.1,0.1-0.1,0.1-0.1
			c0,0,0,0,0,0l16.5,0.1c0.1,0,0.1,0.1,0.1,0.1C234,24.4,233.9,24.4,233.8,24.4z"/>
	</g>
	<g>
		<path class="st1" d="M237.8,28.5C237.8,28.5,237.8,28.5,237.8,28.5l-20.5-0.1c-0.1,0-0.1-0.1-0.1-0.1c0-0.1,0.1-0.1,0.1-0.1
			c0,0,0,0,0,0l20.5,0.1c0.1,0,0.1,0.1,0.1,0.1C238,28.4,237.9,28.5,237.8,28.5z"/>
	</g>
	<g>
		<g>
			<path class="st1" d="M188.4,56.6C188.4,56.6,188.4,56.6,188.4,56.6L174,56.5c-0.1,0-0.1-0.1-0.1-0.1c0-0.1,0.1-0.1,0.1-0.1
				l14.4,0.1c0.1,0,0.1,0.1,0.1,0.1C188.5,56.5,188.5,56.6,188.4,56.6z"/>
		</g>
		<g>
			<path class="st1" d="M187,60.7C187,60.7,187,60.7,187,60.7l-11.6-0.1c-0.1,0-0.1-0.1-0.1-0.1c0-0.1,0.1-0.1,0.1-0.1c0,0,0,0,0,0
				l11.6,0.1c0.1,0,0.1,0.1,0.1,0.1C187.1,60.6,187.1,60.7,187,60.7z"/>
		</g>
	</g>
	<g>
		<g>
			<path class="st1" d="M216.7,56.6C216.7,56.6,216.7,56.6,216.7,56.6l-14.4-0.1c-0.1,0-0.1-0.1-0.1-0.1c0-0.1,0.1-0.1,0.1-0.1
				l14.4,0.1c0.1,0,0.1,0.1,0.1,0.1C216.9,56.5,216.8,56.6,216.7,56.6z"/>
		</g>
		<g>
			<path class="st1" d="M215.3,60.7C215.3,60.7,215.3,60.7,215.3,60.7l-11.6-0.1c-0.1,0-0.1-0.1-0.1-0.1c0-0.1,0.1-0.1,0.1-0.1
				l11.6,0.1c0.1,0,0.1,0.1,0.1,0.1C215.4,60.6,215.4,60.7,215.3,60.7z"/>
		</g>
	</g>
	<g>
		<g>
			<path class="st1" d="M245,56.6C245,56.6,245,56.6,245,56.6l-14.4-0.1c-0.1,0-0.1-0.1-0.1-0.1c0-0.1,0.1-0.1,0.1-0.1l14.4,0.1
				c0.1,0,0.1,0.1,0.1,0.1C245.2,56.5,245.1,56.6,245,56.6z"/>
		</g>
		<g>
			<path class="st1" d="M243.6,60.7C243.6,60.7,243.6,60.7,243.6,60.7l-11.6-0.1c-0.1,0-0.1-0.1-0.1-0.1c0-0.1,0.1-0.1,0.1-0.1
				l11.6,0.1c0.1,0,0.1,0.1,0.1,0.1C243.8,60.6,243.7,60.7,243.6,60.7z"/>
		</g>
	</g>
</g>
<g>
	<g>
		<g>
			<path class="st2" d="M73.1,73.4H12.3c-6.6,0-11.9,5.3-11.9,11.9v0c0,6.6,5.3,11.9,11.9,11.9H59c0.6,2.8,2.3,5.5,4.8,7
				c1.3,0.8,2.7,1.3,3.9,2.1c1.2,0.8,2.8,2.3,3.1,3.8c0.6,2.4,5.1,3.1,6,8.2c0.6-1.6,1.1-3.4,0.4-4.9c-0.5-1-1.4-1.7-1.7-2.7
				c-0.5-1.5,0.4-3.3-0.1-4.7c-0.5-1.3-1.9-1.9-2.8-2.9c-1.1-1.2-1.5-2.9-1.5-4.5c0-0.4,0-0.8,0.1-1.2h1.8c6.6,0,11.9-5.3,11.9-11.9
				v0C85,78.7,79.7,73.4,73.1,73.4z"/>
			<path class="st1" d="M76.8,118.5C76.8,118.5,76.8,118.5,76.8,118.5c-0.2,0-0.3-0.1-0.4-0.3c-0.5-2.9-2.3-4.2-3.8-5.5
				c-1.1-0.9-2-1.6-2.3-2.7c-0.3-1.3-1.8-2.7-3-3.5c-0.6-0.4-1.4-0.8-2-1.1c-0.6-0.3-1.2-0.6-1.8-1c-2.4-1.5-4.2-4-4.9-6.9H12.3
				C5.5,97.6,0,92,0,85.3C0,78.5,5.5,73,12.3,73h60.8c6.8,0,12.3,5.5,12.3,12.3c0,6.8-5.5,12.3-12.3,12.3h-1.5c0,0.3,0,0.6-0.1,0.8
				c0,1.7,0.4,3.2,1.4,4.2c0.3,0.3,0.7,0.6,1,0.9c0.7,0.6,1.5,1.2,1.8,2.1c0.3,0.8,0.2,1.7,0.1,2.6c-0.1,0.8-0.2,1.5,0,2.2
				c0.2,0.5,0.5,0.9,0.9,1.4c0.3,0.4,0.6,0.8,0.8,1.3c0.8,1.6,0.2,3.5-0.4,5.2C77.1,118.4,77,118.5,76.8,118.5z M12.3,73.7
				c-6.4,0-11.5,5.2-11.5,11.5c0,6.4,5.2,11.5,11.5,11.5H59c0.2,0,0.3,0.1,0.4,0.3c0.6,2.8,2.3,5.3,4.7,6.7c0.6,0.3,1.2,0.6,1.8,0.9
				c0.7,0.3,1.4,0.7,2.1,1.1c1.4,0.9,2.9,2.5,3.3,4c0.2,0.8,1,1.5,2,2.3c1.3,1.1,2.9,2.3,3.7,4.6c0.3-1.2,0.5-2.4,0-3.5
				c-0.2-0.4-0.5-0.7-0.7-1.1c-0.4-0.5-0.8-1-1-1.6c-0.3-0.8-0.2-1.7-0.1-2.5c0.1-0.8,0.2-1.6-0.1-2.2c-0.3-0.7-0.9-1.2-1.6-1.8
				c-0.4-0.3-0.8-0.6-1.1-1c-1.1-1.1-1.6-2.8-1.6-4.7c0-0.4,0-0.8,0.1-1.2c0-0.2,0.2-0.3,0.4-0.3h1.8c6.4,0,11.5-5.2,11.5-11.5
				c0-6.4-5.2-11.5-11.5-11.5H12.3z"/>
		</g>
	</g>
	<g>
		<path class="st0" d="M15.8,79.2c0.5-0.2,1.4,3.7,1.4,3.7s3.6-0.3,3.9,0.3c0.3,0.6-3,2.7-3,2.7s1.3,3.9,0.9,4.2
			c-0.6,0.3-3.3-2.2-3.3-2.2s-2.8,2.4-3.3,2.2c-0.2-0.1,1-4.1,1-4.1s-3.1-2-2.9-2.5c0.2-0.5,3.8-0.4,3.8-0.4S15.1,79.5,15.8,79.2z"
			/>
		<path class="st1" d="M19,90.5c-0.8,0-2.1-1.1-3.2-2.1c-2.8,2.3-3.3,2.1-3.5,2c-0.3-0.2-0.5-0.3,0.7-4.2c-3.1-2-2.9-2.6-2.8-2.8
			c0.1-0.2,0.2-0.7,3.8-0.7c0.3-1.4,0.9-3.5,1.6-3.8c0.1-0.1,0.3-0.1,0.4,0c0.5,0.3,1.1,2.1,1.5,3.6c2.4-0.2,3.7,0,4,0.5
			c0.1,0.2,0.5,0.9-2.8,3c1.3,4,0.9,4.2,0.6,4.3C19.2,90.5,19.1,90.5,19,90.5z M15.8,87.5c0.1,0,0.2,0,0.3,0.1
			c1.1,1,2.3,1.9,2.8,2.1c0-0.6-0.5-2.3-1-3.7c-0.1-0.2,0-0.3,0.2-0.4c1.3-0.8,2.5-1.8,2.8-2.2c-0.4-0.2-1.9-0.2-3.5-0.1
			c-0.2,0-0.4-0.1-0.4-0.3c-0.3-1.3-0.8-2.8-1-3.3c-0.3,0.5-0.8,2.1-1.1,3.5c0,0.2-0.2,0.3-0.4,0.3c0,0,0,0,0,0
			c-1.3,0-2.8,0-3.3,0.2c0.4,0.4,1.6,1.3,2.7,2c0.1,0.1,0.2,0.3,0.2,0.4c-0.4,1.3-0.8,2.7-1,3.4c0.6-0.3,1.7-1.2,2.7-2
			C15.6,87.5,15.7,87.5,15.8,87.5z M20.8,83.4L20.8,83.4L20.8,83.4z M15.8,79.2L15.8,79.2L15.8,79.2z"/>
	</g>
	<g>
		<path class="st0" d="M33.9,79.2c0.5-0.2,1.4,3.7,1.4,3.7s3.6-0.3,3.9,0.3c0.3,0.6-3,2.7-3,2.7s1.3,3.9,0.9,4.2
			c-0.6,0.3-3.3-2.2-3.3-2.2s-2.8,2.4-3.3,2.2c-0.2-0.1,1-4.1,1-4.1s-3.1-2-2.9-2.5c0.2-0.5,3.8-0.4,3.8-0.4S33.2,79.5,33.9,79.2z"
			/>
		<path class="st1" d="M37.1,90.5c-0.8,0-2.1-1.1-3.2-2.1c-2.8,2.3-3.3,2.1-3.5,2c-0.3-0.2-0.5-0.3,0.7-4.2c-3.1-2-2.9-2.6-2.8-2.8
			c0.1-0.2,0.2-0.7,3.8-0.7c0.3-1.4,0.9-3.5,1.6-3.8c0.1-0.1,0.3-0.1,0.4,0c0.5,0.3,1.1,2.1,1.5,3.6c2.4-0.2,3.7,0,4,0.5
			c0.1,0.2,0.5,0.9-2.8,3c1.3,4,0.9,4.2,0.6,4.3C37.3,90.5,37.2,90.5,37.1,90.5z M33.9,87.5c0.1,0,0.2,0,0.3,0.1
			c1.1,1,2.3,1.9,2.8,2.1c0-0.6-0.5-2.3-1-3.7c-0.1-0.2,0-0.3,0.2-0.4c1.3-0.8,2.5-1.8,2.8-2.2c-0.4-0.2-1.9-0.2-3.5-0.1
			c-0.2,0-0.4-0.1-0.4-0.3c-0.3-1.3-0.8-2.8-1-3.3c-0.3,0.5-0.8,2.1-1.1,3.5c0,0.2-0.2,0.3-0.4,0.3c0,0,0,0,0,0
			c-1.3,0-2.8,0-3.3,0.2c0.4,0.4,1.6,1.3,2.7,2c0.1,0.1,0.2,0.3,0.2,0.4c-0.4,1.3-0.8,2.7-1,3.4c0.6-0.3,1.7-1.2,2.7-2
			C33.7,87.5,33.8,87.5,33.9,87.5z M33.9,79.2L33.9,79.2L33.9,79.2z"/>
	</g>
	<g>
		<path class="st0" d="M52,79.2c0.5-0.2,1.4,3.7,1.4,3.7s3.6-0.3,3.9,0.3c0.3,0.6-3,2.7-3,2.7s1.3,3.9,0.9,4.2
			c-0.6,0.3-3.3-2.2-3.3-2.2s-2.8,2.4-3.3,2.2c-0.2-0.1,1-4.1,1-4.1s-3.1-2-2.9-2.5c0.2-0.5,3.8-0.4,3.8-0.4S51.3,79.5,52,79.2z"/>
		<path class="st1" d="M55.2,90.5c-0.8,0-2.1-1.1-3.2-2.1c-2.8,2.3-3.3,2.1-3.5,2c-0.3-0.2-0.5-0.3,0.7-4.2c-3.1-2-2.9-2.6-2.8-2.8
			c0.1-0.2,0.2-0.7,3.8-0.7c0.3-1.4,0.9-3.5,1.6-3.8c0.1-0.1,0.3-0.1,0.4,0c0.5,0.3,1.1,2.1,1.5,3.6c2.4-0.2,3.7,0,4,0.5
			c0.1,0.2,0.5,0.9-2.8,3c1.3,4,0.9,4.2,0.6,4.3C55.4,90.5,55.3,90.5,55.2,90.5z M48.7,89.7L48.7,89.7L48.7,89.7z M52,87.5
			c0.1,0,0.2,0,0.3,0.1c1.1,1,2.3,1.9,2.8,2.1c0-0.6-0.5-2.3-1-3.7c-0.1-0.2,0-0.3,0.2-0.4c1.3-0.8,2.5-1.8,2.8-2.2
			c-0.4-0.2-1.9-0.2-3.5-0.1c-0.2,0-0.4-0.1-0.4-0.3c-0.3-1.3-0.8-2.8-1-3.3c-0.3,0.5-0.8,2.1-1.1,3.5c0,0.2-0.2,0.3-0.4,0.3
			c0,0,0,0,0,0c-1.3,0-2.8,0-3.3,0.2c0.4,0.4,1.6,1.3,2.7,2c0.1,0.1,0.2,0.3,0.2,0.4c-0.4,1.3-0.8,2.7-1,3.4c0.6-0.3,1.7-1.2,2.7-2
			C51.8,87.5,51.9,87.5,52,87.5z M52,79.2L52,79.2L52,79.2z"/>
	</g>
	<g>
		<path class="st0" d="M70,79.2c0.5-0.2,1.4,3.7,1.4,3.7s3.6-0.3,3.9,0.3c0.3,0.6-3,2.7-3,2.7s1.3,3.9,0.9,4.2
			c-0.6,0.3-3.3-2.2-3.3-2.2s-2.8,2.4-3.3,2.2c-0.2-0.1,1-4.1,1-4.1s-3.1-2-2.9-2.5c0.2-0.5,3.8-0.4,3.8-0.4S69.4,79.5,70,79.2z"/>
		<path class="st1" d="M73.2,90.5c-0.8,0-2.1-1.1-3.2-2.1c-2.8,2.3-3.3,2.1-3.5,2c-0.3-0.2-0.5-0.3,0.7-4.2c-3.1-2-2.9-2.6-2.8-2.8
			c0.1-0.2,0.3-0.7,3.8-0.7c0.3-1.4,0.9-3.5,1.6-3.8c0.1-0.1,0.3-0.1,0.4,0c0.5,0.3,1.1,2.1,1.5,3.6c2.4-0.2,3.7,0,4,0.5
			c0.1,0.2,0.5,0.9-2.8,3c1.3,4,0.9,4.2,0.6,4.3C73.4,90.5,73.4,90.5,73.2,90.5z M66.8,89.7L66.8,89.7L66.8,89.7z M70,87.5
			c0.1,0,0.2,0,0.3,0.1c1.1,1,2.3,1.9,2.8,2.1c0-0.6-0.5-2.3-1-3.7c-0.1-0.2,0-0.3,0.2-0.4c1.3-0.8,2.5-1.8,2.8-2.2
			c-0.4-0.2-1.9-0.2-3.5-0.1c-0.2,0-0.4-0.1-0.4-0.3c-0.3-1.3-0.8-2.8-1-3.3c-0.3,0.5-0.8,2.1-1.1,3.5c0,0.2-0.2,0.3-0.4,0.3
			c0,0,0,0,0,0c-1.3,0-2.8,0-3.3,0.2c0.4,0.4,1.6,1.3,2.7,2c0.1,0.1,0.2,0.3,0.2,0.4c-0.4,1.3-0.8,2.7-1,3.4c0.6-0.3,1.7-1.2,2.7-2
			C69.9,87.5,70,87.5,70,87.5z M70,79.2L70,79.2L70,79.2z"/>
	</g>
</g>
<g>
	<path class="st0" d="M192.7,109.7c0.8-0.3,2.2,5.7,2.2,5.7s5.6-0.4,6,0.5c0.5,1-4.6,4.1-4.6,4.1s2.1,6.1,1.4,6.4
		c-1,0.5-5.1-3.4-5.1-3.4s-4.4,3.7-5.1,3.4c-0.4-0.2,1.6-6.3,1.6-6.3s-4.8-3.1-4.5-3.9c0.3-0.7,5.8-0.6,5.8-0.6
		S191.7,110.2,192.7,109.7z"/>
	<path class="st1" d="M197.6,126.9c-1.2,0-3.7-2.1-4.9-3.3c-2.9,2.4-4.7,3.5-5.3,3.2c-0.3-0.2-0.7-0.3,1.3-6.4
		c-0.4-0.3-1.3-0.9-2.2-1.5c-2.1-1.6-2.5-2.2-2.3-2.7c0.2-0.6,2.2-0.9,5.9-0.9c0.4-1.6,1.3-5.5,2.4-6l0,0c0.1-0.1,0.3-0.1,0.5,0
		c0.8,0.4,1.8,3.9,2.2,5.6c2.2-0.2,5.6-0.2,6.1,0.7c0.5,1-2.1,3-4.5,4.5c2.1,6.1,1.4,6.5,1.1,6.6
		C197.9,126.9,197.8,126.9,197.6,126.9z M192.7,122.7c0.1,0,0.2,0,0.3,0.1c1.9,1.9,4,3.4,4.6,3.4c0,0,0,0,0,0c0.1-0.7-0.7-3.6-1.5-6
		c-0.1-0.2,0-0.3,0.2-0.4c2.4-1.5,4.4-3.2,4.4-3.7c-0.3-0.3-2.9-0.5-5.7-0.2c-0.2,0-0.4-0.1-0.4-0.3c-0.5-2.3-1.4-4.9-1.8-5.4
		c-0.5,0.5-1.4,3.2-1.9,5.7c0,0.2-0.2,0.3-0.4,0.3c0,0,0,0,0,0c-2.3,0-4.9,0.1-5.4,0.4c0.3,0.6,2.4,2.2,4.3,3.4
		c0.1,0.1,0.2,0.3,0.2,0.4c-0.7,2.3-1.5,4.8-1.6,5.7c0.8-0.3,2.8-1.8,4.5-3.3C192.5,122.8,192.6,122.7,192.7,122.7z M185,116.6
		L185,116.6L185,116.6z M192.9,110.1C192.9,110.1,192.9,110.1,192.9,110.1C192.9,110.1,192.9,110.1,192.9,110.1L192.9,110.1z"/>
</g>
<g>
	<g>
		<path class="st2" d="M233.1,90.8c0.9-3.4-4.9-13.8-6.7-15.1c-1.1-0.7-3.1,0.6-2.7,2c-0.7-1.3-2.2-1.7-3-1.5
			c-0.8,0.2-1.1,0.8-1.2,1.6c-0.8-0.6-1.7-1.2-2.6-0.9c-0.9,0.3-1.4,1.4-1.5,2.4c-5.1-9.4-6.2-12.1-7.9-11.2
			c-2.8,1.4,2.9,10.2,7,19.6c0.1,0.3,0.6,1.5,0.6,1.8c-0.5-0.2-2.1-1.7-7.5-1.4c-1.6,0.1-3.9,1.8-3.1,2.3c1.6,0.9,2.6,0.8,4.5,1.4
			c3.5,1.1,8.3,6.1,9.9,6.6C221.2,99.6,230.7,99.8,233.1,90.8z"/>
		<path class="st1" d="M222.4,99.3c-1.6,0-2.9-0.3-3.6-0.7c-0.7-0.2-1.8-1.1-3.3-2.3c-2-1.6-4.5-3.6-6.6-4.3
			c-0.6-0.2-1.2-0.3-1.7-0.4c-1-0.2-1.8-0.4-2.9-1c-0.3-0.2-0.4-0.4-0.3-0.8c0.2-0.9,2.2-2.1,3.6-2.2c3.9-0.2,5.9,0.5,6.9,1
			c-0.1-0.4-0.3-0.7-0.3-0.9c-1.1-2.6-2.4-5.1-3.6-7.5c-3.3-6.6-5.6-11.3-3.3-12.5c1.2-0.6,2,0.3,2.7,1.3c0.9,1.2,2,3.4,3.8,6.6
			c0.4,0.8,0.9,1.7,1.4,2.6c0.3-0.7,0.8-1.4,1.5-1.7c0.9-0.3,1.8,0.2,2.5,0.6c0.2-0.6,0.5-1.1,1.3-1.3c0.7-0.2,2,0,2.8,0.9
			c0.2-0.4,0.5-0.8,0.9-1.1c0.8-0.6,1.7-0.6,2.3-0.2c1.9,1.3,7.9,11.8,6.9,15.5c0,0,0,0,0,0c-1.2,4.5-4.2,6.6-6.4,7.5
			C225.4,99.1,223.8,99.3,222.4,99.3z M204.8,90c1,0.6,1.7,0.7,2.7,0.9c0.5,0.1,1.1,0.2,1.7,0.4c2.2,0.7,4.7,2.7,6.8,4.4
			c1.3,1,2.5,2,3.1,2.2c0,0,0.1,0,0.1,0c1.2,0.7,4.6,1,7.7-0.2c2.1-0.9,4.8-2.8,6-7l0,0c0.8-3.1-4.7-13.4-6.6-14.7
			c-0.4-0.3-1-0.1-1.5,0.2c-0.4,0.3-0.8,0.8-0.7,1.4c0,0.2,0,0.4-0.2,0.4c-0.2,0.1-0.4,0-0.5-0.2c-0.6-1.2-2-1.5-2.6-1.3
			c-0.5,0.2-0.8,0.5-0.9,1.3c0,0.1-0.1,0.2-0.2,0.3c-0.1,0-0.3,0-0.4,0c-0.8-0.6-1.6-1-2.2-0.8c-0.7,0.2-1.2,1.2-1.2,2
			c0,0.2-0.1,0.3-0.3,0.3c-0.2,0-0.3,0-0.4-0.2c-0.7-1.3-1.3-2.5-1.9-3.5c-3.5-6.4-4.4-8.1-5.5-7.6c-1.7,0.9,0.9,6,3.6,11.5
			c1.2,2.4,2.5,4.9,3.6,7.6c0.1,0.1,0.6,1.6,0.6,2c0,0.1-0.1,0.2-0.2,0.3c-0.1,0.1-0.2,0.1-0.4,0c-0.1,0-0.2-0.1-0.3-0.2
			c-0.7-0.4-2.4-1.5-7-1.2C206.4,88.5,204.9,89.6,204.8,90z M233.1,90.8L233.1,90.8L233.1,90.8z"/>
	</g>
	<g>
		<path class="st1" d="M216.5,81.8c-0.1,0-0.3-0.1-0.3-0.2l-1.4-2.5c-0.1-0.2,0-0.4,0.2-0.5c0.2-0.1,0.4,0,0.5,0.2l1.4,2.5
			c0.1,0.2,0,0.4-0.2,0.5C216.6,81.8,216.6,81.8,216.5,81.8z"/>
	</g>
	<g>
		<path class="st1" d="M220.2,79.7c-0.2,0-0.3-0.1-0.4-0.2c-0.2-0.5-0.6-1.2-1-1.5c-0.2-0.1-0.2-0.4,0-0.5c0.1-0.2,0.4-0.2,0.5,0
			c0.5,0.4,1,1.3,1.2,1.8c0.1,0.2,0,0.4-0.2,0.5C220.3,79.7,220.3,79.7,220.2,79.7z"/>
	</g>
</g>
</svg>
