<?xml version="1.0" encoding="utf-8"?>
<!-- Generator: Adobe Illustrator 27.4.0, SVG Export Plug-In . SVG Version: 6.00 Build 0)  -->
<!DOCTYPE svg PUBLIC "-//W3C//DTD SVG 1.1//EN" "http://www.w3.org/Graphics/SVG/1.1/DTD/svg11.dtd" [
	<!ENTITY ns_extend "http://ns.adobe.com/Extensibility/1.0/">
	<!ENTITY ns_ai "http://ns.adobe.com/AdobeIllustrator/10.0/">
	<!ENTITY ns_graphs "http://ns.adobe.com/Graphs/1.0/">
	<!ENTITY ns_vars "http://ns.adobe.com/Variables/1.0/">
	<!ENTITY ns_imrep "http://ns.adobe.com/ImageReplacement/1.0/">
	<!ENTITY ns_sfw "http://ns.adobe.com/SaveForWeb/1.0/">
	<!ENTITY ns_custom "http://ns.adobe.com/GenericCustomNamespace/1.0/">
	<!ENTITY ns_adobe_xpath "http://ns.adobe.com/XPath/1.0/">
]>
<svg version="1.1" id="Layer_1" xmlns:x="&ns_extend;" xmlns:i="&ns_ai;" xmlns:graph="&ns_graphs;"
	 xmlns="http://www.w3.org/2000/svg" xmlns:xlink="http://www.w3.org/1999/xlink" x="0px" y="0px" viewBox="0 0 319 298.6"
	 style="enable-background:new 0 0 319 298.6;" xml:space="preserve">
<style type="text/css">
	.st0{fill:#1AD079;}
	.st1{fill:#07133B;}
	.st2{fill:#FFFFFF;}
	.st3{opacity:0.1294;}
	.st4{opacity:0.9294;}
</style>
<metadata>
	<sfw  xmlns="&ns_sfw;">
		<slices></slices>
		<sliceSourceBounds  bottomLeftOrigin="true" height="298.6" width="319" x="368.4" y="-341"></sliceSourceBounds>
	</sfw>
</metadata>
<g>
	<g>
		<path class="st0" d="M215.9,112.3c-2.8,6.2-1.6,14.3,3.4,18.9c2.8,2.5,6.4,3.8,9.3,6.1c3,2.3,5.3,6.2,3.9,9.6
			c-0.4,0.9-0.9,1.7-1.1,2.6c-0.5,2.5,1.9,4.5,3.7,6.3c3.9,4.2,4.9,11.5,0.7,15.4c-3.3,3.1-8.3,3.1-12.8,2.7
			c-6.1-0.5-12.3-1.4-17.5-4.6c-5.1-3.2-8.8-8.3-10.9-14c-2.1-5.7-2.7-11.8-2.6-17.8c0.1-6.9,1.2-14.2,5.3-19.8
			C201.3,112.1,209.2,108.8,215.9,112.3z"/>
		<path class="st1" d="M226.5,174.4c-1.2,0-2.4-0.1-3.6-0.2c-6.1-0.5-12.4-1.4-17.7-4.6c-4.8-3-8.8-8-11-14.2
			c-1.8-5-2.7-10.9-2.6-17.9c0.1-8.8,1.8-15.2,5.3-20c2.1-2.9,5.2-5.1,8.5-6.2c3.7-1.2,7.4-1,10.6,0.7c0.2,0.1,0.3,0.3,0.2,0.5
			c-2.9,6.4-1.4,14.1,3.3,18.4c1.5,1.4,3.3,2.4,5.1,3.4c1.4,0.8,2.9,1.7,4.2,2.7c3,2.3,5.5,6.4,4,10.1c-0.1,0.3-0.3,0.7-0.5,1
			c-0.3,0.5-0.5,1-0.6,1.6c-0.4,1.9,1.2,3.6,2.8,5.2c0.3,0.3,0.5,0.5,0.8,0.8c2.3,2.4,3.6,5.9,3.5,9.3c-0.1,2.7-1.1,5-2.8,6.6
			C233.5,173.7,230,174.4,226.5,174.4z M210.1,111.2c-5,0-9.8,2.9-12.5,6.7c-3.4,4.7-5.1,10.9-5.2,19.6c-0.1,6.9,0.8,12.7,2.6,17.6
			c2.2,6,6,10.9,10.7,13.8c5.1,3.1,11.4,4,17.4,4.5c4.7,0.4,9.4,0.3,12.5-2.6c1.6-1.5,2.5-3.6,2.6-6.1c0.1-3.1-1.2-6.5-3.3-8.7
			c-0.2-0.3-0.5-0.5-0.8-0.8c-1.6-1.7-3.5-3.5-3-5.9c0.1-0.6,0.4-1.2,0.7-1.8c0.2-0.3,0.3-0.6,0.4-0.9c1.4-3.3-1-7.1-3.8-9.2
			c-1.3-1-2.7-1.8-4.1-2.6c-1.8-1-3.7-2.1-5.2-3.5c-4.9-4.5-6.5-12.4-3.7-19C213.7,111.6,211.8,111.2,210.1,111.2z"/>
	</g>
	<g>
		<path class="st0" d="M187.9,83.5c-1.9,9.7-4.2,20.1-11.4,26.9c-2.3,2.2-5.1,4-7.3,6.4c-2.6,2.8-4.1,6.5-5.3,10.1
			c-2.2,6.9-3.1,14.6-0.4,21.3s9.6,12.1,16.8,11.2c6.3-0.8,11.3-6.2,13.4-12.2c2.1-6,2-12.5,1.5-18.9
			C194.2,113.1,191.9,98,187.9,83.5z"/>
		<path class="st1" d="M178.7,159.9c-6.4,0-12.9-4.7-15.6-11.5c-2.4-6-2.3-13.3,0.4-21.5c1.4-4.5,3.1-7.8,5.4-10.2
			c1.3-1.4,2.8-2.6,4.2-3.8c1-0.8,2.1-1.7,3.1-2.6c6.8-6.5,9.1-15.9,11.3-26.7c0-0.2,0.2-0.3,0.4-0.3c0.2,0,0.3,0.1,0.4,0.3
			c3.8,13.6,6.3,28.7,7.4,44.9c0.4,6.2,0.7,12.9-1.5,19c-2.4,6.8-7.8,11.6-13.7,12.4C179.8,159.8,179.3,159.9,178.7,159.9z
			 M187.9,85.2c-2.1,10.3-4.5,19.3-11.2,25.6c-1,0.9-2.1,1.8-3.1,2.6c-1.4,1.1-2.9,2.3-4.1,3.7c-2.1,2.4-3.8,5.6-5.2,10
			c-2.6,8.1-2.7,15.2-0.4,21c2.8,7.1,9.9,11.8,16.4,10.9c5.6-0.7,10.8-5.4,13.1-11.9c2.2-6,1.9-12.5,1.5-18.7
			C193.8,112.9,191.5,98.3,187.9,85.2z"/>
	</g>
	<g>
		<path class="st2" d="M184.5,137.9c1.7-4.9,2.8-10,4-15.8c2.3-0.4,4.7-0.4,7-0.1c1,0.1,2.2,0.4,2.8,1.3c0.4,0.5,0.4,1.2,0.5,1.8
			c0.5,4.3,0.9,8.5,1.4,12.8c0,0.3,0.1,0.7,0,1c-0.2,0.4-0.6,0.7-1,1C194.6,142.3,188.4,141.6,184.5,137.9z"/>
		<path class="st1" d="M193.1,141.7c-3.3,0-6.5-1.2-8.9-3.5c-0.1-0.1-0.1-0.3-0.1-0.4c1.6-4.8,2.8-9.8,3.9-15.8
			c0-0.2,0.2-0.3,0.3-0.3c2.4-0.4,4.7-0.4,7.1-0.1c1,0.1,2.3,0.4,3,1.4c0.4,0.6,0.5,1.4,0.6,2l1.4,12.8c0,0.3,0.1,0.8-0.1,1.2
			c-0.2,0.6-0.7,0.9-1.2,1.2C197.4,141.1,195.2,141.7,193.1,141.7z M185,137.8c3.6,3.4,9.6,4.1,13.9,1.7c0.4-0.2,0.7-0.5,0.9-0.8
			c0.1-0.2,0.1-0.5,0-0.8l-1.4-12.8c-0.1-0.5-0.1-1.2-0.4-1.6c-0.5-0.7-1.6-1-2.5-1.1c-2.2-0.3-4.4-0.3-6.6,0.1
			C187.6,128.2,186.5,133.1,185,137.8z"/>
	</g>
	<g>
		<path class="st2" d="M184.9,84.9c-1.3,4.7-2.3,9.7-5.3,13.6c-1.6,2.1-6.7,14.4,1.6,22c4.4,4,10.5,6.1,17.1,5.1
			c4.5-0.7,11.7-5.6,13.7-12.7c2.6,2.1,6.4,1.3,7.6-1.4c0.7-1.5-0.2-4.2-2.1-4.9c-1.4-0.5-1.6-0.6-3-0.2c0.6-3.5,1.5-6.9,3.1-10.5
			c-1.8-5.2-6.4-9.3-11.5-12.4c-1.7-1-3.5-2-5.4-2.5C195.2,79.4,186.2,80.1,184.9,84.9z"/>
		<path class="st1" d="M195,126.2c-5.3,0-10.2-1.9-14.1-5.5c-8.3-7.6-3.7-19.8-1.7-22.5c2.6-3.4,3.7-7.6,4.8-11.8
			c0.2-0.6,0.3-1.1,0.5-1.7l0,0c0.4-1.3,1.3-2.4,2.8-3.3c3.6-2,9.7-2,13.6-0.9c2.1,0.6,4,1.7,5.5,2.5c4.2,2.6,9.6,6.8,11.7,12.6
			c0,0.1,0,0.2,0,0.3c-1.4,3.1-2.3,6.2-3,9.8c1-0.2,1.4-0.1,2.7,0.4c0.9,0.3,1.7,1.1,2.1,2.2c0.5,1.1,0.5,2.3,0.1,3.2
			c-0.6,1.3-1.7,2.2-3.2,2.6c-1.5,0.4-3.2,0.1-4.5-0.8c-2.2,7.1-9.4,11.8-13.9,12.5C197.2,126.1,196.1,126.2,195,126.2z M185.2,85
			L185.2,85c-0.2,0.6-0.3,1.1-0.5,1.7c-1.1,4.2-2.3,8.5-4.9,12c-1.1,1.5-6.9,13.7,1.6,21.5c4.6,4.2,10.5,5.9,16.8,5
			c4.2-0.6,11.5-5.4,13.4-12.4c0-0.1,0.1-0.2,0.2-0.3c0.1,0,0.3,0,0.3,0.1c1.2,1,2.8,1.3,4.3,1c1.2-0.3,2.2-1.1,2.7-2.2
			c0.3-0.7,0.2-1.7-0.1-2.6c-0.4-0.9-1-1.5-1.7-1.8c-1.4-0.5-1.5-0.5-2.8-0.2c-0.1,0-0.3,0-0.3-0.1c-0.1-0.1-0.1-0.2-0.1-0.3
			c0.7-3.8,1.6-7.2,3.1-10.4c-2-5.5-7.3-9.6-11.3-12.1c-1.4-0.8-3.2-1.9-5.3-2.5c-3.7-1.1-9.6-1.1-13,0.8
			C186.4,82.9,185.5,83.8,185.2,85z"/>
	</g>
	<g>
		<path class="st2" d="M137.5,119.1c0.1-0.4-0.2-0.9-0.5-1.2c-0.4-0.3-0.8-0.4-1.3-0.5c-5.2-1.4-10.6-1.6-15.9-1.1
			c-0.5,0.1-1.2,0.3-1.2,0.8c0,0.2,0.1,0.4,0.3,0.6c1,1.1,2.5,1.7,3.9,2.1c4.1,1.2,8.6,1.7,12.7,0.5
			C136.2,120.1,137.3,119.9,137.5,119.1z"/>
	</g>
	<g>
		<path class="st1" d="M201.8,111.2c-0.6,0-1.1-0.1-1.7-0.2c-3.7-1-5.7-5.1-4.6-9.1c1.1-4,5-6.5,8.6-5.5c1.8,0.5,3.2,1.7,4.1,3.4
			c0.9,1.7,1,3.7,0.5,5.7c-0.5,1.9-1.7,3.6-3.4,4.6C204.3,110.8,203,111.2,201.8,111.2z M202.5,96.9c-2.8,0-5.4,2.1-6.2,5.1
			c-1,3.6,0.8,7.3,4.1,8.2c1.6,0.4,3.2,0.2,4.7-0.8c1.5-0.9,2.5-2.4,3-4.2h0c0.5-1.8,0.3-3.6-0.5-5.1c-0.8-1.5-2.1-2.6-3.6-3.1
			C203.5,96.9,203,96.9,202.5,96.9z"/>
	</g>
	<g>
		<path class="st1" d="M183.8,104.6c-0.6,0-1.1-0.1-1.7-0.2c-3.7-1-5.7-5.1-4.6-9.1c1.1-4,5-6.5,8.6-5.5c1.8,0.5,3.2,1.7,4.1,3.4
			c0.9,1.7,1,3.7,0.5,5.7c-0.5,1.9-1.7,3.6-3.4,4.6C186.2,104.2,185,104.6,183.8,104.6z M184.4,90.2c-2.8,0-5.4,2.1-6.2,5.1
			c-1,3.6,0.8,7.3,4.1,8.2c1.6,0.4,3.2,0.2,4.7-0.8c1.5-0.9,2.5-2.4,3-4.2h0c0.5-1.8,0.3-3.6-0.5-5.1c-0.8-1.5-2.1-2.6-3.6-3.1
			C185.4,90.3,184.9,90.2,184.4,90.2z"/>
	</g>
	<g>
		<path class="st2" d="M121.5,107.2c0.8-0.9,1.6-1.7,2.3-2.6c1.3-1.5,2.6-3,3.9-4.6c0.1,0,0.3,0,0.4,0.1c0.8-0.7,2.1-1,3.3-0.8
			c0.6,0.6,1.4,1.2,2.1,1.8c0.3,0.2,0.6,0.4,0.9,0.6c0.2,0.1,0.4,0.2,0.6,0.4c0,0,0,0,0,0c0.1,0.1,0.1,0.1,0.2,0.1
			c0,0,0.1,0.1,0.1,0.1c0.6,0.4,1.2,0.9,1.9,1.3c0.2,0.1,0.4,0.1,0.5,0.1c0,0,0,0.2,0,0.2c0.2,0.6,0.5,3-1,6.3
			c-1.5,3.2-2,7-2.1,10.3c-3.1,1-5.4-0.1-8.6-0.7c-1.2-0.2-2.5-0.4-3.4-0.9c-0.9-3.5-1.7-7-2.2-10.5
			C120.7,108,121.1,107.6,121.5,107.2z"/>
	</g>
	<g>
		<path class="st0" d="M233.2,73.4c0.7-6.7-4.2-12.7-10.9-13.4c-6.7-0.7-12.7,4.2-13.4,10.9c-0.7,6.7,4.2,12.7,10.9,13.4
			C226.5,85,232.5,80.1,233.2,73.4z"/>
		<path class="st1" d="M221,84.7c-0.4,0-0.9,0-1.3-0.1c-6.9-0.7-11.9-6.9-11.2-13.8c0.7-6.9,6.9-11.9,13.8-11.2
			c6.9,0.7,11.9,6.9,11.2,13.8l0,0C232.9,79.9,227.4,84.7,221,84.7z M221,60.3c-6,0-11.1,4.5-11.8,10.6c-0.7,6.5,4.1,12.3,10.6,13
			c6.5,0.7,12.3-4.1,13-10.6c0.7-6.5-4.1-12.3-10.6-13C221.8,60.3,221.4,60.3,221,60.3z M233.2,73.4L233.2,73.4L233.2,73.4z"/>
	</g>
	<g>
		<path class="st0" d="M213.9,106.7c-1-5.6-1.4-9.6-0.1-15.4c-13.2,1.8-22.8-3.5-32.7-8.1c0.5-1.8,1.6-3.4,3-4.8
			c3.4-3.3,7.1-5.8,14.3-6c5.1-0.1,11.4,1,15.7,3.7c4.3,2.6,7.2,6.8,9.2,11.1c1.6,3.5,2.1,8.3,1.2,12.4c-0.7,3.6-2.6,5.7-5.5,8.4
			c-0.6-0.8-1.2-1.6-2.3-1.8C215.9,106.1,215.1,106.3,213.9,106.7z"/>
		<path class="st1" d="M219.2,108.5C219.2,108.5,219.2,108.5,219.2,108.5c-0.1,0-0.2-0.1-0.3-0.1l-0.1-0.1c-0.6-0.7-1.1-1.4-2-1.6
			c-1-0.2-1.8,0-2.8,0.4c-0.1,0-0.2,0-0.3,0c-0.1-0.1-0.2-0.2-0.2-0.3c-0.9-5.1-1.4-9.2-0.2-15c-11.9,1.5-21-2.9-29.9-7
			c-0.8-0.4-1.7-0.8-2.5-1.2c-0.2-0.1-0.3-0.3-0.2-0.4c0.5-1.8,1.6-3.5,3.1-4.9c3.1-3,6.8-5.9,14.6-6.1c4.6-0.1,11.1,0.8,15.9,3.7
			c3.9,2.3,7,6.1,9.4,11.3c1.6,3.6,2.1,8.5,1.3,12.7c-0.8,3.8-2.9,6.1-5.6,8.6C219.4,108.4,219.3,108.5,219.2,108.5z M216.1,105.8
			c0.3,0,0.6,0,0.9,0.1c1,0.2,1.7,0.9,2.2,1.6c2.9-2.8,4.4-4.7,5-7.9c0.8-4,0.3-8.8-1.2-12.2c-2.3-5-5.3-8.7-9.1-10.9
			c-4.7-2.8-11.1-3.7-15.5-3.6c-7.5,0.2-11,3-14.1,5.8c-1.4,1.3-2.3,2.8-2.8,4.3c0.7,0.4,1.5,0.7,2.2,1.1c8.9,4.2,18,8.5,30,6.9
			c0.1,0,0.2,0,0.3,0.1c0.1,0.1,0.1,0.2,0.1,0.3c-1.3,5.8-0.9,9.8,0,14.8C214.9,106,215.5,105.8,216.1,105.8z"/>
	</g>
	<g>
		<path class="st2" d="M133.6,104.5c0.1-1.3-0.3-2.7-1.1-3.8c-0.5-0.7-1.2-1.3-1.6-2c-0.4-0.8-0.4-1.8,0.3-2.3
			c0.4-0.3,1-0.3,1.5-0.2c1.4,0.3,2.5,1.3,3.5,2.3c0.6,0.6,1.2,1.3,1.6,2.1c0.3,0.7,0.5,1.5,0.5,2.3c0,0.5,0.1,1-0.1,1.4
			c-0.3,0.6-0.9,1-1.5,1.3c-0.6,0.3-1.3,0.6-2,0.5C134,105.8,133.6,105.2,133.6,104.5z"/>
	</g>
	<g>
		<path class="st1" d="M193.7,118.7C193.7,118.7,193.7,118.7,193.7,118.7c-1.4,0-4.3-1.8-5-3.1c-0.1-0.1-0.1-0.2,0-0.3
			c0.1-0.1,0.2-0.2,0.3-0.2c2.4-0.3,6-0.4,8.6-0.1c0.1,0,0.3,0.1,0.3,0.3c0,0.1,0,0.3-0.1,0.4c-0.3,0.3-0.6,0.6-0.9,1
			C195.9,117.7,195,118.7,193.7,118.7z M189.7,115.7c0.9,1,3,2.3,4,2.3c0,0,0,0,0,0c1,0,1.8-0.9,2.7-1.9c0.1-0.2,0.3-0.3,0.4-0.5
			C194.5,115.5,191.8,115.5,189.7,115.7z"/>
	</g>
	<g>
		<path class="st2" d="M210.6,192.2c0.8-9.8,1.6-16.8,2.5-26.5c1.2,6.6,4.8,19.7,6.3,26.8c-14.1,0.5-23.2,0.9-35.4,2.5
			c2.3,1.8,4.2,4.3,5.3,6.9c1.1,2.6,1.4,5.5,1.7,8.3c15-0.5,29.7-0.8,44.5-0.3c1.6,0.1,3.4,0.1,4.8-0.8c1.1-0.6,1.8-1.7,2.2-2.9
			c1.2-3.2,0.5-6.7-0.3-10c-2.3-9.8-6.7-28.5-10.7-37.7c-1.7-4-3.8-7.9-6.8-11c-6.3-6.6-15.6-9-24.6-11.1c-0.4,2.2-2.8,3.6-5,4.1
			c-2,0.4-4.1,0.4-6-0.3c-1.9-0.8-3.5-2.4-4.4-5.1c-6.9-0.6-11.3-0.6-14.3-0.2c-4,0.6-7.9,3.5-10.6,6.5c-5.6,6.1-8.5,11.3-14.5,18.4
			c-5.1-12.9-8-26.5-7.8-40.9c-1.3,2.9-17.5,2.6-19.2-2c1.1,17.1,2.3,34.3,7.5,50.6c1.7,5.2,3.8,10.5,7.4,14.6
			c3.6,4.2,8.8,7.2,14.3,7.1c5.5-0.2,9-1.7,12.6-8.5c0.6,1,1.2,1.9,1.5,3.1c0,7.3-0.6,15.8-0.7,22.9c16.2,2.6,33.2,0.4,49.5-0.7
			C210.4,201.2,210.3,196.4,210.6,192.2z"/>
	</g>
	<g>
		<path class="st1" d="M202.1,102c0.2-0.6-0.2-1.2-0.8-1.4c-0.6-0.2-1.2,0.2-1.4,0.7c-0.2,0.6,0.2,1.2,0.8,1.4
			C201.3,102.9,202,102.6,202.1,102z"/>
	</g>
	<g>
		<path class="st1" d="M186.2,96.5c0.2-0.6-0.2-1.2-0.8-1.4c-0.6-0.2-1.2,0.2-1.4,0.7c-0.2,0.6,0.2,1.2,0.8,1.4
			C185.4,97.4,186,97,186.2,96.5z"/>
	</g>
	<g>
		<path class="st1" d="M162.7,205.8C162.7,205.8,162.7,205.8,162.7,205.8l-1.9,0c-0.1,0-0.2-0.1-0.3-0.1c-0.1-0.1-0.1-0.2-0.1-0.3
			c0.5-3.2,0.5-6.9,0.5-10.8c0-3.4,0-6.9,0.3-10.6c0-0.2,0.2-0.4,0.4-0.3c0.2,0,0.4,0.2,0.3,0.4c-0.3,3.7-0.3,7.2-0.3,10.6
			c0,3.8,0,7.4-0.5,10.5l1.4,0c0.2,0,0.4,0.2,0.4,0.4C163.1,205.6,162.9,205.8,162.7,205.8z"/>
	</g>
	<g>
		<g>
			<path class="st2" d="M100.8,31.3v210.9h178.6V31.3H100.8z M265.4,201.4H113.8V53.2h151.7V201.4z"/>
			<path class="st1" d="M279.4,242.6H100.8c-0.2,0-0.4-0.2-0.4-0.4V31.3c0-0.2,0.2-0.4,0.4-0.4h178.6c0.2,0,0.4,0.2,0.4,0.4v210.9
				C279.8,242.4,279.6,242.6,279.4,242.6z M101.2,241.8H279V31.7H101.2V241.8z M265.4,201.8H113.8c-0.2,0-0.4-0.2-0.4-0.4V53.2
				c0-0.2,0.2-0.4,0.4-0.4h151.7c0.2,0,0.4,0.2,0.4,0.4v148.2C265.8,201.6,265.6,201.8,265.4,201.8z M114.2,201h150.9V53.5H114.2
				V201z"/>
		</g>
	</g>
	<g>
		<path class="st1" d="M188.4,108c-0.1,0-0.2,0-0.3-0.1l-1.2-1.2c-0.1-0.1-0.4-0.4-0.4-0.8c0-0.4,0.4-0.7,0.6-0.8
			c1.7-1,2.9-2.7,3.1-4.7c0-0.2,0.2-0.4,0.4-0.3c0.2,0,0.4,0.2,0.3,0.4c-0.3,2.1-1.6,4.1-3.5,5.2c-0.1,0-0.2,0.1-0.3,0.2
			c0,0,0,0.1,0.2,0.2l1.2,1.2c0.1,0.1,0.2,0.4,0,0.5C188.6,108,188.5,108,188.4,108z"/>
	</g>
	<g>
		<path class="st2" d="M192.3,207.2c-3,0-6,0.4-8.9,1.1c-1,0.3-2,0.6-2.9,1.1c-1.9,1.1-3.2,3.2-3.8,5.3c-0.2,0.5-0.3,1-0.6,1.5
			c-0.3,0.5-0.8,0.8-1.3,0.8c-0.5,0-1.1-0.5-0.9-0.9c-0.3,0.4-0.4,0.9-0.7,1.3c-0.2,0.4-0.6,0.9-1.1,1c-0.9,0.2-1.6-0.8-1.8-1.6
			c-0.4-1.4-0.3-3,0-4.5c0.4-2.1,0.9-4.1,1.9-6c-1.8,0.7-2.9,2.4-3.5,4.2c-0.6,1.8-0.7,3.7-1.1,5.6c-0.2,0.7-0.6,1.5-1.3,1.5
			c-0.6-0.1-0.9-0.7-1-1.2c-0.8-2.6-0.3-5.3,0.2-7.9c-1.5,1.4-2.5,3.3-3.6,5.1c-0.2,0.4-0.4,0.7-0.8,1c-0.3,0.2-0.8,0.3-1.2,0.1
			c-0.4-0.3-0.5-0.8-0.5-1.3c0-3.2,1.9-6,4-8.4c1.8-2,3.9-3.9,6.3-5.3c2.4-1.4,5.1-2.2,7.8-2.2c3.1-0.4,6.1-0.8,9.2-1.2
			c0.5-0.1,1.1-0.1,1.6,0.1c0.3,0.2,0.5,0.4,0.8,0.7C191.5,199.9,192.7,203.7,192.3,207.2z"/>
	</g>
	<g>
		<path class="st1" d="M196.8,99.8c-0.1,0-0.3-0.1-0.3-0.2c-0.6-1.3-2-2.3-3.5-2.5c-0.8-0.1-1.6,0.1-1.9,0.6
			c-0.1,0.2-0.3,0.3-0.5,0.2c-0.2-0.1-0.3-0.3-0.2-0.5c0.4-1,1.6-1.3,2.7-1.1c1.7,0.3,3.3,1.4,4,2.9c0.1,0.2,0,0.4-0.2,0.5
			C196.9,99.8,196.8,99.8,196.8,99.8z"/>
	</g>
	<g>
		<path class="st1" d="M213.6,106.5c-0.1,0-0.1,0-0.2,0l-4.9-2.2c-0.2-0.1-0.3-0.3-0.2-0.5c0.1-0.2,0.3-0.3,0.5-0.2l4.9,2.2
			c0.2,0.1,0.3,0.3,0.2,0.5C213.9,106.4,213.7,106.5,213.6,106.5z"/>
	</g>
	<g>
		<path class="st1" d="M174.8,217.5c0,0-0.1,0-0.1,0c-0.4,0-0.7-0.2-1-0.5c-0.5-0.6-0.6-1.6-0.5-2.4c0.3-2.4,1.1-4.7,2.3-6.8
			c0.1-0.2,0.3-0.2,0.5-0.1c0.2,0.1,0.2,0.3,0.1,0.5c-1.2,2-1.9,4.2-2.2,6.5c-0.1,0.6,0,1.4,0.3,1.8c0.1,0.2,0.3,0.2,0.5,0.3
			c0.7,0.1,1.2-1,1.3-1.5l0.1-0.2c0.5-1.6,1.1-3.2,2.2-4.4c1.1-1.2,2.7-2.1,4.9-2.7c2.3-0.6,5-0.7,6.7-0.8c0.6,0,1.1,0,1.4-0.1
			c0.2,0,0.4,0.1,0.4,0.3c0,0.2-0.1,0.4-0.3,0.4c-0.4,0-0.9,0-1.4,0.1c-1.7,0.1-4.4,0.1-6.6,0.7c-2,0.5-3.5,1.4-4.5,2.5
			c-1,1.1-1.5,2.7-2,4.2l-0.1,0.2C176.3,216.8,175.6,217.5,174.8,217.5z"/>
	</g>
	<g>
		<path class="st1" d="M171.6,218.8c-0.2,0-0.5-0.1-0.7-0.2c-0.5-0.3-0.7-0.9-0.8-1.4c-0.6-3.3-0.2-6.7,1.1-9.9
			c-0.9,0.8-1.7,1.9-2.3,3.2c-0.7,1.7-1,3.5-1.1,5.3c0,0.4-0.1,0.9-0.3,1.3c-0.2,0.4-0.8,0.8-1.3,0.7c-0.6-0.1-0.9-0.6-1.2-1.4
			c-1.2-4.3-0.2-8.8,2.6-12c0.1-0.2,0.4-0.2,0.5,0c0.2,0.1,0.2,0.4,0,0.5c-2.7,3.1-3.6,7.3-2.5,11.3c0.1,0.4,0.3,0.8,0.6,0.9
			c0.2,0,0.5-0.2,0.6-0.4c0.2-0.3,0.2-0.6,0.2-1c0.2-1.8,0.5-3.7,1.2-5.5c0.8-2,2.1-3.5,3.6-4.3c0.1-0.1,0.3-0.1,0.4,0.1
			c0.1,0.1,0.1,0.3,0.1,0.4c-1.6,3.4-2.2,7.1-1.6,10.7c0.1,0.4,0.2,0.8,0.4,0.9c0.3,0.2,0.6,0.1,0.9-0.1c0.3-0.2,0.8-1.1,1-2.7
			c0-0.2,0.2-0.3,0.4-0.3c0.2,0,0.3,0.2,0.3,0.4c-0.3,2.2-1,3-1.3,3.2C172.3,218.6,171.9,218.8,171.6,218.8z"/>
	</g>
	<g>
		<path class="st1" d="M160.4,215.2c-0.3,0-0.6-0.1-0.9-0.4c-0.5-0.5-0.5-1.8-0.5-2.3c0.8-4.6,3.9-8.1,8.4-11.8
			c1.5-1.3,2.9-2.1,4.3-2.7c1.5-0.6,3.1-0.8,4.7-1c1.7-0.2,3.5-0.4,5.2-0.5c1.7-0.2,3.5-0.3,5.2-0.5c0.2,0,0.4,0.1,0.4,0.3
			c0,0.2-0.1,0.4-0.3,0.4c-1.7,0.2-3.5,0.4-5.2,0.5c-1.7,0.2-3.5,0.3-5.2,0.5c-1.5,0.2-3.1,0.4-4.5,0.9c-1.3,0.5-2.7,1.3-4.1,2.5
			c-4.3,3.7-7.4,7-8.1,11.4c-0.1,0.5,0,1.4,0.2,1.6c0.1,0.1,0.3,0.2,0.5,0.2c0.2,0,0.4-0.3,0.4-0.4c0,0,0,0,0-0.1
			c0.4-0.6,0.8-1.1,1.1-1.6c1.5-2.1,2.2-3.1,3.3-4.3c0.1-0.2,0.4-0.2,0.5,0c0.2,0.1,0.2,0.4,0,0.5c-1.1,1.2-1.8,2.2-3.2,4.3
			c-0.3,0.5-0.7,1-1.1,1.6l0,0c-0.1,0.2-0.4,0.7-1,0.7C160.5,215.2,160.4,215.2,160.4,215.2z"/>
	</g>
	<g>
		<path class="st1" d="M164.2,186.9c-0.1,0-0.2-0.1-0.3-0.1c-2.8-3.6-5.5-7.4-8.2-11.1c-0.3-0.4-0.8-1.1-0.8-1.8
			c0-0.6,0.2-1.1,0.4-1.5l7.6-18.4c0.1-0.2,0.3-0.3,0.5-0.2c0.2,0.1,0.3,0.3,0.2,0.5l-7.6,18.4c-0.2,0.4-0.3,0.8-0.3,1.2
			c0,0.5,0.4,1,0.7,1.4c2.7,3.7,5.4,7.4,8.2,11c0.1,0.2,0.1,0.4-0.1,0.5C164.3,186.8,164.3,186.9,164.2,186.9z"/>
	</g>
	<g>
		<path class="st2" d="M190.6,194c3.9-0.4,7.9-0.7,11.8-1c1.9-0.2,3.8-0.4,5.7-0.5c0.8-0.1,1.7-0.1,2.5-0.2c0,0.2,0,0.3,0,0.5
			c2.7-0.1,5.6-0.2,8.8-0.3c-0.3-1.4-0.7-3.1-1.1-4.9c1,0,2,0,3,0c6.3,0,12.6,0,19,0.2c0.8,3.2,1.4,6.1,2,8.4
			c0.8,3.3,1.5,6.9,0.3,10c-0.4,1.2-1.2,2.2-2.2,2.9c-1.4,0.9-3.2,0.8-4.8,0.8c-14.7-0.5-29.3-0.2-44.3,0.3c0.2-1.8,0.1-3.6-0.4-5.3
			c-0.5-1.6-1.1-3.1-1.8-4.6c-0.7-1.4-1.7-2.7-2.7-3.8c-0.6-0.6-1.2-1.3-1.9-1.8C186.5,194.3,188.5,194.2,190.6,194z"/>
	</g>
	<g>
		<path class="st1" d="M191,210.5c-0.1,0-0.2-0.1-0.3-0.2c-0.1-0.1-0.1-0.3,0-0.4c0.9-1.7,0.2-5.4-1-8.2l-0.1-0.2
			c-1-2.6-2.2-5.5-5.7-6.3c-0.2,0-0.3-0.2-0.3-0.4c0-0.2,0.1-0.3,0.3-0.4c9.2-1.2,16.5-1.7,26.4-2.1c0-0.1,0-0.1,0-0.2
			c0.4-4.9,0.8-9.2,1.2-13.3c0.4-4.1,0.8-8.4,1.2-13.3c0-0.2,0.2-0.3,0.4-0.3c0.2,0,0.4,0.1,0.4,0.3c0.7,3.7,2.1,9.5,3.5,15.1
			c1.1,4.4,2.1,8.6,2.8,11.7c0,0.1,0,0.2-0.1,0.3c-0.1,0.1-0.2,0.1-0.3,0.1c-14.3,0.5-22.8,0.9-33.8,2.3c2.7,1.3,3.8,4,4.7,6.3
			l0.1,0.2c1.1,2.6,1.8,6.1,1.2,8.2c17.7-0.6,31.3-0.7,43.9-0.3c1.5,0,3.3,0.1,4.6-0.7c1.1-0.7,1.8-1.8,2.1-2.7
			c1.2-3.2,0.4-6.9-0.3-9.8c-1.8-7.7-6.5-28-10.7-37.6c-2.1-4.9-4.2-8.2-6.8-10.9c-5.9-6.2-14.4-8.7-24.1-10.9c-0.6,2.2-3,3.5-5.2,4
			c-2.3,0.5-4.4,0.4-6.2-0.4c-2.1-0.8-3.6-2.6-4.5-5.1c-6.3-0.6-10.8-0.6-14-0.1c-4.8,0.7-8.9,4.7-10.4,6.3
			c-3.1,3.4-5.4,6.5-7.9,9.9c-1.9,2.6-4,5.4-6.6,8.5c-0.1,0.1-0.2,0.2-0.3,0.1c-0.1,0-0.2-0.1-0.3-0.2c-5.3-13.3-7.9-26.8-7.8-39.9
			c-1.7,1.2-5.4,1.3-6.7,1.3c-3.8,0-9.4-0.8-11.6-3c1.1,16.4,2.3,33.2,7.4,49.1c1.4,4.4,3.5,10.1,7.3,14.5c3.8,4.5,9.1,7.1,14,6.9
			c5.3-0.1,8.7-1.5,11.9-8.4c0.1-0.2,0.3-0.3,0.5-0.2c0.2,0.1,0.3,0.3,0.2,0.5c-3.3,7.1-7.1,8.6-12.6,8.8
			c-5.2,0.1-10.6-2.5-14.6-7.2c-3.9-4.5-6-10.3-7.5-14.8c-5.2-16.4-6.4-33.8-7.5-50.7c0-0.2,0.1-0.4,0.3-0.4c0.2,0,0.4,0.1,0.4,0.3
			c0.7,2.3,6.5,3.7,11.7,3.7c3.7,0,6.4-0.7,6.8-1.7c0.1-0.2,0.2-0.3,0.4-0.3c0.2,0,0.3,0.2,0.3,0.4c-0.2,13.2,2.3,26.7,7.5,40.1
			c2.4-2.9,4.3-5.5,6.1-8c2.4-3.3,4.8-6.5,7.9-9.9c1.6-1.7,5.8-5.9,10.9-6.6c3.3-0.5,7.9-0.4,14.4,0.2c0.1,0,0.3,0.1,0.3,0.3
			c0.8,2.4,2.2,4.1,4.1,4.9c2.1,0.9,4.3,0.6,5.8,0.3c2-0.4,4.3-1.7,4.7-3.8c0-0.1,0.1-0.2,0.2-0.2c0.1-0.1,0.2-0.1,0.3-0.1
			c9.9,2.3,18.7,4.8,24.8,11.2c2.6,2.7,4.7,6.2,6.9,11.1c4.2,9.7,8.9,30.1,10.7,37.8c0.7,3.1,1.6,6.9,0.3,10.3
			c-0.4,1-1.1,2.3-2.4,3.1c-1.5,0.9-3.5,0.9-5,0.8C222.7,209.8,209,209.9,191,210.5C191,210.5,191,210.5,191,210.5z M213.3,168.3
			c-0.3,3.8-0.7,7.3-1,10.6c-0.4,4.1-0.8,8.4-1.2,13.3c0,0,0,0.1,0,0.1c2.5-0.1,5.1-0.2,7.9-0.3c-0.6-3-1.6-7-2.7-11.2
			C215.1,176.4,214,171.9,213.3,168.3z"/>
	</g>
	<g>
		<path class="st1" d="M183.1,197c-0.2,0-0.3-0.1-0.4-0.3c-0.1-0.6,0.1-1.2,0.4-1.7c0.3-0.4,0.7-0.6,1.1-0.5
			c0.2,0.1,0.3,0.3,0.3,0.5c-0.1,0.2-0.3,0.3-0.5,0.3c-0.1,0-0.2,0.1-0.3,0.2c-0.2,0.3-0.3,0.8-0.3,1.2
			C183.5,196.8,183.4,197,183.1,197C183.1,197,183.1,197,183.1,197z"/>
	</g>
	<g>
		<path class="st1" d="M190.1,210.9c-0.1,0-0.1,0-0.2,0c-0.9-0.1-1.5-0.7-2.1-1.2c-0.5-0.5-1-1.1-1.5-1.7c-0.1-0.2-0.1-0.4,0.1-0.5
			c0.2-0.1,0.4-0.1,0.5,0.1c0.4,0.6,0.9,1.1,1.4,1.6c0.5,0.5,1,0.9,1.6,1c0.3,0,0.7-0.1,0.8-0.3c0.1-0.2,0.3-0.3,0.5-0.2
			c0.2,0.1,0.3,0.3,0.2,0.5C191.2,210.6,190.6,210.9,190.1,210.9z"/>
	</g>
	<g>
		<path class="st1" d="M137.5,119.1C137.5,119.1,137.5,119.1,137.5,119.1c-0.2,0-0.4-0.2-0.4-0.4c0-0.1,0-0.2-0.1-0.3
			c-0.1-0.1-0.3-0.2-0.4-0.3c-0.6-0.4-1.5-0.6-2.8-0.7c-0.2,0-0.4-0.2-0.3-0.4c0-0.2,0.2-0.4,0.4-0.3c1.4,0.1,2.4,0.4,3.1,0.8
			c0.2,0.1,0.4,0.3,0.6,0.5c0.2,0.3,0.3,0.6,0.3,0.9C137.9,118.9,137.7,119.1,137.5,119.1z"/>
	</g>
	<g>
		<path class="st1" d="M118.3,117.3c-0.2,0-0.4-0.2-0.4-0.4c0-0.3,0.1-0.6,0.4-0.8c0.2-0.2,0.4-0.3,0.6-0.3c0.5-0.2,1-0.2,1.5-0.2
			c0.2,0,0.4,0.2,0.4,0.4c0,0.2-0.2,0.4-0.4,0.4c-0.4,0-0.9,0-1.3,0.2c-0.1,0-0.3,0.1-0.4,0.2c-0.1,0.1-0.1,0.1-0.1,0.2
			C118.7,117.1,118.5,117.3,118.3,117.3C118.3,117.3,118.3,117.3,118.3,117.3z"/>
	</g>
	<g>
		<path class="st1" d="M194.2,144.6c-0.2,0-0.5,0-0.7,0c-0.2,0-0.4-0.2-0.3-0.4c0-0.2,0.2-0.4,0.4-0.3c3.1,0.3,6.4-1.5,7.8-4.2
			c0.1-0.2,0.3-0.3,0.5-0.2c0.2,0.1,0.3,0.3,0.2,0.5C200.6,142.8,197.4,144.6,194.2,144.6z"/>
	</g>
	<g>
		<path class="st1" d="M201.8,145.1c-0.2,0-0.3-0.1-0.3-0.2c-0.1-0.2,0-0.4,0.2-0.5c1.2-0.5,2.2-1.6,2.4-2.9c0-0.2,0.2-0.3,0.4-0.3
			c0.2,0,0.3,0.2,0.3,0.4c-0.3,1.5-1.4,2.9-2.9,3.4C201.9,145.1,201.9,145.1,201.8,145.1z"/>
	</g>
	<g>
		<path class="st1" d="M223.4,82.4c-0.2,0-0.3-0.1-0.4-0.3c-0.4-1.4-1.3-2.8-2.6-4c-1.2-1.2-2.6-2.1-3.9-3c-0.2-0.1-0.2-0.3-0.1-0.5
			c0.1-0.2,0.3-0.2,0.5-0.1c1.4,0.9,2.8,1.9,4,3.1c1.4,1.4,2.3,2.8,2.8,4.3c0.1,0.2-0.1,0.4-0.2,0.5
			C223.5,82.4,223.5,82.4,223.4,82.4z"/>
	</g>
	<g>
		<path class="st1" d="M147.4,163.5c-0.1,0-0.2,0-0.3-0.1c-1-1.4-1.9-2.7-2.6-4.6c-0.1-0.2,0-0.4,0.2-0.5c0.2-0.1,0.4,0,0.5,0.2
			c0.7,1.9,1.5,3.1,2.5,4.4c0.1,0.2,0.1,0.4-0.1,0.5C147.5,163.5,147.5,163.5,147.4,163.5z"/>
	</g>
	<g>
		<path class="st1" d="M224.7,193.2C224.7,193.2,224.7,193.2,224.7,193.2c-2.3-0.4-4.3-0.5-6.9-0.4c-0.2,0-0.4-0.2-0.4-0.4
			c0-0.2,0.2-0.4,0.4-0.4c2.6-0.1,4.7,0,7,0.4c0.2,0,0.3,0.2,0.3,0.4C225.1,193.1,224.9,193.2,224.7,193.2z"/>
	</g>
	<g>
		<path class="st1" d="M213,110.6c0,0-0.1,0-0.1,0c-0.2-0.1-0.3-0.3-0.2-0.5c0.5-1.3,0.8-2.7,0.8-4.1c0-0.2,0.2-0.4,0.4-0.4
			c0,0,0,0,0,0c0.2,0,0.4,0.2,0.4,0.4c0,1.5-0.3,3-0.9,4.4C213.3,110.5,213.2,110.6,213,110.6z"/>
	</g>
	<g class="st3">
		<path class="st1" d="M210.8,71.1c0.4-0.1,0.8,0.1,1.1,0.2c0.6,0.2,1.2,0.4,1.7,0.7c3.3,1.5,6.1,4,8.3,6.8c0.6,0.8,1.1,1.6,1.6,2.4
			c0.3,0.5,0.7,1,0.7,1.6c0.1,1.5-2,2-2.6,0.6c-0.9-2-3.3-5-5.1-6.4c-1.7-1.4-2.2-1.7-4-2.5c-0.5-0.3-1-0.5-1.5-0.7
			c-0.5-0.1-0.9-0.4-1.1-0.8C209.5,72.2,210,71.2,210.8,71.1z"/>
	</g>
	<g class="st3">
		<path class="st1" d="M185.5,85.9c0.3-0.3,0.8-0.3,1.1-0.1c0.1,0.1,0.8,0.4,0.9,0.5c1,0.5,2,1.1,3,1.5c2,0.8,4,1.7,6.1,2.3
			c2.5,0.8,4.8,1.3,7.8,1.7c2.7,0.3,4.9,0.1,7.9-0.5c0.5-0.1,1.1-0.3,1.5,0c0.6,0.4,0.3,1.4-0.3,1.4c-3.3,0.6-6.6,1.2-10,0.8
			c-1.9-0.2-3.9-0.6-5.8-1c-1.5-0.4-3-0.9-4.4-1.5c-2.2-0.8-4.5-1.6-6.6-2.6c-0.3-0.2-0.7-0.3-1-0.5c-0.2-0.1-0.4-0.2-0.5-0.4
			C185,86.8,185.1,86.2,185.5,85.9z"/>
	</g>
	<g class="st3">
		<path class="st1" d="M186.3,130.8c0.1-0.4,0.2-0.8,0.3-1.2c0.3-0.7,0.5-1.5,0.6-2.3c0.2-0.7,0.4-1.4,0.6-2.2c0-0.1,0-0.2,0-0.2
			c0-0.1,0-0.1,0.1-0.2c0.1-0.2,0-0.3-0.1-0.4c0.5-0.4,1.2,0.1,1.7,0.4c0.4,0.2,0.8,0.4,1.7,0.6c0.7,0.2,2.9,0.3,3.5,0.4
			c0.2,0.1,0.4,0.2,0.5,0.4c0.4-0.2,0.8-0.3,1.1-0.5c0.2-0.1,0.5-0.2,0.7-0.3c0.6,0,1.2,0,1.7-0.1c0,0.1,0,0.1,0,0.2
			c0,0.1,0,0.2,0,0.3c0,0.1,0,0.1,0.1,0.2c0.1,0.2,0.2,0.5,0.2,0.7c0,0-0.1,0.1-0.2,0.1c-2.2,1.1-4.4,2.1-6.5,3.3
			c-1.1,0.6-2.1,1.2-3.2,1.7c-0.5,0.2-0.9,0.5-1.4,0.6c0,0,0,0,0,0c0,0,0,0,0,0c0,0,0,0-0.1,0c0,0-0.1,0-0.1,0c-0.1,0-0.1,0-0.2,0
			c0,0,0,0,0,0c0,0,0,0,0,0c-0.1,0-0.2,0-0.3,0c-0.4-0.1-0.6-0.4-0.7-0.7c-0.1-0.1-0.1-0.2-0.1-0.2
			C186.2,131.2,186.3,131,186.3,130.8z"/>
	</g>
	<g class="st3">
		<path class="st1" d="M139.5,185.9c0.5-0.1,0.3,0,0.6,0.1c1.6,0.5,2.4,0.5,4.1,0.5c2,0.1,4.4-0.7,5.8-1.3c0.1-0.1,0.8-0.4,0.9-0.5
			c0.2-0.1,0.9-0.6,1-0.7c0.5-0.4,1-0.8,1.4-1.4c0,0,0,0,0,0c0.9-1.3,1.6-2.8,2.2-4.3c0,0,0-0.1,0.1-0.1c0.2-0.3,0.2-0.7,0.4-1
			c0.1-0.2,0.3-0.3,0.4-0.3c0.1,0.1,0.2,0.3,0.4,0.4c0,0.1,0,0.1,0.1,0.2c0.1,0.1,0.3,0.3,0.4,0.4c0.8,0.9,1.5,1.8,2.1,2.8
			c0,0.1,0,0.2-0.1,0.3c-0.4,0.6-0.8,1.2-1.2,1.7c-1,2.2-2.5,4.3-4.9,5c-1.6,0.5-3.3,0.7-5,0.9c-1,0.1-2-0.1-3.1-0.1
			c-0.8,0-1.5-0.1-2.3,0c-0.5,0-1,0.1-1.4-0.1c-0.4-0.1-0.6-0.5-0.6-0.9c-0.4-0.1-0.7-0.2-1.1-0.3c-0.3-0.1-0.6-0.2-0.8-0.4
			C138.9,186.5,139.1,186,139.5,185.9z"/>
	</g>
	<g class="st3">
		<path class="st1" d="M118.3,116.8c0.1-0.3,0.3-0.5,0.6-0.6c0.1,0,0.1,0,0.2,0c0.1-0.5,0.8-0.6,1.1-0.3c0.3,0.4,0.6,0.8,1,1.1
			c0.1,0.1,0.2,0.2,0.3,0.3c0.5,0.2,1.1,0.4,1.9,0.6c0.9,0.3,1.7,0.6,2.6,0.8c1,0.2,1.1,0.2,2.4,0.3c1.1,0.1,3.1,0.7,4.7,0.7
			c1.9,0.5-0.6-3.2,1-2.8c0.4,0.1,1.6,0.2,2.2,0.6c0.2,0.1,0.5,0.3,0.6,0.5c0,0,0,0.1,0,0.1c0,0,0.1,0,0.1,0
			c0.7,0.1,0.9,1.1,0.3,1.4c-1.7,0.9-3.6,1.4-5.5,1.4c-0.7,0-1.3-0.1-1.9-0.1c-0.6,0-1.2,0-1.9,0c-1.3-0.1-2.6-0.4-3.8-0.6
			c0,0,0,0-0.1,0c0,0,0.1,0,0.1,0c-0.1,0-0.1,0-0.2,0c-0.1,0-0.1,0,0,0c-0.6-0.1-1.2-0.2-1.8-0.4c-1.7-0.6-3.4-1.2-3.8-2
			c-0.1-0.1-0.2-0.2-0.2-0.3c0,0,0,0,0,0C118.3,117.2,118.3,117,118.3,116.8z"/>
	</g>
	<g>
		<g class="st3">
			<path class="st1" d="M124.6,103.7C124.6,103.7,124.6,103.7,124.6,103.7C124.5,103.6,124.4,103.5,124.6,103.7z"/>
		</g>
		<g class="st3">
			<path class="st1" d="M130.9,106.5c0.1,0,0.1,0,0.1,0C131,106.5,130.9,106.5,130.9,106.5z"/>
		</g>
		<g class="st3">
			<path class="st1" d="M130.8,106.5C130.8,106.5,130.8,106.5,130.8,106.5C130.8,106.5,130.7,106.5,130.8,106.5z"/>
		</g>
	</g>
	<g>
		<g>
			<path class="st2" d="M142,94.5c-4.6,5-8.8,10.4-12.5,16c-2,3-4.1,6.2-7.4,7.6c-0.7,0.3-1.5,0.5-2.3,0.3c-1.1-0.2-2.1-1.1-2.6-2.2
				c-0.5-1.1-0.5-2.3-0.5-3.4c0.1-0.9,0.2-1.8,0.7-2.6c0.4-0.7,1-1.4,1.6-1.9c1.9-1.5,1.2-2.2,1.6-3.8c1.1-4.6,7.9-4.6,10.6-8.6
				c-0.7-0.5-1.4-0.9-1.9-1.5c-0.6-0.6-1-1.4-1-2.2c0-1.3,0.8-2.4,1.5-3.4c-8.9-3.2-18.1-5.2-27.4-6.4c2-4,3.7-8.1,5.3-12.3
				c2.2-5.6,4.5-11.3,6.9-16.6c5.9,5.9,13,10.4,20.1,14.8c4.9,3,9.7,6.1,14.9,8.5c2.8,1.3,5.9,2.6,7.1,5.4c0.8,1.8,0.7,3.8,0,5.7
				c-0.6,1.8-1.7,3.5-2.8,5.1c-0.9,1.3-2,2.7-3.6,3.1C147.5,96.2,144.6,95.6,142,94.5z"/>
		</g>
		<g>
			<path class="st2" d="M103.8,58.1c-1.4,4.7-3.3,9.3-5.5,13.6c-1.4-0.2-2.5-1.4-3.1-2.7c-0.5-1.3-0.6-2.8-0.7-4.2
				c0-0.6,0-1.2,0.2-1.7c0.1-0.5,0.4-0.9,0.7-1.4c0.7-1.1,1.5-2.1,2.5-2.9C99.6,57.7,102,57.4,103.8,58.1z"/>
		</g>
		<g>
			<path class="st0" d="M102.6,82.9c4-10,7.9-20,11.9-30.2c-2.2-2.1-3.9-4.6-5-7.5c0,0-16,38.5-16.1,38.4
				C96.3,82.6,99.5,82.3,102.6,82.9z"/>
		</g>
		<g>
			<path class="st1" d="M135.1,91.1c0,0-0.1,0-0.1,0c-0.3-0.1-30.1-11.3-41.3-6.9c-0.1,0.1-0.3,0-0.4-0.1c-0.1,0-0.2,0-0.3,0
				c-0.2-0.1-0.3-0.3-0.2-0.5l16.3-39c0.1-0.1,0.2-0.2,0.4-0.2c0.2,0,0.3,0.1,0.3,0.3c3.5,9.9,15.2,17.1,26.5,24
				c2,1.2,4,2.4,5.9,3.7c0.1,0.1,0.2,0.3,0.2,0.4c-1.9,6.2-4.3,12.2-7,18.1C135.4,91,135.3,91.1,135.1,91.1z M100.6,82.4
				c12.7,0,31.5,6.8,34.3,7.9c2.6-5.6,4.8-11.5,6.7-17.4c-1.9-1.2-3.8-2.4-5.7-3.5c-11.1-6.8-22.6-13.8-26.5-23.5L93.8,83.3
				C95.7,82.7,98,82.4,100.6,82.4z"/>
		</g>
		<g>
			<path class="st1" d="M102.8,82.5c0,0-0.1,0-0.1,0c-0.2-0.1-0.3-0.3-0.2-0.5l11.5-28.5c0.1-0.2,0.3-0.3,0.5-0.2
				c0.2,0.1,0.3,0.3,0.2,0.5l-11.5,28.5C103,82.4,102.9,82.5,102.8,82.5z"/>
		</g>
		<g>
			<path class="st1" d="M97.8,72.3c-0.1,0-0.1,0-0.2-0.1c-1.7-1.1-3-3.1-3.5-5.1c-0.4-2.1,0-4.4,1.2-6.1c0.6-0.8,1.3-1.6,2.2-2.2
				c1.6-1.1,4-1.9,6-0.8c0.2,0.1,0.3,0.3,0.2,0.5c-0.1,0.2-0.3,0.3-0.5,0.2c-1.8-0.9-3.9-0.2-5.3,0.8c-0.8,0.6-1.5,1.2-2,2
				c-1.1,1.6-1.5,3.6-1.1,5.5c0.4,1.9,1.5,3.6,3.1,4.7c0.2,0.1,0.2,0.3,0.1,0.5C98.1,72.2,97.9,72.3,97.8,72.3z"/>
		</g>
		<g>
			<path class="st1" d="M148.9,96.7c-1.9,0-3.8-0.8-5.5-1.6c-1.5-0.7-2.9-1.4-4.2-2c-1.3-0.6-2.7-1.3-4.2-2
				c-0.2-0.1-0.3-0.3-0.2-0.5c0.1-0.2,0.3-0.3,0.5-0.2c1.5,0.7,2.9,1.4,4.2,2c1.3,0.6,2.7,1.3,4.2,2c2.4,1.1,5,2.1,7.2,1.1
				c1.6-0.7,2.6-2.4,3.6-4.3c0.8-1.5,1.8-3.3,2.2-5.1c0.4-2,0.1-3.9-0.9-5.2c-0.8-1-2.1-1.7-3.1-2.3c-3.5-1.9-6.9-3.7-11-5.6
				c-0.2-0.1-0.3-0.3-0.2-0.5c0.1-0.2,0.3-0.3,0.5-0.2c4.1,1.9,7.5,3.7,11,5.6c1.1,0.6,2.4,1.3,3.3,2.5c1.1,1.5,1.5,3.6,1,5.8
				c-0.4,2-1.4,3.8-2.2,5.3c-1.1,1.9-2.2,3.8-4,4.6C150.4,96.5,149.7,96.7,148.9,96.7z"/>
		</g>
		<g>
			<path class="st1" d="M120.7,119.1c-0.4,0-0.9-0.1-1.3-0.2c-2.8-0.9-3.9-4.4-3.1-7.1c0.7-2.3,2.2-3.5,4.1-5
				c0.4-0.3,0.7-0.6,1.1-0.9l0.1-0.1c2.8-2.3,5.8-5.3,8.8-9c0.7-0.9,1.5-2.4,2.2-4c0.4-0.9,0.9-1.8,1.4-2.6c0.1-0.2,0.3-0.2,0.5-0.1
				c0.2,0.1,0.2,0.3,0.1,0.5c-0.5,0.8-0.9,1.7-1.3,2.6c-0.8,1.6-1.5,3.1-2.3,4.1c-3,3.7-6,6.8-8.9,9.1l-0.1,0.1
				c-0.4,0.3-0.8,0.6-1.1,0.9c-1.9,1.5-3.3,2.6-3.9,4.6c-0.7,2.3,0.3,5.4,2.6,6.1c2.6,0.8,5-1.5,6-2.5c1.7-1.8,3-3.9,4.3-6
				c0.3-0.5,0.6-1,0.9-1.4c3.2-5.1,7-9.8,11.2-14c0.1-0.1,0.4-0.1,0.5,0c0.1,0.1,0.1,0.4,0,0.5c-4.1,4.2-7.9,8.9-11.1,13.9
				c-0.3,0.5-0.6,1-0.9,1.4c-1.3,2.1-2.7,4.3-4.4,6.1C125.2,117.1,123.1,119.1,120.7,119.1z"/>
		</g>
		<g>
			<path class="st1" d="M130.9,96.3c-0.1,0-0.2,0-0.3-0.1l-1.6-1.6c-0.2-0.2-0.5-0.5-0.7-0.8c-0.5-0.7-0.5-1.8-0.1-2.7
				c0.3-0.8,0.9-1.6,1.4-2.2c0.1-0.2,0.4-0.2,0.5-0.1c0.2,0.1,0.2,0.4,0.1,0.5c-0.5,0.6-1,1.3-1.3,2c-0.3,0.8-0.3,1.5,0.1,2.1
				c0.1,0.2,0.4,0.5,0.6,0.7l1.6,1.6c0.1,0.1,0.2,0.4,0,0.5C131.1,96.3,131,96.3,130.9,96.3z"/>
		</g>
		<g>
			<path class="st1" d="M152.8,83.8c-0.1,0-0.1,0-0.2,0c-3-1.6-6.1-3-9.3-4.3c-0.2-0.1-0.3-0.3-0.2-0.5c0.1-0.2,0.3-0.3,0.5-0.2
				c3.2,1.3,6.3,2.7,9.3,4.3c0.2,0.1,0.3,0.3,0.2,0.5C153,83.7,152.9,83.8,152.8,83.8z"/>
		</g>
		<g>
			<path class="st1" d="M151,87.6c-0.1,0-0.1,0-0.2,0c-3.1-1.4-6.3-2.7-9.4-3.9c-0.2-0.1-0.3-0.3-0.2-0.5c0.1-0.2,0.3-0.3,0.5-0.2
				c3.2,1.2,6.3,2.6,9.4,3.9c0.2,0.1,0.3,0.3,0.2,0.5C151.2,87.5,151.1,87.6,151,87.6z"/>
		</g>
		<g>
			<path class="st1" d="M149.2,91.8c-0.1,0-0.1,0-0.2,0c-3-1.5-6.2-2.9-9.4-4c-0.2-0.1-0.3-0.3-0.2-0.5c0.1-0.2,0.3-0.3,0.5-0.2
				c3.2,1.2,6.4,2.5,9.4,4.1c0.2,0.1,0.3,0.3,0.2,0.5C149.5,91.7,149.3,91.8,149.2,91.8z"/>
		</g>
		<g>
			<path class="st1" d="M94.7,56.6c-0.1,0-0.2,0-0.3-0.1c-3-2.8-5-6.6-5.8-10.7c0-0.2,0.1-0.4,0.3-0.4c0.2,0,0.4,0.1,0.4,0.3
				c0.7,3.9,2.7,7.6,5.5,10.3c0.2,0.1,0.2,0.4,0,0.5C94.9,56.6,94.8,56.6,94.7,56.6z"/>
		</g>
		<g>
			<path class="st1" d="M91.8,60.5c-0.1,0-0.1,0-0.2-0.1c-2.2-1.4-4.6-2.7-7-3.6c-0.2-0.1-0.3-0.3-0.2-0.5c0.1-0.2,0.3-0.3,0.5-0.2
				c2.5,1,4.9,2.2,7.2,3.7c0.2,0.1,0.2,0.3,0.1,0.5C92.1,60.5,91.9,60.5,91.8,60.5z"/>
		</g>
		<g>
			<path class="st1" d="M79.3,67.2c-0.1,0-0.3-0.1-0.3-0.2c-0.1-0.2,0-0.4,0.2-0.5c3.4-1.7,7.3-2.5,11.1-2.3c0.2,0,0.4,0.2,0.4,0.4
				c0,0.2-0.2,0.4-0.4,0.4c-3.7-0.2-7.4,0.6-10.7,2.2C79.4,67.2,79.3,67.2,79.3,67.2z"/>
		</g>
		<g>
			<path class="st1" d="M107.4,80.6C107.4,80.6,107.4,80.6,107.4,80.6c-0.1,0-0.1-0.1-0.1-0.2l3.4-6.4c0-0.1,0.1-0.1,0.2-0.1
				c0.1,0,0.1,0.1,0.1,0.2l-3.4,6.4C107.5,80.6,107.5,80.6,107.4,80.6z"/>
		</g>
		<g>
			<path class="st1" d="M110.4,81.4C110.3,81.4,110.3,81.4,110.4,81.4c-0.1,0-0.1-0.1-0.1-0.2l1.7-3.2c0-0.1,0.1-0.1,0.2-0.1
				c0.1,0,0.1,0.1,0.1,0.2l-1.7,3.2C110.5,81.4,110.4,81.4,110.4,81.4z"/>
		</g>
		<g>
			<path class="st1" d="M113.6,82.7C113.6,82.7,113.6,82.7,113.6,82.7c-0.1,0-0.1-0.1-0.1-0.2l1.3-2.4c0-0.1,0.1-0.1,0.2,0
				c0.1,0,0.1,0.1,0,0.2l-1.3,2.4C113.7,82.6,113.7,82.7,113.6,82.7z"/>
		</g>
		<g>
			<path class="st1" d="M117.3,83.4C117.2,83.4,117.2,83.4,117.3,83.4c-0.1,0-0.1-0.1-0.1-0.2l0.9-1.8c0-0.1,0.1-0.1,0.2-0.1
				c0.1,0,0.1,0.1,0.1,0.2l-0.9,1.8C117.3,83.4,117.3,83.4,117.3,83.4z"/>
		</g>
		<g class="st3">
			<path class="st1" d="M94.3,65.5c0.1-0.5,0.9-0.7,1.3-0.4c0.2,0.2,0.3,0.5,0.4,0.8c0.4,1,1.2,2.1,1.8,2.7c0.7,0.7,0.6,0.3,1.2,1
				c0.7,1-0.6,2.2-1.6,1.4c-1.7-1.1-2.1-2.3-2.8-3.7c-0.2-0.4-0.3-0.8-0.4-1.3C94.2,65.8,94.2,65.7,94.3,65.5z"/>
		</g>
		<g class="st3">
			<path class="st1" d="M93.5,82.7c0.3,0.4,0.8,0.5,1.2,0.3c0,0,0,0,0.1,0c0,0,0.1,0,0.1,0c1.1-0.5,1.7-0.4,3.3-0.5
				c1.9-0.2,3.4-0.1,5,0c0,0,0,0,0,0.1c0.1,0.2,0.3,0.4,0.5,0.4c0.3,0.1,0.4,0,1.1,0.1c0.8,0,1.6,0.2,2.5,0.3
				c2.6,0.3,5.1,0.9,7.7,1.4c1.9,0.4,2.7,0.9,5,1.4c3.6,0.8,6.1,1.6,9.3,2.5c0.4,0.1,1.3,0.5,2.5,0.9c-0.3-0.1-0.7-0.2-1-0.2
				c0,0-0.1,0-0.1,0c0,0,0,0,0,0c-0.9-0.5-2,0.4-1.6,1.3c0.2,0.6,0.9,0.9,1.4,0.7c0,0,0,0,0,0c1.4,0.1,1.6,0.3,2.9,0.7
				c-0.1,0.2-0.3,0.4-0.4,0.6c0.1,0.1,0.2,0.3,0.1,0.5c-1,2.1-2.4,3.9-3.9,5.7c-0.7,0.9-1.6,1.7-2.4,2.5c-0.4,0.4-0.8,0.8-1.3,1.2
				c-0.1,0.1-0.2,0.2-0.3,0.2c0,0.3,0.1,0.6,0.4,0.7c0.4,0.3,1,0,1.3-0.3c0.5-0.4,1.1-1,1.2-1c0.4-0.4,0.9-0.8,1.4-1.2
				c0.3-0.3,0.7-0.6,1-0.9c0.1-0.1,0.1-0.1,0.2-0.2c0.3-0.3,0.6-0.5,0.8-0.6c0.5-0.4,0.9-0.9,1.3-1.3c0.8-0.8,1.6-1.6,2.4-2.4
				c0.2-0.1,0.3-0.3,0.5-0.4c0.3-0.2,0.2-0.2,0.9-0.4c0.2,0,0.4,0,0.5,0c0.9,0.1,1,0.2,1.6,0.3c0.7,0.2,1.3,0.5,1.9,0.8
				c0.3,0.2,0.7,0.1,1-0.1c0.4,0.1,0.9-0.1,1.1-0.5c0.5-0.6,0-1.5-0.7-1.7c-0.3-0.2-0.7-0.4-1.1-0.6c0.2,0.1,0.5,0.2,0.7,0.3
				c2.4,1.1,4.7,2.6,7.4,2.7c1.2,0.1,2.4-0.3,3.5-0.5c0.7,0,1.1-0.9,0.8-1.4c-0.2-0.5-0.9-0.6-1.4-0.5c-1.6,0.2-2.1,0.3-3.1,0.1
				c-2.3-0.4-3.8-1.3-6.3-2.6c-3.8-2-7.6-4-11.6-5.4c-3.8-1.4-7.9-2.1-11.8-3.2c-1.3-0.3-2.6-0.7-4-0.9c-1.6-0.2-3.2-0.3-4.7-0.6
				c-3.5-0.5-7.1-0.8-10.7-0.7c-1.5,0.2-3.2,0-4.6,0.6C93.8,81.2,92.9,81.8,93.5,82.7z M134.2,90.7c0.1,0,0.1-0.1,0.2-0.1
				c-0.1,0-0.2-0.1-0.3-0.1C134.1,90.6,134.2,90.7,134.2,90.7z"/>
		</g>
	</g>
	<g class="st3">
		<path class="st1" d="M182.7,195.8c0.2-0.4,0.6-0.4,1-0.5c0.6-0.1,1.2-0.1,1.9-0.1c0.3,0,0.6,0.1,0.9,0.3c0.3,0.3,0.3,0.6,0.2,0.9
			c0.3,0.2,0.6,0.5,0.8,0.8c1.3,1.5,2.3,3.3,3,5.1c0.4,1.3,0.4,1.5,0.7,2.8c0.3,1.8,0.4,3.4,0,4.5c-0.7,1.2-2,0.6-2.9-0.1
			c-0.1-0.1-0.3-0.2-0.4-0.3c-0.5-0.3-0.8-0.8-0.5-1.4c0.2-0.4,0.7-0.5,1.1-0.4c0.4,0,0.8,0,1.1,0.3c0.1,0.1,0.1,0.2,0.2,0.3
			c0,0,0-0.1,0-0.1c0,0,0,0,0-0.1c0.1-1.2-0.1-1.3-0.3-2.6c-0.4-2-0.9-3.1-1.6-4.5c-0.8-1.4-1.1-1.8-2.1-2.9c-0.6-0.5-0.3-0.3-1-0.6
			c-0.3-0.1-0.6-0.1-0.8-0.3c-0.1,0-0.3,0-0.4,0c0,0,0,0,0,0C182.8,197,182.4,196.3,182.7,195.8z"/>
	</g>
	<g class="st3">
		<path class="st1" d="M215.5,173c0.7,0,0.7,0.8,0.9,1.2c0.3,1,0.5,2,0.8,3c0.8,2.8,1.9,5.3,2.5,6.9c0.2,0.7,1.8,3.8,2.6,5.3
			c0.2,0.5,0.5,0.9,0.7,1.3c0.2,0.3,0.4,0.6,0.4,0.9c0.1,0.4,0,0.7-0.2,0.9c-1-0.2-2-0.2-3-0.2c-0.1,0-0.1-0.1-0.2-0.1
			c-1.2-1-1.7-2.7-2.1-4.2c-0.1-0.4-0.2-0.8-0.3-1.2c-0.1-0.2-0.1-0.5,0-0.7c0.1-0.1,0.2-0.2,0.3-0.3c-0.7-2-1.4-4.1-2-6.2
			c-0.5-1.5-0.7-3.1-1-4.6c-0.1-0.5-0.3-1-0.2-1.5C214.9,173.2,215.2,173,215.5,173z"/>
	</g>
	<g class="st3">
		<path class="st1" d="M180.4,209.6c1.1-0.4,2.4-1.3,4.2-1.5c-0.1,0-0.1,0-0.1,0c0.1,0,0.4,0,0.6,0c0.5,0,1,0.1,1.3,0.4
			c0.8,0.6,1.7,1.8,2,1.8c0,0,0,0,0,0c0.1,0.1,0.2,0.1,0.4,0.2c0.2,0.1,0.5,0.2,0.8,0.2c1.3,0.1,2.5-0.1,3.8-0.2
			c1.3-0.1,2.7-0.1,4-0.2c1.5-0.1,3-0.3,4.5-0.4c2.7-0.3,5.4-0.2,8.1-0.4c2.1-0.2,4.3,0,6.4-0.1c3.7,0,7.5,0.2,11.2,0.4
			c2.5,0.2,7.8,0.4,9.9-0.3c0.6-0.1,1.2-0.6,1.7-0.3c0.6,0.3,0.5,1.3-0.2,1.5c-1.7,0.6-3.4,1-5.2,1.2c-1.4,0.2-4.4,0.3-6.6,0.1
			c-2.1-0.2-4.2-0.1-6.3-0.2c-2.2-0.2-4.5-0.1-6.7,0c-1.3,0-2.7,0-4,0c-1.9,0.1-3.8,0-5.7,0.1c-2.6,0.2-5.2,0.5-7.8,0.6
			c-1.3,0.1-2.5,0.1-3.8,0.2c-1.7,0.2-3.5,0.3-5.1-0.4c-1.1-0.4-1.8-1.3-2.5-2.1c0,0-0.1,0-0.1,0c-0.7,0.2-0.5,0-1.6,0.4
			c-2.3,0.6-3.7,1.4-5.3,2.9c-0.6,0.6-0.4,0.3-0.7,0.9c-0.1,0.2-0.2,0.5-0.4,0.6c-0.6,0.6-1.7,0-1.7-0.8
			C175.8,212.3,178.7,210.5,180.4,209.6z"/>
	</g>
	<g>
		<path class="st2" d="M119.6,107.6c-0.3-0.6-0.4,0-0.6-0.7c-0.2-0.7-0.2-1.4,0-2c0.3-0.6,0.9-1.1,1.6-1.2c0.8,0,1.5,0.6,2.1,1.2
			c1,1.1,1.9,2.2,2.6,3.4c0.3,0.5,0.5,1.1,0.1,1.5c-0.2,0.2-0.5,0.3-0.8,0.3c-0.8,0-1.6-0.3-2.2-0.9c-0.2-0.3-0.4-0.6-0.7-0.8
			c-0.3-0.3-0.7-0.6-0.8-0.9C120.7,106.6,120.7,106,119.6,107.6z"/>
	</g>
	<g>
		<path class="st2" d="M121.7,104.9c-0.3-0.6-0.7-1.2-0.9-1.9c-0.2-0.7-0.2-1.4,0-2c0.3-0.6,0.9-1.1,1.6-1.2c0.8,0,1.5,0.6,2.1,1.2
			c1,1.1,1.9,2.2,2.6,3.4c0.3,0.5,0.5,1.1,0.1,1.5c-0.2,0.2-0.5,0.3-0.8,0.3c-0.8,0-1.6,0.3-2.1-0.3
			C124.1,105.7,121.7,103.6,121.7,104.9z"/>
	</g>
	<g>
		<path class="st2" d="M123.5,101.7c-0.3-0.6-0.7-1.2-0.9-1.9c-0.2-0.7-0.2-1.4,0-2c0.3-0.6,0.9-1.1,1.6-1.2c0.8,0,1.5,0.6,2.1,1.2
			c1,1.1,1.9,2.2,2.6,3.4c0.3,0.5,0.5,1.1,0.1,1.5c-0.2,0.2-0.5,1-0.8,1c-0.8,0-1.6-1-2.2-1.6C125.9,101.9,123.6,100.4,123.5,101.7z
			"/>
	</g>
	<g>
		<path class="st2" d="M124.3,96.6c-0.7,0,0-2.5,0.3-3.1c0.3-0.6,0.9-1.1,1.6-1.2c0.8,0,1.5,0.6,2.1,1.2c1,1.1,1.9,2.2,2.6,3.4
			c0.3,0.5,0.5,1.1,0.1,1.5c-0.2,0.2,0.3,2.9,0.1,2.9c-0.8,0-1.8-0.3-2.4-0.9C128.4,100.2,126.1,96.6,124.3,96.6z"/>
	</g>
	<g>
		<path class="st2" d="M132.9,99.6c-1.1-1.4-3.7-4.4-2.2-5.2c0.7-0.4,2.5,0.5,3.1,1.1c1,1.1,3,2.1,3.7,3.3c0.3,0.5,1.3,3.2,0.9,3.6
			c-0.2,0.2,0,2.7-0.3,2.8c-0.8,0-4.2,1-4.7,0.4C133,105.2,135.2,102.5,132.9,99.6z"/>
	</g>
	<g>
		<path class="st1" d="M124.7,111c-1.6,0-3.2-2.4-4-3.7c-0.1-0.1-0.2-0.2-0.2-0.3c-0.1-0.2-0.1-0.4,0.1-0.5c0.2-0.1,0.4-0.1,0.5,0.1
			c0.1,0.1,0.1,0.2,0.2,0.3c0.7,1.1,2.4,3.5,3.6,3.3c0.4-0.1,0.5-0.2,0.6-0.4c0.3-0.8-0.9-2.7-2.2-4.1c-0.7-0.8-1.4-1.6-2.4-1.7
			c-0.8-0.1-1.4,0.5-1.6,1.2c-0.2,0.8,0.2,1.7,0.6,2.5l0,0.1c0.1,0.2,0,0.4-0.2,0.5c-0.2,0.1-0.4,0-0.5-0.2l0-0.1
			c-0.4-0.9-1-2-0.7-3c0.3-1.1,1.3-1.8,2.4-1.7c1.2,0.1,2.1,1.1,2.9,2c0.7,0.8,2.8,3.4,2.3,4.9c-0.1,0.3-0.4,0.7-1.1,0.9
			C124.9,110.9,124.8,111,124.7,111z"/>
	</g>
	<g>
		<path class="st1" d="M128.9,105.8c-0.1,0-0.2,0-0.3,0c-0.7-0.1-1.5-0.8-1.8-1.4c-0.1-0.2,0-0.4,0.2-0.5c0.2-0.1,0.4,0,0.5,0.2
			c0.1,0.3,0.7,0.8,1.2,0.9c0.1,0,0.2,0,0.3,0c0.2-0.2,0.5-1.7-0.3-3.3c-0.8-1.8-2.4-3.9-3.8-4.4c-0.7-0.3-1.3-0.2-1.8,0.1
			c-0.6,0.5-0.8,1.5-0.7,2.7c0,0.2-0.1,0.4-0.3,0.4c-0.2,0-0.4-0.1-0.4-0.3c-0.2-1.5,0.2-2.8,0.9-3.4c0.4-0.4,1.2-0.7,2.5-0.2
			c1.7,0.6,3.3,2.9,4.2,4.8c0.9,2,0.5,3.7,0.1,4.2C129.4,105.7,129.2,105.8,128.9,105.8z"/>
	</g>
	<g>
		<path class="st1" d="M126.6,109.3c-0.5,0-1.1-0.2-1.3-0.4c-0.2-0.1-0.2-0.4,0-0.5c0.1-0.2,0.4-0.2,0.5,0c0.1,0.1,1,0.3,1.3,0
			c0.2-0.2,0.3-0.5,0.3-1c0.1-0.9-0.2-1.9-0.7-3.1c-0.7-1.6-1.8-2.8-3.1-3.6c-0.5-0.3-1.6-0.5-2.4,0c-0.7,0.4-0.9,1.3-0.7,2.6
			c0,0.2-0.1,0.4-0.3,0.4c-0.2,0-0.4-0.1-0.4-0.3c-0.3-2,0.4-2.9,1.1-3.4c1-0.7,2.5-0.4,3.2,0c1.5,0.9,2.6,2.2,3.4,3.9
			c0.6,1.3,0.8,2.4,0.8,3.5c0,0.7-0.2,1.1-0.5,1.5C127.4,109.2,127,109.3,126.6,109.3z"/>
	</g>
	<g>
		<path class="st1" d="M133.7,120.6c-0.2,0-0.4-0.2-0.4-0.4c-0.2-4.1,1.1-6.7,2.3-9.2c0.6-1.3,1.3-2.6,1.6-4l0.1-0.4
			c0.6-2.2,1.2-4.5,0.4-6.4c-0.5-1.3-1.6-2.3-2.7-3.3l-0.2-0.1c-0.7-0.6-1.6-1.4-2.3-1.8c-0.9-0.5-1.4-0.5-1.6-0.4
			c-0.1,0-0.1,0.2-0.1,0.3c0,1.7,0.4,2.1,1.3,3.2c0.2,0.2,0.5,0.5,0.7,0.8c1.6,1.9,1.7,5,0.4,7.3c-0.1,0.2-0.3,0.2-0.5,0.1
			c-0.2-0.1-0.2-0.3-0.1-0.5c1.2-2.1,1-4.8-0.4-6.5c-0.3-0.3-0.5-0.6-0.7-0.8c-1-1.1-1.5-1.7-1.5-3.7c0-0.6,0.3-0.8,0.5-1
			c0.5-0.3,1.3-0.2,2.3,0.4c0.8,0.4,1.8,1.3,2.5,1.9l0.2,0.1c1.2,1,2.3,2.1,2.9,3.6c0.9,2.2,0.2,4.7-0.3,6.9l-0.1,0.4
			c-0.4,1.5-1,2.8-1.7,4.1c-1.2,2.4-2.4,4.9-2.3,8.8C134.1,120.4,134,120.6,133.7,120.6C133.7,120.6,133.7,120.6,133.7,120.6z"/>
	</g>
	<g>
		<path class="st1" d="M130.3,102.7c-0.2,0-0.3,0-0.5-0.1c-0.5-0.2-0.8-0.5-1.1-1.1c-0.1-0.2,0-0.4,0.2-0.5c0.2-0.1,0.4,0,0.5,0.2
			c0.2,0.4,0.4,0.6,0.7,0.7c0.3,0.1,0.6,0,0.7,0c0.7-0.4,0.5-1.7,0.3-2.4l-0.1-0.4c-0.5-1.4-1-2.9-1.8-4.1c-0.7-1-2.4-2.7-3.7-2.2
			c-1,0.4-1,1.6-0.9,3c0,0.4,0,0.7,0,0.9c0,0.2-0.2,0.4-0.4,0.4c-0.2,0-0.4-0.2-0.4-0.4c0-0.2,0-0.5,0-0.8c-0.1-1.2-0.2-3.1,1.4-3.7
			c1.7-0.6,3.7,1.2,4.5,2.5c0.9,1.3,1.4,2.8,1.9,4.3l0.1,0.4c0.4,1.2,0.4,2.7-0.7,3.3C130.9,102.6,130.7,102.7,130.3,102.7z"/>
	</g>
	<g>
		<path class="st2" d="M114.9,41.5c0-3.1,2.5-5.6,5.6-5.6c3.1,0,5.6,2.5,5.6,5.6c0,3.1-2.5,5.6-5.6,5.6
			C117.4,47,114.9,44.6,114.9,41.5z"/>
		<path class="st1" d="M120.4,47.4c-3.3,0-5.9-2.7-5.9-5.9c0-3.3,2.7-5.9,5.9-5.9c3.3,0,5.9,2.7,5.9,5.9
			C126.4,44.8,123.7,47.4,120.4,47.4z M120.4,36.3c-2.9,0-5.2,2.3-5.2,5.2c0,2.9,2.3,5.2,5.2,5.2c2.9,0,5.2-2.3,5.2-5.2
			C125.6,38.6,123.3,36.3,120.4,36.3z"/>
	</g>
	<g>
		<path class="st1" d="M179.6,41.9h-46.4c-0.2,0-0.4-0.2-0.4-0.4c0-0.2,0.2-0.4,0.4-0.4h46.4c0.2,0,0.4,0.2,0.4,0.4
			C180,41.7,179.8,41.9,179.6,41.9z"/>
	</g>
	<g>
		<path class="st1" d="M264.2,215.5h-46.4c-0.2,0-0.4-0.2-0.4-0.4c0-0.2,0.2-0.4,0.4-0.4h46.4c0.2,0,0.4,0.2,0.4,0.4
			C264.6,215.4,264.4,215.5,264.2,215.5z"/>
	</g>
	<g>
		<path class="st1" d="M264.2,223.4h-32.6c-0.2,0-0.4-0.2-0.4-0.4c0-0.2,0.2-0.4,0.4-0.4h32.6c0.2,0,0.4,0.2,0.4,0.4
			C264.6,223.2,264.4,223.4,264.2,223.4z"/>
	</g>
</g>
<g>
	<path class="st0" d="M89.1,140.9c0-1.9-1.5-3.4-3.4-3.4c-1.9,0-3.4,1.5-3.4,3.4c0,1.9,1.5,3.4,3.4,3.4
		C87.6,144.3,89.1,142.8,89.1,140.9z"/>
	<path class="st1" d="M85.6,144.7c-2.1,0-3.8-1.7-3.8-3.8c0-2.1,1.7-3.8,3.8-3.8c2.1,0,3.8,1.7,3.8,3.8
		C89.5,143,87.8,144.7,85.6,144.7z M85.6,137.8c-1.7,0-3.1,1.4-3.1,3.1c0,1.7,1.4,3.1,3.1,3.1c1.7,0,3.1-1.4,3.1-3.1
		C88.7,139.2,87.3,137.8,85.6,137.8z"/>
</g>
<g>
	<path class="st0" d="M52.1,198.8c0-1.9-1.5-3.4-3.4-3.4c-1.9,0-3.4,1.5-3.4,3.4c0,1.9,1.5,3.4,3.4,3.4
		C50.5,202.3,52.1,200.7,52.1,198.8z"/>
	<path class="st1" d="M48.6,202.7c-2.1,0-3.8-1.7-3.8-3.8c0-2.1,1.7-3.8,3.8-3.8c2.1,0,3.8,1.7,3.8,3.8
		C52.5,200.9,50.7,202.7,48.6,202.7z M48.6,195.8c-1.7,0-3.1,1.4-3.1,3.1s1.4,3.1,3.1,3.1c1.7,0,3.1-1.4,3.1-3.1
		S50.3,195.8,48.6,195.8z"/>
</g>
<g>
	<g>
		<g>
			<path class="st0" d="M253.8,30.6c9.2-8.8,18.8-18.1,28-26.9c1.7-1.6,3.6-3.3,5.9-3.3c1.4,0,2.8,0.7,4,1.4
				c11,6.9,19.7,22.6,26.7,28.3c-0.1,10.8-7.9,22-15.9,29.3c-2.8,2.5-5.8,4.9-9.4,6c-2.7,0.9-5.5,1-8.3,0.6
				c-8.2-1.1-15.2-6.7-19.9-13.5C260.2,45.8,257,38.4,253.8,30.6z"/>
			<path class="st1" d="M284.7,66.4c-7.5-1-14.8-6-20.1-13.7c-4.8-7-8.1-14.7-11.1-22c-0.1-0.1,0-0.3,0.1-0.4
				c4.6-4.4,9.3-8.9,14-13.4c4.7-4.5,9.4-9.1,14-13.5c1.8-1.7,3.8-3.4,6.2-3.4c1.6,0,3,0.8,4.2,1.5c6.6,4.1,12.3,11.4,17.4,17.8
				c3.3,4.2,6.5,8.2,9.3,10.5c0.1,0.1,0.1,0.2,0.1,0.3c-0.1,11.1-8.3,22.6-16,29.6c-2.4,2.2-5.6,4.9-9.5,6.1
				c-1.7,0.6-3.6,0.8-5.6,0.8C286.7,66.6,285.7,66.6,284.7,66.4z M308.7,19.8c-5-6.4-10.7-13.6-17.2-17.6c-1.1-0.7-2.4-1.4-3.8-1.4
				c0,0,0,0,0,0c-2.1,0-3.9,1.6-5.6,3.2c-4.6,4.4-9.3,8.9-14,13.5c-4.6,4.5-9.3,8.9-13.8,13.3c2.9,7.2,6.2,14.8,10.9,21.6
				c5.2,7.5,12.3,12.4,19.6,13.4c2.9,0.4,5.7,0.2,8.2-0.6c3.8-1.2,6.9-3.8,9.3-6c7.5-6.9,15.5-18,15.7-28.9
				C315.2,27.9,312,24,308.7,19.8z"/>
		</g>
		<g>
			<path class="st2" d="M265.7,6.5c0.8,17.4,1.2,34.7,1.4,52.1c0,0,39.5-0.9,39.5-1.4c-0.4-17.1-0.5-34.3-0.3-51.5L265.7,6.5z"/>
			<path class="st1" d="M266.9,58.9c-0.1-0.1-0.1-0.2-0.1-0.3c-0.2-17.3-0.6-34.8-1.4-52.1c0-0.1,0-0.2,0.1-0.3
				c0.1-0.1,0.2-0.1,0.3-0.1l40.6-0.7c0.1,0,0.2,0,0.3,0.1s0.1,0.2,0.1,0.3c-0.2,17.1-0.1,34.4,0.3,51.4c0,0,0,0,0,0
				c0,0.4,0,0.5-6.6,0.8c-3.3,0.1-7.9,0.3-13.6,0.4c-9.8,0.3-19.7,0.5-19.8,0.5c0,0,0,0,0,0C267,59,266.9,58.9,266.9,58.9z M306,6.2
				l-39.8,0.7c0.8,17,1.2,34.3,1.4,51.4c14.6-0.3,36.2-0.9,38.8-1.3C305.9,40.1,305.8,23,306,6.2z"/>
		</g>
		<g>
			<path class="st2" d="M253.8,30.6c1.1,9.6,1.2,19.2,0.5,28.8c-0.2,2.7-0.4,5.6,0.4,8.1c0.6,1.8,2.3,3.1,4.2,3l7.4-0.2
				c2.9-0.1,5.8-0.1,8.7-0.2c12.7-0.3,25.3-0.6,38-0.9c1.2,0,2.4-0.1,3.5-0.5c1.1-0.4,2-1.4,2-2.5c0.2-12.2,0.3-24.3-0.1-36.2
				c-8.3,8.3-16.7,16.3-25.4,24.2c-1.4,1.2-3.2,2.6-5,2.1c-5.2-1.8-9.5-5.5-13.7-9C267.5,41.4,260.7,35.6,253.8,30.6z"/>
			<path class="st1" d="M254.3,67.7c-0.8-2.5-0.6-5.3-0.4-8.3c0.7-9.6,0.6-19.2-0.5-28.8c0-0.1,0.1-0.3,0.2-0.4
				c0.1-0.1,0.3-0.1,0.4,0c6.8,5,13.8,11,20.6,16.7c3.9,3.4,8.4,7.1,13.5,9c1.6,0.5,3.4-0.9,4.6-2c8.6-7.8,17.1-16,25.4-24.2
				c0.1-0.1,0.3-0.1,0.4-0.1c0.1,0.1,0.2,0.2,0.2,0.3c0.3,10.3,0.3,21.8,0.1,36.2c0.1,1.3-1.1,2.4-2.2,2.8c-1.2,0.5-2.4,0.5-3.6,0.5
				l-54.1,1.3c0,0-0.1,0-0.1,0C256.7,70.9,254.9,69.6,254.3,67.7z M293.2,54.6c-1.3,1.2-3.3,2.7-5.3,2.1c-5.3-1.9-9.8-5.7-13.8-9.1
				c-6.5-5.6-13.2-11.3-19.8-16.2c1,9.3,1.1,18.7,0.4,28.1c-0.2,2.8-0.4,5.6,0.4,8c0.5,1.7,2.1,2.8,3.8,2.8l54.1-1.3
				c1.1,0,2.3-0.1,3.3-0.5c0.9-0.4,1.8-1.2,1.8-2.1c0.2-14,0.2-25.3,0-35.4C310,39,301.6,46.9,293.2,54.6z"/>
		</g>
		<g>
			<path class="st1" d="M273.4,15.5C273.4,15.5,273.4,15.5,273.4,15.5l26-0.6c0.2,0,0.4-0.2,0.4-0.4c0-0.2-0.2-0.4-0.4-0.4l-26,0.6
				c-0.2,0-0.4,0.2-0.4,0.4C273,15.4,273.2,15.5,273.4,15.5z"/>
		</g>
		<g>
			<path class="st1" d="M299.5,23.5c0.2,0,0.4-0.2,0.4-0.4c0-0.2-0.2-0.4-0.4-0.4l-26.3-0.1c0,0,0,0,0,0c-0.2,0-0.4,0.2-0.4,0.4
				c0,0.2,0.2,0.4,0.4,0.4L299.5,23.5C299.5,23.5,299.5,23.5,299.5,23.5z"/>
		</g>
		<g>
			<path class="st1" d="M292.1,31.6c2.4,0,4.8,0,7.1,0c0.2,0,0.4-0.2,0.4-0.4c0-0.2-0.2-0.4-0.4-0.4c0,0,0,0,0,0
				c-8.5,0.1-17.2,0-25.7-0.2c-0.2,0-0.4,0.2-0.4,0.4c0,0.2,0.2,0.4,0.4,0.4C279.7,31.6,285.9,31.6,292.1,31.6z"/>
		</g>
		<g>
			<path class="st1" d="M273.5,39.3L273.5,39.3l25.9,0c0.2,0,0.4-0.2,0.4-0.4c0-0.2-0.2-0.4-0.4-0.4l0,0l-25.9,0
				c-0.2,0-0.4,0.2-0.4,0.4S273.3,39.3,273.5,39.3z"/>
		</g>
		<g class="st3">
			<path class="st1" d="M266.5,37.1c-1.5-2.1-3.6-3.6-5.8-4.9c-0.8-0.6-1.7-1-2.6-1.5c-0.9-0.5-1.8-1-2.8-1.3
				c-1.7-0.4-2.3,2-0.7,2.5c1.7,0.6,2.2,0.9,3.5,1.4c0,0,0,0,0,0c0.1,0.1,0.3,0.1,0.4,0.2c-0.1,0.4,0,0.9,0.4,1.1
				c1.4,0.7,2.3,1.2,3.2,2.1c0.5,0.5,0.9,1,1.4,1.5c0.2,0.2,0.5,0.4,0.8,0.4c0.2,0,0.3-0.1,0.5-0.2c0,0,0.1,0.1,0.1,0.1
				c0.1,0.1,0.4,0.5,0.5,0.6c0,0,0,0,0,0c0.1,0.1,0.1,0.2,0.2,0.3c0.5,0.4,1.4,0.1,1.5-0.5C267.4,38.2,266.9,37.6,266.5,37.1z"/>
		</g>
		<g class="st3">
			<path class="st1" d="M317.1,29.9c-0.3,0.1-0.6,0.4-0.8,0.6c0.4-0.3-0.5,0.4-1,0.8c-1.5,1.1-3,2.2-4.4,3.4c-1,0.8-1.7,1.3-3.1,2.4
				c-0.4,0.4-0.9,0.7-1.3,1.1c-0.2,0.2-0.4,0.4-0.5,0.6c-0.5,1.1,1,2.2,1.9,1.3c1.8-1.7,3.7-3.3,5.5-5c1.4-1.2,2.1-1.6,3.7-2.9
				c0.3-0.3,0.9-0.6,1.1-1C318.6,30.5,317.9,29.7,317.1,29.9z"/>
		</g>
		<g class="st3">
			<path class="st1" d="M303.8,42.5c-0.9,0.8-2.4,2.2-3,2.7c-0.6,0.5-2,1.5-3.5,2.7c-1.7,1.5-2.5,2.1-4.2,3.5c-1,0.7-2.3,2-4.2,2.3
				c-1.5,0-1.6,0-3-0.3c-1.1-0.3-1.1-0.4-2.3-1c-1.1-0.6-2.2-1.4-3.3-2c-0.4-0.2-0.9-0.7-1.4-0.5c-0.8,0.2-1,1.4-0.2,1.8
				c1.8,1.1,3.5,2.3,5.3,3.2c1,0.5,2.2,0.7,3.3,0.9c2.9,0.7,5.4-1.1,7.4-3c1.9-1.6,3.6-3.3,5.5-4.9c1.4-1.2,2.8-2.5,4.1-3.7
				c0.2-0.3,0.6-0.4,0.7-0.8C305.4,42.6,304.4,41.9,303.8,42.5z"/>
		</g>
		<g class="st3">
			<path class="st1" d="M293.9,4.1c-2.2,0.1-4.4,0-6.6-0.2c-1.6-0.1-3.3,0.1-4.9,0.3c-0.5,0.1-0.9,0.1-1.4,0.2
				c-0.5,0-0.9,0.2-1.2,0.6c-0.4,0.7,0.1,1.7,1,1.7c2.9-0.5,5.9-0.4,8.8-0.3c1.5,0,3-0.1,4.6-0.2c0.5-0.1,1.1,0,1.7-0.2
				c0.4-0.1,0.6-0.6,0.6-1C296.5,3.7,294.9,4.1,293.9,4.1z"/>
		</g>
	</g>
	<g class="st3">
		<path class="st1" d="M317.6,65.7c-0.3,0-0.5,0.1-0.7,0.3c0,0,0,0,0,0c-0.1,0.1-0.3,0.2-0.4,0.3c-0.5,0.4-1.8,0.6-2,0.6
			c-1.5,0.2-3.1,0.1-4.7,0c-1.7,0-3.3-0.1-5-0.2c-4.6,0-9.1-0.2-13.7,0.2c-3.6,0.3-7.3,0.1-10.9,0.2c-1.6,0.1-3.2,0.1-4.8,0.1
			c-2.2,0.1-4.5,0.4-6.7,0.7c-1.4,0.3-5.6,0.4-8.3,0.2c-1.7-0.2-0.6,0-2.1-0.3c-0.7-0.2-0.5-0.1-1.4-0.7c0,0,0,0,0,0
			c-0.3-0.3-0.6-0.5-1-0.5c-1,0-1.5,1.3-0.8,1.9c0.9,0.8,1.9,1.5,3,1.8c1,0.3,2.1,0.4,3.1,0.6c4.2,0.5,8.5-0.2,12.7-0.4
			c4.6-0.2,9.3-0.1,13.9-0.5c3-0.2,6.1-0.6,9.1-0.7c2.3-0.1,4.6,0,6.9-0.1c2-0.1,4-0.2,6-0.3c2.5,0,4.1,0,6.2-0.5
			c0.6-0.2,1.2-0.5,1.7-0.8c0.3-0.2,0.6-0.4,0.7-0.7C318.8,66.4,318.3,65.7,317.6,65.7z"/>
	</g>
</g>
<g>
	<g>
		<g>
			<path class="st2" d="M109.9,189.2c0-12.2,0.1-22.8,0-34.3c-16.1,0-32.4,0.5-48.6,0.3c-0.2,11.7,0,22.6,0,34
				C77.5,189.3,93.7,189.2,109.9,189.2z"/>
			<path class="st1" d="M60.9,189.3c0-3.8,0-7.6,0-11.3c0-7.3-0.1-14.9,0-22.7c0-0.2,0.2-0.4,0.4-0.4c0,0,0,0,0,0
				c9.4,0.1,18.9,0,28.1-0.1c6.7-0.1,13.7-0.2,20.5-0.2c0.2,0,0.4,0.2,0.4,0.4c0.1,7.6,0.1,14.7,0,22.3c0,3.9,0,7.8,0,12
				c0,0.2-0.2,0.4-0.4,0.4c-8.1,0-16.2,0-24.2,0c-8.1,0-16.2,0-24.4,0C61,189.6,60.9,189.5,60.9,189.3z M109.5,189.2L109.5,189.2
				L109.5,189.2z M109.5,177.2c0-7.4,0.1-14.5,0-21.9c-6.7,0-13.5,0.1-20.1,0.2c-9.1,0.1-18.5,0.2-27.8,0.1
				c-0.1,7.6-0.1,15.1,0,22.3c0,3.6,0,7.2,0,10.9c8,0,16,0,24,0c8,0,15.9,0,23.9,0C109.5,184.8,109.5,181,109.5,177.2z"/>
		</g>
		<g>
			<path class="st2" d="M61.3,155.5c8.5,7.1,17,14.3,25.4,21.5c8-7.1,15.7-14.4,23.2-22L61.3,155.5z"/>
			<path class="st1" d="M86.5,177.3l-3.5-2.9c-7.2-6.1-14.6-12.4-21.9-18.5c-0.1-0.1-0.2-0.3-0.1-0.4c0.1-0.1,0.2-0.2,0.3-0.2
				l48.6-0.6c0.1,0,0.3,0.1,0.3,0.2c0.1,0.1,0,0.3-0.1,0.4c-7.4,7.6-15.2,15-23.2,22.1c-0.1,0.1-0.2,0.1-0.2,0.1
				C86.6,177.4,86.5,177.3,86.5,177.3z M62.3,155.9c7.1,5.9,14.3,12,21.2,17.9l3.2,2.7c7.6-6.8,15.1-13.9,22.3-21.2L62.3,155.9z"/>
		</g>
		<g class="st3">
			<path class="st1" d="M109.4,156c-0.5-0.2-0.8,0.1-0.9,0.3c0,0-0.1,0.1-0.1,0.1c-0.2,0.2-0.4,0.5-0.6,0.7
				c-0.8,0.9-1.7,1.6-2.5,2.4c-1.7,1.8-3.4,3.5-5.1,5.3c-1.6,1.6-3.2,3.3-5,4.7c-0.7,0.5-2.1,1.7-3.3,2.7c-0.1,0.1-0.2,0.1-0.3,0.2
				c-0.7,0.6-0.5,0.4-1.1,0.9c-1.3,1.2-2.6,2.5-3.9,3.7c-1.1-1.2-2.4-2.2-3.7-3.3c-3.2-2.9-6.4-5.7-9.7-8.4
				c-2.1-1.8-4.1-3.6-6.2-5.4c-1.2-1.1-2.5-2.3-3.8-3.3c0.2,0.2-0.5-0.4-0.6-0.6c0,0,0,0,0,0c0-0.1-0.1-0.1-0.1-0.1
				c-0.1-0.1-0.2-0.2-0.3-0.2c-0.5-0.3-1.2,0-1.3,0.5c-0.1,0.4,0.1,0.8,0.5,1c0.4,0.3,1.4,1.4,2.1,2.1c2.9,2.8,6,5.4,9.1,7.9
				c2,1.6,3.8,3.3,5.7,5c1.1,1,2.2,2,3.2,3c1.2,1.3,2.5,2.6,3.8,3.9c0.3,0.2,0.6,0.3,0.8,0.3c0.3,0.1,0.7,0.1,1.1-0.3
				c1.2-0.9,2.2-2,3.2-3.1c1-1,1.6-1.7,2.3-2.3c1.3-1.2,3.7-3.2,5.5-4.9c1.3-1.2,2.6-2.6,3.8-3.9c1.6-1.6,3.1-3.3,4.6-5
				c1-1,1.5-1.5,2.4-2.5c0.2-0.3,0.5-0.5,0.6-0.8C109.8,156.4,109.6,156.1,109.4,156z"/>
		</g>
		<g>
			<path class="st1" d="M61.5,189.6c0.1,0,0.2,0,0.3-0.1c6.2-5.9,12.7-11.7,19.3-17.1c0.2-0.1,0.2-0.4,0.1-0.5
				c-0.1-0.2-0.4-0.2-0.5-0.1c-6.6,5.5-13.2,11.2-19.3,17.2c-0.1,0.1-0.2,0.4,0,0.5C61.3,189.5,61.4,189.6,61.5,189.6z"/>
		</g>
		<g>
			<path class="st1" d="M109.8,189.2c0.1,0,0.2,0,0.3-0.1c0.1-0.2,0.1-0.4,0-0.5c-6.1-5.3-12.1-10.8-17.8-16.4
				c-0.1-0.1-0.4-0.1-0.5,0c-0.1,0.1-0.1,0.4,0,0.5c5.7,5.6,11.7,11.1,17.8,16.4C109.6,189.2,109.7,189.2,109.8,189.2z"/>
		</g>
	</g>
	<g class="st3">
		<path class="st1" d="M108.9,187C108.9,187,109,187,108.9,187c0,0-0.1,0-0.2,0c-0.6,0.1-2.1,0-3.4,0c-3.9-0.2-7.7-0.1-11.6,0
			c-3.5,0.1-7,0.1-10.4,0.2c-3.1,0-6.2-0.3-9.3-0.3c-2.7,0-5.4,0.2-8,0.2c-1,0-1.9,0-2.9,0c-0.5,0-1.1-0.2-1.5,0
			c-1.1,0.4-0.7,2.1,0.4,2.1c4,0.3,8.1-0.1,12.1-0.1c3,0,6.1,0.3,9.1,0.2c5.3-0.2,10.7-0.2,16-0.5c2.4,0,4.9,0,7.3,0.1
			c0.6,0,1.2,0.1,1.8,0.1c0.1,0,0.2,0.1,0.2,0c0.5,0.2,1,0.1,1.3-0.4C110.4,187.6,109.6,186.9,108.9,187z"/>
	</g>
</g>
<g>
	<g>
		<g>
			<g>
				<path class="st2" d="M246.2,232.8h-41.9c-7.8,0-14.2,6.3-14.2,14.2l0.2,10.2c0,6.5,4.4,12,10.3,13.6l-2.9,15.7l13.1-15.2h35.5
					c7.8,0,14.2-6.3,14.2-14.2l-0.2-10.2C260.4,239.2,254.1,232.8,246.2,232.8z"/>
				<path class="st1" d="M197.9,286.9c-0.1,0-0.1,0-0.2,0c-0.2-0.1-0.2-0.2-0.2-0.4l2.8-15.4c-6.1-1.9-10.3-7.5-10.3-13.9l-0.2-10.2
					c0-8,6.5-14.6,14.5-14.6h41.9c8,0,14.5,6.5,14.5,14.5l0.2,10.2c0,8-6.5,14.6-14.5,14.6h-35.4l-13,15
					C198.1,286.9,198,286.9,197.9,286.9z M204.4,233.2c-7.6,0-13.8,6.2-13.8,13.8l0.2,10.2c0,6.2,4.1,11.6,10.1,13.3
					c0.2,0.1,0.3,0.2,0.3,0.4l-2.6,14.3l12.2-14.1c0.1-0.1,0.2-0.1,0.3-0.1h35.5c7.6,0,13.8-6.2,13.8-13.8L260,247
					c0-7.6-6.2-13.8-13.8-13.8H204.4z"/>
			</g>
		</g>
		<g>
			<g>
				<path class="st0" d="M245.6,251.5c0-1.9-1.5-3.4-3.4-3.4s-3.4,1.5-3.4,3.4s1.5,3.4,3.4,3.4S245.6,253.4,245.6,251.5z"/>
				<path class="st1" d="M242.1,255.3c-2.1,0-3.8-1.7-3.8-3.8c0-2.1,1.7-3.8,3.8-3.8s3.8,1.7,3.8,3.8
					C246,253.6,244.3,255.3,242.1,255.3z M242.1,248.4c-1.7,0-3.1,1.4-3.1,3.1c0,1.7,1.4,3.1,3.1,3.1s3.1-1.4,3.1-3.1
					C245.2,249.8,243.8,248.4,242.1,248.4z"/>
			</g>
			<g>
				<path class="st0" d="M228.9,251.5c0-1.9-1.5-3.4-3.4-3.4c-1.9,0-3.4,1.5-3.4,3.4s1.5,3.4,3.4,3.4
					C227.3,255,228.9,253.4,228.9,251.5z"/>
				<path class="st1" d="M225.4,255.3c-2.1,0-3.8-1.7-3.8-3.8c0-2.1,1.7-3.8,3.8-3.8c2.1,0,3.8,1.7,3.8,3.8
					C229.3,253.6,227.5,255.3,225.4,255.3z M225.4,248.4c-1.7,0-3.1,1.4-3.1,3.1c0,1.7,1.4,3.1,3.1,3.1c1.7,0,3.1-1.4,3.1-3.1
					C228.5,249.8,227.1,248.4,225.4,248.4z"/>
			</g>
			<g>
				<path class="st0" d="M212.2,251.5c0-1.9-1.5-3.4-3.4-3.4c-1.9,0-3.4,1.5-3.4,3.4s1.5,3.4,3.4,3.4
					C210.6,255,212.2,253.4,212.2,251.5z"/>
				<path class="st1" d="M208.7,255.3c-2.1,0-3.8-1.7-3.8-3.8c0-2.1,1.7-3.8,3.8-3.8c2.1,0,3.8,1.7,3.8,3.8
					C212.5,253.6,210.8,255.3,208.7,255.3z M208.7,248.4c-1.7,0-3.1,1.4-3.1,3.1c0,1.7,1.4,3.1,3.1,3.1c1.7,0,3.1-1.4,3.1-3.1
					C211.8,249.8,210.4,248.4,208.7,248.4z"/>
			</g>
		</g>
	</g>
	<g class="st3">
		<path class="st1" d="M198.1,282.8c1-3,1-8.1,1.8-12.5c-1.5-0.5-3.8-1.5-5.9-2.6c0-0.1-0.1-0.1-0.1-0.2c-0.7-1.1-1.3-2.2-2-3.3
			c-0.2-0.4-0.5-0.8-0.7-1.1c-0.1-0.2-0.2-0.4-0.3-0.7c-0.1-0.2-0.2-0.4-0.2-0.5c0.2,0.2,0.4,0.4,0.7,0.7c1.7,1.5,2.2,2,4.4,3.1
			c2.4,1.2,3.9,1.8,5.8,2.7c1.4,0.8,0.8,2.3,0.6,3.6c-0.4,1.6-0.5,3.2-0.8,4.8c-0.1,0.8-0.2,1.6-0.3,2.4c0.3-0.3,0.5-0.7,0.8-1
			c1.2-1.5,2.7-2.9,4-4.3c1.1-1.2,2-2.5,3.2-3.6c1.3-1.3,3.1-1.1,5.5-1.1c2.8,0.1,5.6,0.2,8.3,0.2c6.9,0,13.8,0.2,20.7-0.3
			c1.5-0.1,3-0.5,5.2-1.1c0.8-0.2,1.6-0.3,2.4-0.5c1-0.3,1.9-0.6,2.9-1c0,0,0.1,0,0.1,0c1.1-0.5,2.2-1.1,3.2-1.6
			c0.7-0.3,0.9-0.4,1.1-0.5c0.3-0.1,0.5-0.3,0.8-0.3c0,0,0,0,0,0c-1.1,1.4-2.2,2.9-3.4,4.3c-0.9,0.5-1.9,0.9-2.9,1.3
			c-1.1,0.5-2.2,0.6-3.3,0.9c-0.9,0.2-1.8,0.5-2.7,0.7c-3,0.6-6,0.7-9,0.7c-4.9,0.2-9.8,0-14.8,0c-2.3-0.1-4.7-0.1-7-0.2
			c-1.6-0.1-4.7-0.2-5.1,0c0,0,0,0-0.1,0c-0.1,0-0.2,0.1-0.3,0.2c-0.4,0.3-0.7,0.6-1,0.9c-0.7,0.8-1.4,1.7-2.1,2.5
			c-0.8,1-1.9,1.9-2.7,2.9c-1.5,1.7-2.4,2.6-3.4,4.1c-0.6,0.9-1.1,1.8-1.8,2.7c0,0-0.1,0.1-0.1,0.1c-0.1,0.1-0.1,0.2-0.2,0.2
			c-0.2,0.2-0.5,0.3-0.8,0.2c-0.5,0-0.9-0.5-0.9-1.1c0-0.3,0.1-0.6,0.3-0.8C197.9,283.3,198,283.1,198.1,282.8z"/>
	</g>
</g>
<g>
	<g class="st4">
		<g>
			<path class="st2" d="M107.6,267.7L107.6,267.7c0-16.8-13.7-30.5-30.5-30.5H30.9c-16.8,0-30.5,13.7-30.5,30.5v0
				c0,16.8,13.7,30.5,30.5,30.5h46.2C93.9,298.2,107.6,284.5,107.6,267.7z"/>
			<path class="st1" d="M98.7,298.6H9.2c-5.1,0-9.2-4.1-9.2-9.2V246c0-5.1,4.1-9.2,9.2-9.2h89.5c5.1,0,9.2,4.1,9.2,9.2v43.3
				C108,294.4,103.8,298.6,98.7,298.6z M9.2,237.6c-4.7,0-8.5,3.8-8.5,8.5v43.3c0,4.7,3.8,8.5,8.5,8.5h89.5c4.7,0,8.5-3.8,8.5-8.5
				V246c0-4.7-3.8-8.5-8.5-8.5H9.2z"/>
		</g>
		<g>
			<path class="st1" d="M92.2,251.4h-41c-0.2,0-0.4-0.2-0.4-0.4c0-0.2,0.2-0.4,0.4-0.4h41c0.2,0,0.4,0.2,0.4,0.4
				C92.6,251.3,92.4,251.4,92.2,251.4z"/>
		</g>
		<g>
			<path class="st1" d="M92.2,261.7H59.6c-0.2,0-0.4-0.2-0.4-0.4c0-0.2,0.2-0.4,0.4-0.4h32.6c0.2,0,0.4,0.2,0.4,0.4
				C92.6,261.5,92.4,261.7,92.2,261.7z"/>
		</g>
		<g>
			<path class="st1" d="M92.2,272H45.8c-0.2,0-0.4-0.2-0.4-0.4c0-0.2,0.2-0.4,0.4-0.4h46.4c0.2,0,0.4,0.2,0.4,0.4
				C92.6,271.8,92.4,272,92.2,272z"/>
		</g>
		<g>
			<path class="st1" d="M92.2,282.2H59.6c-0.2,0-0.4-0.2-0.4-0.4c0-0.2,0.2-0.4,0.4-0.4h32.6c0.2,0,0.4,0.2,0.4,0.4
				C92.6,282.1,92.4,282.2,92.2,282.2z"/>
		</g>
		<g>
			<path class="st1" d="M45.8,282.2H15.7c-0.2,0-0.4-0.2-0.4-0.4c0-0.2,0.2-0.4,0.4-0.4h30.1c0.2,0,0.4,0.2,0.4,0.4
				C46.2,282.1,46,282.2,45.8,282.2z"/>
		</g>
		<g>
			<path class="st1" d="M33.2,272H15.7c-0.2,0-0.4-0.2-0.4-0.4c0-0.2,0.2-0.4,0.4-0.4h17.5c0.2,0,0.4,0.2,0.4,0.4
				C33.6,271.8,33.4,272,33.2,272z"/>
		</g>
		<g>
			<path class="st1" d="M45.8,261.7H15.7c-0.2,0-0.4-0.2-0.4-0.4c0-0.2,0.2-0.4,0.4-0.4h30.1c0.2,0,0.4,0.2,0.4,0.4
				C46.2,261.5,46,261.7,45.8,261.7z"/>
		</g>
		<g>
			<path class="st1" d="M39.3,251.4H15.7c-0.2,0-0.4-0.2-0.4-0.4c0-0.2,0.2-0.4,0.4-0.4h23.5c0.2,0,0.4,0.2,0.4,0.4
				C39.6,251.3,39.5,251.4,39.3,251.4z"/>
		</g>
	</g>
	<g>
		<g>
			<circle class="st2" cx="103.8" cy="240.9" r="20.5"/>
			<path class="st1" d="M103.8,261.7c-11.5,0-20.8-9.3-20.8-20.8c0-11.5,9.3-20.8,20.8-20.8s20.8,9.3,20.8,20.8
				C124.7,252.4,115.3,261.7,103.8,261.7z M103.8,220.8c-11.1,0-20.1,9-20.1,20.1c0,11.1,9,20.1,20.1,20.1c11.1,0,20.1-9,20.1-20.1
				C123.9,229.8,114.9,220.8,103.8,220.8z"/>
		</g>
		<g>
			<g>
				<path class="st2" d="M111.8,245.6c-1-1.1-2.8-1.2-3.8-0.3c-1.1,1-1.1,2.7,0,3.8c1,1.1,2.8,1.2,3.8,0.3
					C112.8,248.4,112.8,246.7,111.8,245.6z"/>
				<path class="st1" d="M110,250.5c-0.1,0-0.1,0-0.2,0c-0.8-0.1-1.6-0.4-2.2-1c-1.2-1.3-1.2-3.2,0.1-4.4c1.2-1.1,3.2-1,4.3,0.3
					c0,0,0,0,0,0c0.6,0.6,0.9,1.4,0.9,2.2c0,0.8-0.3,1.6-0.9,2.1C111.5,250.2,110.8,250.5,110,250.5z M109.7,245
					c-0.5,0-1.1,0.2-1.5,0.6c-0.9,0.8-0.9,2.3,0,3.3c0.4,0.5,1,0.8,1.7,0.8c0.6,0,1.2-0.2,1.6-0.6c0.4-0.4,0.7-1,0.7-1.6
					c0-0.6-0.2-1.2-0.7-1.7C111,245.3,110.3,245,109.7,245z"/>
			</g>
			<g>
				<g>
					<path class="st0" d="M111.8,238.3l-5.9-6.4c-1.9-2.1-5-2.3-7-0.5l0,0l-1.2-1.2c-1-1-2.5-1.1-3.5-0.2l0,0c-1,0.9-1,2.5,0,3.5
						l1.2,1.2c-1.9,1.8-2,4.9-0.1,7l5.9,6.4l1.1,6.2l15.6-14.4L111.8,238.3z"/>
					<path class="st1" d="M102.3,254.7c0,0-0.1,0-0.1,0c-0.1,0-0.2-0.2-0.2-0.3l-1.1-6.1L95,242c-1-1.1-1.5-2.4-1.5-3.9
						c0-1.3,0.5-2.5,1.3-3.4l-0.9-1c-0.5-0.6-0.8-1.3-0.8-2.1c0-0.8,0.3-1.5,0.9-2c1.1-1,2.9-0.9,4,0.3l0.9,1
						c2.1-1.7,5.3-1.4,7.2,0.8l5.8,6.3l6,1.5c0.1,0,0.2,0.1,0.3,0.3c0,0.1,0,0.3-0.1,0.4l-15.6,14.4
						C102.5,254.7,102.4,254.7,102.3,254.7z M95.8,229.8c-0.5,0-1,0.2-1.3,0.5c-0.4,0.4-0.6,0.9-0.6,1.4c0,0.6,0.2,1.1,0.6,1.5
						l1.2,1.2c0.1,0.2,0.1,0.4,0,0.5c-0.9,0.8-1.3,1.9-1.4,3.1c0,1.2,0.5,2.4,1.3,3.3l5.9,6.4c0,0.1,0.1,0.1,0.1,0.2l1,5.6
						l14.6-13.5l-5.5-1.4c-0.1,0-0.1-0.1-0.2-0.1l-5.9-6.4c-1.8-1.9-4.7-2.1-6.5-0.5c-0.2,0.1-0.4,0.1-0.5,0l-1.2-1.2
						C97,230,96.4,229.8,95.8,229.8z"/>
				</g>
			</g>
		</g>
	</g>
	<g class="st3">
		<path class="st1" d="M92.2,258.3c-1.5-1.5-3-3.1-4.5-4.7c-0.1-0.1-0.2-0.2-0.2-0.3c-0.4-0.7-0.8-1.4-1.2-2.1c-0.5-1-1-2-1.5-3
			c0.3,0.2,0.5,0.6,0.8,1c0.1,0.1,0.5,0.7,0.6,0.9c1.2,1.5,2.5,2.8,4,4c1.2,1.1,4,2.7,5.4,3.2c2.4,0.7,2.2,0.5,4.5,0.7
			c1.9,0.1,3.8,0.4,5.7,0.2c2.6-0.1,5.9-1,8.3-2.4c1.3-0.7,2.6-1.4,3.9-2.1c0.9-0.6,1.6-1.2,2.4-1.8c0.8-0.8,0.7-0.9,1.6-2
			c0.2-0.4,0.4-0.8,0.9-0.9c0.2-0.1,0.3-0.1,0.5,0c-0.7,1.1-1.4,2.2-2.1,3.3c-1,1.2-2.1,2.3-3.2,3.4c-0.6,0.6-1.1,1.1-1.7,1.6
			c-2.1,1.2-4.3,2.3-6.7,2.8c-2.8,0.6-5.6,0.7-8.4,0.4c-1.5-0.1-3-0.1-4.5-0.5C95.1,259.8,93.6,259.1,92.2,258.3
			C92.2,258.3,92.2,258.3,92.2,258.3z"/>
	</g>
</g>
<g>
	<g>
		<ellipse transform="matrix(0.231 -0.973 0.973 0.231 45.6796 446.2139)" class="st2" cx="305.1" cy="194.2" rx="12.7" ry="12.7"/>
		<path class="st1" d="M305.1,207.3c-7.2,0-13.1-5.9-13.1-13.1c0-7.2,5.9-13.1,13.1-13.1c7.2,0,13.1,5.9,13.1,13.1
			C318.2,201.4,312.4,207.3,305.1,207.3z M305.1,181.8c-6.8,0-12.4,5.5-12.4,12.4s5.5,12.4,12.4,12.4c6.8,0,12.4-5.5,12.4-12.4
			S311.9,181.8,305.1,181.8z"/>
	</g>
	<g>
		<path class="st1" d="M305.3,202c-0.1,0-0.3-0.1-0.3-0.2l-2.6-5.3l-5.1-3.3c-0.1-0.1-0.2-0.2-0.2-0.4c0-0.1,0.1-0.3,0.3-0.3l13-3.8
			c0.1,0,0.3,0,0.4,0.1c0.1,0.1,0.1,0.3,0.1,0.4l-5.1,12.5C305.6,201.9,305.4,202,305.3,202C305.3,202,305.3,202,305.3,202z
			 M298.3,193l4.5,2.9c0.1,0,0.1,0.1,0.1,0.1l2.3,4.6l4.5-11L298.3,193z"/>
	</g>
	<g>
		<path class="st1" d="M302.6,196.6c-0.1,0-0.2,0-0.3-0.1c-0.1-0.2-0.1-0.4,0-0.5l7.1-6.5c0.2-0.1,0.4-0.1,0.5,0
			c0.1,0.2,0.1,0.4,0,0.5l-7.1,6.5C302.8,196.6,302.7,196.6,302.6,196.6z"/>
	</g>
</g>
<g>
	<g>
		
			<ellipse transform="matrix(0.7071 -0.7071 0.7071 0.7071 -74.3389 283.5642)" class="st2" cx="305.1" cy="231.5" rx="12.7" ry="12.7"/>
		<path class="st1" d="M305.1,244.6c-7.2,0-13.1-5.9-13.1-13.1c0-7.2,5.9-13.1,13.1-13.1c7.2,0,13.1,5.9,13.1,13.1
			C318.2,238.7,312.4,244.6,305.1,244.6z M305.1,219.2c-6.8,0-12.4,5.5-12.4,12.4c0,6.8,5.5,12.4,12.4,12.4
			c6.8,0,12.4-5.5,12.4-12.4C317.5,224.7,311.9,219.2,305.1,219.2z"/>
	</g>
	<g>
		<polygon class="st0" points="299.9,238.2 299.9,225.8 309.7,225.8 309.7,238.2 305.1,234.1 		"/>
		<path class="st1" d="M309.7,238.5c-0.1,0-0.2,0-0.2-0.1l-4.4-3.9l-5,3.9c-0.1,0.1-0.3,0.1-0.4,0c-0.1-0.1-0.2-0.2-0.2-0.3v-12.3
			c0-0.2,0.2-0.4,0.4-0.4h9.9c0.2,0,0.4,0.2,0.4,0.4v12.3c0,0.1-0.1,0.3-0.2,0.3C309.8,238.5,309.8,238.5,309.7,238.5z M300.2,226.2
			v11.2l4.7-3.6c0.1-0.1,0.3-0.1,0.5,0l4,3.5v-11.1H300.2z"/>
	</g>
</g>
<g>
	<g>
		
			<ellipse transform="matrix(0.7071 -0.7071 0.7071 0.7071 -21.5776 261.7098)" class="st2" cx="305.1" cy="156.9" rx="12.7" ry="12.7"/>
		<path class="st1" d="M305.1,170c-7.2,0-13.1-5.9-13.1-13.1c0-7.2,5.9-13.1,13.1-13.1c7.2,0,13.1,5.9,13.1,13.1
			C318.2,164.1,312.4,170,305.1,170z M305.1,144.5c-6.8,0-12.4,5.5-12.4,12.4c0,6.8,5.5,12.4,12.4,12.4c6.8,0,12.4-5.5,12.4-12.4
			C317.5,150.1,311.9,144.5,305.1,144.5z"/>
	</g>
	<g>
		<path class="st2" d="M305.3,162.5l-4.8-6.8c-0.8-1.1-0.6-2.7,0.5-3.5c1.1-0.8,2.6-0.6,3.4,0.6l0.8,1.2l0.8-1.2
			c0.8-1.1,2.3-1.4,3.4-0.6c1.1,0.8,1.3,2.4,0.5,3.5L305.3,162.5z"/>
		<path class="st1" d="M305.3,162.9L305.3,162.9c-0.1,0-0.2-0.1-0.3-0.2l-4.8-6.8c-0.9-1.3-0.6-3.1,0.6-4c0.6-0.5,1.4-0.6,2.1-0.5
			c0.8,0.1,1.4,0.5,1.9,1.2l0.5,0.7l0.5-0.7c0.4-0.6,1.1-1,1.9-1.2c0.7-0.1,1.5,0.1,2.1,0.5c1.3,0.9,1.5,2.7,0.6,4l-4.8,6.8
			C305.5,162.8,305.4,162.9,305.3,162.9z M302.4,152.1c-0.4,0-0.9,0.1-1.2,0.4c-0.9,0.7-1.1,2-0.5,3l4.5,6.4l4.5-6.4
			c0.7-1,0.5-2.3-0.5-3c-0.4-0.3-1-0.5-1.5-0.4c-0.6,0.1-1,0.4-1.4,0.9l-0.8,1.2c-0.1,0.1-0.2,0.2-0.3,0.2l0,0
			c-0.1,0-0.2-0.1-0.3-0.2l-0.8-1.2c-0.3-0.5-0.8-0.8-1.4-0.9C302.7,152.1,302.6,152.1,302.4,152.1z"/>
	</g>
</g>
</svg>
