<?xml version="1.0" encoding="utf-8"?>
<!-- Generator: Adobe Illustrator 27.4.0, SVG Export Plug-In . SVG Version: 6.00 Build 0)  -->
<!DOCTYPE svg PUBLIC "-//W3C//DTD SVG 1.1//EN" "http://www.w3.org/Graphics/SVG/1.1/DTD/svg11.dtd" [
	<!ENTITY ns_extend "http://ns.adobe.com/Extensibility/1.0/">
	<!ENTITY ns_ai "http://ns.adobe.com/AdobeIllustrator/10.0/">
	<!ENTITY ns_graphs "http://ns.adobe.com/Graphs/1.0/">
	<!ENTITY ns_vars "http://ns.adobe.com/Variables/1.0/">
	<!ENTITY ns_imrep "http://ns.adobe.com/ImageReplacement/1.0/">
	<!ENTITY ns_sfw "http://ns.adobe.com/SaveForWeb/1.0/">
	<!ENTITY ns_custom "http://ns.adobe.com/GenericCustomNamespace/1.0/">
	<!ENTITY ns_adobe_xpath "http://ns.adobe.com/XPath/1.0/">
]>
<svg version="1.1" id="Layer_1" xmlns:x="&ns_extend;" xmlns:i="&ns_ai;" xmlns:graph="&ns_graphs;"
	 xmlns="http://www.w3.org/2000/svg" xmlns:xlink="http://www.w3.org/1999/xlink" x="0px" y="0px" viewBox="0 0 476.4 500"
	 style="enable-background:new 0 0 476.4 500;" xml:space="preserve">
<style type="text/css">
	.st0{fill:#EFEFEF;}
	.st1{fill:#DBDBDB;}
	.st2{fill:#E1F465;}
	.st3{fill:#040403;}
</style>
<metadata>
	<sfw  xmlns="&ns_sfw;">
		<slices></slices>
		<sliceSourceBounds  bottomLeftOrigin="true" height="500" width="476.4" x="17.8" y="6"></sliceSourceBounds>
	</sfw>
</metadata>
<path class="st0" d="M322.9,18v404h-78v70H18c-5.5,0-10-4.5-10-10V18c0-5.5,4.5-10,10-10h294.9C318.5,8,322.9,12.5,322.9,18
	L322.9,18z"/>
<path class="st1" d="M48,492H18c-5.5,0-10-4.5-10-10V18c0-5.5,4.5-10,10-10h30c-5.5,0-10,4.5-10,10v464C38,487.5,42.5,492,48,492z"
	/>
<path class="st1" d="M322.9,18v404h-30V18c0-5.5-4.5-10-10-10h30C318.5,8,322.9,12.5,322.9,18z"/>
<path class="st1" d="M322.9,422l-78,70v-70H322.9z"/>
<path class="st2" d="M462.7,404.3c-7.6,7.6-19.9,7.6-27.5,0L333.5,302.5l27.5-27.5l101.8,101.8C470.3,384.4,470.3,396.7,462.7,404.3
	L462.7,404.3z"/>
<circle class="st2" cx="271.1" cy="212.7" r="155.2"/>
<ellipse transform="matrix(0.3829 -0.9238 0.9238 0.3829 -29.1657 381.868)" class="st0" cx="271.2" cy="212.8" rx="118.1" ry="118.1"/>
<path class="st1" d="M354.6,296.2c-26.8,26.8-63.5,38-98.5,33.6c25.1-3.2,49.3-14.4,68.5-33.6c46-46,46-120.9,0-166.9
	c-19.2-19.2-43.4-30.4-68.5-33.6c35-4.5,71.7,6.7,98.5,33.6C400.6,175.3,400.6,250.2,354.6,296.2z"/>
<path class="st1" d="M217.7,296.2c19.2,19.2,43.4,30.4,68.5,33.6c-35,4.5-71.6-6.7-98.5-33.6c-46-46-46-120.9,0-166.9
	c26.8-26.8,63.5-38,98.5-33.6c-25,3.2-49.3,14.4-68.5,33.6C171.6,175.3,171.6,250.2,217.7,296.2L217.7,296.2z"/>
<g>
	<path class="st3" d="M271.1,338.7c69.7,0,126-56.2,126-126c0-111.6-135.8-168.5-215.1-89.1C102.7,202.9,159.3,338.7,271.1,338.7z
		 M348.9,134.9c42.9,42.9,42.9,112.7,0,155.6c-42.9,42.9-112.7,42.9-155.6,0s-42.9-112.7,0-155.6C236.2,92,306,92,348.9,134.9
		L348.9,134.9z"/>
	<path class="st3" d="M468.4,371.2l-64.1-64.1c60.8-85.7,25.6-207.4-73.3-246.2V18c0-9.9-8.1-18-18-18H18C8.1,0,0,8.1,0,18v464
		c0,9.9,8.1,18,18,18h226.9c2,0,4-0.9,5.3-2c1-0.9,77.2-69.3,78.2-70.1c3.4-3.2,2.5-0.1,2.5-63.2c12.2-4.8,23.8-11.1,34.6-18.7
		l64.1,64.1c10.7,10.7,28.1,10.7,38.8,0C479.1,399.3,479.1,381.9,468.4,371.2L468.4,371.2z M271.1,359.9
		c-130.5,0-196.7-158.7-104.1-251.3c57.4-57.4,150.8-57.4,208.2,0C467.8,201.2,401.7,359.9,271.1,359.9z M252.9,474.1V430H302
		L252.9,474.1z M314.9,414h-70c-4.4,0-8,3.6-8,8v62H18c-1.1,0-2-0.9-2-2V18c0-1.1,0.9-2,2-2h294.9c1.1,0,2,0.9,2,2v37.6
		c-54.9-15.2-116.2-1.3-159.2,41.7c-63.6,63.6-63.6,167.2,0,230.8c43,43,104,57,159.2,41.8L314.9,414z M457.1,398.7
		c-4.5,4.5-11.7,4.5-16.1,0l-62.7-62.8c6.4-5.6,10.6-9.7,16.1-16.1l62.8,62.7C461.5,387,461.5,394.2,457.1,398.7z"/>
	<path class="st3" d="M126,79.2h18.8c4.4,0,8-3.6,8-8s-3.6-8-8-8H126c-4.4,0-8,3.6-8,8S121.6,79.2,126,79.2z"/>
	<path class="st3" d="M38,79.2h58c4.4,0,8-3.6,8-8s-3.6-8-8-8H38c-4.4,0-8,3.6-8,8S33.6,79.2,38,79.2z"/>
	<path class="st3" d="M38,179.7h46.5c4.4,0,8-3.6,8-8s-3.6-8-8-8H38c-4.4,0-8,3.6-8,8S33.6,179.7,38,179.7z"/>
	<path class="st3" d="M38,231.1h46.5c4.4,0,8-3.6,8-8s-3.6-8-8-8H38c-4.4,0-8,3.6-8,8S33.6,231.1,38,231.1z"/>
	<path class="st3" d="M38,282.5h58.7c4.4,0,8-3.6,8-8s-3.6-8-8-8H38c-4.4,0-8,3.6-8,8S33.6,282.5,38,282.5z"/>
	<path class="st3" d="M38,369.4c-4.4,0-8,3.6-8,8s3.6,8,8,8h52.2c4.4,0,8-3.6,8-8s-3.6-8-8-8H38z"/>
	<path class="st3" d="M116,420.8H38c-4.4,0-8,3.6-8,8s3.6,8,8,8h78c4.4,0,8-3.6,8-8S120.4,420.8,116,420.8z"/>
	<path class="st3" d="M52.2,351c3.1,3.1,8.2,3.1,11.3,0l40-40c3.1-3.1,3.1-8.2,0-11.3c-3.1-3.1-8.2-3.1-11.3,0l-34.3,34.3
		l-14.3-14.3c-3.1-3.1-8.2-3.1-11.3,0c-3.1,3.1-3.1,8.2,0,11.3L52.2,351z"/>
	<path class="st3" d="M37.9,149.7c4.3,0,4.6-1.3,20-16.7c15.3,15.3,15.7,16.7,20,16.7c7.1,0,10.7-8.6,5.7-13.7l-14.3-14.3l14.3-14.3
		c3.1-3.1,3.1-8.2,0-11.3c-3.1-3.1-8.2-3.1-11.3,0l-14.3,14.3L43.5,96c-3.1-3.1-8.2-3.1-11.3,0c-3.1,3.1-3.1,8.2,0,11.3l14.3,14.3
		L32.2,136C27.2,141.1,30.8,149.7,37.9,149.7z"/>
	<path class="st3" d="M226.1,166.1h90.1c4.4,0,8-3.6,8-8s-3.6-8-8-8h-90.1c-4.4,0-8,3.6-8,8S221.7,166.1,226.1,166.1z"/>
	<path class="st3" d="M202.9,213.5h136.5c4.4,0,8-3.6,8-8s-3.6-8-8-8H202.9c-4.4,0-8,3.6-8,8S198.5,213.5,202.9,213.5z"/>
	<path class="st3" d="M316.2,246.5h-90.1c-4.4,0-8,3.6-8,8s3.6,8,8,8h90.1c4.4,0,8-3.6,8-8S320.6,246.5,316.2,246.5z"/>
</g>
</svg>
