<?xml version="1.0" encoding="utf-8"?>
<!-- Generator: Adobe Illustrator 27.4.0, SVG Export Plug-In . SVG Version: 6.00 Build 0)  -->
<!DOCTYPE svg PUBLIC "-//W3C//DTD SVG 1.1//EN" "http://www.w3.org/Graphics/SVG/1.1/DTD/svg11.dtd" [
	<!ENTITY ns_extend "http://ns.adobe.com/Extensibility/1.0/">
	<!ENTITY ns_ai "http://ns.adobe.com/AdobeIllustrator/10.0/">
	<!ENTITY ns_graphs "http://ns.adobe.com/Graphs/1.0/">
	<!ENTITY ns_vars "http://ns.adobe.com/Variables/1.0/">
	<!ENTITY ns_imrep "http://ns.adobe.com/ImageReplacement/1.0/">
	<!ENTITY ns_sfw "http://ns.adobe.com/SaveForWeb/1.0/">
	<!ENTITY ns_custom "http://ns.adobe.com/GenericCustomNamespace/1.0/">
	<!ENTITY ns_adobe_xpath "http://ns.adobe.com/XPath/1.0/">
]>
<svg version="1.1" id="Layer_1" xmlns:x="&ns_extend;" xmlns:i="&ns_ai;" xmlns:graph="&ns_graphs;"
	 xmlns="http://www.w3.org/2000/svg" xmlns:xlink="http://www.w3.org/1999/xlink" x="0px" y="0px" viewBox="0 0 215.6 178.3"
	 style="enable-background:new 0 0 215.6 178.3;" xml:space="preserve">
<style type="text/css">
	.st0{fill:#FFFFFF;}
	.st1{fill:#07133B;}
	.st2{fill:#1AD079;}
</style>
<metadata>
	<sfw  xmlns="&ns_sfw;">
		<slices></slices>
		<sliceSourceBounds  bottomLeftOrigin="true" height="178.3" width="215.6" x="81.5" y="-234.6"></sliceSourceBounds>
	</sfw>
</metadata>
<g>
	<g>
		<path class="st0" d="M215.1,74c0-21.2,0.1-46.2,0.1-68.8c-35,0-68.3-0.3-98.6-0.3c0.3,22.6,0.5,45.3,0.5,68.9
			C146.1,73.8,184.4,74,215.1,74z"/>
		<path class="st1" d="M215.1,74.3c-15.6,0-33.3-0.1-50.4-0.1s-33.3-0.1-47.6-0.1c-0.2,0-0.4-0.2-0.4-0.4c0-23.4-0.3-46.2-0.5-68.3
			V4.8c0-0.1,0-0.2,0.1-0.3c0.1-0.1,0.2-0.1,0.3-0.1c14.6,0,29.8,0.1,45.8,0.1c17.1,0.1,34.7,0.1,52.8,0.1c0.2,0,0.4,0.2,0.4,0.4
			c0,11.5,0,23.7,0,35.5s0,22.9,0,33.3C215.5,74.2,215.3,74.3,215.1,74.3z M117.5,73.4c14.2,0,30.2,0,47.2,0.1c17,0,34.5,0.1,50,0.1
			c0-10.3,0-21.3,0-32.9c0-11.7,0-23.7,0-35.1c-18,0-35.5-0.1-52.4-0.1c-15.9-0.1-30.9-0.1-45.4-0.1v0.3
			C117.2,27.5,117.5,50.2,117.5,73.4z"/>
	</g>
	<g>
		<path class="st2" d="M197.4,0.7c-14.2-0.1-28.4-0.2-42.6-0.3c-12-0.1-26,0.1-38,0c-0.2,3.2-0.2,5.8,0,7.9c30.9,0,67.3-0.4,98.4,0
			c0.2-2.1,0-5,0-7.5C209.9,0.8,202.6,0.7,197.4,0.7z"/>
		<path class="st1" d="M116.7,8.7c-0.2,0-0.4-0.2-0.4-0.3c-0.2-2-0.2-4.5,0-8c0-0.2,0.2-0.4,0.4-0.4l0,0c6.4,0.1,13.4,0,20.2,0
			c6,0,12.2-0.1,17.8,0c13.2,0.1,28.1,0.2,42.6,0.3l0,0c2.1,0,4.6,0,7.2,0c3.7,0,7.5,0.1,10.6,0.1c0.2,0,0.4,0.2,0.4,0.4
			c0,0.7,0,1.5,0,2.3c0,1.8,0.1,3.8-0.1,5.2c0,0.2-0.2,0.3-0.4,0.3l0,0c-20.9-0.3-44.2-0.2-66.7-0.1C137.3,8.6,126.8,8.7,116.7,8.7z
			 M117.1,0.8c-0.1,3-0.1,5.3,0,7.2c10,0,20.4,0,31.3-0.1c22.4-0.1,45.5-0.2,66.4,0.1c0.1-1.4,0.1-3.1,0-4.8c0-0.7,0-1.3,0-1.9
			c-3,0-6.7,0-10.3-0.1c-2.6,0-5,0-7.2,0c-14.6-0.1-29.5-0.2-42.7-0.3c-5.6,0-11.8,0-17.8,0C130.2,0.8,123.4,0.9,117.1,0.8z"/>
	</g>
	<g>
		<g>
			<path class="st1" d="M207.6,3.5c-0.3-0.1-0.7,0.1-0.9,0.4c-0.1,0.2-0.2,0.5,0,0.8c0.1,0.2,0.4,0.4,0.7,0.4c0.4,0,0.8-0.4,0.8-0.8
				C208.2,4,207.9,3.6,207.6,3.5z"/>
		</g>
		<g>
			<path class="st1" d="M199.8,3.5c-0.3-0.1-0.7,0.1-0.9,0.4c-0.1,0.2-0.2,0.5,0,0.8c0.1,0.2,0.4,0.4,0.7,0.4c0.4,0,0.8-0.4,0.8-0.8
				C200.4,4,200.1,3.6,199.8,3.5z"/>
		</g>
		<g>
			<path class="st1" d="M191.6,3.5c-0.3-0.1-0.7,0.1-0.9,0.4c-0.1,0.2-0.2,0.5,0,0.8c0.1,0.2,0.4,0.4,0.7,0.4c0.4,0,0.8-0.4,0.8-0.8
				C192.2,4,191.9,3.6,191.6,3.5z"/>
		</g>
	</g>
	<g>
		<path class="st1" d="M164.8,31.2h-34.3c-0.2,0-0.4-0.2-0.4-0.4V17.6c0-0.2,0.2-0.4,0.4-0.4h34.3c0.2,0,0.4,0.2,0.4,0.4v13.2
			C165.1,31,165,31.2,164.8,31.2z M130.8,30.4h33.6V18h-33.6L130.8,30.4L130.8,30.4z"/>
	</g>
	<g>
		<path class="st1" d="M148.2,50.2h-17.8c-0.2,0-0.4-0.2-0.4-0.4V39.7c0-0.2,0.2-0.4,0.4-0.4h17.8c0.2,0,0.4,0.2,0.4,0.4v10.1
			C148.6,50,148.4,50.2,148.2,50.2z M130.8,49.4h17V40h-17V49.4z"/>
	</g>
	<g>
		<path class="st1" d="M176.5,50.2h-17.8c-0.2,0-0.4-0.2-0.4-0.4V39.7c0-0.2,0.2-0.4,0.4-0.4h17.8c0.2,0,0.4,0.2,0.4,0.4v10.1
			C176.9,50,176.7,50.2,176.5,50.2z M159.1,49.4h17V40h-17V49.4z"/>
	</g>
	<g>
		<path class="st1" d="M204.8,50.2h-17.7c-0.2,0-0.4-0.2-0.4-0.4V39.7c0-0.2,0.2-0.4,0.4-0.4h17.8c0.2,0,0.4,0.2,0.4,0.4v10.1
			C205.2,50,205,50.2,204.8,50.2z M187.4,49.4h17V40h-17V49.4z"/>
	</g>
	<g>
		<path class="st1" d="M195.9,20.3L195.9,20.3l-20.5-0.1c-0.1,0-0.1-0.1-0.1-0.1c0-0.1,0.1-0.1,0.1-0.1l0,0l20.5,0.1
			c0.1,0,0.1,0.1,0.1,0.1C196.1,20.3,196,20.3,195.9,20.3z"/>
	</g>
	<g>
		<path class="st1" d="M191.9,24.4L191.9,24.4l-16.5-0.1c-0.1,0-0.1-0.1-0.1-0.1c0-0.1,0.1-0.1,0.1-0.1l0,0l16.5,0.1
			c0.1,0,0.1,0.1,0.1,0.1C192.1,24.4,192,24.4,191.9,24.4z"/>
	</g>
	<g>
		<path class="st1" d="M195.9,28.5L195.9,28.5l-20.5-0.1c-0.1,0-0.1-0.1-0.1-0.1c0-0.1,0.1-0.1,0.1-0.1l0,0l20.5,0.1
			c0.1,0,0.1,0.1,0.1,0.1C196.1,28.4,196,28.5,195.9,28.5z"/>
	</g>
	<g>
		<g>
			<path class="st1" d="M146.5,56.6L146.5,56.6l-14.4-0.1c-0.1,0-0.1-0.1-0.1-0.1c0-0.1,0.1-0.1,0.1-0.1l14.4,0.1
				c0.1,0,0.1,0.1,0.1,0.1S146.6,56.6,146.5,56.6z"/>
		</g>
		<g>
			<path class="st1" d="M145.1,60.7L145.1,60.7l-11.6-0.1c-0.1,0-0.1-0.1-0.1-0.1c0-0.1,0.1-0.1,0.1-0.1l0,0l11.6,0.1
				c0.1,0,0.1,0.1,0.1,0.1C145.2,60.6,145.2,60.7,145.1,60.7z"/>
		</g>
	</g>
	<g>
		<g>
			<path class="st1" d="M174.8,56.6L174.8,56.6l-14.4-0.1c-0.1,0-0.1-0.1-0.1-0.1c0-0.1,0.1-0.1,0.1-0.1l14.4,0.1
				c0.1,0,0.1,0.1,0.1,0.1C175,56.5,174.9,56.6,174.8,56.6z"/>
		</g>
		<g>
			<path class="st1" d="M173.4,60.7L173.4,60.7l-11.6-0.1c-0.1,0-0.1-0.1-0.1-0.1c0-0.1,0.1-0.1,0.1-0.1l11.6,0.1
				c0.1,0,0.1,0.1,0.1,0.1C173.5,60.6,173.5,60.7,173.4,60.7z"/>
		</g>
	</g>
	<g>
		<g>
			<path class="st1" d="M203.1,56.6L203.1,56.6l-14.4-0.1c-0.1,0-0.1-0.1-0.1-0.1c0-0.1,0.1-0.1,0.1-0.1l14.4,0.1
				c0.1,0,0.1,0.1,0.1,0.1C203.3,56.5,203.2,56.6,203.1,56.6z"/>
		</g>
		<g>
			<path class="st1" d="M201.7,60.7L201.7,60.7l-11.6-0.1c-0.1,0-0.1-0.1-0.1-0.1c0-0.1,0.1-0.1,0.1-0.1l11.6,0.1
				c0.1,0,0.1,0.1,0.1,0.1C201.9,60.6,201.8,60.7,201.7,60.7z"/>
		</g>
	</g>
</g>
<g>
	<g>
		<path class="st2" d="M35.8,80.6c-1.2-0.9-2-0.9-3-1.6c-0.1-1.1-0.4-3.1-0.5-4.2c1.1-1,1.6-1.2,2.6-2c0-0.2-0.1-0.3-0.2-0.5
			c-0.2-0.4-0.5-0.7-0.7-1.1c-0.9-1.3-1.9-2.5-3.1-3.6c-1.1,1-2,1.9-2.8,2.9c-1.3-0.5-2.7-0.8-4.1-1c-0.2-1.3-0.4-2.6-0.7-3.9
			c-1.8,0.3-3.7,0.8-5.4,1.7c0.3,1.2,0.6,2,1,3.1c-1.1,1-2.2,1.9-3,3c-1.3-0.7-2.3-1-3.5-1.7c-1.3,1.9-2.1,4-2.1,6.2
			c1.3,0.2,2.1,0.1,3.4,0.2c0.2,1.4,0.6,2.8,1.2,4.2c-1,0.9-1.6,1.8-2.4,2.5c0.7,1.7,1.9,3.1,3.3,4.2c0.9-0.9,1.4-1.5,2.2-2.3
			c1.2,0.5,2.7,1.1,3.9,1.2c0.4,1.2,0.5,1.9,0.6,3.1c1.9,0.3,3.9,0.2,5.8-0.3c-0.2-1.3,0-2.1-0.3-3.3c1.1-0.8,2.2-1.9,3-2.9
			c1.3,0.2,1.8,0.5,2.9,0.8C34.9,83.8,35.5,82.2,35.8,80.6z M24.8,82.3c-0.9,0.3-1.7,0.6-3.9-0.9c-0.9-0.6-2.8-2.9-0.4-5.9
			c0.7-0.9,2-1.5,3.2-1.3c1.2,0.2,2.1,0.5,2.8,1.1c1.1,0.9,1.6,2.5,1.2,3.9C27.3,80.6,26.2,81.8,24.8,82.3z"/>
		<path class="st1" d="M24.6,91.4c-0.8,0-1.5-0.1-2.2-0.2c-0.2,0-0.3-0.2-0.3-0.3l0-0.2c-0.1-1-0.2-1.6-0.5-2.6
			c-1.1-0.2-2.4-0.7-3.4-1.1L18,87c-0.8,0.8-1.3,1.3-2.1,2.1c-0.1,0.1-0.3,0.2-0.5,0c-1.5-1.1-2.7-2.6-3.4-4.3
			c-0.1-0.2,0-0.3,0.1-0.4c0.5-0.4,0.8-0.8,1.2-1.2c0.3-0.3,0.6-0.7,1-1.1c-0.5-1.3-0.9-2.5-1.1-3.7c-0.3,0-0.6,0-1,0
			c-0.7,0-1.3,0-2.1-0.1c-0.2,0-0.3-0.2-0.3-0.4c0-2.1,0.8-4.2,2.2-6.4c0.1-0.2,0.3-0.2,0.5-0.1c0.6,0.3,1.1,0.6,1.7,0.8
			c0.5,0.2,1,0.4,1.5,0.7c0.7-0.9,1.6-1.6,2.5-2.4l0.2-0.2c-0.4-0.9-0.7-1.7-0.9-2.9c0-0.2,0-0.3,0.2-0.4c1.6-0.8,3.4-1.4,5.5-1.7
			c0.2,0,0.4,0.1,0.4,0.3c0.3,1.2,0.5,2.4,0.7,3.6c1.2,0.1,2.5,0.4,3.6,0.9c0.8-0.9,1.7-1.8,2.7-2.7c0.1-0.1,0.4-0.1,0.5,0
			c1.2,1.1,2.2,2.3,3.1,3.6c0.3,0.4,0.5,0.7,0.7,1.1c0.1,0.2,0.3,0.4,0.3,0.7c0,0.1,0,0.2-0.1,0.3c-0.4,0.4-0.8,0.7-1.2,0.9
			c-0.4,0.3-0.8,0.5-1.3,1c0,0.4,0.1,0.8,0.2,1.2c0.1,0.9,0.2,1.9,0.3,2.6c0.4,0.2,0.7,0.4,1.1,0.5c0.5,0.2,1.1,0.5,1.8,1
			c0.1,0.1,0.2,0.2,0.1,0.4c-0.4,1.8-1.1,3.4-2.1,4.8c-0.1,0.1-0.3,0.2-0.4,0.1c-0.3-0.1-0.6-0.2-0.8-0.3c-0.6-0.2-1-0.4-1.8-0.5
			c-0.7,1-1.7,1.9-2.7,2.7c0.1,0.6,0.2,1.1,0.2,1.7c0,0.4,0,0.9,0.1,1.4c0,0.2-0.1,0.4-0.3,0.4C27.1,91.3,25.9,91.4,24.6,91.4z
			 M22.8,90.5c1.6,0.2,3.3,0.1,5.1-0.2c0-0.4-0.1-0.8-0.1-1.1c0-0.6,0-1.1-0.2-1.8c0-0.2,0-0.3,0.1-0.4c1.1-0.7,2.2-1.8,2.9-2.8
			c0.1-0.1,0.2-0.2,0.4-0.1c0.9,0.2,1.5,0.4,2.1,0.6c0.2,0.1,0.4,0.1,0.6,0.2c0.8-1.2,1.4-2.5,1.7-4c-0.5-0.4-1-0.6-1.4-0.8
			c-0.4-0.2-0.9-0.4-1.4-0.7c-0.1-0.1-0.1-0.2-0.2-0.3c-0.1-0.7-0.2-1.8-0.3-2.8c-0.1-0.5-0.1-1-0.2-1.5c0-0.1,0-0.2,0.1-0.3
			c0.6-0.5,1-0.9,1.5-1.2c0.3-0.2,0.6-0.4,0.9-0.7c0,0-0.1-0.1-0.1-0.1c-0.2-0.4-0.5-0.7-0.7-1.1c-0.8-1.2-1.7-2.3-2.8-3.3
			c-0.9,0.9-1.8,1.8-2.6,2.6c-0.1,0.1-0.3,0.2-0.4,0.1c-1.3-0.5-2.6-0.8-4-0.9c-0.2,0-0.3-0.2-0.3-0.3c-0.1-1.2-0.3-2.3-0.6-3.5
			c-1.8,0.3-3.3,0.8-4.7,1.4c0.2,1,0.5,1.7,0.9,2.6l0.1,0.1c0.1,0.1,0,0.3-0.1,0.4L18.8,71c-0.9,0.9-1.8,1.7-2.6,2.6
			c-0.1,0.1-0.3,0.2-0.5,0.1c-0.6-0.3-1.2-0.6-1.7-0.8c-0.5-0.2-1-0.4-1.5-0.7c-1.2,1.8-1.8,3.6-1.9,5.3c0.7,0.1,1.2,0.1,1.7,0.1
			c0.4,0,0.8,0,1.3,0.1c0.2,0,0.3,0.2,0.3,0.3c0.2,1.3,0.6,2.7,1.2,4.1c0.1,0.1,0,0.3-0.1,0.4c-0.4,0.4-0.8,0.8-1.1,1.2
			c-0.4,0.4-0.7,0.8-1.1,1.1c0.6,1.4,1.6,2.6,2.8,3.5c0.7-0.7,1.2-1.3,2-2.1c0.1-0.1,0.3-0.1,0.4-0.1l0.4,0.1
			c1.1,0.4,2.4,0.9,3.5,1.1c0.1,0,0.3,0.1,0.3,0.3C22.6,88.8,22.7,89.5,22.8,90.5z M23.7,82.9c-0.7,0-1.6-0.3-3-1.2
			c-0.7-0.4-1.5-1.4-1.7-2.7c-0.2-1.3,0.2-2.5,1.1-3.7c0.9-1.1,2.2-1.6,3.5-1.4c1.4,0.2,2.3,0.6,3,1.2c1.2,1,1.7,2.7,1.3,4.3
			c-0.4,1.5-1.5,2.8-3,3.3C24.5,82.8,24.1,82.9,23.7,82.9z M23.2,74.6c-0.9,0-1.8,0.5-2.4,1.2c-0.8,1.1-1.2,2.1-1,3.1
			c0.2,1.1,0.9,1.9,1.3,2.2c2.1,1.4,2.8,1.1,3.6,0.8l0,0c1.2-0.4,2.2-1.5,2.6-2.8c0.3-1.3-0.1-2.7-1.1-3.5c-0.6-0.5-1.4-0.8-2.6-1
			C23.4,74.6,23.3,74.6,23.2,74.6z"/>
	</g>
</g>
<g>
	<g>
		<g>
			<path class="st0" d="M149.7,132.7c4.3-9.8,9.2-27.8,14.3-37.3c3.3-2.1,7-5.7,8.9-9.3c0.8-1.5,0.9-2.1,0.1-3.4c-0.6-0.9-2-1-3-0.6
				c0.6-0.9,1.7-1.6,0.7-2.9c-0.5-0.6-1.2-1-1.9-0.7c0.7-1.9-1.2-3.6-2.9-1.9c1.5-2.3,2.8-4.3,4.3-6.4c0.9-1.3,1.9-2.8,1.1-3.6
				c-1-1-2.5,0.4-4.2,2.5c-3,3.6-4,4.8-7.2,7.9c-3,3-6.1,8.9-4.9,11.6c-1,4.1-16,27.9-20.9,32.9c-1.8,1.8-0.3,3.5,0.1,6
				c0.5,3,2.7,13.7,10.4,10.2C146.7,136.6,149.4,133.2,149.7,132.7z"/>
			<path class="st1" d="M139.2,138.1c-3.5-1.9-4.9-7.4-5.4-10.6c-0.1-0.7-0.3-1.3-0.5-1.9c-0.5-1.5-0.9-3,0.5-4.5
				c5-5,19.6-28.4,20.8-32.6c-1.2-3,2.1-9,5-11.9c3.1-3.1,4.1-4.3,7.1-7.8l0.1-0.1c1.7-2,2.8-2.9,3.7-2.9c0.4,0,0.8,0.1,1.1,0.4
				c1,1,0,2.6-1.1,4.1c-1.2,1.7-2.4,3.5-3.5,5.1c0.5-0.1,1,0.1,1.4,0.3c0.7,0.5,1.1,1.3,0.9,2.2c0.6,0,1.2,0.4,1.7,0.9
				c0.9,1.1,0.4,1.9-0.1,2.5c0.9-0.1,1.9,0.2,2.4,1c0.9,1.4,0.8,2.2-0.1,3.8c-2,3.9-5.9,7.5-8.9,9.4c-2.9,5.6-5.8,13.9-8.6,22
				c-2,5.8-3.9,11.2-5.6,15.3l0,0c-0.3,0.7-3,4.1-5.3,5.1c-1.1,0.5-2.1,0.7-3,0.7C140.8,138.7,140,138.5,139.2,138.1z M149.3,132.5
				c1.8-4,3.6-9.5,5.6-15.2c2.8-8.1,5.7-16.5,8.7-22.2c0-0.1,0.1-0.1,0.1-0.1c2.9-1.9,6.7-5.4,8.7-9.2c0.7-1.4,0.8-1.9,0.1-3
				c-0.5-0.7-1.6-0.8-2.5-0.5c-0.2,0.1-0.3,0-0.4-0.1c-0.1-0.1-0.1-0.3,0-0.4c0.1-0.2,0.3-0.4,0.5-0.6c0.6-0.7,0.9-1.1,0.3-1.8
				c-0.4-0.4-0.9-0.8-1.4-0.6c-0.1,0.1-0.3,0-0.4-0.1c-0.1-0.1-0.1-0.3-0.1-0.4c0.3-0.9,0-1.6-0.5-1.9c-0.5-0.4-1.2-0.2-1.8,0.4
				c-0.1,0.1-0.4,0.1-0.5,0c-0.1-0.1-0.2-0.3-0.1-0.5c1.3-2,2.7-4.2,4.3-6.4c0.4-0.6,1.8-2.5,1.1-3.1c-0.2-0.2-0.3-0.2-0.5-0.2
				c-0.9,0-2.2,1.5-3.2,2.7l-0.1,0.1c-3,3.6-4,4.8-7.1,7.9c-3.1,3.1-5.9,8.8-4.8,11.2c0,0.1,0,0.2,0,0.2c-1.1,4.4-16.2,28.2-21,33
				c-1.1,1.1-0.8,2.2-0.3,3.7c0.2,0.6,0.4,1.3,0.5,2c0.5,3,1.8,8.4,5,10.1c1.4,0.7,3,0.7,4.8-0.1C146.5,136.3,149.1,133,149.3,132.5
				L149.3,132.5z"/>
		</g>
		<g>
			<path class="st1" d="M167.3,87.6c0.2,0,0.4,0,0.7-0.1c0.5-0.2,0.8-0.5,1.1-0.8l1.5-1.3c0.2-0.1,0.2-0.4,0-0.5
				c-0.1-0.2-0.4-0.2-0.5,0l-1.5,1.3c-0.3,0.3-0.6,0.5-0.9,0.6c-0.3,0.1-0.6,0.1-0.8-0.1c-0.2-0.2-0.3-0.6-0.2-0.8
				c0.1-0.4,0.3-0.7,0.6-1c0.9-1.1,1.2-1.3,1.8-1.9c0.3-0.2,0.6-0.5,1-0.8c0.2-0.1,0.2-0.4,0-0.5c-0.1-0.2-0.4-0.2-0.5,0
				c-0.4,0.4-0.7,0.6-1,0.8c-0.7,0.6-1,0.8-2,2c-0.3,0.4-0.6,0.8-0.7,1.3c-0.2,0.6,0,1.2,0.4,1.6C166.7,87.5,167,87.6,167.3,87.6z"
				/>
		</g>
		<g>
			<path class="st1" d="M164.6,86.3c0.3,0,0.7-0.1,1-0.2c0.4-0.2,0.7-0.3,1.1-0.5c0.2-0.1,0.3-0.3,0.2-0.5c-0.1-0.2-0.3-0.3-0.5-0.2
				c-0.3,0.2-0.7,0.3-1.1,0.5c-0.3,0.1-0.7,0.3-0.9,0.1c-0.3-0.2-0.4-0.7-0.3-1.1c0.1-0.7,1.1-2.2,4.8-5.7l0.1-0.1
				c0.1-0.1,0.2-0.4,0-0.5c-0.1-0.2-0.4-0.2-0.5,0l-0.1,0.1c-3.1,3-4.8,5-5,6.1c-0.2,0.7,0,1.6,0.7,1.9
				C164.2,86.3,164.4,86.3,164.6,86.3z"/>
		</g>
		<g>
			<path class="st1" d="M162,88.9c0.1,0,0.3-0.1,0.3-0.2c0.9-1.7,0.1-3.4-0.4-4.7c-0.2-0.4-0.5-1.2-0.4-1.3c0.4-0.4,2.2-0.6,3-0.6
				c0.5,0,0.7-0.1,0.8-0.1c1-0.3,1.4-0.8,1.5-1.2c0.1-0.3,0.2-0.7,0-1c-0.2-0.4-0.8-1.1-1.3-1.3c-0.9-0.3-3-0.2-4.9-0.1
				c-0.2,0-0.5,0-0.6,0c-0.7,0-2.9,0.8-3.1,1.7c-0.1,0.2,0.1,0.4,0.3,0.5c0.2,0.1,0.4-0.1,0.5-0.3c0.1-0.3,1.7-1.1,2.4-1.1
				c0.2,0,0.4,0,0.6,0c1.3-0.1,3.8-0.2,4.7,0.1c0.2,0.1,0.7,0.6,0.8,0.9c0,0,0,0.2,0,0.3c-0.1,0.2-0.3,0.6-1.1,0.8
				c-0.1,0-0.4,0-0.7,0.1c-1.5,0.1-2.9,0.3-3.5,0.9c-0.4,0.5-0.1,1.2,0.3,2.1c0.5,1.2,1.2,2.7,0.4,4.1c-0.1,0.2,0,0.4,0.2,0.5
				C161.8,88.9,161.9,88.9,162,88.9z"/>
		</g>
		<g>
			<path class="st1" d="M164,79c0.1,0,0.3-0.1,0.3-0.2c0.2-0.3,0.8-1,1.3-1.6c0.3-0.3,0.5-0.6,0.7-0.8c0.1-0.2,0.1-0.4,0-0.5
				c-0.2-0.1-0.4-0.1-0.5,0c-0.2,0.2-0.4,0.5-0.7,0.7c-0.6,0.6-1.2,1.3-1.4,1.7c-0.1,0.2,0,0.4,0.1,0.5C163.8,79,163.9,79,164,79z"
				/>
		</g>
		<g>
			<path class="st1" d="M163.3,85.1c0.1,0,0.2,0,0.3,0c0.2,0,0.3-0.3,0.3-0.5c0-0.2-0.3-0.3-0.5-0.3c-0.2,0-0.5-0.1-0.7-0.3
				c-0.3-0.4-0.2-1,0.2-1.7c0.1-0.2,0.1-0.4-0.1-0.5c-0.2-0.1-0.4-0.1-0.5,0.1c-0.8,1.3-0.4,2.2-0.2,2.5
				C162.4,84.9,162.8,85.1,163.3,85.1z"/>
		</g>
	</g>
	<g>
		<g>
			<path class="st0" d="M22.2,148.2c2.7-14.1,2.7-29.2,14-38.6c5.4-4.5,18.3-6.5,25.9-7c0.5,7.3,7.6,8.2,12.2,8.8
				c2.5,0.3,7-3.8,10.9-7.8c1.7,0.7,12,1.2,18.7,7.2c12.4,11.1,28.7,9.4,29.6,10.3c1.2,1.2-1.8,12,9.2,17.1
				c4.6,2.1-23.1,6.5-42.1,1.5c0.7,10-2.6,22.8-2.6,22.8S30.8,174.8,24.4,176c-0.5,0.1-1.7-0.3-1.9-0.8
				C21.1,172,19.7,161.2,22.2,148.2z"/>
			<path class="st1" d="M22.1,175.3c-1.5-3.6-2.7-14.7-0.4-27.1c0.5-2.6,0.9-5.3,1.3-8c1.7-11.3,3.5-23.1,12.8-30.9
				c5.2-4.3,17.3-6.5,26.1-7.1c0.1,0,0.2,0,0.3,0.1c0.1,0.1,0.1,0.2,0.1,0.3c0.4,7,7.3,7.9,11.9,8.4c2.3,0.3,6.9-4,10.6-7.7
				c0.1-0.1,0.3-0.1,0.4-0.1c0.3,0.1,1.1,0.3,2.2,0.5c4,0.7,11.4,2,16.7,6.8c9.6,8.6,21.6,9.4,26.8,9.8c2,0.1,2.6,0.2,2.9,0.5
				c0.4,0.4,0.5,1.3,0.5,2.7c0.2,3.7,0.5,10.6,8.5,14.3c0.8,0.4,0.8,0.8,0.7,1.1c-0.6,1.5-8.2,2.8-15.4,3.2c-5.8,0.4-17,0.6-27.1-2
				c0.6,9.8-2.6,22.2-2.7,22.4c0,0.1-0.2,0.2-0.3,0.3c-0.7,0.1-67.3,12.4-73.6,13.5c-0.1,0-0.1,0-0.2,0
				C23.6,176.3,22.4,175.9,22.1,175.3z M100.3,139.7c0-0.1,0-0.2,0.1-0.3c0.1-0.1,0.2-0.1,0.3-0.1c10.1,2.7,21.5,2.5,27.4,2.1
				c9.3-0.6,14.4-2,14.7-2.7c0,0-0.1-0.1-0.3-0.2c-8.5-3.9-8.8-11.1-9-15c0-1-0.1-2-0.3-2.2c-0.2-0.1-1.3-0.2-2.4-0.3
				c-5.2-0.4-17.4-1.3-27.2-10c-5.2-4.6-12.4-5.9-16.3-6.6c-0.9-0.2-1.6-0.3-2.1-0.4c-4,4-8.5,8.1-11.1,7.7
				c-4.4-0.5-11.8-1.4-12.5-8.7c-8.7,0.6-20.3,2.7-25.3,6.9c-9.1,7.6-10.8,18.7-12.6,30.4c-0.4,2.6-0.8,5.4-1.3,8
				c-2.6,13.4-0.9,23.9,0.3,26.7c0.1,0.3,1.1,0.7,1.5,0.6c6.1-1.1,69-12.7,73.3-13.5C98.2,160.3,100.9,148.8,100.3,139.7z
				 M133.3,121.4L133.3,121.4L133.3,121.4z"/>
		</g>
	</g>
	<g>
		<path class="st0" d="M107.5,174.8c-8.9,0.2-17.9,0.4-26.8,0.6l0-4.6l29.9-0.7L107.5,174.8z"/>
		<path class="st1" d="M80.5,175.7c-0.1-0.1-0.1-0.2-0.1-0.3l0-4.6c0-0.2,0.2-0.4,0.4-0.4l29.9-0.7c0.1,0,0.3,0.1,0.3,0.2
			c0.1,0.1,0.1,0.3,0,0.4l-3,4.7c-0.1,0.1-0.2,0.2-0.3,0.2l-26.8,0.6c0,0,0,0,0,0C80.6,175.8,80.5,175.7,80.5,175.7z M109.8,170.5
			l-28.8,0.7l0,3.8l26.2-0.6L109.8,170.5z"/>
	</g>
	<g>
		<path class="st0" d="M23.2,173.2c-0.5,2.3,0,3,1.4,3.6c6.9,3,15.5-0.2,44-8c2.2-0.6,3.8-1,5.6-1.1c5.1-0.3,7.6-1.8,8.1-2.1
			c0.6-0.4,1.4-0.2,2,0.1c2.1,0.8,4.1,1.9,6.1,3.2c0.5,0.3,1,0.6,1.5,0c0.3-0.4,0.1-1-0.2-1.5c-0.2-0.3-0.4-0.6-0.6-0.8
			c-1.6-1.5-3.5-2.6-5.6-3.4c1-0.7,2.4-0.4,3.6,0c2.3,1,4.2,2.6,6.3,3.9c0.3,0.2,0.6,0.4,1,0.4s0.8,0,1-0.3c0.2-0.2,0.2-0.5,0.2-0.8
			c0-0.6-6.6-5.9-8.4-6.6c1.4-0.2,8.8,5.9,9.4,6.3c0.3,0.2,0.8,0.4,1,0.1c0.1-0.1,0.1-0.3,0-0.4c-0.3-1.9-1.6-3.5-3-4.9
			c-1.4-1.3-3-2.5-4.6-3.4c3.6,1.6,6.6,4.6,8.3,8.2c0.4,0.3,1,0.2,1.3-0.1c0.6-0.5-0.6-3.5-2-5.4c-2.5-3.2-5.7-5.8-9.3-6.9
			c-1.5-0.9-8.5,2.1-11.7,3.5c-0.9,0.4-1.9,0.8-2.9,0.9c-1.2,0.2-6,0.9-7,1c-10.8,0.7-21.7,1.5-32.4,2.1
			C25.6,163.4,24.4,167,23.2,173.2z"/>
		<path class="st1" d="M24.5,177.1c-1.7-0.7-2-1.7-1.6-4c1.2-6.3,2.4-10,13.3-12.6c0,0,0,0,0.1,0c10.9-0.6,21.9-1.4,32.4-2.1
			c0.7-0.1,3.4-0.5,5.3-0.8c0.7-0.1,1.3-0.2,1.6-0.2c1.1-0.2,2-0.6,2.8-0.9c3-1.4,10.1-4.5,12-3.6c3.4,1,6.7,3.4,9.5,7
			c1.2,1.5,2.9,5,1.9,5.9c-0.5,0.5-1.3,0.6-1.8,0.2c0,0.1,0,0.3-0.1,0.4c-0.1,0.2-0.3,0.3-0.5,0.3c-0.4,0.1-0.8-0.1-1-0.3
			c0,0-0.1-0.1-0.3-0.2c-0.1-0.1-0.2-0.1-0.3-0.2c0.1,0.2,0.2,0.3,0.2,0.4c0,0.4-0.1,0.8-0.3,1c-0.3,0.4-0.8,0.5-1.4,0.5
			c-0.4-0.1-0.8-0.3-1.1-0.5c-0.7-0.4-1.4-0.9-2.1-1.4c-1.3-0.9-2.7-1.8-4.2-2.5c-0.7-0.3-1.6-0.6-2.4-0.4c1.8,0.8,3.4,1.8,4.8,3.1
			c0.3,0.3,0.5,0.6,0.7,0.9c0.2,0.3,0.7,1.3,0.1,1.9c-0.8,0.8-1.5,0.4-2,0.1l-0.1,0c-2-1.3-4-2.3-6-3.2c-0.5-0.2-1.2-0.4-1.7-0.1
			c-0.9,0.6-3.5,1.9-8.2,2.2c-1.7,0.1-3.5,0.6-5.5,1.1c-3.8,1-7.3,2-10.4,2.9c-14.7,4.1-22.5,6.3-27.9,6.3
			C28.1,178.3,26.3,177.9,24.5,177.1z M84.4,165.3c2.1,0.8,4.1,1.9,6.1,3.2l0,0c0.5,0.3,0.7,0.4,1,0c0.1-0.1,0.2-0.3-0.2-1
			c-0.2-0.3-0.3-0.5-0.6-0.7c-1.5-1.4-3.3-2.5-5.4-3.3c-0.1,0-0.2-0.2-0.2-0.3c0-0.1,0-0.3,0.2-0.4c1.2-0.8,2.8-0.5,3.9,0
			c1.6,0.6,3,1.6,4.3,2.5c0.7,0.5,1.4,0.9,2.1,1.3c0.3,0.2,0.6,0.3,0.9,0.4c0.2,0,0.5,0,0.7-0.2c0.1-0.1,0.1-0.3,0.1-0.5
			c-0.5-0.8-6.5-5.7-8.2-6.3c-0.2-0.1-0.3-0.2-0.2-0.4c0-0.2,0.2-0.3,0.3-0.3c0.4,0,1.4-0.2,9.4,6.2c0.1,0.1,0.2,0.2,0.2,0.2
			c0.2,0.2,0.4,0.2,0.4,0.2c0,0,0,0,0,0c0,0,0-0.1,0-0.2c-0.3-1.5-1.2-3-2.9-4.7c-1.4-1.3-2.9-2.4-4.6-3.4c-0.2-0.1-0.2-0.3-0.2-0.5
			c0.1-0.2,0.3-0.3,0.5-0.2c3.6,1.7,6.7,4.7,8.4,8.3c0.3,0.2,0.6,0,0.8-0.2c0.3-0.4-0.6-3-2-4.9c-2.6-3.4-5.9-5.8-9.1-6.7
			c0,0-0.1,0-0.1,0c-1-0.5-5.5,0.9-11.3,3.6c-0.8,0.4-1.9,0.8-3,1c-0.3,0-0.9,0.1-1.6,0.2c-1.9,0.3-4.6,0.7-5.3,0.8c0,0,0,0,0,0
			c-10.6,0.7-21.5,1.5-32.4,2.1c-10.4,2.5-11.5,5.8-12.7,12c-0.4,2.3,0,2.7,1.1,3.2c5.9,2.5,12.8,0.6,33.4-5.2
			c3.1-0.9,6.6-1.8,10.4-2.9c2.1-0.6,3.8-1.1,5.7-1.2c4.6-0.2,7-1.5,7.9-2.1c0.3-0.2,0.6-0.3,0.9-0.3
			C83.5,164.9,84,165.1,84.4,165.3z"/>
	</g>
	<g>
		<path class="st1" d="M42.7,160.9c0.2,0,0.3-0.1,0.4-0.3c4.1-12.3,6.4-20.1,6.4-36.9c0-0.2-0.2-0.4-0.4-0.4c-0.2,0-0.4,0.2-0.4,0.4
			c0,16.7-2.3,24.5-6.3,36.7c-0.1,0.2,0,0.4,0.2,0.5C42.6,160.9,42.6,160.9,42.7,160.9z"/>
	</g>
	<g>
		<path class="st1" d="M100.4,139.9c-0.1-0.1-0.1-0.3,0-0.4c0-0.2,0.1-1.1,0.1-2.4c0-1.8,0.1-4.9,0.2-9.6c0-0.2,0.2-0.4,0.4-0.4
			c0.2,0,0.4,0.2,0.4,0.4c-0.2,4.7-0.2,7.8-0.2,9.6c0,2.5,0,2.7-0.3,2.9c-0.1,0.1-0.2,0.1-0.2,0.1
			C100.5,140.1,100.4,140,100.4,139.9z M100.4,139.4C100.4,139.4,100.4,139.4,100.4,139.4C100.4,139.4,100.4,139.4,100.4,139.4z"/>
	</g>
	<g>
		<path class="st1" d="M79.2,133.2c7.6,0,14.6-0.7,18.2-2.5c0.1,0,0.1-0.1,0.1-0.2c0-0.1-0.1-0.1-0.2-0.1
			c-7.5,3.8-29.2,2.6-41.9,0.8c-0.1,0-0.1,0-0.1,0.1c0,0.1,0,0.1,0.1,0.1C62,132.4,71,133.2,79.2,133.2z"/>
	</g>
	<g>
		<path class="st1" d="M71.1,143.9c10.1,0,19.4-1.6,26.3-3.3c0.1,0,0.1-0.1,0.1-0.2c0-0.1-0.1-0.1-0.2-0.1
			c-10.7,2.6-26.8,5-43.1,1.7c-0.1,0-0.1,0-0.1,0.1c0,0.1,0,0.1,0.1,0.1C59.9,143.4,65.6,143.9,71.1,143.9z"/>
	</g>
	<g>
		<path class="st1" d="M21.3,164.3C21.3,164.3,21.3,164.2,21.3,164.3c5-5.8,12.9-8.7,20.4-7.4c0.1,0,0.1,0,0.1-0.1
			c0-0.1,0-0.1-0.1-0.1c-7.5-1.3-15.6,1.6-20.5,7.5C21.1,164.1,21.1,164.2,21.3,164.3C21.2,164.3,21.2,164.3,21.3,164.3z"/>
	</g>
	<g>
		<path class="st1" d="M22.2,159C22.2,159,22.2,159,22.2,159c0.8-0.3,1.5-0.9,2.1-1.5c0.2-0.2,0.4-0.4,0.7-0.6
			c1.4-1.1,3.1-1.9,4.8-2.1c0.1,0,0.1-0.1,0.1-0.1c0-0.1-0.1-0.1-0.1-0.1c-1.8,0.3-3.5,1-4.9,2.2c-0.2,0.2-0.5,0.4-0.7,0.6
			c-0.6,0.5-1.2,1.1-2,1.4c-0.1,0-0.1,0.1-0.1,0.2C22.1,158.9,22.1,159,22.2,159z"/>
	</g>
	<g>
		<g>
			<polygon class="st2" points="183.8,133.2 125.5,133.5 105.4,174.8 163.1,174.7 			"/>
			<path class="st1" d="M105,175c-0.1-0.1-0.1-0.2,0-0.4l20.1-41.3c0.1-0.1,0.2-0.2,0.3-0.2l58.3-0.3c0,0,0,0,0,0
				c0.1,0,0.2,0.1,0.3,0.2c0.1,0.1,0.1,0.2,0,0.4l-20.6,41.4c-0.1,0.1-0.2,0.2-0.3,0.2l-57.8,0.1c0,0,0,0,0,0
				C105.2,175.2,105.1,175.1,105,175z M183.1,133.6l-57.5,0.3L106,174.4l56.9-0.1L183.1,133.6z"/>
		</g>
		<g>
			<path class="st0" d="M146.9,150c1.7-0.2,3.5,0.3,4.1,1.8c0.7,1.5,0.2,3.4-1.1,4.5c-1.2,1.1-3,1.5-4.7,1.1
				c-0.9-0.2-1.7-0.6-2.2-1.4c-0.3-0.5-0.5-1.1-0.5-1.8C142.5,152.3,143.4,150.4,146.9,150z"/>
			<path class="st1" d="M145.2,157.9c-0.8-0.2-1.8-0.6-2.5-1.5c-0.4-0.5-0.6-1.2-0.6-2c0-1.9,0.8-4.3,4.7-4.7c2.2-0.2,3.9,0.5,4.5,2
				c0.7,1.6,0.2,3.7-1.2,5c-1,0.9-2.3,1.4-3.7,1.4C146.1,158,145.6,158,145.2,157.9z M146.9,150.4L146.9,150.4c-2.7,0.3-4,1.6-4,3.9
				c0,0.4,0.1,1,0.4,1.6c0.4,0.6,1.1,1,2,1.2c1.6,0.4,3.2,0,4.3-1c1.2-1.1,1.6-2.8,1-4.1c-0.6-1.4-2.2-1.6-3.2-1.6
				C147.3,150.4,147.1,150.4,146.9,150.4z"/>
		</g>
	</g>
	<g>
		<path class="st0" d="M83.1,90.7c-1,6.9-1.4,20.7-1.4,20.7s-6.4,3.4-10.8,2.2c-3.7-1-8.5-1.3-8.8-5.7c1.6-5.6,1.8-15.3,3.9-24.3
			C70.5,85.7,77.7,89,83.1,90.7z"/>
		<path class="st1" d="M70.7,114c-0.6-0.2-1.1-0.3-1.7-0.4c-3.3-0.8-7-1.6-7.3-5.6c0,0,0-0.1,0-0.1c0.8-2.7,1.2-6.4,1.7-10.6
			c0.5-4.3,1.1-9.1,2.2-13.7c0-0.1,0.1-0.2,0.2-0.3c0.1,0,0.2-0.1,0.3,0c3.7,1.7,11.5,5.4,17.1,7.1c0.2,0.1,0.3,0.2,0.3,0.4
			c-1,6.8-1.4,20.5-1.4,20.7c0,0.1-0.1,0.3-0.2,0.3c-0.2,0.1-4.7,2.5-8.9,2.5C72.2,114.3,71.4,114.2,70.7,114z M82.7,91
			c-5.4-1.7-12.6-5.1-16.4-6.8c-1,4.5-1.6,9.1-2.1,13.2c-0.5,4.2-0.9,7.8-1.7,10.6c0.3,3.4,3.5,4.1,6.7,4.9c0.6,0.1,1.2,0.3,1.8,0.4
			c3.9,1,9.3-1.5,10.4-2.1C81.4,109.4,81.8,97.4,82.7,91z"/>
	</g>
	<g>
		<path class="st0" d="M82.2,100.5c-0.4,5.7-4.2,11.8-5.7,13.2c0.9,0,1.8-0.1,1.8-0.1s3.5,4.1,4.7,6.1c2-2.3,3.9-11,3.9-15.4
			C86.5,103,83.7,98.5,82.2,100.5z"/>
		<path class="st1" d="M83,120c-0.1,0-0.2-0.1-0.3-0.2c-1-1.7-3.9-5.1-4.5-5.9c-0.3,0-1,0.1-1.7,0.1c-0.2,0-0.3-0.1-0.4-0.2
			c-0.1-0.1,0-0.3,0.1-0.4c1.5-1.3,5.2-7.3,5.6-12.9c0-0.1,0-0.1,0.1-0.2c0.5-0.6,1-0.7,1.4-0.7c1.7,0.2,3.6,3.5,4,4.4
			c0,0,0,0.1,0,0.1c0,4.3-1.8,13.2-4,15.7C83.2,120,83.1,120,83,120C83,120,83,120,83,120z M83.2,100.4c-0.2,0-0.4,0-0.7,0.3
			c-0.4,5.1-3.4,10.5-5.1,12.6c0.5,0,0.9-0.1,0.9-0.1c0.1,0,0.3,0,0.3,0.1c0.1,0.2,3.1,3.6,4.4,5.7c1.8-2.7,3.5-10.4,3.5-14.7
			C86.1,103.1,84.4,100.5,83.2,100.4z"/>
	</g>
	<g>
		<path class="st0" d="M75.9,113.8c-0.7-0.3-2.1,0-2.1,0s-3.4,4-3.7,7.1c-3.9-3.3-11.8-12.8-12-17.9c0.8-1.4,3.5-6.2,5.4-4.4
			C62,100.6,68.5,112.3,75.9,113.8z"/>
		<path class="st1" d="M69.8,121.2c-4.2-3.5-11.9-13-12.1-18.2c0-0.1,0-0.1,0.1-0.2l0.1-0.2c0.9-1.4,2.6-4.4,4.4-4.7
			c0.5-0.1,1,0.1,1.4,0.5c0.1,0.1,0.2,0.3,0,0.5c-0.2,0.3-0.2,1.2,0.4,2.9c1.5,4,6.1,10.3,11.3,11.6c0.2,0,0.4,0.1,0.6,0.1
			c0.2,0.1,0.3,0.3,0.2,0.5c-0.1,0.2-0.2,0.3-0.4,0.3c-0.2,0-0.3-0.1-0.5-0.1c-0.5,0-1,0-1.4,0.1c-0.5,0.6-3.3,4.1-3.5,6.8
			c0,0.1-0.1,0.3-0.2,0.3c0,0-0.1,0-0.1,0C70,121.3,69.9,121.3,69.8,121.2z M63.5,102c-0.4-1-0.8-2.4-0.5-3.3
			c-0.2-0.1-0.4-0.1-0.6-0.1c-1.4,0.2-3.2,3.2-3.9,4.3l-0.1,0.2c0.3,4.8,7.2,13.4,11.3,17.1c0.6-3.1,3.5-6.5,3.7-6.6
			c0-0.1,0.1-0.1,0.2-0.1C69,111.3,64.9,105.7,63.5,102z"/>
	</g>
	<g>
		<g>
			<g>
				<path class="st2" d="M55.3,59.1c0.7,4.9,1.5,9.2,3.2,15.5c0.8,3,2.1,6.3,3.7,9.1c0.8,1.3,1.3,1.9,2.8,2.6c0.1-1.3,1.4-2,1.7-3.3
					c0.3-1.6-0.8-3,0.2-4.4c1.8-2.7,3.1-5.7,3.7-8.7c0.5-2.5,0.5-5.1-0.7-7.4c-1.2-2.3-3.7-4.2-6.8-4.4C60.9,58,57.2,57.6,55.3,59.1
					z"/>
				<path class="st1" d="M65,86.7c-1.6-0.8-2.3-1.5-3-2.8c-1.6-2.7-3-6.1-3.8-9.2C56.5,68.3,55.7,64,55,59.1c0-0.1,0-0.3,0.1-0.3
					c1.8-1.5,5.4-1.2,7.8-1.1l0.4,0c3,0.2,5.7,2,7.1,4.6c1.1,2.1,1.3,4.6,0.7,7.7c-0.6,3.1-1.9,6.1-3.7,8.8
					c-0.5,0.7-0.4,1.5-0.2,2.3c0.1,0.6,0.2,1.3,0.1,2c-0.1,0.7-0.5,1.3-0.9,1.7c-0.4,0.5-0.7,0.9-0.7,1.5c0,0.1-0.1,0.2-0.2,0.3
					c-0.1,0-0.1,0.1-0.2,0.1C65.1,86.7,65,86.7,65,86.7z M55.7,59.3c0.7,4.8,1.5,9,3.1,15.3c0.8,3,2.1,6.3,3.7,9
					c0.6,1.1,1.1,1.7,2.2,2.3c0.2-0.5,0.5-0.9,0.8-1.4c0.3-0.4,0.7-0.9,0.8-1.4c0.1-0.6,0-1.2-0.1-1.7c-0.2-0.9-0.3-1.9,0.4-2.9
					c1.8-2.7,3-5.5,3.6-8.6c0.6-2.9,0.3-5.2-0.6-7.2c-1.2-2.4-3.8-4-6.5-4.2l-0.4,0C62,58.4,61,58.3,60,58.3
					C58.4,58.3,56.8,58.5,55.7,59.3z"/>
			</g>
			<g>
				<path class="st0" d="M92,66.7c0,4.3,1.1,8.5,1.4,12.8c0.3,4.3-0.4,8.9-3.5,12.3c-2.7,3-7.3,4.9-11.8,4.8
					c-4.5-0.1-8.8-2.1-11.3-5.2c-2.3-2.9-3.1-9.6-3.6-12.9c-2,0.4-4.2-0.1-5.5-1.4c-1.3-1.3-1.4-3.4-0.1-4.7
					c1.3-1.3,3.1-1.6,5.2,0.1c-0.3-2.7,0-5.5,0.2-6.7c0.4-3.4,0.2-8.4,2.4-9.9c1.3-0.9,4-1.7,5.6-2.2c2.7-0.9,6.5,0.6,9.4,0.5
					c2.8-0.2,5.8,1,8.2,2.3C91.3,57.9,92,63.4,92,66.7z"/>
				<path class="st1" d="M78.1,97c-4.6-0.1-9.1-2.1-11.6-5.4c-2.1-2.7-3-8.3-3.5-12c0-0.3-0.1-0.5-0.1-0.7c-2.1,0.3-4.2-0.3-5.5-1.6
					c-1.5-1.5-1.5-3.8-0.1-5.2c1.4-1.4,3.2-1.6,5-0.4c-0.2-2.4,0.1-4.7,0.2-5.9l0-0.1c0.1-0.7,0.1-1.5,0.2-2.3
					c0.2-3.1,0.5-6.6,2.4-7.9c1.3-0.9,3.9-1.7,5.5-2.2l0.2-0.1c1.7-0.5,3.7-0.2,5.7,0.1c1.4,0.2,2.6,0.4,3.8,0.4
					c2.4-0.1,5.2,0.6,8.4,2.3c3.5,1.9,3.7,9.1,3.7,10.6c0,2.4,0.4,4.8,0.7,7.2c0.3,1.8,0.5,3.7,0.7,5.6c0.3,5.3-0.9,9.6-3.6,12.6
					c-2.8,3.1-7.3,5-11.8,5C78.3,97,78.2,97,78.1,97z M80.3,54.5c-1.2,0.1-2.6-0.2-3.9-0.4c-1.9-0.3-3.9-0.6-5.3-0.1L70.9,54
					c-1.5,0.5-4.1,1.3-5.3,2.1c-1.6,1.1-1.9,4.5-2.1,7.4c-0.1,0.8-0.1,1.6-0.2,2.3l0,0.1c-0.1,1.3-0.4,3.9-0.2,6.5
					c0,0.2-0.1,0.3-0.2,0.4c-0.1,0.1-0.3,0.1-0.4,0c-1.8-1.5-3.3-1.5-4.7-0.2c-1.1,1.1-1.1,3,0.1,4.2c1.2,1.2,3.2,1.7,5.2,1.3
					c0.1,0,0.2,0,0.3,0.1c0.1,0.1,0.1,0.1,0.2,0.3c0.1,0.3,0.1,0.7,0.2,1.1c0.5,3.4,1.3,9.1,3.3,11.6c2.4,3.1,6.6,5,11,5.1
					c4.4,0.1,8.8-1.7,11.5-4.7c2.6-2.9,3.8-6.9,3.5-12.1c-0.1-1.9-0.4-3.7-0.7-5.6c-0.4-2.4-0.7-4.8-0.7-7.3l0,0
					c0-3.7-0.9-8.6-3.3-9.9c-2.8-1.5-5.3-2.3-7.5-2.3C80.7,54.5,80.5,54.5,80.3,54.5z M92,66.7L92,66.7L92,66.7z"/>
			</g>
			<g>
				<path class="st2" d="M78.6,60.3c0.4,1.9,3.4,4.6,5.2,4.8c1.9,0.2,2.6-0.7,3.3-2.5c1.6,1.5,2.9,3,4.6,3.6c2.6,1,5.8-0.6,6.6-3.3
					c0.9-2.7-0.8-6-3.4-6.8c1.8,0.4,3.5-1.4,3.5-3.2c0-1.9-1.3-3.6-2.9-4.4c-1.6-0.8-3.5-0.9-5.3-1.2c0.7-1.8-0.2-4-1.7-5.2
					s-3.5-1.4-5.4-1.2c-1.2,0.2-2.5,0.5-3.4,1.3c-1,0.8-1.6,2.1-1.6,3.5c-1.6-2.1-4.3-3.4-6.7-2.8c-2.5,0.6-4.4,3.6-4.5,5.7
					c-1.2-1.5-2.8-2.7-4.6-2.6c-3.7,0.2-4.5,3.3-2.9,7.4c-2-1-4.9-0.1-5.8,2.7c-0.7,2.1,0.1,5.5,1.6,7.2c1.5,1.7,6.7,3.1,10.4,0.5
					c2-1.5,3-3.4,3.6-5.3c1.1,1.9,1.9,3.1,4.6,4C75.6,63,77.9,62.2,78.6,60.3z"/>
				<path class="st1" d="M91.5,66.6c-1.3-0.5-2.4-1.5-3.5-2.6c-0.3-0.2-0.5-0.5-0.8-0.7c-0.7,1.6-1.6,2.4-3.5,2.2
					c-1.8-0.2-4.3-2.3-5.3-4.2c-1,1.5-3.1,2.1-5,1.4c-2.5-0.8-3.5-2-4.4-3.5c-0.6,1.5-1.5,3.3-3.5,4.7c-3.9,2.8-9.3,1.2-10.9-0.5
					c-1.6-1.8-2.4-5.3-1.6-7.5c0.5-1.4,1.4-2.5,2.7-3c0.9-0.4,1.9-0.5,2.8-0.2c-0.8-2.2-0.7-4.1,0.1-5.4c0.7-1.1,1.8-1.7,3.4-1.7
					c1.5-0.1,3,0.6,4.4,2.1c0.5-2.2,2.4-4.7,4.7-5.2c2.2-0.5,4.7,0.4,6.5,2.3c0.2-1.1,0.8-2.1,1.6-2.8c0.9-0.7,2.1-1.2,3.6-1.4
					c2.2-0.3,4.2,0.2,5.7,1.3c1.6,1.2,2.4,3.4,2,5.2c0.2,0,0.4,0,0.6,0.1c1.5,0.2,3,0.4,4.4,1.1c1.9,1,3.1,2.9,3.1,4.8
					c0,1.1-0.6,2.3-1.5,3c-0.3,0.2-0.6,0.4-1,0.5c2,1.4,3.1,4.2,2.3,6.6c-0.4,1.4-1.5,2.6-2.9,3.3c-0.8,0.4-1.6,0.6-2.4,0.6
					C92.7,66.9,92.1,66.8,91.5,66.6z M95,55.7c0.6,0.1,1.3,0,1.8-0.5c0.7-0.6,1.2-1.5,1.2-2.4c0-1.8-1.3-3.4-2.7-4.1
					c-1.3-0.6-2.7-0.8-4.2-1c-0.3,0-0.7-0.1-1-0.1c-0.1,0-0.2-0.1-0.3-0.2c-0.1-0.1-0.1-0.2,0-0.3c0.6-1.6-0.1-3.6-1.6-4.8
					c-1.3-1-3.1-1.4-5.1-1.1c-1.4,0.2-2.4,0.6-3.2,1.2c-0.9,0.8-1.5,2-1.4,3.2c0,0.2-0.1,0.3-0.2,0.4c-0.2,0.1-0.3,0-0.4-0.1
					c-1.7-2.2-4.2-3.2-6.4-2.7c-2.4,0.6-4.1,3.5-4.3,5.4c0,0.2-0.1,0.3-0.3,0.3c-0.1,0-0.3,0-0.4-0.1c-1.4-1.7-2.8-2.5-4.3-2.5
					c-1.3,0.1-2.3,0.5-2.8,1.4c-0.8,1.2-0.7,3.2,0.3,5.5c0.1,0.1,0,0.3-0.1,0.4c-0.1,0.1-0.3,0.1-0.4,0.1c-0.9-0.4-2-0.5-3,0
					c-1.1,0.5-1.9,1.4-2.3,2.6c-0.6,2,0.1,5.2,1.5,6.8c1.4,1.6,6.4,2.8,9.9,0.4c2.1-1.5,3-3.6,3.4-5.1c0-0.1,0.2-0.2,0.3-0.3
					c0.1,0,0.3,0.1,0.4,0.2c1,1.7,1.7,3,4.4,3.9c1.7,0.6,3.9,0,4.5-1.8c0.1-0.2,0.2-0.3,0.4-0.2c0.2,0,0.3,0.1,0.3,0.3
					c0.4,1.8,3.2,4.3,4.9,4.5c1.6,0.2,2.2-0.5,2.9-2.2c0-0.1,0.1-0.2,0.3-0.2c0.1,0,0.2,0,0.3,0.1c0.4,0.4,0.8,0.7,1.2,1.1
					c1.1,1.1,2.1,2,3.3,2.4c1.1,0.4,2.4,0.3,3.6-0.2c1.2-0.6,2.2-1.6,2.5-2.9c0.8-2.5-0.8-5.6-3.2-6.4c-0.2-0.1-0.3-0.3-0.2-0.5
					C94.6,55.8,94.7,55.7,95,55.7C94.9,55.7,94.9,55.7,95,55.7z"/>
			</g>
			<g>
				<path class="st1" d="M88,72.9c0.1-0.5-0.3-1-0.9-1.1c-0.6-0.1-1.1,0.3-1.1,0.8c-0.1,0.5,0.3,1,0.9,1.1
					C87.5,73.8,88,73.4,88,72.9z"/>
			</g>
			<g>
				<path class="st1" d="M73.8,73.6c0.1-0.5-0.3-1-0.9-1.1s-1.1,0.3-1.1,0.8c-0.1,0.5,0.3,1,0.9,1.1C73.3,74.6,73.8,74.2,73.8,73.6z
					"/>
			</g>
			<g>
				<path class="st1" d="M78.1,90.3c0.4,0,0.9-0.1,1.3-0.2c0.2-0.1,0.3-0.3,0.3-0.5c-0.1-0.2-0.3-0.3-0.5-0.3
					c-1.7,0.4-3.5-0.1-4.6-1.4c-0.1-0.2-0.4-0.2-0.5,0c-0.2,0.1-0.2,0.4,0,0.5C75,89.6,76.5,90.3,78.1,90.3z"/>
			</g>
			<g>
				<path class="st1" d="M80.5,85c0.7,0,1.4-0.1,2.2-0.4c0.4-0.1,0.9-0.3,1.2-0.7c0.4-0.5,0.6-1.2,0.4-2c-0.1-0.5-0.4-1-0.6-1.5
					l-0.1-0.2c-1.2-2.5-1.9-5.3-1.8-8.1c0-0.2-0.2-0.4-0.4-0.4c0,0,0,0,0,0c-0.2,0-0.4,0.2-0.4,0.4c0,2.9,0.6,5.8,1.9,8.4l0.1,0.2
					c0.2,0.4,0.4,0.9,0.5,1.3c0.1,0.5,0,1-0.2,1.3c-0.2,0.2-0.6,0.4-0.9,0.5c-0.9,0.3-1.8,0.4-2.5,0.3c-0.9-0.1-1.6-0.6-2-1.2
					c-0.1-0.2-0.3-0.2-0.5-0.1c-0.2,0.1-0.2,0.3-0.1,0.5c0.5,0.8,1.5,1.4,2.5,1.5C80,85,80.2,85,80.5,85z"/>
			</g>
		</g>
		<g>
			<path class="st1" d="M63,75.1C63,75.1,63,75.1,63,75.1c0.3,0,0.4-0.2,0.4-0.4c-0.2-1.2-0.2-1.8-0.3-2.9c0-0.2-0.2-0.4-0.4-0.3
				c-0.2,0-0.4,0.2-0.3,0.4c0.1,1.1,0.2,1.8,0.3,3C62.6,75,62.8,75.1,63,75.1z"/>
		</g>
		<g>
			<path class="st1" d="M95.7,63.8C95.7,63.8,95.7,63.8,95.7,63.8c1.1-1,1.4-2.6,1-3.9c0-0.1-0.1-0.1-0.2-0.1
				c-0.1,0-0.1,0.1-0.1,0.2c0.4,1.2,0.1,2.7-0.8,3.6C95.5,63.6,95.5,63.7,95.7,63.8C95.6,63.8,95.6,63.8,95.7,63.8z"/>
		</g>
	</g>
	<g>
		<path class="st1" d="M131.8,131.8C131.9,131.8,131.9,131.8,131.8,131.8c0.1,0,0.1-0.1,0.1-0.2c-1.3-3.1-1.9-6.4-1.8-9.7
			c0-0.1-0.1-0.1-0.1-0.1c0,0,0,0,0,0c-0.1,0-0.1,0.1-0.1,0.1c-0.1,3.3,0.5,6.7,1.8,9.8C131.7,131.8,131.8,131.8,131.8,131.8z"/>
	</g>
	<g>
		<path class="st1" d="M127.3,125.7C127.3,125.7,127.3,125.7,127.3,125.7c0.1,0,0.1-0.1,0.1-0.2c-0.3-1.2-0.3-2.4-0.2-3.6
			c0-0.1,0-0.1-0.1-0.1c-0.1,0-0.1,0-0.1,0.1c-0.1,1.2,0,2.5,0.2,3.7C127.2,125.6,127.2,125.7,127.3,125.7z"/>
	</g>
	<g>
		<path class="st1" d="M58.1,62.5C58.2,62.5,58.2,62.5,58.1,62.5c0.1-0.1,0.1-0.2,0.1-0.2c-1.6-1.4-2.2-3.8-1.5-5.9
			c0-0.1,0-0.1-0.1-0.2c-0.1,0-0.1,0-0.2,0.1C55.7,58.4,56.4,61,58.1,62.5C58.1,62.5,58.1,62.5,58.1,62.5z"/>
	</g>
</g>
<g>
	<g>
		<polygon class="st0" points="0.5,17.1 0.4,36 33.8,35.9 34,17.2 		"/>
		<path class="st1" d="M0.4,36.3c-0.1,0-0.2,0-0.3-0.1S0,36,0,35.9L0.1,17c0-0.2,0.2-0.4,0.4-0.4l0,0L34,16.7c0.1,0,0.2,0,0.3,0.1
			c0.1,0.1,0.1,0.2,0.1,0.3l-0.2,18.7c0,0.2-0.2,0.4-0.4,0.4L0.4,36.3L0.4,36.3z M0.9,17.5L0.8,35.6l32.7-0.1l0.2-18H0.9z"/>
	</g>
	<g>
		<g>
			<path class="st1" d="M9.2,22.8C9.1,22.8,9.1,22.7,9.2,22.8c-0.1-0.2,0-0.2,0-0.2L25,22.5l0,0c0.1,0,0.1,0.1,0.1,0.1
				c0,0.1-0.1,0.1-0.1,0.1L9.2,22.8L9.2,22.8z"/>
		</g>
		<g>
			<path class="st1" d="M9.4,30.6C9.3,30.6,9.3,30.5,9.4,30.6c-0.1-0.2,0-0.2,0-0.2l15.7-0.1l0,0c0.1,0,0.1,0.1,0.1,0.1
				c0,0.1-0.1,0.1-0.1,0.1L9.4,30.6L9.4,30.6z"/>
		</g>
		<g>
			<path class="st1" d="M11.6,26.7C11.5,26.7,11.5,26.6,11.6,26.7v-0.2h11.2l0,0c0.1,0,0.1,0.1,0.1,0.1c0,0.1-0.1,0.1-0.1,0.1H11.6
				L11.6,26.7z"/>
		</g>
	</g>
	<g>
		<path class="st1" d="M44.6,42.5c-0.2,0-0.4-0.2-0.4-0.4V26.8l-10.4,0.1c-0.2,0-0.4-0.2-0.4-0.4s0.2-0.4,0.4-0.4L44.6,26
			c0.1,0,0.2,0,0.3,0.1c0.1,0.1,0.1,0.2,0.1,0.3v15.7C45,42.3,44.8,42.5,44.6,42.5z"/>
	</g>
	<g>
		<rect x="42.8" y="40.3" class="st2" width="3.8" height="3.5"/>
		<path class="st1" d="M46.5,44.2h-3.8c-0.2,0-0.4-0.2-0.4-0.4v-3.5c0-0.2,0.2-0.4,0.4-0.4h3.8c0.2,0,0.4,0.2,0.4,0.4v3.5
			C46.9,44,46.7,44.2,46.5,44.2z M43.1,43.5h3v-2.8h-3V43.5z"/>
	</g>
</g>
</svg>
