<?xml version="1.0" encoding="utf-8"?>
<!-- Generator: Adobe Illustrator 27.4.0, SVG Export Plug-In . SVG Version: 6.00 Build 0)  -->
<!DOCTYPE svg PUBLIC "-//W3C//DTD SVG 1.1//EN" "http://www.w3.org/Graphics/SVG/1.1/DTD/svg11.dtd" [
	<!ENTITY ns_extend "http://ns.adobe.com/Extensibility/1.0/">
	<!ENTITY ns_ai "http://ns.adobe.com/AdobeIllustrator/10.0/">
	<!ENTITY ns_graphs "http://ns.adobe.com/Graphs/1.0/">
	<!ENTITY ns_vars "http://ns.adobe.com/Variables/1.0/">
	<!ENTITY ns_imrep "http://ns.adobe.com/ImageReplacement/1.0/">
	<!ENTITY ns_sfw "http://ns.adobe.com/SaveForWeb/1.0/">
	<!ENTITY ns_custom "http://ns.adobe.com/GenericCustomNamespace/1.0/">
	<!ENTITY ns_adobe_xpath "http://ns.adobe.com/XPath/1.0/">
]>
<svg version="1.1" id="Warstwa_1" xmlns:x="&ns_extend;" xmlns:i="&ns_ai;" xmlns:graph="&ns_graphs;"
	 xmlns="http://www.w3.org/2000/svg" xmlns:xlink="http://www.w3.org/1999/xlink" x="0px" y="0px" viewBox="0 0 16 16.1"
	 style="enable-background:new 0 0 16 16.1;" xml:space="preserve">
<style type="text/css">
	.st0{fill:#030404;}
	.st1{fill:#E1F465;}
</style>
<metadata>
	<sfw  xmlns="&ns_sfw;">
		<slices></slices>
		<sliceSourceBounds  bottomLeftOrigin="true" height="16.1" width="16" x="92" y="92.7"></sliceSourceBounds>
	</sfw>
</metadata>
<g>
	<g>
		<g>
			<polygon class="st0" points="15.3,15.3 14.9,15.3 14.9,15.1 15.1,15.1 15.1,14.9 15.3,14.9 			"/>
			<path class="st0" d="M14.4,15.3h-0.6v-0.2h0.6V15.3z M13.3,15.3h-0.6v-0.2h0.6L13.3,15.3L13.3,15.3z M12.2,15.3h-0.6v-0.2h0.6
				V15.3z M11.1,15.3h-0.6v-0.2h0.6V15.3z M9.9,15.3H9.4v-0.2h0.6V15.3z M8.8,15.3H8.3v-0.2h0.6V15.3z M7.7,15.3H7.2v-0.2h0.6V15.3z
				 M6.6,15.3H6.1v-0.2h0.6V15.3z M5.5,15.3H4.9v-0.2h0.6V15.3z M4.4,15.3H3.8v-0.2h0.6V15.3z M3.3,15.3H2.7v-0.2h0.6V15.3z
				 M2.2,15.3H1.6v-0.2h0.6V15.3z"/>
			<polygon class="st0" points="1.1,15.3 0.7,15.3 0.7,14.9 0.9,14.9 0.9,15.1 1.1,15.1 			"/>
			<path class="st0" d="M0.9,14.4H0.7v-0.6h0.2C0.9,13.8,0.9,14.4,0.9,14.4z M0.9,13.3H0.7v-0.6h0.2C0.9,12.7,0.9,13.3,0.9,13.3z
				 M0.9,12.2H0.7v-0.6h0.2C0.9,11.6,0.9,12.2,0.9,12.2z M0.9,11H0.7v-0.6h0.2C0.9,10.5,0.9,11,0.9,11z M0.9,9.9H0.7V9.4h0.2
				C0.9,9.4,0.9,9.9,0.9,9.9z M0.9,8.8H0.7V8.3h0.2C0.9,8.3,0.9,8.8,0.9,8.8z M0.9,7.7H0.7V7.2h0.2C0.9,7.2,0.9,7.7,0.9,7.7z
				 M0.9,6.6H0.7V6.1h0.2C0.9,6.1,0.9,6.6,0.9,6.6z M0.9,5.5H0.7V4.9h0.2C0.9,4.9,0.9,5.5,0.9,5.5z M0.9,4.4H0.7V3.8h0.2
				C0.9,3.8,0.9,4.4,0.9,4.4z M0.9,3.3H0.7V2.7h0.2C0.9,2.7,0.9,3.3,0.9,3.3z M0.9,2.2H0.7V1.6h0.2C0.9,1.6,0.9,2.2,0.9,2.2z"/>
			<polygon class="st0" points="0.9,1 0.7,1 0.7,0.7 1.1,0.7 1.1,0.8 0.9,0.8 			"/>
			<path class="st0" d="M14.4,0.8h-0.6V0.7h0.6V0.8z M13.3,0.8h-0.6V0.7h0.6L13.3,0.8L13.3,0.8z M12.2,0.8h-0.6V0.7h0.6V0.8z
				 M11.1,0.8h-0.6V0.7h0.6V0.8z M9.9,0.8H9.4V0.7h0.6V0.8z M8.8,0.8H8.3V0.7h0.6V0.8z M7.7,0.8H7.2V0.7h0.6V0.8z M6.6,0.8H6.1V0.7
				h0.6V0.8z M5.5,0.8H4.9V0.7h0.6V0.8z M4.4,0.8H3.8V0.7h0.6V0.8z M3.3,0.8H2.7V0.7h0.6V0.8z M2.2,0.8H1.6V0.7h0.6V0.8z"/>
			<polygon class="st0" points="15.3,1 15.1,1 15.1,0.8 14.9,0.8 14.9,0.7 15.3,0.7 			"/>
			<path class="st0" d="M15.3,14.4h-0.2v-0.6h0.2V14.4z M15.3,13.3h-0.2v-0.6h0.2V13.3z M15.3,12.2h-0.2v-0.6h0.2V12.2z M15.3,11
				h-0.2v-0.6h0.2V11z M15.3,9.9h-0.2V9.4h0.2V9.9z M15.3,8.8h-0.2V8.3h0.2V8.8z M15.3,7.7h-0.2V7.2h0.2V7.7z M15.3,6.6h-0.2V6.1
				h0.2V6.6z M15.3,5.5h-0.2V4.9h0.2V5.5z M15.3,4.4h-0.2V3.8h0.2V4.4z M15.3,3.3h-0.2V2.7h0.2V3.3z M15.3,2.2h-0.2V1.6h0.2V2.2z"/>
		</g>
		<rect y="0.2" class="st1" width="1.8" height="1.8"/>
		<rect x="14.2" class="st0" width="1.8" height="1.8"/>
		<rect x="14.2" y="14.3" class="st1" width="1.8" height="1.8"/>
		<rect y="14.3" class="st0" width="1.8" height="1.8"/>
	</g>
	<g>
		<g>
			<path class="st1" d="M7.6,3.8v4h0.3c0.4,0,0.8-0.1,1-0.2s0.5-0.3,0.7-0.6C9.8,6.6,9.9,6.2,10,5.7h0.2v4.9H10
				C9.9,9.6,9.7,9,9.3,8.7C8.9,8.4,8.4,8.3,7.9,8.3H7.6v3c0,0.5,0,0.8,0.1,0.9c0.1,0.1,0.2,0.2,0.3,0.3c0.2,0.1,0.4,0.1,0.6,0.1H9
				v0.3H3.9v-0.3h0.3c0.3,0,0.5,0,0.7-0.2c0.1-0.1,0.2-0.2,0.3-0.3c0.1-0.1,0.1-0.4,0.1-0.9V4.9c0-0.5,0-0.8-0.1-0.9
				C5.1,3.8,5,3.7,4.9,3.6C4.7,3.5,4.5,3.5,4.2,3.5H3.9V3.2h8.2V6h-0.3c-0.1-0.7-0.2-1.1-0.5-1.4C11,4.2,10.6,4,10.1,3.9
				C9.8,3.8,9.3,3.8,8.5,3.8L7.6,3.8L7.6,3.8z"/>
		</g>
	</g>
</g>
</svg>
