<?xml version="1.0" encoding="utf-8"?>
<!-- Generator: Adobe Illustrator 27.3.1, SVG Export Plug-In . SVG Version: 6.00 Build 0)  -->
<!DOCTYPE svg PUBLIC "-//W3C//DTD SVG 1.1//EN" "http://www.w3.org/Graphics/SVG/1.1/DTD/svg11.dtd" [
	<!ENTITY ns_extend "http://ns.adobe.com/Extensibility/1.0/">
	<!ENTITY ns_ai "http://ns.adobe.com/AdobeIllustrator/10.0/">
	<!ENTITY ns_graphs "http://ns.adobe.com/Graphs/1.0/">
	<!ENTITY ns_vars "http://ns.adobe.com/Variables/1.0/">
	<!ENTITY ns_imrep "http://ns.adobe.com/ImageReplacement/1.0/">
	<!ENTITY ns_sfw "http://ns.adobe.com/SaveForWeb/1.0/">
	<!ENTITY ns_custom "http://ns.adobe.com/GenericCustomNamespace/1.0/">
	<!ENTITY ns_adobe_xpath "http://ns.adobe.com/XPath/1.0/">
]>
<svg version="1.1"
	 id="svg2191" xmlns:x="&ns_extend;" xmlns:i="&ns_ai;" xmlns:graph="&ns_graphs;" xmlns:sodipodi="http://sodipodi.sourceforge.net/DTD/sodipodi-0.dtd" xmlns:inkscape="http://www.inkscape.org/namespaces/inkscape" xmlns:svg="http://www.w3.org/2000/svg"
	 xmlns="http://www.w3.org/2000/svg" xmlns:xlink="http://www.w3.org/1999/xlink" x="0px" y="0px" viewBox="0 0 1993 613.6"
	 style="enable-background:new 0 0 1993 613.6;" xml:space="preserve">
<style type="text/css">
	.st0{fill:#EE1832;}
	.st1{fill:#FFFFFF;}
</style>
<metadata>
	<sfw  xmlns="&ns_sfw;">
		<slices></slices>
		<sliceSourceBounds  bottomLeftOrigin="true" height="613.6" width="1993" x="0" y="0"></sliceSourceBounds>
	</sfw>
</metadata>
<sodipodi:namedview  bordercolor="#666666" borderopacity="1.0" id="namedview2193" inkscape:current-layer="g2258" inkscape:cx="1621.9458" inkscape:cy="532.72121" inkscape:deskcolor="#d1d1d1" inkscape:document-units="mm" inkscape:pagecheckerboard="0" inkscape:pageopacity="0.0" inkscape:showpageshadow="2" inkscape:window-height="747" inkscape:window-maximized="1" inkscape:window-width="1280" inkscape:window-x="-8" inkscape:window-y="-8" inkscape:zoom="0.2102413" pagecolor="#ffffff" showgrid="false">
	</sodipodi:namedview>
<g id="layer1" transform="translate(325.23901,-6.7205384)" inkscape:groupmode="layer" inkscape:label="Layer 1">
	<g id="g2248">
		<g id="g2258" transform="matrix(0.93818158,0.25805169,-0.25805169,0.93818158,24.258984,-6.9236535)">
			<g id="g2283" transform="rotate(-0.05782859,35.320577,120.48778)">
				<path id="path2198" class="st0" d="M1074.4-117.2c-1-151-1-151-1-151c-12.2,12-43,18.8-55.7,22.2
					c-463,129.5-463,129.5-463,129.5c38.3,8,53.3,29.2,54.5,77.2c3.8,410,3.8,410,3.8,410c0,79.2-8.7,116.5-39.5,125
					c-25.5,7.3-42-3.5-75-32.5C259.9,219.8,259.9,219.8,259.9,219.8c267.2-328.3,267.2-328.3,267.2-328.3
					C232.6-26.2,232.6-26.2,232.6-26.2c47.5,12,62.3,44.7,27.3,87.5c-177,238.5-177,238.5-177,238.5C82.1,102,82.1,102,82.1,102
					c1.2-49.2,27.5-81.8,53.5-101.5c-317.2,89-317.2,89-317.2,89c38.2,7.2,53.8,29,55.5,77.5c3.3,410.7,3.3,410.7,3.3,410.7
					c0,42.2,1.3,91.2-54.5,133.8c314-88.3,314-88.3,314-88.3c-44.5-12.5-52.3-43-53-84.2c-0.3-177.8-0.3-177.8-0.3-177.8
					c197,222.5,197,222.5,197,222.5c145-41.5,145-41.5,145-41.5c446.5-125.8,446.5-125.8,446.5-125.8c-42.5-19.8-52.5-52.8-52-104.5
					c-0.8-149-0.8-149-0.8-149c101.5-28.8,101.5-28.8,101.5-28.8c48-13.5,68-8.5,95,7.5C1013.9-5,1013.9-5,1013.9-5
					c-12.2,11.8-44,19-55.5,21.8C818.6,56.5,818.6,56.5,818.6,56.5c-1-140.5-1-140.5-1-140.5c162.8-45.3,162.8-45.3,162.8-45.3
					c47-12.3,69-6,94,12.2L1074.4-117.2z"/>
				<path id="path2200" class="st0" d="M1542.6,142.5c-129.5,35.3-227.8-36-255.5-135.7c-31-111,27.8-248.3,177.5-290.8
					c47.2-12.5,99.7-19.8,172.5-9.3c0-124,0-124,0-124c-45.2,1.3-102.2,10.5-167.8,29.3c-300.2,84.3-445,312.5-396.5,484.8
					c36.3,129.7,177,231,419.5,162.7c71.2-20.8,140.8-43.5,196-72.3c0-116.8,0-116.8,0-116.8C1645.6,98.5,1589.9,128.8,1542.6,142.5
					L1542.6,142.5z"/>
				<path id="path2202" class="st1" d="M-99.6,596.3c-2.8-428.7-2.8-428.7-2.8-428.7c0.5-51.8-8.8-66.8-27.3-80.5
					c28-1,49.8,13.7,49.8,74.7C-76.6,592-76.6,592-76.6,592c0,51.2-13.2,73.3-49.2,82.5c19.5-18.5,27.5-46.8,26.5-78.3L-99.6,596.3z
					"/>
				<path id="path2204" class="st1" d="M636.4,392.5c-2.8-429.2-2.8-429.2-2.8-429.2c0.5-50.7-9.2-65.7-28-81.2
					c28.5,0,50,15.5,50,76c3.3,430.5,3.3,430.5,3.3,430.5c0.5,51.8-9,72-44.7,80.8C633.4,453,636.4,431.8,636.4,392.5L636.4,392.5z"
					/>
				<path id="path2206" class="st1" d="M819.6-133c149.5-41.5,149.5-41.5,149.5-41.5c43.8-12.2,82.8-13,91.5,22.2
					c-20-10-40.5-14.5-91,0.8c-150.7,41.8-150.7,41.8-150.7,41.8L819.6-133z"/>
				<path id="path2208" class="st1" d="M819.6,136.5c0-23.5,0-23.5,0-23.5c89.2-24.3,89.2-24.3,89.2-24.3
					c43.2-12.8,82.5-12.8,91.5,21.7c-19.7-9.7-40.5-14.2-91,1C819.6,136.5,819.6,136.5,819.6,136.5L819.6,136.5z"/>
				<path id="path2210" class="st1" d="M1099.6,88.8c-53-191.2,131.2-356.3,261.7-407.8c-108,62.8-288.5,212-237.2,400.3
					c50.3,181,258.5,178.2,395.8,148.5C1373.6,283.5,1152.6,281,1099.6,88.8L1099.6,88.8z"/>
				<path id="path2212" class="st1" d="M347.9,539c-30.5,7-60-23.5-60-23.5c2.2,3.8,2.2,3.8,2.2,3.8
					C117.9,325.5,117.9,325.5,117.9,325.5c185-246.8,185-246.8,185-246.8c37.5-48.3,40.7-105.3-13-108.8c25,23.5,24,59-8,100.5
					C89.4,327,89.4,327,89.4,327c202,228.2,202,228.2,202,228.2c25.2-7.8,25.2-7.8,25.2-7.8l0,0L347.9,539z"/>
			</g>
		</g>
	</g>
</g>
</svg>
