<?xml version="1.0" encoding="utf-8"?>
<!-- Generator: Adobe Illustrator 27.3.1, SVG Export Plug-In . SVG Version: 6.00 Build 0)  -->
<!DOCTYPE svg PUBLIC "-//W3C//DTD SVG 1.1//EN" "http://www.w3.org/Graphics/SVG/1.1/DTD/svg11.dtd" [
	<!ENTITY ns_extend "http://ns.adobe.com/Extensibility/1.0/">
	<!ENTITY ns_ai "http://ns.adobe.com/AdobeIllustrator/10.0/">
	<!ENTITY ns_graphs "http://ns.adobe.com/Graphs/1.0/">
	<!ENTITY ns_vars "http://ns.adobe.com/Variables/1.0/">
	<!ENTITY ns_imrep "http://ns.adobe.com/ImageReplacement/1.0/">
	<!ENTITY ns_sfw "http://ns.adobe.com/SaveForWeb/1.0/">
	<!ENTITY ns_custom "http://ns.adobe.com/GenericCustomNamespace/1.0/">
	<!ENTITY ns_adobe_xpath "http://ns.adobe.com/XPath/1.0/">
]>
<svg version="1.1" id="Layer_1" xmlns:x="&ns_extend;" xmlns:i="&ns_ai;" xmlns:graph="&ns_graphs;"
	 xmlns="http://www.w3.org/2000/svg" xmlns:xlink="http://www.w3.org/1999/xlink" x="0px" y="0px" viewBox="0 0 367.6 291.9"
	 style="enable-background:new 0 0 367.6 291.9;" xml:space="preserve">
<style type="text/css">
	.st0{fill:#FBBB17;}
</style>
<metadata>
	<sfw  xmlns="&ns_sfw;">
		<slices></slices>
		<sliceSourceBounds  bottomLeftOrigin="true" height="291.9" width="367.6" x="74.4" y="65"></sliceSourceBounds>
	</sfw>
</metadata>
<g id="Logo_McDonalds">
	<path class="st0" d="M240,0c-0.5,0-1.1,0-1.6,0c-28.9,1.2-54.5,40-71.5,100.1C149.9,40,124.3,1.2,95.4,0c-0.5,0-1.1,0-1.6,0
		C42,0,0,130.6,0,291.8h41.7c0-149.7,23.4-271,52.1-271s52.1,112,52.1,250.2h0.3h41.4h0.3c0-138.1,23.4-250.2,52.1-250.2
		s52.1,121.3,52.1,271h41.7C333.8,130.6,291.8,0,240,0z"/>
	<path class="st0" d="M354.6,265.9c-7.2,0-13,5.8-13,13s5.8,13,13,13s13-5.8,13-13S361.8,265.9,354.6,265.9z M354.6,289.4
		c-5.8,0-10.6-4.7-10.6-10.6s4.7-10.6,10.6-10.6c5.8,0,10.6,4.7,10.6,10.6S360.4,289.4,354.6,289.4z"/>
	<path class="st0" d="M357.5,279.8c-0.2-0.1-0.4-0.3-0.6-0.4c0.4-0.2,0.8-0.4,1.1-0.6s0.6-0.5,0.8-0.8c0.2-0.3,0.4-0.7,0.5-1
		c0.1-0.4,0.2-0.8,0.2-1.2c0-0.5-0.1-1-0.3-1.5s-0.5-0.9-0.9-1.2c-0.4-0.3-0.9-0.6-1.6-0.8c-0.7-0.2-1.4-0.3-2.4-0.3h-4.2v12.8h3
		v-4.7h0.8c0.2,0,0.4,0,0.5,0.1c0.1,0.1,0.2,0.2,0.3,0.4l2.1,3.7c0.2,0.4,0.6,0.6,1.1,0.6h2.7l-2.7-4.5
		C357.8,280.2,357.6,280,357.5,279.8z M356.5,276.8c-0.1,0.2-0.2,0.5-0.4,0.6c-0.2,0.2-0.4,0.3-0.7,0.4s-0.6,0.2-1,0.2h-1.2v-3.8
		h1.2c0.8,0,1.3,0.2,1.7,0.5c0.4,0.3,0.5,0.8,0.5,1.3C356.6,276.3,356.5,276.6,356.5,276.8z"/>
</g>
</svg>
