<?xml version="1.0" encoding="utf-8"?>
<!-- Generator: Adobe Illustrator 27.3.1, SVG Export Plug-In . SVG Version: 6.00 Build 0)  -->
<!DOCTYPE svg PUBLIC "-//W3C//DTD SVG 1.1//EN" "http://www.w3.org/Graphics/SVG/1.1/DTD/svg11.dtd" [
	<!ENTITY ns_extend "http://ns.adobe.com/Extensibility/1.0/">
	<!ENTITY ns_ai "http://ns.adobe.com/AdobeIllustrator/10.0/">
	<!ENTITY ns_graphs "http://ns.adobe.com/Graphs/1.0/">
	<!ENTITY ns_vars "http://ns.adobe.com/Variables/1.0/">
	<!ENTITY ns_imrep "http://ns.adobe.com/ImageReplacement/1.0/">
	<!ENTITY ns_sfw "http://ns.adobe.com/SaveForWeb/1.0/">
	<!ENTITY ns_custom "http://ns.adobe.com/GenericCustomNamespace/1.0/">
	<!ENTITY ns_adobe_xpath "http://ns.adobe.com/XPath/1.0/">
]>
<svg version="1.1" id="Warstwa_1" xmlns:x="&ns_extend;" xmlns:i="&ns_ai;" xmlns:graph="&ns_graphs;"
	 xmlns="http://www.w3.org/2000/svg" xmlns:xlink="http://www.w3.org/1999/xlink" x="0px" y="0px" viewBox="0 0 2078.3 304.3"
	 style="enable-background:new 0 0 2078.3 304.3;" xml:space="preserve">
<style type="text/css">
	.st0{fill-rule:evenodd;clip-rule:evenodd;}
</style>
<metadata>
	<sfw  xmlns="&ns_sfw;">
		<slices></slices>
		<sliceSourceBounds  bottomLeftOrigin="true" height="304.3" width="2078.3" x="210.9" y="1097.8"></sliceSourceBounds>
	</sfw>
</metadata>
<path class="st0" d="M1139.6,141.3c0,0-20.2-12.5-32.7-17.3c0,0-38.7-17.9-46.4-26.5c0,0-15.1-14.2-6.3-30.7c0,0,3.7-10.8,19.6-10.8
	c0,0,20.8,1.1,20.8,18.2v24.1h74.4l-0.1-35.4c0,0,5.7-58-87.6-60.6c0,0-73.4-4.8-94.4,34.7c0,0-8.3,8.8-8.3,39.5v22.2
	c0,0-0.8,25.6,12.2,42.1c0,0,7.4,10.8,25.6,22.7c0,0,37,19.9,59.2,31.3c0,0,22.4,12.8,19.5,33.1c0,0-1.8,20.9-23.5,20
	c0,0-19.8-0.9-19.8-21.4v-24h-79.2v34.9c0,0-2.2,66.8,99.6,66.8c0,0,97.3,2,101.8-68.5v-28.4C1174,207.3,1177.5,164.1,1139.6,141.3
	L1139.6,141.3z M758.9,10.5L734,166.6h-5.8L704.4,11.9H580.2l-6.2,282.6h73.6l0.9-212.9h5.8l39,212.9h77.4L809,81.7h5.1l1.8,212.8
	h73.9l-8-284L758.9,10.5L758.9,10.5z M321.1,11.7l-48.9,282.5h79.2l29-219h6.5l29,219H495L446,11.7H321.1z M1982.5,137.4v41.7h20.3
	v44.7c0,21.9-18.7,22.3-18.7,22.3c-22.7,0-21.9-20.8-21.9-20.8V70.6c0-15.9,20.2-16.8,20.2-16.8c19.4,0,19.5,19,19.5,19v23.5h74.6
	c2.4-45.9-6.7-57-6.7-57C2051.3-2.2,1981.3,0,1981.3,0c-107.5,0-95.6,82.5-95.6,82.5v149.6c2.3,77.4,108.2,69.5,110,69.4
	c47.1-5.2,61.3-20.2,61.3-20.2c13.1-9.7,16.5-23.2,16.5-23.2c3.7-7.8,4.7-32.9,4.7-32.9v-87.9L1982.5,137.4L1982.5,137.4z
	 M1735.4,183.4h-3.2l-75.7-172.8H1566v283.9h73.7l-4.4-172.8h3.3l78.4,172.8h87.8v-284h-74.6L1735.4,183.4L1735.4,183.4z
	 M1386.2,223.8c0,0,1.1,23.3-20.5,23.3c0,0-22.7,1.2-22.7-22.7l-0.2-213.6h-80.8v211.9c0,0-8.3,80.2,104.9,80.2
	c0,0,98.4,1.2,98.4-76.5V10.8h-79L1386.2,223.8L1386.2,223.8z M167,141.3c0,0-20.2-12.5-32.7-17.3c0,0-38.7-17.9-46.4-26.5
	c0,0-15.1-14.2-6.2-30.7c0,0,3.7-10.8,19.6-10.8c0,0,20.8,1.1,20.8,18.2v24.1h74.4l-0.1-35.4c0,0,5.7-58-87.6-60.6
	c0,0-7-0.5-17.3,0.1c0,0-56.5,3-76.7,34c-0.1,0.2-0.3,0.4-0.4,0.6c0,0-8.2,8.8-8.2,39.5v22.2c0,0-0.9,25.6,12.2,42.1
	c0,0,7.4,10.8,25.6,22.7c0,0,37,19.9,59.2,31.3c0,0,22.4,12.8,19.5,33.1c0,0-1.8,20.9-23.4,20c0,0-19.8-0.9-19.8-21.4v-24.1H0v35
	c0,0-2.2,66.8,99.6,66.8c0,0,97.3,2,101.9-68.5v-28.4C201.5,207.3,204.9,164.1,167,141.3L167,141.3z"/>
</svg>
