<?xml version="1.0" encoding="utf-8"?>
<!-- Generator: Adobe Illustrator 27.4.0, SVG Export Plug-In . SVG Version: 6.00 Build 0)  -->
<!DOCTYPE svg PUBLIC "-//W3C//DTD SVG 1.1//EN" "http://www.w3.org/Graphics/SVG/1.1/DTD/svg11.dtd" [
	<!ENTITY ns_extend "http://ns.adobe.com/Extensibility/1.0/">
	<!ENTITY ns_ai "http://ns.adobe.com/AdobeIllustrator/10.0/">
	<!ENTITY ns_graphs "http://ns.adobe.com/Graphs/1.0/">
	<!ENTITY ns_vars "http://ns.adobe.com/Variables/1.0/">
	<!ENTITY ns_imrep "http://ns.adobe.com/ImageReplacement/1.0/">
	<!ENTITY ns_sfw "http://ns.adobe.com/SaveForWeb/1.0/">
	<!ENTITY ns_custom "http://ns.adobe.com/GenericCustomNamespace/1.0/">
	<!ENTITY ns_adobe_xpath "http://ns.adobe.com/XPath/1.0/">
]>
<svg version="1.1" id="Warstwa_1" xmlns:x="&ns_extend;" xmlns:i="&ns_ai;" xmlns:graph="&ns_graphs;"
	 xmlns="http://www.w3.org/2000/svg" xmlns:xlink="http://www.w3.org/1999/xlink" x="0px" y="0px" viewBox="0 0 36.8 35.1"
	 style="enable-background:new 0 0 36.8 35.1;" xml:space="preserve">
<style type="text/css">
	.st0{fill:#07133B;}
	.st1{fill:#1AD079;}
</style>
<metadata>
	<sfw  xmlns="&ns_sfw;">
		<slices></slices>
		<sliceSourceBounds  bottomLeftOrigin="true" height="35.1" width="36.8" x="0" y="9.9"></sliceSourceBounds>
	</sfw>
</metadata>
<path class="st0" d="M36.8,1.5c0.2,4.7-3.8,8.9-8.6,9c-2.5,0.1-5,0-7.5,0c-0.3,0-0.7,0-1,0.1c-1.1,0.2-1.8,1.1-1.7,2.1
	c0,1.1,0.9,1.9,2,2c1,0,2.1,0,3.1,0c3.3,0.1,5.9,2.6,5.9,5.8c0,3.2-2.5,5.6-5.9,5.6c-2,0-3.9,0-5.9,0c-1.5,0-2.1,0.4-2.3,1.9
	c-0.5,2.6-1.5,4.9-3.9,6.1c-1.1,0.6-2.5,0.9-3.8,1.1c-1.5,0.2-3.1,0-4.8,0c0.4-1.6,0.7-3.2,1.1-4.7c0.4-1.7,0.8-3.3,1.2-5
	c0.6-2.6,2.5-4.1,5.2-4.1c2.1,0,4.2,0,6.3,0c2.4,0,3.4-0.6,3.4-2.1c0-1.4-0.9-2-3.3-2c-2.2,0-4.2-0.5-5.9-1.9
	C7.6,13,6.7,9.7,7.8,6.5c1.1-3,4-5.1,7.3-5.1c6.9,0,13.9,0,20.9,0L36.8,1.5L36.8,1.5z"/>
<path class="st1" d="M34.5,0c0.2,4.7-3.8,8.9-8.6,9c-2.5,0.1-5,0-7.5,0c-0.3,0-0.7,0-1,0.1c-1.1,0.2-1.8,1.1-1.7,2.1
	c0,1.1,0.9,1.9,2,2c1,0,2.1,0,3.1,0c3.3,0.1,5.9,2.6,5.9,5.8c0,3.2-2.5,5.6-5.9,5.6c-2,0-3.9,0-5.9,0c-1.5,0-2.1,0.4-2.3,1.9
	c-0.5,2.6-1.5,4.9-3.9,6.1c-1.1,0.6-2.5,0.9-3.8,1.1c-1.5,0.2-3.1,0-4.8,0c0.4-1.6,0.7-3.2,1.1-4.7c0.4-1.7,0.8-3.3,1.2-5
	c0.6-2.6,2.5-4.1,5.2-4.1c2.1,0,4.2,0,6.3,0c2.4,0,3.4-0.6,3.4-2.1c0-1.4-0.9-2-3.3-2c-2.2,0-4.2-0.5-5.9-1.9
	c-2.5-2.1-3.5-5.5-2.3-8.6c1.1-3,4-5.1,7.3-5.1c6.9,0,13.9,0,20.9,0H34.5z"/>
</svg>
