<?xml version="1.0" encoding="utf-8"?>
<!-- Generator: Adobe Illustrator 27.4.1, SVG Export Plug-In . SVG Version: 6.00 Build 0)  -->
<!DOCTYPE svg PUBLIC "-//W3C//DTD SVG 1.1//EN" "http://www.w3.org/Graphics/SVG/1.1/DTD/svg11.dtd" [
	<!ENTITY ns_extend "http://ns.adobe.com/Extensibility/1.0/">
	<!ENTITY ns_ai "http://ns.adobe.com/AdobeIllustrator/10.0/">
	<!ENTITY ns_graphs "http://ns.adobe.com/Graphs/1.0/">
	<!ENTITY ns_vars "http://ns.adobe.com/Variables/1.0/">
	<!ENTITY ns_imrep "http://ns.adobe.com/ImageReplacement/1.0/">
	<!ENTITY ns_sfw "http://ns.adobe.com/SaveForWeb/1.0/">
	<!ENTITY ns_custom "http://ns.adobe.com/GenericCustomNamespace/1.0/">
	<!ENTITY ns_adobe_xpath "http://ns.adobe.com/XPath/1.0/">
]>
<svg version="1.1" id="Warstwa_1" xmlns:x="&ns_extend;" xmlns:i="&ns_ai;" xmlns:graph="&ns_graphs;"
	 xmlns="http://www.w3.org/2000/svg" xmlns:xlink="http://www.w3.org/1999/xlink" x="0px" y="0px" viewBox="0 0 339 45"
	 style="enable-background:new 0 0 339 45;" xml:space="preserve">
<style type="text/css">
	.st0{fill:none;}
	.st1{fill:#FFFFFF;}
	.st2{fill:#1AD079;}
</style>
<metadata>
	<sfw  xmlns="&ns_sfw;">
		<slices></slices>
		<sliceSourceBounds  bottomLeftOrigin="true" height="45" width="339" x="0" y="0"></sliceSourceBounds>
	</sfw>
</metadata>
<rect class="st0" width="338.9" height="45"/>
<g>
	<path class="st1" d="M36.8,1.5c0.2,4.7-3.8,8.9-8.6,9c-2.5,0.1-5,0-7.5,0c-0.3,0-0.7,0-1,0.1c-1.1,0.2-1.8,1.1-1.7,2.1
		c0,1.1,0.9,1.9,2,2c1,0,2.1,0,3.1,0c3.3,0.1,5.9,2.6,5.9,5.8s-2.5,5.6-5.9,5.6c-2,0-3.9,0-5.9,0c-1.5,0-2.1,0.4-2.3,1.9
		c-0.5,2.6-1.5,4.9-3.9,6.1c-1.1,0.6-2.5,0.9-3.8,1.1c-1.5,0.2-3.1,0-4.8,0c0.4-1.6,0.7-3.2,1.1-4.7c0.4-1.7,0.8-3.3,1.2-5
		c0.6-2.6,2.5-4.1,5.2-4.1c2.1,0,4.2,0,6.3,0c2.4,0,3.4-0.6,3.4-2.1c0-1.4-0.9-2-3.3-2c-2.2,0-4.2-0.5-5.9-1.9
		C7.6,13,6.7,9.7,7.8,6.5c1.1-3,4-5.1,7.3-5.1c6.9,0,13.9,0,20.9,0L36.8,1.5L36.8,1.5z"/>
	<path class="st2" d="M34.5,0c0.2,4.7-3.8,8.9-8.6,9c-2.5,0.1-5,0-7.5,0c-0.3,0-0.7,0-1,0.1c-1.1,0.2-1.8,1.1-1.7,2.1
		c0,1.1,0.9,1.9,2,2c1,0,2.1,0,3.1,0c3.3,0.1,5.9,2.6,5.9,5.8s-2.5,5.6-5.9,5.6c-2,0-3.9,0-5.9,0c-1.5,0-2.1,0.4-2.3,1.9
		c-0.5,2.6-1.5,4.9-3.9,6.1c-1.1,0.6-2.5,0.9-3.8,1.1c-1.5,0.2-3.1,0-4.8,0c0.4-1.6,0.7-3.2,1.1-4.7c0.4-1.7,0.8-3.3,1.2-5
		c0.6-2.6,2.5-4.1,5.2-4.1c2.1,0,4.2,0,6.3,0c2.4,0,3.4-0.6,3.4-2.1c0-1.4-0.9-2-3.3-2c-2.2,0-4.2-0.5-5.9-1.9
		c-2.5-2.1-3.5-5.5-2.3-8.6c1.1-3,4-5.1,7.3-5.1c6.9,0,13.9,0,20.9,0h0.5V0z"/>
	<path class="st1" d="M29.3,35.7h-5.8V7.9h16v4.8H29.3v7.2h9.5v4.8h-9.5V35.7L29.3,35.7z"/>
	<path class="st1" d="M52.3,35.7h-5.8V14.4h5.8V35.7z"/>
	<path class="st1" d="M80.1,35.7h-5.8V23.2c0-1.5-0.3-2.7-0.8-3.4c-0.5-0.8-1.4-1.1-2.6-1.1c-1.6,0-2.8,0.5-3.5,1.6
		s-1.1,2.9-1.1,5.4v10h-5.8V14.4H65l0.8,2.7H66c0.6-1,1.5-1.8,2.7-2.3c1.1-0.5,2.4-0.8,3.9-0.8c2.5,0,4.4,0.7,5.7,2
		c1.3,1.3,1.9,3.3,1.9,5.8L80.1,35.7L80.1,35.7z"/>
	<path class="st1" d="M94.8,36c-2.5,0-4.5-1-5.9-2.9c-1.4-1.9-2.2-4.6-2.2-8.1c0-3.4,0.7-6.2,2.2-8.1c1.5-1.9,3.5-2.9,6-2.9
		c2.7,0,4.7,1,6.2,3.1h0.2c-0.3-1.6-0.4-3-0.4-4.2V6.1h5.8v29.6h-4.5l-1.1-2.8h-0.2C99.6,35,97.6,36,94.8,36L94.8,36z M96.9,31.4
		c1.5,0,2.6-0.4,3.3-1.3c0.7-0.9,1.1-2.3,1.1-4.4v-0.6c0-2.3-0.4-3.9-1.1-4.9s-1.9-1.5-3.4-1.5c-1.3,0-2.3,0.5-3,1.6
		s-1.1,2.7-1.1,4.8s0.4,3.7,1.1,4.7C94.5,30.9,95.6,31.4,96.9,31.4L96.9,31.4z"/>
	<path class="st1" d="M136.6,35.7l-1.1-2.9h-0.1c-1,1.2-2,2.1-3,2.6s-2.4,0.7-4.1,0.7c-2.1,0-3.7-0.6-4.8-1.7
		c-1.2-1.2-1.8-2.8-1.8-5s0.8-3.9,2.4-5s4-1.7,7.2-1.8l3.7-0.1v-0.9c0-2.2-1.1-3.2-3.3-3.2c-1.7,0-3.7,0.5-6,1.5l-1.9-3.9
		c2.5-1.3,5.2-1.9,8.2-1.9s5.1,0.6,6.6,1.9c1.5,1.2,2.3,3.1,2.3,5.7v14.1L136.6,35.7L136.6,35.7z M134.9,25.8l-2.3,0.1
		c-1.7,0-3,0.4-3.8,0.9c-0.8,0.6-1.2,1.4-1.2,2.5c0,1.6,0.9,2.5,2.8,2.5c1.4,0,2.4-0.4,3.2-1.2c0.8-0.8,1.2-1.8,1.2-3.1L134.9,25.8
		L134.9,25.8z"/>
	<path class="st1" d="M180.5,21.5c0,4.6-1.3,8.1-3.9,10.5c-2.6,2.4-6.4,3.6-11.3,3.6h-7.9V7.9h8.8c4.6,0,8.1,1.2,10.6,3.6
		C179.2,13.9,180.5,17.2,180.5,21.5L180.5,21.5z M174.3,21.6c0-6-2.6-8.9-8-8.9h-3.2v18.1h2.5C171.5,30.8,174.3,27.7,174.3,21.6z"/>
	<path class="st1" d="M197.5,36c-3.4,0-6.1-0.9-8.1-2.8c-1.9-1.9-2.9-4.6-2.9-8s0.9-6.3,2.7-8.3c1.8-1.9,4.3-2.9,7.4-2.9
		c3.2,0,5.4,0.9,7.1,2.6c1.7,1.7,2.5,4.1,2.5,7.1v2.8h-13.8c0.1,1.6,0.6,2.9,1.5,3.9c0.9,0.9,2.2,1.4,3.9,1.4c1.3,0,2.5-0.1,3.7-0.4
		c1.1-0.3,2.3-0.7,3.6-1.3v4.5c-1,0.5-2.1,0.9-3.3,1.1C200.5,35.9,199.1,36,197.5,36z M196.6,18.1c-1.2,0-2.2,0.4-2.9,1.2
		c-0.7,0.8-1.1,1.9-1.2,3.3h8.2c0-1.4-0.4-2.5-1.1-3.3C198.8,18.5,197.9,18.1,196.6,18.1z"/>
	<path class="st1" d="M227.8,29.3c0,2.2-0.8,3.8-2.3,5c-1.5,1.1-3.8,1.7-6.8,1.7c-1.6,0-2.9-0.1-4-0.3s-2.1-0.5-3.1-0.9V30
		c1.1,0.5,2.3,0.9,3.7,1.3c1.4,0.3,2.6,0.5,3.6,0.5c2.1,0,3.2-0.6,3.2-1.8c0-0.5-0.1-0.8-0.4-1.1c-0.3-0.3-0.8-0.6-1.5-1
		s-1.6-0.8-2.8-1.3c-1.6-0.7-2.9-1.3-3.6-1.9c-0.8-0.6-1.3-1.2-1.7-2c-0.3-0.8-0.5-1.7-0.5-2.8c0-1.9,0.7-3.3,2.2-4.4
		c1.5-1,3.6-1.5,6.3-1.5s5.1,0.6,7.5,1.7l-1.8,4.2c-1.1-0.5-2.1-0.8-3-1.1c-0.9-0.3-1.9-0.4-2.8-0.4c-1.7,0-2.6,0.5-2.6,1.4
		c0,0.5,0.3,1,0.8,1.4c0.6,0.4,1.8,0.9,3.6,1.7c1.7,0.7,2.9,1.3,3.7,1.9s1.4,1.3,1.7,2C227.6,27.4,227.8,28.3,227.8,29.3L227.8,29.3
		z"/>
	<path class="st1" d="M240.1,35.7h-5.8V14.4h5.8V35.7z"/>
	<path class="st1" d="M266.8,14.4v2.9l-3.3,0.9c0.6,1,0.9,2,0.9,3.2c0,2.3-0.8,4.1-2.4,5.3c-1.6,1.3-3.8,1.9-6.7,1.9l-1.1-0.1
		l-0.9-0.1c-0.6,0.5-0.9,1-0.9,1.5c0,0.8,1.1,1.3,3.2,1.3h3.6c2.3,0,4.1,0.5,5.4,1.5c1.2,1,1.8,2.5,1.8,4.4c0,2.5-1,4.4-3.1,5.8
		c-2.1,1.4-5.1,2.1-9,2.1c-3,0-5.3-0.5-6.8-1.5c-1.6-1-2.4-2.5-2.4-4.3c0-1.3,0.4-2.3,1.2-3.2s2-1.5,3.5-1.8
		c-0.6-0.3-1.1-0.7-1.6-1.2c-0.4-0.6-0.7-1.2-0.7-1.8c0-0.8,0.2-1.5,0.7-2s1.2-1.1,2-1.6c-1.1-0.5-2-1.3-2.7-2.3
		c-0.7-1.1-1-2.3-1-3.8c0-2.3,0.8-4.1,2.3-5.4s3.7-1.9,6.5-1.9c0.6,0,1.3,0.1,2.1,0.2c0.8,0.1,1.3,0.2,1.6,0.2L266.8,14.4
		L266.8,14.4z M250.3,38.6c0,0.8,0.4,1.4,1.2,1.9s1.8,0.7,3.2,0.7c2.1,0,3.7-0.3,4.9-0.9c1.2-0.6,1.8-1.4,1.8-2.3
		c0-0.8-0.3-1.4-1.1-1.6c-0.7-0.3-1.8-0.5-3.2-0.5h-3c-1.1,0-2,0.3-2.7,0.8C250.6,37.2,250.3,37.8,250.3,38.6L250.3,38.6z
		 M252.4,21.4c0,1.2,0.3,2.1,0.8,2.7c0.5,0.7,1.3,1,2.4,1s1.9-0.3,2.4-1s0.8-1.6,0.8-2.7c0-2.6-1.1-3.8-3.2-3.8
		S252.4,18.8,252.4,21.4L252.4,21.4z"/>
	<path class="st1" d="M292,35.7h-5.8V23.2c0-1.5-0.3-2.7-0.8-3.4c-0.5-0.8-1.4-1.1-2.6-1.1c-1.6,0-2.8,0.5-3.5,1.6s-1.1,2.9-1.1,5.4
		v10h-5.8V14.4h4.5l0.8,2.7h0.3c0.6-1,1.5-1.8,2.7-2.3c1.1-0.5,2.4-0.8,3.9-0.8c2.5,0,4.4,0.7,5.7,2c1.3,1.3,1.9,3.3,1.9,5.8
		L292,35.7L292,35.7z"/>
	<path class="st1" d="M309.6,36c-3.4,0-6.1-0.9-8.1-2.8c-1.9-1.9-2.9-4.6-2.9-8s0.9-6.3,2.7-8.3c1.8-1.9,4.3-2.9,7.4-2.9
		c3.2,0,5.4,0.9,7.1,2.6s2.5,4.1,2.5,7.1v2.8h-13.8c0.1,1.6,0.6,2.9,1.5,3.9s2.2,1.4,3.9,1.4c1.3,0,2.5-0.1,3.7-0.4s2.3-0.7,3.6-1.3
		v4.5c-1,0.5-2.1,0.9-3.3,1.1C312.7,35.9,311.3,36,309.6,36z M308.8,18.1c-1.2,0-2.2,0.4-2.9,1.2c-0.7,0.8-1.1,1.9-1.2,3.3h8.2
		c0-1.4-0.4-2.5-1.1-3.3C311,18.5,310,18.1,308.8,18.1z"/>
	<path class="st1" d="M337,14c0.8,0,1.4,0.1,2,0.2l-0.4,5.4c-0.5-0.1-1-0.2-1.7-0.2c-1.9,0-3.3,0.5-4.3,1.4c-1,1-1.6,2.3-1.6,4v10.8
		h-6V14.4h4.4l0.9,3.6h0.3c0.7-1.2,1.6-2.2,2.7-2.9C334.4,14.4,335.6,14,337,14L337,14z"/>
	<path class="st2" d="M46.2,9.9C46.2,8,47.3,7,49.4,7c2.1,0,3.2,0.9,3.2,2.8c0,0.9-0.3,1.6-0.8,2.1c-0.5,0.5-1.3,0.8-2.4,0.8
		C47.3,12.7,46.2,11.8,46.2,9.9z"/>
	<path class="st2" d="M234,9.9c0-1.9,1.1-2.8,3.2-2.8c2.1,0,3.2,0.9,3.2,2.8c0,0.9-0.3,1.6-0.8,2.1s-1.3,0.8-2.4,0.8
		C235.1,12.7,234,11.8,234,9.9z"/>
</g>
</svg>
