<?xml version="1.0" encoding="utf-8"?>
<!-- Generator: Adobe Illustrator 27.4.0, SVG Export Plug-In . SVG Version: 6.00 Build 0)  -->
<!DOCTYPE svg PUBLIC "-//W3C//DTD SVG 1.1//EN" "http://www.w3.org/Graphics/SVG/1.1/DTD/svg11.dtd" [
	<!ENTITY ns_extend "http://ns.adobe.com/Extensibility/1.0/">
	<!ENTITY ns_ai "http://ns.adobe.com/AdobeIllustrator/10.0/">
	<!ENTITY ns_graphs "http://ns.adobe.com/Graphs/1.0/">
	<!ENTITY ns_vars "http://ns.adobe.com/Variables/1.0/">
	<!ENTITY ns_imrep "http://ns.adobe.com/ImageReplacement/1.0/">
	<!ENTITY ns_sfw "http://ns.adobe.com/SaveForWeb/1.0/">
	<!ENTITY ns_custom "http://ns.adobe.com/GenericCustomNamespace/1.0/">
	<!ENTITY ns_adobe_xpath "http://ns.adobe.com/XPath/1.0/">
]>
<svg version="1.1" id="Warstwa_1" xmlns:x="&ns_extend;" xmlns:i="&ns_ai;" xmlns:graph="&ns_graphs;"
	 xmlns="http://www.w3.org/2000/svg" xmlns:xlink="http://www.w3.org/1999/xlink" x="0px" y="0px" viewBox="0 0 200 201.6"
	 style="enable-background:new 0 0 200 201.6;" xml:space="preserve">
<style type="text/css">
	.st0{fill:#FFFFFF;}
	.st1{fill:#E1F465;}
</style>
<metadata>
	<sfw  xmlns="&ns_sfw;">
		<slices></slices>
		<sliceSourceBounds  bottomLeftOrigin="true" height="201.6" width="200" x="0" y="0"></sliceSourceBounds>
	</sfw>
</metadata>
<g>
	<polygon class="st0" points="191.4,191.3 186.8,191.3 186.8,189.2 189.3,189.2 189.3,186.7 191.4,186.7 	"/>
	<path class="st0" d="M179.9,191.3H173v-2.1h6.9V191.3z M166,191.3h-7v-2.1h6.9v2.1H166z M152.1,191.3h-6.9v-2.1h6.9V191.3z
		 M138.2,191.3h-6.9v-2.1h6.9V191.3z M124.3,191.3h-6.9v-2.1h6.9V191.3z M110.4,191.3h-6.9v-2.1h6.9V191.3z M96.5,191.3h-6.9v-2.1
		h6.9V191.3z M82.6,191.3h-6.9v-2.1h6.9V191.3z M68.7,191.3h-6.9v-2.1h6.9V191.3z M54.9,191.3H48v-2.1h6.9V191.3z M41,191.3h-7v-2.1
		h7V191.3z M27.1,191.3h-6.9v-2.1h6.9V191.3z"/>
	<polygon class="st0" points="13.2,191.3 8.6,191.3 8.6,186.7 10.7,186.7 10.7,189.2 13.2,189.2 	"/>
	<path class="st0" d="M10.7,179.8H8.6v-6.9h2.1C10.7,172.9,10.7,179.8,10.7,179.8z M10.7,165.9H8.6V159h2.1
		C10.7,159,10.7,165.9,10.7,165.9z M10.7,152H8.6v-6.9h2.1C10.7,145.1,10.7,152,10.7,152z M10.7,138.1H8.6v-6.9h2.1
		C10.7,131.2,10.7,138.1,10.7,138.1z M10.7,124.2H8.6v-6.9h2.1C10.7,117.3,10.7,124.2,10.7,124.2z M10.7,110.3H8.6v-6.9h2.1
		C10.7,103.4,10.7,110.3,10.7,110.3z M10.7,96.5H8.6v-6.9h2.1C10.7,89.6,10.7,96.5,10.7,96.5z M10.7,82.6H8.6v-6.9h2.1
		C10.7,75.7,10.7,82.6,10.7,82.6z M10.7,68.7H8.6v-6.9h2.1C10.7,61.8,10.7,68.7,10.7,68.7z M10.7,54.8H8.6v-6.9h2.1
		C10.7,47.9,10.7,54.8,10.7,54.8z M10.7,40.9H8.6V34h2.1C10.7,34,10.7,40.9,10.7,40.9z M10.7,27H8.6v-6.9h2.1
		C10.7,20.1,10.7,27,10.7,27z"/>
	<polygon class="st0" points="10.7,13.1 8.6,13.1 8.6,8.5 13.2,8.5 13.2,10.6 10.7,10.6 	"/>
	<path class="st0" d="M179.9,10.6H173V8.5h6.9V10.6z M166,10.6h-7V8.5h6.9v2.1H166z M152.1,10.6h-6.9V8.5h6.9V10.6z M138.2,10.6
		h-6.9V8.5h6.9V10.6z M124.3,10.6h-6.9V8.5h6.9V10.6z M110.4,10.6h-6.9V8.5h6.9V10.6z M96.5,10.6h-6.9V8.5h6.9V10.6z M82.6,10.6
		h-6.9V8.5h6.9V10.6z M68.7,10.6h-6.9V8.5h6.9V10.6z M54.9,10.6H48V8.5h6.9V10.6z M41,10.6h-7V8.5h7V10.6z M27.1,10.6h-6.9V8.5h6.9
		V10.6z"/>
	<polygon class="st0" points="191.4,13.1 189.3,13.1 189.3,10.6 186.8,10.6 186.8,8.5 191.4,8.5 	"/>
	<path class="st0" d="M191.4,179.8h-2.1v-6.9h2.1V179.8z M191.4,165.9h-2.1V159h2.1V165.9z M191.4,152h-2.1v-6.9h2.1V152z
		 M191.4,138.1h-2.1v-6.9h2.1V138.1z M191.4,124.2h-2.1v-6.9h2.1V124.2z M191.4,110.3h-2.1v-6.9h2.1V110.3z M191.4,96.5h-2.1v-6.9
		h2.1V96.5z M191.4,82.6h-2.1v-6.9h2.1V82.6z M191.4,68.7h-2.1v-6.9h2.1V68.7z M191.4,54.8h-2.1v-6.9h2.1V54.8z M191.4,40.9h-2.1V34
		h2.1V40.9z M191.4,27h-2.1v-6.9h2.1V27z"/>
</g>
<rect y="2.6" class="st1" width="22.7" height="22.7"/>
<rect x="177.3" class="st0" width="22.7" height="22.7"/>
<rect x="177.3" y="178.9" class="st1" width="22.7" height="22.7"/>
<rect y="178.9" class="st0" width="22.7" height="22.7"/>
<g>
	<g>
		<path class="st1" d="M95.1,47.2V97h3.5c5.4,0,9.7-0.8,13.1-2.4s6.3-4.3,8.6-8.1c2.4-3.8,3.9-9,4.6-15.5h3.1v60.8h-3.1
			c-1.1-11.5-4.2-19.1-9.2-22.7c-5-3.7-10.7-5.5-17.1-5.5h-3.5v37.1c0,6.2,0.3,10.1,1,11.6s2,2.9,4,4.1c2,1.2,4.7,1.7,8.1,1.7h4v3.3
			H48.9v-3.3h4c3.5,0,6.3-0.6,8.5-1.9c1.5-0.8,2.7-2.3,3.6-4.3c0.7-1.4,1-5.2,1-11.3V61c0-6.2-0.3-10.1-1-11.6s-2-2.9-4-4.1
			c-2-1.2-4.7-1.7-8.1-1.7h-4v-3.3h102.2V75h-3.7c-0.8-8.2-3-14.2-6.4-18.1s-8.4-6.7-14.9-8.3c-3.6-0.9-10.2-1.3-19.8-1.3H95.1V47.2
			z"/>
	</g>
</g>
</svg>
