<svg width="339" height="45" viewBox="0 0 339 45" fill="none" xmlns="http://www.w3.org/2000/svg">
<g clip-path="url(#clip0_178_824)">
<path d="M36.8075 1.46916C37.0447 6.12785 32.9655 10.323 28.159 10.4409C25.6688 10.5037 23.1707 10.4487 20.6726 10.4566C20.3406 10.4566 20.0085 10.4566 19.6844 10.5194C18.5935 10.7237 17.8978 11.5722 17.9452 12.6013C17.9927 13.6776 18.8069 14.5104 19.9453 14.5575C20.973 14.6046 22.0086 14.5575 23.0363 14.5732C26.3487 14.6361 28.9733 17.205 28.9416 20.3239C28.91 23.4978 26.404 25.8861 23.06 25.9253C21.0995 25.9489 19.1389 25.9253 17.1705 25.9332C15.6685 25.9332 15.1072 26.326 14.8305 27.803C14.3404 30.3798 13.3364 32.6659 10.8857 33.9072C9.73943 34.4885 8.39551 34.8106 7.10693 34.9599C5.56537 35.1406 3.9922 34.9992 2.30835 34.9992C2.68781 33.3494 3.04355 31.8096 3.3993 30.2776C3.78666 28.6043 4.16612 26.9309 4.5772 25.2576C5.20963 22.6886 7.08321 21.1881 9.73943 21.1488C11.8344 21.1095 13.9293 21.1409 16.0242 21.1409C18.4591 21.1409 19.4235 20.5517 19.4156 19.0905C19.3998 17.6528 18.467 17.0793 16.0796 17.0872C13.8819 17.095 11.866 16.5922 10.1426 15.1624C7.59706 13.0491 6.67213 9.65526 7.81051 6.54423C8.91726 3.51961 11.8423 1.46916 15.0914 1.4613C22.0402 1.4613 28.997 1.4613 35.9458 1.4613H36.7996L36.8075 1.46916Z" fill="#07133B"/>
<path d="M34.4992 0C34.7363 4.65869 30.6571 8.85388 25.8507 8.97172C23.3605 9.03457 20.8624 8.97957 18.3642 8.98743C18.0322 8.98743 17.7002 8.98743 17.3761 9.05028C16.2851 9.25454 15.5895 10.103 15.6369 11.1322C15.6843 12.2084 16.4986 13.0412 17.6369 13.0883C18.6647 13.1355 19.7003 13.0883 20.728 13.104C24.0403 13.1669 26.6649 15.7359 26.6333 18.8547C26.6017 22.0286 24.0957 24.4169 20.7517 24.4562C18.7911 24.4797 16.8306 24.4562 14.8622 24.464C13.3601 24.464 12.7988 24.8568 12.5222 26.3338C12.032 28.9106 11.028 31.1968 8.57736 32.438C7.43108 33.0194 6.08716 33.3415 4.79858 33.4907C3.25703 33.6714 1.68385 33.53 0 33.53C0.379459 31.8802 0.735202 30.3404 1.09095 28.8085C1.47831 27.1351 1.85777 25.4618 2.26885 23.7884C2.90128 21.2194 4.77486 19.7189 7.43108 19.6796C9.52601 19.6404 11.6209 19.6718 13.7159 19.6718C16.1507 19.6718 17.1152 19.0826 17.1073 17.6213C17.0915 16.1837 16.1586 15.6102 13.7712 15.618C11.5735 15.6259 9.55763 15.1231 7.83425 13.6933C5.28871 11.58 4.36378 8.1861 5.50216 5.07507C6.60892 2.05831 9.53391 0 12.7909 0C19.7398 0 26.6965 0 33.6454 0H34.4992Z" fill="#1AD079"/>
<path d="M29.3369 35.6512H23.5027V7.87976H39.5191V12.7034H29.329V19.8682H38.8076V24.6762H29.329V35.6591L29.3369 35.6512Z" fill="#07133B"/>
<path d="M52.3258 35.6512H46.4916V14.416H52.3258V35.6512Z" fill="#07133B"/>
<path d="M80.1292 35.6512H74.295V23.2464C74.295 21.7144 74.0183 20.5674 73.4728 19.7975C72.9273 19.0276 72.0498 18.6505 70.8561 18.6505C69.2276 18.6505 68.0497 19.1926 67.3224 20.2768C66.5951 21.3609 66.2315 23.1521 66.2315 25.6661V35.6591H60.3973V14.4239H64.848L65.6306 17.1422H65.9548C66.603 16.113 67.4963 15.3431 68.6426 14.8167C69.781 14.2904 71.0775 14.0311 72.5321 14.0311C75.0144 14.0311 76.9038 14.6989 78.1923 16.0344C79.4809 17.37 80.1213 19.3026 80.1213 21.8166V35.667L80.1292 35.6512Z" fill="#07133B"/>
<path d="M94.849 36.0283C92.3351 36.0283 90.3666 35.062 88.9358 33.1215C87.5049 31.181 86.7855 28.5021 86.7855 25.0689C86.7855 21.6358 87.5128 18.8704 88.9753 16.93C90.4378 14.9895 92.4458 14.0154 95.0071 14.0154C97.6949 14.0154 99.7504 15.0524 101.165 17.1342H101.355C101.063 15.5552 100.912 14.1411 100.912 12.8998V6.0885H106.762V35.6433H102.288L101.158 32.8858H100.912C99.5843 34.9755 97.5685 36.0204 94.8569 36.0204L94.849 36.0283ZM96.8965 31.4089C98.3906 31.4089 99.4816 30.9768 100.177 30.1205C100.873 29.2563 101.252 27.795 101.316 25.7289V25.1004C101.316 22.8221 100.96 21.188 100.256 20.1981C99.5527 19.2083 98.3985 18.7133 96.8095 18.7133C95.5131 18.7133 94.5012 19.2633 93.7818 20.3553C93.0624 21.4473 92.6987 23.0421 92.6987 25.1318C92.6987 27.2215 93.0624 28.7928 93.7897 29.8376C94.517 30.8825 95.5526 31.401 96.9044 31.401L96.8965 31.4089Z" fill="#07133B"/>
<path d="M136.597 35.6511L135.467 32.7601H135.317C134.336 33.9856 133.325 34.842 132.289 35.3133C131.253 35.7847 129.894 36.0282 128.226 36.0282C126.17 36.0282 124.558 35.4469 123.38 34.2842C122.202 33.1215 121.609 31.4638 121.609 29.3112C121.609 27.1586 122.399 25.391 123.988 24.3226C125.577 23.2541 127.965 22.6571 131.166 22.5471L134.874 22.4292V21.5022C134.874 19.3496 133.767 18.2733 131.546 18.2733C129.838 18.2733 127.83 18.784 125.522 19.8131L123.593 15.9008C126.052 14.6202 128.779 13.9839 131.775 13.9839C134.771 13.9839 136.843 14.6045 138.368 15.8458C139.894 17.0871 140.661 18.9725 140.661 21.5101V35.659H136.59L136.597 35.6511ZM134.874 25.8074L132.621 25.8859C130.929 25.9331 129.664 26.2395 128.834 26.7973C128.004 27.355 127.593 28.2035 127.593 29.3427C127.593 30.9767 128.534 31.7938 130.423 31.7938C131.775 31.7938 132.858 31.4088 133.665 30.6311C134.471 29.8533 134.882 28.832 134.882 27.5515V25.8074H134.874Z" fill="#07133B"/>
<path d="M180.488 21.4945C180.488 26.0667 179.176 29.5706 176.559 31.9981C173.943 34.4257 170.156 35.6434 165.215 35.6434H157.302V7.87976H166.077C170.638 7.87976 174.18 9.0739 176.702 11.47C179.223 13.8661 180.488 17.205 180.488 21.5023V21.4945ZM174.33 21.6437C174.33 15.6809 171.682 12.6956 166.377 12.6956H163.223V30.7804H165.768C171.476 30.7804 174.33 27.7322 174.33 21.6437Z" fill="#07133B"/>
<path d="M197.453 36.0283C194.014 36.0283 191.327 35.0856 189.39 33.2001C187.453 31.3146 186.481 28.6435 186.481 25.1868C186.481 21.7301 187.374 18.8783 189.168 16.93C190.963 14.9817 193.437 14.0154 196.592 14.0154C199.746 14.0154 201.959 14.8717 203.643 16.5765C205.327 18.2891 206.165 20.646 206.165 23.6627V26.4752H192.386C192.449 28.125 192.939 29.4056 193.856 30.3326C194.773 31.2596 196.062 31.7153 197.714 31.7153C199.003 31.7153 200.22 31.5817 201.366 31.3146C202.513 31.0475 203.714 30.6233 204.963 30.0419V34.5278C203.944 35.0384 202.853 35.4077 201.698 35.6591C200.536 35.9026 199.121 36.0283 197.453 36.0283ZM196.631 18.132C195.398 18.132 194.425 18.5248 193.722 19.3026C193.018 20.0803 192.623 21.188 192.52 22.6179H200.702C200.679 21.188 200.299 20.0803 199.572 19.3026C198.845 18.5248 197.864 18.132 196.631 18.132Z" fill="#07133B"/>
<path d="M227.778 29.3428C227.778 31.5189 227.019 33.1766 225.494 34.3236C223.968 35.4627 221.691 36.0362 218.663 36.0362C217.106 36.0362 215.786 35.9341 214.687 35.7219C213.588 35.5098 212.568 35.2034 211.612 34.8028V30.0184C212.695 30.5212 213.912 30.9454 215.272 31.2911C216.632 31.6368 217.825 31.8017 218.853 31.8017C220.972 31.8017 222.023 31.1968 222.023 29.9791C222.023 29.5234 221.881 29.1542 221.604 28.8714C221.328 28.5886 220.837 28.2665 220.15 27.9051C219.462 27.5437 218.545 27.1195 217.399 26.6402C215.754 25.9568 214.545 25.3204 213.778 24.7391C213.003 24.1577 212.45 23.4899 212.094 22.7357C211.746 21.9815 211.564 21.0545 211.564 19.9547C211.564 18.0692 212.3 16.6079 213.77 15.5788C215.24 14.5496 217.327 14.0311 220.031 14.0311C222.735 14.0311 225.106 14.5889 227.541 15.7045L225.786 19.884C224.719 19.4283 223.715 19.0512 222.782 18.7605C221.849 18.4698 220.901 18.3206 219.936 18.3206C218.213 18.3206 217.359 18.7841 217.359 19.7111C217.359 20.2296 217.636 20.6774 218.189 21.0624C218.742 21.4473 219.96 22.0051 221.833 22.7514C223.501 23.4192 224.727 24.0477 225.502 24.6291C226.276 25.2104 226.853 25.8861 227.225 26.6402C227.596 27.4023 227.778 28.3057 227.778 29.3585V29.3428Z" fill="#07133B"/>
<path d="M240.119 35.6512H234.284V14.416H240.119V35.6512Z" fill="#07133B"/>
<path d="M266.791 14.4082V17.3542L263.448 18.2105C264.056 19.1611 264.365 20.2217 264.365 21.4001C264.365 23.6784 263.566 25.4539 261.969 26.7266C260.372 27.9993 258.151 28.6356 255.305 28.6356L254.254 28.5806L253.392 28.4864C252.791 28.942 252.491 29.4527 252.491 30.0026C252.491 30.8354 253.558 31.2596 255.7 31.2596H259.329C261.677 31.2596 263.463 31.7624 264.689 32.7601C265.922 33.7578 266.531 35.2269 266.531 37.1674C266.531 39.65 265.487 41.5747 263.408 42.9417C261.329 44.3086 258.333 44.9921 254.435 44.9921C251.455 44.9921 249.178 44.4736 247.605 43.4445C246.032 42.4153 245.241 40.9619 245.241 39.1C245.241 37.8195 245.645 36.751 246.443 35.8869C247.241 35.0227 248.427 34.4099 249.977 34.0407C249.376 33.7893 248.854 33.3729 248.411 32.7994C247.969 32.2259 247.739 31.6131 247.739 30.9689C247.739 30.1597 247.977 29.4841 248.443 28.942C248.917 28.3999 249.597 27.8736 250.491 27.3551C249.368 26.8759 248.483 26.0981 247.826 25.0375C247.17 23.9769 246.838 22.72 246.838 21.2744C246.838 18.9569 247.597 17.1657 249.115 15.9008C250.633 14.636 252.799 13.9996 255.613 13.9996C256.214 13.9996 256.926 14.0546 257.748 14.1646C258.57 14.2746 259.092 14.3532 259.321 14.4003H266.776L266.791 14.4082ZM250.293 38.6444C250.293 39.4457 250.68 40.0663 251.447 40.522C252.222 40.9776 253.297 41.2055 254.688 41.2055C256.775 41.2055 258.42 40.9226 259.598 40.3491C260.775 39.7756 261.376 38.9979 261.376 38.0159C261.376 37.2145 261.028 36.6646 260.325 36.3661C259.621 36.0675 258.538 35.9104 257.076 35.9104H254.056C252.989 35.9104 252.087 36.1618 251.368 36.6646C250.649 37.1674 250.285 37.8273 250.285 38.6522L250.293 38.6444ZM252.412 21.3608C252.412 22.5157 252.672 23.427 253.202 24.0948C253.732 24.7704 254.538 25.1004 255.621 25.1004C256.704 25.1004 257.518 24.7626 258.032 24.0948C258.538 23.427 258.799 22.5157 258.799 21.3608C258.799 18.7997 257.74 17.527 255.629 17.527C253.518 17.527 252.419 18.8076 252.419 21.3608H252.412Z" fill="#07133B"/>
<path d="M291.994 35.6512H286.16V23.2464C286.16 21.7144 285.883 20.5674 285.338 19.7975C284.792 19.0276 283.915 18.6505 282.721 18.6505C281.092 18.6505 279.914 19.1926 279.187 20.2768C278.46 21.3609 278.096 23.1521 278.096 25.6661V35.6591H272.262V14.4239H276.713L277.495 17.1422H277.819C278.468 16.113 279.369 15.3431 280.507 14.8167C281.646 14.2904 282.942 14.0311 284.397 14.0311C286.879 14.0311 288.768 14.6989 290.057 16.0344C291.346 17.37 291.986 19.3026 291.986 21.8166V35.667L291.994 35.6512Z" fill="#07133B"/>
<path d="M309.623 36.0283C306.184 36.0283 303.496 35.0856 301.559 33.2001C299.623 31.3146 298.65 28.6435 298.65 25.1868C298.65 21.7301 299.544 18.8783 301.338 16.93C303.133 14.9817 305.607 14.0154 308.761 14.0154C311.916 14.0154 314.129 14.8717 315.813 16.5765C317.497 18.2891 318.335 20.646 318.335 23.6627V26.4752H304.556C304.619 28.125 305.109 29.4056 306.026 30.3326C306.943 31.2596 308.232 31.7153 309.884 31.7153C311.172 31.7153 312.39 31.5817 313.536 31.3146C314.682 31.0475 315.884 30.6233 317.133 30.0419V34.5278C316.113 35.0384 315.022 35.4077 313.868 35.6591C312.706 35.9026 311.291 36.0283 309.623 36.0283ZM308.801 18.132C307.568 18.132 306.595 18.5248 305.892 19.3026C305.188 20.0803 304.793 21.188 304.69 22.6179H312.872C312.848 21.188 312.469 20.0803 311.742 19.3026C311.014 18.5248 310.034 18.132 308.801 18.132Z" fill="#07133B"/>
<path d="M336.968 14.0154C337.758 14.0154 338.414 14.0704 338.936 14.1882L338.493 19.6247C338.019 19.499 337.45 19.4361 336.77 19.4361C334.912 19.4361 333.458 19.9075 332.422 20.8581C331.387 21.8087 330.865 23.1364 330.865 24.849V35.6591H325.031V14.4239H329.45L330.311 17.9984H330.596C331.26 16.8122 332.153 15.8459 333.284 15.1231C334.414 14.4003 335.64 14.0311 336.968 14.0311V14.0154Z" fill="#07133B"/>
<path d="M46.2387 9.85165C46.2387 7.96618 47.298 7.02344 49.4088 7.02344C51.5195 7.02344 52.5788 7.96618 52.5788 9.85165C52.5788 10.7551 52.318 11.4543 51.7883 11.9492C51.2586 12.452 50.4681 12.7034 49.4088 12.7034C47.2901 12.7034 46.2387 11.7528 46.2387 9.85165Z" fill="#1AD079"/>
<path d="M234.031 9.85165C234.031 7.96618 235.091 7.02344 237.202 7.02344C239.312 7.02344 240.372 7.96618 240.372 9.85165C240.372 10.7551 240.111 11.4543 239.581 11.9492C239.051 12.452 238.261 12.7034 237.202 12.7034C235.083 12.7034 234.031 11.7528 234.031 9.85165Z" fill="#1AD079"/>
</g>
<defs>
<clipPath id="clip0_178_824">
<rect width="338.936" height="45" fill="white"/>
</clipPath>
</defs>
</svg>
