<?xml version="1.0" encoding="utf-8"?>
<!-- Generator: Adobe Illustrator 27.4.0, SVG Export Plug-In . SVG Version: 6.00 Build 0)  -->
<!DOCTYPE svg PUBLIC "-//W3C//DTD SVG 1.1//EN" "http://www.w3.org/Graphics/SVG/1.1/DTD/svg11.dtd" [
	<!ENTITY ns_extend "http://ns.adobe.com/Extensibility/1.0/">
	<!ENTITY ns_ai "http://ns.adobe.com/AdobeIllustrator/10.0/">
	<!ENTITY ns_graphs "http://ns.adobe.com/Graphs/1.0/">
	<!ENTITY ns_vars "http://ns.adobe.com/Variables/1.0/">
	<!ENTITY ns_imrep "http://ns.adobe.com/ImageReplacement/1.0/">
	<!ENTITY ns_sfw "http://ns.adobe.com/SaveForWeb/1.0/">
	<!ENTITY ns_custom "http://ns.adobe.com/GenericCustomNamespace/1.0/">
	<!ENTITY ns_adobe_xpath "http://ns.adobe.com/XPath/1.0/">
]>
<svg version="1.1" id="Warstwa_1" xmlns:x="&ns_extend;" xmlns:i="&ns_ai;" xmlns:graph="&ns_graphs;"
	 xmlns="http://www.w3.org/2000/svg" xmlns:xlink="http://www.w3.org/1999/xlink" x="0px" y="0px" viewBox="0 0 452.8 64.1"
	 style="enable-background:new 0 0 452.8 64.1;" xml:space="preserve">
<style type="text/css">
	.st0{fill:#030404;}
	.st1{fill:#E1F465;}
</style>
<metadata>
	<sfw  xmlns="&ns_sfw;">
		<slices></slices>
		<sliceSourceBounds  bottomLeftOrigin="true" height="64.1" width="452.8" x="91.4" y="-170.6"></sliceSourceBounds>
	</sfw>
</metadata>
<g>
	<path class="st0" d="M81.3,50.8v-36h23.9V21H88.9v8.6h14.7v6.3H88.9v14.9H81.3z"/>
	<path class="st0" d="M113.9,20.2c-1.1,0-2.1-0.4-2.9-1.1c-0.8-0.7-1.2-1.6-1.2-2.7c0-1,0.4-1.9,1.2-2.7s1.7-1.1,2.9-1.1
		c1.1,0,2.1,0.4,2.9,1.1s1.2,1.6,1.2,2.7c0,1-0.4,1.9-1.2,2.7S115,20.2,113.9,20.2z M110.1,50.8v-27h7.5v27H110.1z"/>
	<path class="st0" d="M131.1,35.1v15.6h-7.5v-27h7.1v4.8h0.3c0.6-1.6,1.6-2.8,3-3.7c1.4-0.9,3.1-1.4,5.1-1.4c1.9,0,3.5,0.4,4.9,1.2
		c1.4,0.8,2.5,2,3.3,3.5c0.8,1.5,1.2,3.3,1.2,5.4v17.2H141V34.9c0-1.7-0.4-2.9-1.3-3.9c-0.9-0.9-2-1.4-3.5-1.4c-1,0-1.9,0.2-2.7,0.7
		s-1.4,1.1-1.8,1.9C131.3,33,131.1,34,131.1,35.1z"/>
	<path class="st0" d="M164.4,51.2c-2.1,0-3.9-0.5-5.6-1.6c-1.7-1.1-3-2.6-3.9-4.7s-1.5-4.6-1.5-7.6c0-3.1,0.5-5.7,1.5-7.7
		s2.3-3.6,4-4.6s3.5-1.5,5.5-1.5c1.5,0,2.8,0.3,3.8,0.8s1.8,1.1,2.5,1.9c0.6,0.8,1.1,1.5,1.4,2.2h0.2V14.7h7.5v36h-7.4v-4.3H172
		c-0.4,0.8-0.8,1.5-1.5,2.2c-0.6,0.7-1.5,1.3-2.5,1.8S165.8,51.2,164.4,51.2z M166.7,45.2c1.2,0,2.2-0.3,3.1-1
		c0.8-0.7,1.5-1.6,1.9-2.8c0.5-1.2,0.7-2.6,0.7-4.2c0-1.6-0.2-3-0.7-4.2c-0.4-1.2-1.1-2.1-1.9-2.7c-0.8-0.6-1.9-1-3.1-1
		c-1.2,0-2.3,0.3-3.1,1c-0.8,0.7-1.5,1.6-1.9,2.8c-0.4,1.2-0.7,2.6-0.7,4.1c0,1.6,0.2,3,0.7,4.2c0.4,1.2,1.1,2.1,1.9,2.8
		C164.5,44.9,165.5,45.2,166.7,45.2z"/>
	<path class="st0" d="M205.1,51.3c-1.7,0-3.3-0.3-4.6-0.9c-1.3-0.6-2.4-1.5-3.2-2.7s-1.2-2.7-1.2-4.5c0-1.5,0.3-2.8,0.8-3.8
		c0.6-1,1.3-1.8,2.3-2.5s2-1.1,3.2-1.4c1.2-0.3,2.5-0.5,3.8-0.7c1.6-0.2,2.8-0.3,3.8-0.5c1-0.1,1.7-0.4,2.1-0.7
		c0.4-0.3,0.7-0.7,0.7-1.3v-0.1c0-1.1-0.3-2-1-2.6c-0.7-0.6-1.7-0.9-3-0.9c-1.3,0-2.4,0.3-3.2,0.9c-0.8,0.6-1.3,1.3-1.6,2.2
		l-6.9-0.6c0.4-1.6,1-3.1,2.1-4.3c1-1.2,2.4-2.1,4-2.8c1.6-0.7,3.5-1,5.7-1c1.5,0,2.9,0.2,4.3,0.5c1.4,0.4,2.6,0.9,3.7,1.6
		s1.9,1.7,2.5,2.8c0.6,1.2,0.9,2.5,0.9,4.1v18.2h-7.1V47H213c-0.4,0.8-1,1.6-1.7,2.2c-0.7,0.6-1.6,1.1-2.6,1.5
		S206.4,51.3,205.1,51.3z M207.2,46.1c1.1,0,2.1-0.2,2.9-0.7s1.5-1,2-1.8c0.5-0.8,0.7-1.6,0.7-2.6v-2.9c-0.2,0.2-0.6,0.3-1,0.4
		c-0.4,0.1-0.9,0.2-1.4,0.3c-0.5,0.1-1,0.2-1.5,0.3c-0.5,0.1-1,0.1-1.4,0.2c-0.9,0.1-1.6,0.3-2.3,0.6c-0.7,0.3-1.2,0.7-1.5,1.1
		c-0.4,0.5-0.5,1.1-0.5,1.8c0,1,0.4,1.8,1.1,2.3S206.1,46.1,207.2,46.1z"/>
	<path class="st0" d="M250.6,50.8h-12.8v-36h12.9c3.6,0,6.7,0.7,9.4,2.2c2.6,1.4,4.6,3.5,6,6.2c1.4,2.7,2.1,5.9,2.1,9.6
		c0,3.8-0.7,7-2.1,9.7s-3.4,4.8-6.1,6.2C257.4,50,254.2,50.8,250.6,50.8z M245.4,44.2h4.8c2.3,0,4.2-0.4,5.7-1.2
		c1.5-0.8,2.7-2.1,3.5-3.7c0.8-1.7,1.2-3.9,1.2-6.6c0-2.7-0.4-4.8-1.2-6.5s-1.9-2.9-3.5-3.7c-1.5-0.8-3.4-1.2-5.7-1.2h-4.9V44.2z"/>
	<path class="st0" d="M286,51.3c-2.8,0-5.2-0.6-7.2-1.7c-2-1.1-3.5-2.7-4.6-4.8s-1.6-4.5-1.6-7.4c0-2.8,0.5-5.2,1.6-7.3
		s2.6-3.7,4.6-4.9c2-1.2,4.3-1.8,6.9-1.8c1.8,0,3.4,0.3,5,0.9c1.5,0.6,2.9,1.4,4,2.6c1.2,1.1,2.1,2.6,2.7,4.3c0.6,1.7,1,3.7,1,6v2.1
		h-22.8v-4.6h15.8c0-1.1-0.2-2-0.7-2.9c-0.5-0.8-1.1-1.5-1.9-2s-1.8-0.7-2.9-0.7c-1.1,0-2.1,0.3-3,0.8c-0.9,0.5-1.6,1.2-2.1,2.1
		c-0.5,0.9-0.7,1.8-0.8,2.9v4.4c0,1.3,0.2,2.5,0.7,3.5c0.5,1,1.2,1.7,2.1,2.3s2,0.8,3.3,0.8c0.8,0,1.6-0.1,2.3-0.4
		c0.7-0.2,1.3-0.6,1.8-1.1c0.5-0.5,0.9-1,1.1-1.7l6.9,0.5c-0.4,1.7-1.1,3.1-2.2,4.4c-1.1,1.2-2.5,2.2-4.2,2.9
		C290.2,50.9,288.2,51.3,286,51.3z"/>
	<path class="st0" d="M325.8,31.4l-6.9,0.4c-0.1-0.6-0.4-1.1-0.8-1.6c-0.4-0.5-0.9-0.9-1.5-1.1c-0.6-0.3-1.4-0.4-2.2-0.4
		c-1.2,0-2.1,0.2-2.9,0.7s-1.2,1.1-1.2,1.9c0,0.6,0.3,1.2,0.8,1.6c0.5,0.4,1.4,0.8,2.7,1.1l4.9,1c2.6,0.5,4.6,1.4,5.9,2.6
		c1.3,1.2,1.9,2.8,1.9,4.7c0,1.8-0.5,3.3-1.6,4.7c-1,1.3-2.5,2.4-4.3,3.1c-1.8,0.7-3.9,1.1-6.2,1.1c-3.6,0-6.4-0.7-8.5-2.2
		c-2.1-1.5-3.4-3.5-3.7-6.1l7.4-0.4c0.2,1.1,0.8,1.9,1.6,2.5c0.9,0.6,2,0.9,3.3,0.9c1.3,0,2.4-0.3,3.2-0.8c0.8-0.5,1.2-1.2,1.2-2
		c0-0.7-0.3-1.2-0.9-1.7c-0.6-0.4-1.4-0.8-2.6-1l-4.7-0.9c-2.6-0.5-4.6-1.4-5.9-2.7c-1.3-1.3-1.9-3-1.9-5c0-1.7,0.5-3.2,1.4-4.5
		c0.9-1.3,2.3-2.2,4-2.9c1.7-0.7,3.7-1,6-1c3.4,0,6.1,0.7,8.1,2.2C324.3,27,325.5,28.9,325.8,31.4z"/>
	<path class="st0" d="M334.9,20.2c-1.1,0-2.1-0.4-2.9-1.1c-0.8-0.7-1.2-1.6-1.2-2.7c0-1,0.4-1.9,1.2-2.7s1.7-1.1,2.9-1.1
		c1.1,0,2.1,0.4,2.9,1.1s1.2,1.6,1.2,2.7c0,1-0.4,1.9-1.2,2.7S336,20.2,334.9,20.2z M331.1,50.8v-27h7.5v27H331.1z"/>
	<path class="st0" d="M356.8,61.5c-2.4,0-4.5-0.3-6.2-1c-1.7-0.7-3.1-1.6-4.1-2.7c-1-1.1-1.7-2.4-2-3.8l6.9-0.9c0.2,0.5,0.5,1,1,1.5
		s1.1,0.8,1.8,1.1c0.8,0.3,1.7,0.4,2.8,0.4c1.6,0,3-0.4,4-1.2c1.1-0.8,1.6-2.1,1.6-4V46h-0.3c-0.3,0.8-0.8,1.5-1.5,2.1
		c-0.7,0.7-1.5,1.2-2.5,1.6s-2.3,0.6-3.7,0.6c-2,0-3.9-0.5-5.5-1.4s-3-2.4-4-4.3s-1.5-4.4-1.5-7.4c0-3.1,0.5-5.6,1.5-7.7
		s2.3-3.6,4-4.6c1.7-1,3.5-1.5,5.5-1.5c1.5,0,2.8,0.3,3.8,0.8s1.8,1.1,2.5,1.9c0.6,0.8,1.1,1.5,1.5,2.2h0.3v-4.5h7.4V51
		c0,2.3-0.6,4.2-1.7,5.8c-1.1,1.5-2.7,2.7-4.7,3.5C361.7,61.1,359.4,61.5,356.8,61.5z M357,44.7c1.2,0,2.2-0.3,3.1-0.9
		c0.8-0.6,1.5-1.5,1.9-2.6c0.5-1.1,0.7-2.5,0.7-4.1s-0.2-3-0.7-4.1c-0.4-1.2-1.1-2.1-1.9-2.7c-0.8-0.6-1.9-1-3.1-1
		c-1.2,0-2.3,0.3-3.1,1c-0.8,0.7-1.5,1.6-1.9,2.8c-0.4,1.2-0.7,2.5-0.7,4.1c0,1.6,0.2,2.9,0.7,4c0.4,1.1,1.1,2,1.9,2.6
		C354.7,44.4,355.7,44.7,357,44.7z"/>
	<path class="st0" d="M383.5,35.1v15.6H376v-27h7.1v4.8h0.3c0.6-1.6,1.6-2.8,3-3.7c1.4-0.9,3.1-1.4,5.1-1.4c1.9,0,3.5,0.4,4.9,1.2
		s2.5,2,3.3,3.5c0.8,1.5,1.2,3.3,1.2,5.4v17.2h-7.5V34.9c0-1.7-0.4-2.9-1.3-3.9c-0.9-0.9-2-1.4-3.5-1.4c-1,0-1.9,0.2-2.7,0.7
		c-0.8,0.4-1.4,1.1-1.8,1.9C383.7,33,383.5,34,383.5,35.1z"/>
	<path class="st0" d="M419.1,51.3c-2.8,0-5.2-0.6-7.2-1.7c-2-1.1-3.5-2.7-4.6-4.8s-1.6-4.5-1.6-7.4c0-2.8,0.5-5.2,1.6-7.3
		s2.6-3.7,4.6-4.9c2-1.2,4.3-1.8,6.9-1.8c1.8,0,3.4,0.3,5,0.9c1.5,0.6,2.9,1.4,4,2.6c1.2,1.1,2.1,2.6,2.7,4.3c0.6,1.7,1,3.7,1,6v2.1
		h-22.8v-4.6h15.8c0-1.1-0.2-2-0.7-2.9c-0.5-0.8-1.1-1.5-1.9-2S420,29,419,29c-1.1,0-2.1,0.3-3,0.8c-0.9,0.5-1.6,1.2-2.1,2.1
		c-0.5,0.9-0.7,1.8-0.8,2.9v4.4c0,1.3,0.2,2.5,0.7,3.5c0.5,1,1.2,1.7,2.1,2.3s2,0.8,3.3,0.8c0.8,0,1.6-0.1,2.3-0.4
		c0.7-0.2,1.3-0.6,1.8-1.1c0.5-0.5,0.9-1,1.1-1.7l6.9,0.5c-0.4,1.7-1.1,3.1-2.2,4.4c-1.1,1.2-2.5,2.2-4.2,2.9
		C423.3,50.9,421.4,51.3,419.1,51.3z"/>
	<path class="st0" d="M436.4,50.8v-27h7.3v4.7h0.3c0.5-1.7,1.3-2.9,2.5-3.8c1.2-0.9,2.5-1.3,4-1.3c0.4,0,0.8,0,1.2,0.1
		c0.4,0,0.8,0.1,1.1,0.2v6.7c-0.4-0.1-0.8-0.2-1.5-0.3c-0.6-0.1-1.2-0.1-1.7-0.1c-1.1,0-2.1,0.2-2.9,0.7s-1.5,1.1-2,2
		c-0.5,0.8-0.7,1.8-0.7,2.9v15.3H436.4z"/>
</g>
<g>
	<g>
		<g>
			<polygon class="st0" points="60.9,60.8 59.4,60.8 59.4,60.2 60.2,60.2 60.2,59.4 60.9,59.4 			"/>
			<path class="st0" d="M57.2,60.8H55v-0.7h2.2V60.8z M52.8,60.8h-2.2v-0.7h2.2V60.8z M48.4,60.8h-2.2v-0.7h2.2V60.8z M43.9,60.8
				h-2.2v-0.7h2.2V60.8z M39.5,60.8h-2.2v-0.7h2.2V60.8z M35.1,60.8h-2.2v-0.7h2.2V60.8z M30.7,60.8h-2.2v-0.7h2.2V60.8z M26.3,60.8
				h-2.2v-0.7h2.2V60.8z M21.9,60.8h-2.2v-0.7h2.2V60.8z M17.4,60.8h-2.2v-0.7h2.2V60.8z M13,60.8h-2.2v-0.7H13V60.8z M8.6,60.8H6.4
				v-0.7h2.2V60.8z"/>
			<polygon class="st0" points="4.2,60.8 2.7,60.8 2.7,59.4 3.4,59.4 3.4,60.2 4.2,60.2 			"/>
			<path class="st0" d="M3.4,57.2H2.7V55h0.7V57.2z M3.4,52.8H2.7v-2.2h0.7V52.8z M3.4,48.3H2.7v-2.2h0.7V48.3z M3.4,43.9H2.7v-2.2
				h0.7V43.9z M3.4,39.5H2.7v-2.2h0.7V39.5z M3.4,35.1H2.7v-2.2h0.7V35.1z M3.4,30.7H2.7v-2.2h0.7V30.7z M3.4,26.3H2.7V24h0.7V26.3z
				 M3.4,21.8H2.7v-2.2h0.7V21.8z M3.4,17.4H2.7v-2.2h0.7V17.4z M3.4,13H2.7v-2.2h0.7V13z M3.4,8.6H2.7V6.4h0.7V8.6z"/>
			<polygon class="st0" points="3.4,4.2 2.7,4.2 2.7,2.7 4.2,2.7 4.2,3.4 3.4,3.4 			"/>
			<path class="st0" d="M57.2,3.4H55V2.7h2.2V3.4z M52.8,3.4h-2.2V2.7h2.2V3.4z M48.4,3.4h-2.2V2.7h2.2V3.4z M43.9,3.4h-2.2V2.7h2.2
				V3.4z M39.5,3.4h-2.2V2.7h2.2V3.4z M35.1,3.4h-2.2V2.7h2.2V3.4z M30.7,3.4h-2.2V2.7h2.2V3.4z M26.3,3.4h-2.2V2.7h2.2V3.4z
				 M21.9,3.4h-2.2V2.7h2.2V3.4z M17.4,3.4h-2.2V2.7h2.2V3.4z M13,3.4h-2.2V2.7H13V3.4z M8.6,3.4H6.4V2.7h2.2V3.4z"/>
			<polygon class="st0" points="60.9,4.2 60.2,4.2 60.2,3.4 59.4,3.4 59.4,2.7 60.9,2.7 			"/>
			<path class="st0" d="M60.9,57.2h-0.7V55h0.7V57.2z M60.9,52.8h-0.7v-2.2h0.7V52.8z M60.9,48.3h-0.7v-2.2h0.7V48.3z M60.9,43.9
				h-0.7v-2.2h0.7V43.9z M60.9,39.5h-0.7v-2.2h0.7V39.5z M60.9,35.1h-0.7v-2.2h0.7V35.1z M60.9,30.7h-0.7v-2.2h0.7V30.7z M60.9,26.3
				h-0.7V24h0.7V26.3z M60.9,21.8h-0.7v-2.2h0.7V21.8z M60.9,17.4h-0.7v-2.2h0.7V17.4z M60.9,13h-0.7v-2.2h0.7V13z M60.9,8.6h-0.7
				V6.4h0.7V8.6z"/>
		</g>
		<rect y="0.8" class="st1" width="7.2" height="7.2"/>
		<rect x="56.4" class="st0" width="7.2" height="7.2"/>
		<rect x="56.4" y="56.9" class="st1" width="7.2" height="7.2"/>
		<rect y="56.9" class="st0" width="7.2" height="7.2"/>
	</g>
	<g>
		<g>
			<path class="st1" d="M30.2,15v15.8h1.1c1.7,0,3.1-0.3,4.2-0.8c1.1-0.5,2-1.4,2.7-2.6c0.7-1.2,1.2-2.9,1.5-4.9h1v19.3h-1
				c-0.4-3.7-1.3-6.1-2.9-7.2c-1.6-1.2-3.4-1.7-5.4-1.7h-1.1v11.8c0,2,0.1,3.2,0.3,3.7c0.2,0.5,0.6,0.9,1.3,1.3
				c0.6,0.4,1.5,0.6,2.6,0.6h1.3v1.1H15.5v-1.1h1.3c1.1,0,2-0.2,2.7-0.6c0.5-0.3,0.9-0.7,1.1-1.4c0.2-0.5,0.3-1.6,0.3-3.6V19.4
				c0-2-0.1-3.2-0.3-3.7c-0.2-0.5-0.6-0.9-1.3-1.3c-0.6-0.4-1.5-0.6-2.6-0.6h-1.3v-1.1h32.5v11.1h-1.2c-0.3-2.6-0.9-4.5-2-5.8
				s-2.7-2.1-4.7-2.6C39,15.2,36.9,15,33.8,15H30.2z"/>
		</g>
	</g>
</g>
</svg>
