<?xml version="1.0" encoding="utf-8"?>
<!-- Generator: Adobe Illustrator 27.3.1, SVG Export Plug-In . SVG Version: 6.00 Build 0)  -->
<!DOCTYPE svg PUBLIC "-//W3C//DTD SVG 1.1//EN" "http://www.w3.org/Graphics/SVG/1.1/DTD/svg11.dtd" [
	<!ENTITY ns_extend "http://ns.adobe.com/Extensibility/1.0/">
	<!ENTITY ns_ai "http://ns.adobe.com/AdobeIllustrator/10.0/">
	<!ENTITY ns_graphs "http://ns.adobe.com/Graphs/1.0/">
	<!ENTITY ns_vars "http://ns.adobe.com/Variables/1.0/">
	<!ENTITY ns_imrep "http://ns.adobe.com/ImageReplacement/1.0/">
	<!ENTITY ns_sfw "http://ns.adobe.com/SaveForWeb/1.0/">
	<!ENTITY ns_custom "http://ns.adobe.com/GenericCustomNamespace/1.0/">
	<!ENTITY ns_adobe_xpath "http://ns.adobe.com/XPath/1.0/">
]>
<svg version="1.1"
	 id="svg1167" xmlns:x="&ns_extend;" xmlns:i="&ns_ai;" xmlns:graph="&ns_graphs;" xmlns:svg="http://www.w3.org/2000/svg"
	 xmlns="http://www.w3.org/2000/svg" xmlns:xlink="http://www.w3.org/1999/xlink" x="0px" y="0px" viewBox="0 0 982.6 679.2"
	 style="enable-background:new 0 0 982.6 679.2;" xml:space="preserve">
<style type="text/css">
	.st0{fill:#006645;}
	.st1{fill:#E20613;}
	.st2{fill:#008A91;}
</style>
<metadata>
	<sfw  xmlns="&ns_sfw;">
		<slices></slices>
		<sliceSourceBounds  bottomLeftOrigin="true" height="679.2" width="982.6" x="20.7" y="20.4"></sliceSourceBounds>
	</sfw>
</metadata>
<path id="path913" class="st0" d="M645.7,316.1l-61-154l-79.3,170.1C478.6,386,390.8,401.5,329.6,410l11.3-22.9l177.4-335h138.4
	l99.1,203.3l43.6,96.3L889,545.4l-61.9-0.3l-48.2-0.3c-20.1,0.3-39.9-1.2-48.5-22.6l-17.1-41.5L684.7,411L645.7,316.1z"/>
<rect id="rect917" y="600.6" class="st0" width="914" height="78.7"/>
<path id="path919" class="st1" d="M980.8,0L980.8,0l-36.6,19.5L814.3,87.8c0,0-44.8,24.1-73.5,30.2l0.3,0.3l-0.3-0.3
	c7.9,24.7,15.9,40.5,23.5,53c2.1,3.7,5.5,6.7,9.1,8.8c4.9,3,10.4,4.6,16.2,4.9c5.8,0.3,11.6-0.9,17.1-3.7l174.7-93.9L980.8,0z"/>
<path id="path921" class="st2" d="M757.3,256.1l-110.1,61c-138.1,75.3-317.7,148.2-473.2,135.4c-65.9-5.5-105.2-30.2-101.5-72.3
	c4.3-47.9,45.7-98.2,118.3-148.5c55.5-38.4,104.3-59.4,129.9-68.3c33.5-11.9,62.2-17.1,92.7-18.6c7.3,0,14.3,0.6,19.5,2.1
	c0-0.9-0.3-1.8-0.6-2.7l0,0c-14-89.3-37.2-101.2-74.1-100c-103,3.4-232.3,74.4-300.9,157C20.4,245.4,1.8,298.5,0.9,336.3
	c-1.2,57.9,21.6,136.9,92.4,177.1c78.7,44.8,191.2,41.8,293.3,18.6c109.8-24.7,205.8-72.3,300-120.1l114.3-59.4l181.1-104l0.6-113.1
	L757.3,256.1z"/>
</svg>
