<?xml version="1.0" encoding="utf-8"?>
<!-- Generator: Adobe Illustrator 27.3.1, SVG Export Plug-In . SVG Version: 6.00 Build 0)  -->
<!DOCTYPE svg PUBLIC "-//W3C//DTD SVG 1.1//EN" "http://www.w3.org/Graphics/SVG/1.1/DTD/svg11.dtd" [
	<!ENTITY ns_extend "http://ns.adobe.com/Extensibility/1.0/">
	<!ENTITY ns_ai "http://ns.adobe.com/AdobeIllustrator/10.0/">
	<!ENTITY ns_graphs "http://ns.adobe.com/Graphs/1.0/">
	<!ENTITY ns_vars "http://ns.adobe.com/Variables/1.0/">
	<!ENTITY ns_imrep "http://ns.adobe.com/ImageReplacement/1.0/">
	<!ENTITY ns_sfw "http://ns.adobe.com/SaveForWeb/1.0/">
	<!ENTITY ns_custom "http://ns.adobe.com/GenericCustomNamespace/1.0/">
	<!ENTITY ns_adobe_xpath "http://ns.adobe.com/XPath/1.0/">
]>
<svg version="1.1" id="layer" xmlns:x="&ns_extend;" xmlns:i="&ns_ai;" xmlns:graph="&ns_graphs;"
	 xmlns="http://www.w3.org/2000/svg" xmlns:xlink="http://www.w3.org/1999/xlink" x="0px" y="0px" viewBox="0 0 871.5 499.9"
	 style="enable-background:new 0 0 871.5 499.9;" xml:space="preserve">
<style type="text/css">
	.st0{fill:#FFFFFF;}
	.st1{fill:none;stroke:#FFFFFF;stroke-width:0.1513;stroke-miterlimit:3.864;}
</style>
<metadata>
	<sfw  xmlns="&ns_sfw;">
		<slices></slices>
		<sliceSourceBounds  bottomLeftOrigin="true" height="499.9" width="871.5" x="-114.8" y="79.8"></sliceSourceBounds>
	</sfw>
</metadata>
<g>
	<g>
		<path d="M763.6,271.7c-4.6-4.5-12-2.8-12-2.8l19.7-32.8c0,0-3,12.9-1.8,23.7c1.1,9.3,5.6,16.7,14.3,17.5
			c10.6,0.9,19.2-10.9,16.4-39.2c-1-10.2-1.6-13-2.6-30.9c-1.3-24.7,6-42.1,22.2-46.9c16.7-5.3,31.4,3.3,42.4,16.4
			c3.3,3.9,9.3-0.5,9.3-0.5l-18.7,31.7c0,0,3.3-10,2.7-18.7c-0.8-11.4-6.9-18.4-14.4-19c-9.9-0.8-18,9.2-14.2,36.3
			c3.5,24.9,7.2,46.1-3.7,65.7c-8.5,15.2-23.2,20.4-37.6,15.7C771.1,283.1,766.2,274.1,763.6,271.7"/>
		<path d="M37.1,285.3c-12.8-5.7-25.1-22.3-24.3-38c0.9-17.3,15.9-27.2,25.9-26.2s18.5,12.6,15.9,21.2c-3.1-4.7-12.5-2.1-15.1,5.7
			c-2.7,8.1,1.6,18.8,8.3,24.2c6.8,5.5,14.6,7.8,22.7,5.7c8.1-2.1,15.4-8.3,16.4-16.7c1.1-8.3-1.3-14.9-8.5-26.9
			c-5.5-9.1-63-104.7-66.2-110C8.5,118.1,0,119.6,0,119.6s9.4-6.4,20.2-12.8c10.8-6.5,19-11.1,19-11.1s-3.7,5.5-0.1,12.1
			c2.6,4.8,49.4,88.5,60.7,109c12.8,23.3,6.3,46.8-11.7,59.5C65.7,292.1,49.8,291,37.1,285.3"/>
		<path d="M722,245.9c-13-7.8-24.5-12.9-24.5-12.9s7.3,1.4,13.2-11c6.7-14.1,42.8-90.1,46.4-97.7c4.4-9.3,1.2-13.1,1.2-13.1
			s9.1,4.3,19.1,9.6c10,5.4,17,9,17,9s-6.3-2.3-11.4,7.4c-5.1,9.7-52.9,103.8-52.9,103.8c18.7,10.6,38-3.1,38-3.1L748.5,262
			C748.5,262.1,735.1,253.8,722,245.9"/>
		<path d="M666.3,219.1c-13.8-5.7-28.5-10.7-28.5-10.7s6.6-1.1,9.5-9.1s34.4-97.3,37.6-106c3.2-8.8-0.2-12.4-0.2-12.4
			s12.1,3.9,27.1,10s27.9,11.8,27.9,11.8l-7.7,29.9c0,0,2.1-21.2-10.4-26.7c-4.8-2.1-9.3-4.1-9.3-4.1L695.4,146c0,0,4.7,2.1,8.7,3.7
			c6.8,2.7,15.2-6.8,15.2-6.8l-15.5,35.3c0,0,4.7-16.9-3.7-20.3c-2.7-1.1-8.1-3.4-8.1-3.4l-22.4,58.3c24.2,9.9,35.2-2.1,35.2-2.1
			l-11.7,20.4C693.1,231.1,680,224.8,666.3,219.1"/>
		<path d="M610.2,199.8c-6.9-2.2-17.3-4.7-17.3-4.7s6.3-0.4,9.4-11.1c3.1-10.7,26.6-96.9,29.4-106.8c2.8-10-1.1-12.7-1.1-12.7
			s10.4,2.7,18.9,5.2s18.7,5.3,18.7,5.3s-6.9-0.8-9.9,8.3S627.7,183.8,625,192.2c-2.7,8.4,1.4,12.7,1.4,12.7S617.2,202,610.2,199.8"
			/>
		<path d="M183.8,185c-10.7-17.2-21.9-48.3-21.8-72.2c0.2-23.9,14.1-36.9,35.8-40.3c9.2-1.2,10.5-7.6,10.5-7.6s8.5,29.5,13,44.2
			c-6-15.6-15.3-33.8-28.6-29.4c-11.3,3.7-11.8,17.3-2.4,44.7c0,0,17.1,49.7,20.1,58.5c4.6,13.4,12.6,18.8,20.5,16.2
			c10.3-3.3,9.6-16.2,6.2-26.8c-3.3-10.4-6.5-13.3-9.6-15.9c5.2-1.8,10.8,1,14.6,5.5c5,5.7,8.5,17.8,6.5,26.8s-6.9,14.5-18.7,18.6
			C212.1,213.3,194.5,202.1,183.8,185"/>
		<path d="M130.4,248.4c-5.4,3.2-10.6,6.3-10.6,6.3s3.9-3.7,2.3-11.8c-1.6-8.2-26.6-111.6-28.2-118.5c-2-8.6-8-6.8-8-6.8l27.7-13.4
			c0,0,73.8,97.3,78.1,102.9c5.9,7.6,13.9,6.2,13.9,6.2s-8.7,3.1-19.2,7.6s-19.4,8.6-19.4,8.6s4.3-4.2-0.7-10.7
			c-3.6-4.7-16.1-21.1-16.1-21.1s-6.1,2.8-13.1,6.4s-11.5,6.1-11.5,6.1s5,20.7,6.2,26.1c1.8,8.3,8.7,6.5,8.7,6.5
			S135.9,245.3,130.4,248.4 M144.3,189.9l-35.5-51.2l14.5,61.5c0,0,5.3-2.7,10.4-5.2C138.6,192.4,144.3,189.9,144.3,189.9"/>
		<path d="M227.8,74.4c-2.4-9-7.1-8.5-7.1-8.5s7.8-2.2,18.7-4.8s19.5-4.5,19.5-4.5s-5.1,2-3.1,10.9c1.7,7.5,9.5,40.9,9.5,40.9
			s16.3-39.6,19-45.6c4.7-10.8-2.6-10.7-2.6-10.7s5.2-1,10.6-1.9c5.4-0.9,13.6-2.2,13.6-2.2s-5,1.4-7.6,7.9
			c-2.2,5.4-20.9,50.3-20.9,50.3s2.7,6.9,10.6,8c7.8,1.1,13.4-2.4,13.4-2.4s24.4,53.5,27.2,59.1c4.7,9.4,11.5,9.6,11.5,9.6
			s-17,2.4-24.6,3.7c-7.3,1.3-11.4-1.4-14-6.7c-4.7-9.9-29-59.4-29-59.4l-3.2,7.5c0,0,10.9,47.2,12.4,53.9c1.8,7.8,9.3,9.3,9.3,9.3
			s-9.5,1.9-17.6,3.9c-8.1,2-18.2,4.7-18.2,4.7s4.5-4.8,2.5-12.1C255.9,178,229.7,81.6,227.8,74.4"/>
		<path d="M515.9,180.4c-2.6-0.3-5.2-0.7-7.9-1c-17.1-2-31.6-2.9-31.6-2.9s4.5-2.5,3.7-11.2c-0.9-9.9-3.6-25.8-3.6-25.8
			s-8.2-0.8-15.5-1.1s-11.2-0.5-11.2-0.5s-5.9,19.1-8,26.1c-3.1,10.6,1.6,10.9,1.6,10.9h-20.9c0,0,6.7-1.5,10-12.8
			c3.3-11.4,29.9-103.4,32.7-111.8c3.1-9.3-2.4-10.7-2.4-10.7l29.1,1.7c0,0,15.4,115.1,16.6,123.6c0.8,5.8,1.1,11.8,4.1,12.2
			c3,0.5,5.4-4.7,6.2-9.4c1.2-7.9,13.8-100,15.2-109.3c1.4-9.4-1.8-13-1.8-13l28.9,4.5l17.9,88.8c0,0,14-63.4,16-72
			c2-8.6-2.2-11.2-2.2-11.2l22.3,5c0,0-5.2,0.6-7.4,9.4c-1.9,7.7-29.2,121.6-29.2,121.6l-17.2-3.7l-18.7-97.5
			c0,0-11.3,72.1-12.6,79.7c-1.6,10,2.3,12.7,2.3,12.7s-10.9-1.6-24.9-3.5 M461.6,130.4c6.3,0.2,13.8,0.6,13.8,0.6l-6-64.1
			l-17.3,63.2C452.2,130,455.3,130.2,461.6,130.4"/>
		<path d="M810.7,133c7.9-0.1,14.2-6.7,10.2-9.7c-3.6-2.7-4.5-7.5-2.2-11.6c2.8-5.1,8.6-6.3,13.9-3.6c4.9,2.4,6.9,9.6,2.8,16.3
			S822.1,134.8,810.7,133"/>
		<path d="M352.6,179c0,0,8.4-4.8,7.5-14.6c-1-9.8-11.3-146.6-11.8-152.1c-0.8-7.7-7.2-8.8-7.2-8.8s30-2.9,48.3-3.5
			c22.3-0.7,48.1,14.9,47.7,89.7c-0.4,75.8-25.1,85.2-39.1,85.8C383.8,176.1,352.6,179,352.6,179 M377.1,10.9l9.8,153.2
			c20-1.9,23.9-13.3,21.1-83.4C405.4,18.2,396.7,9,377.1,10.9"/>
		<path class="st0" d="M809.6,296.7c2.5-3.8,7.3-4.8,11-2.3c3.6,2.4,4.6,7.2,2.1,11.1c-2.6,3.9-7.4,4.8-11,2.4
			C808,305.4,807.1,300.6,809.6,296.7 M810.8,309.2c4.4,2.9,10.4,2,13.5-2.7c3.1-4.6,1.6-10.6-2.8-13.5c-4.4-3-10.5-2-13.6,2.6
			C804.9,300.3,806.4,306.3,810.8,309.2 M814.1,300.6l1.6,1.1l-0.2,5.7l1.6,1.1l0.1-5.9c1.5,0.7,3,0.7,4.1-1
			c1.2-1.8,0.7-3.4-1.5-4.8l-3.5-2.4l-6.2,9.3l1.4,0.9L814.1,300.6z M814.9,299.4l1.9-2.9l1.9,1.3c1,0.7,1.9,1.6,1.1,2.7
			c-1,1.4-2.1,0.8-3.3,0L814.9,299.4z"/>
		<path d="M428.9,499.9c-72.7,0-131.7-59-131.7-131.7s58.9-131.7,131.7-131.7c72.7,0,131.7,59,131.7,131.7S501.6,499.9,428.9,499.9"
			/>
		<path class="st0" d="M410.3,278.4c0,8.9-7.7,16.1-17.1,16.1c-9.5,0-17.1-7.2-17.1-16.1s7.7-16.2,17.1-16.2
			C402.6,262.3,410.3,269.5,410.3,278.4 M393.2,288.4c5.5,0,9.9-4.4,9.9-9.9s-4.4-9.9-9.9-9.9s-9.9,4.4-9.9,9.9
			C383.3,283.9,387.7,288.4,393.2,288.4"/>
	</g>
	<polygon class="st0" points="418.8,253.9 418.8,294.6 441,294.6 441,287.3 426.3,287.3 426.3,253.9 	"/>
	<g>
		<path class="st0" d="M464.2,262.3c7.8,0,12.7,5.4,13.8,11.2c0.5,3,0.4,3.6,0.4,6.3c0,5.5-2.3,14.9-12.9,14.9h-15.4v-32.3
			C450.1,262.3,456.8,262.3,464.2,262.3 M457.1,288.3h7c5,0,6.8-5.1,7.1-8c0.2-1.9,0.1-3.3-0.2-5.2c-0.5-2.6-3-6.6-6.8-6.6
			c-3,0-7,0-7,0v19.8H457.1z"/>
		<path class="st0" d="M323.2,311.8v9.5c0,0,12.3,3.5,12.3,18v67.8c0,5.8,0.7,16-11.3,18.8v8.8h30.9v-10c0,0-4.3-1.1-5.5-2.3
			c-1.1-1.1-4.3-0.9-4.3-15.7v-38c0,0,33.8,62.4,34.5,63.4s0.8,2.7,3.9,2.7h11.4v-98.6c0-4.5,3-15,10.9-15V313h-33.9v6.9
			c5.2,0.6,11.6,0.6,11.6,14v36.3c0,3.3-1.9,4.7-3.9,0.5c-2.4-5.1-27.8-58.8-27.8-58.8L323.2,311.8L323.2,311.8z"/>
	</g>
	<rect x="412.7" y="363.7" class="st0" width="34.8" height="8.6"/>
	<g>
		<path class="st0" d="M480.1,315.8H541c0.8,0,2,0.2,0.6,1.8c-1.3,1.5-33.8,43.1-40.2,66.2c-6.4,23.1-1.7,34.6,13.1,32.8
			c5.8-0.7,9.8-6.3,10.5-7.2c1.1-1.4,2-2.4,0.8,1.6c-2.6,8.4-12.3,23.1-26.7,27c-10.2,2.8-18.8,1.1-23.6-0.9
			c-4.8-2.1-11.1-6.6-13.9-11.1c-2.7-4.5-6.4-12.9-2.8-26.9c2.6-10,9.4-22.8,17.9-32.5c5.5-6.3,16.7-19.3,35.6-35
			c0.5-0.4-0.9-0.1-1.8,0.3c-5.6,2.2-12.4,9.3-21.7,9.3h-12.9c-2.5,0-8.3,1.2-10.5,8.4c-0.1,0.5-6.8,0.7-6.8,0
			c-0.1-0.7,8.1-26.3,10.8-34.8c1.1-3.5,1.1-6.5,5.5-5.3c4,1.1,2.7,3.5,2.8,4.8C477.9,315.7,478.6,315.8,480.1,315.8"/>
		<path class="st0" d="M410.9,336.1c0-12.5,8.8-22.6,19.6-22.6c10.8,0,19.6,10.1,19.6,22.6s-8.8,22.6-19.6,22.6
			S410.9,348.6,410.9,336.1 M430.5,350.9c6,0,10.9-6.6,10.9-14.8c0-8.2-4.9-14.8-10.9-14.8s-10.9,6.6-10.9,14.8
			C419.5,344.3,424.4,350.9,430.5,350.9"/>
		<path class="st0" d="M396.6,449.7c-2.7-1.5-6.7-1.1-7.3-1.1c-7.5,0-13.7,6.2-14,15.9c-0.3,9.6,7.2,17.6,17.8,17.6
			c0.6,0,2.2-0.1,3.6-0.7v-7.3c0,0-0.7,0.5-2.3,0.8c-0.8,0.1-1.7,0.2-2.3,0.2c-7.3,0-10.1-4.3-10.1-10.4c0-4.6,3.3-9.1,8.5-9.1
			c2.9,0,4.9,1.1,6,2.3L396.6,449.7z"/>
		<path class="st1" d="M396.7,449.7c-2.8-1.5-6.8-1.1-7.4-1.1c-7.6,0-13.7,6.3-14.1,15.9c-0.3,9.7,7.2,17.7,17.9,17.7
			c0.6,0,2.2-0.1,3.6-0.7v-7.4c0,0-0.7,0.5-2.3,0.8c-0.8,0.1-1.7,0.2-2.3,0.2c-7.3,0-10.2-4.4-10.2-10.4c0-4.6,3.3-9.1,8.5-9.1
			c2.9,0,4.9,1.1,6.1,2.3L396.7,449.7z"/>
		<path class="st0" d="M464.9,454.9h-2.2v7.5h3c2.4,0,3.3-2.4,3.3-3.7C468.9,455.9,466.7,454.9,464.9,454.9 M470.9,471
			c0-3.6-2.5-3.6-5-3.6c-0.6,0-1.7,0-3.5,0v8.4C465.7,475.1,470.9,474.8,470.9,471 M456.2,481.8v-32.4h8.9c3.4,0,9.8,1.3,9.8,7.1
			c0,0.6,0,2.9-0.9,4.5c-0.5,1.1-1.6,2.1-2.5,2.8c4.1,0.5,6.1,2.8,6.1,6.4c0,7-7.6,9.6-13.8,10.9c-2.3,0.5-5.9,1.1-6.5,1.1
			C456.8,482.3,456.5,482.1,456.2,481.8"/>
		<path class="st1" d="M464.8,454.8h-2.2v7.5h3c2.5,0,3.3-2.4,3.3-3.8C468.9,455.8,466.7,454.8,464.8,454.8z M470.9,471
			c0-3.6-2.5-3.6-5-3.6c-0.6,0-1.7,0-3.5,0v8.4C465.7,475.2,470.9,474.9,470.9,471z M456.2,481.8v-32.5h8.9c3.4,0,9.8,1.3,9.8,7.1
			c0,0.6,0,2.9-0.9,4.5c-0.5,1.1-1.7,2.1-2.5,2.9c4.2,0.5,6.1,2.8,6.1,6.5c0,7.1-7.6,9.6-13.8,11c-2.3,0.5-6,1.1-6.5,1.1
			C456.8,482.4,456.4,482.2,456.2,481.8z"/>
	</g>
	<polygon class="st0" points="403.6,482.9 419.3,484.5 419.3,478 410,477 410,449.6 403.6,449.6 	"/>
	<polygon class="st1" points="403.5,483 419.3,484.6 419.3,478 410,477 410,449.6 403.5,449.6 	"/>
	<g>
		<path class="st0" d="M424.1,473.3c0,3.4,1.6,7.4,5.2,9.9c2.4,1.6,4.2,2,7.1,2c2.5,0,4.1-0.3,6.2-1.5c3.9-2.2,6.1-6.4,6.1-9.6
			v-24.5h-6.2v22.7c0,2-1.5,6.3-6.1,6.3c-4,0-5.9-4.1-5.9-7l-0.1-22H424L424.1,473.3z"/>
		<path class="st1" d="M424,473.3c0,3.4,1.6,7.5,5.3,9.9c2.4,1.6,4.3,2,7.2,2c2.5,0,4.1-0.3,6.3-1.5c3.9-2.2,6.1-6.5,6.1-9.6v-24.6
			h-6.2v22.8c0,2.1-1.5,6.3-6.1,6.3c-4.1,0-5.9-4.1-5.9-7l-0.1-22.1h-6.4L424,473.3z"/>
	</g>
</g>
</svg>
